<?xml version="1.0" encoding="UTF-8" standalone="no"?>
<svg
   width="1862.807"
   height="647.29688"
   viewBox="0 0 492.86767 171.26397"
   version="1.1"
   id="svg8"
   shape-rendering="crispEdges"
   xml:space="preserve"
   xmlns="http://www.w3.org/2000/svg"
   xmlns:svg="http://www.w3.org/2000/svg"
   xmlns:rdf="http://www.w3.org/1999/02/22-rdf-syntax-ns#"
   xmlns:cc="http://creativecommons.org/ns#"
   xmlns:dc="http://purl.org/dc/elements/1.1/"><defs
     id="defs2" /><metadata
     id="metadata5"><rdf:RDF><cc:Work
         rdf:about=""><dc:format>image/svg+xml</dc:format><dc:type
           rdf:resource="http://purl.org/dc/dcmitype/StillImage" /><dc:title /></cc:Work></rdf:RDF></metadata><g
     id="layer1"
     transform="translate(-2310.2196,373.42627)"><g
       id="g55836"
       transform="matrix(3.8482851,0,0,3.8482851,-6917.1724,-1242.729)"><path
         style="fill:#575556;fill-opacity:1;stroke:none;stroke-width:0.264583;stroke-opacity:1"
         d="m 2488.0161,225.89354 h 1.9844 1.9843 c 0,5.99722 0,11.99444 0,17.99166 4.3215,0 8.6431,0 12.9646,0 0,-5.99722 0,-11.99444 0,-17.99166 1.367,7e-5 2.7341,1.5e-4 4.1011,2.2e-4 0,5.95305 0,11.9061 0,17.85915 4.2774,0.0473 8.5549,0.0945 12.8323,0.1418 0,-6.00036 0,-12.00071 0,-18.00107 h 1.9843 1.9844 c 0,7.40833 0,14.81667 0,22.225 h -18.9177 -18.9177 c 0,-7.40837 0,-14.81673 0,-22.2251 z"
         id="path54468" /><path
         d="m 2397.7932,245.86958 v -1.98438 h 18.9177 18.9177 v 1.98438 1.98437 h -18.9177 -18.9177 z m 45.2437,0 v -1.98438 h 18.9177 18.9177 v 1.98438 1.98437 h -18.9177 -18.9177 z m -45.2437,-8.99585 v -1.98437 h 18.9177 18.9177 v 1.98437 1.98438 h -18.9177 -18.9177 z m 45.2437,0 v -1.98437 h 18.9177 18.9177 v 1.98437 1.98438 h -18.9177 -18.9177 z m -45.2437,-8.99583 v -1.98437 h 18.9177 18.9177 v 1.98437 1.98438 h -18.9177 -18.9177 z m 45.2437,0 v -1.98437 h 18.9177 18.9177 v 1.98437 1.98438 h -18.9177 -18.9177 z"
         style="fill:#01b0ec;fill-opacity:1;stroke:none;stroke-width:0.264583;stroke-opacity:1"
         id="path55267" /></g><g
       id="g72073"
       transform="matrix(0.10100436,0,0,-0.10100436,2274.3291,-182.97149)"
       style="fill:#575556;fill-opacity:1"><path
         d="m 3396,596 c -91,-34 -138,-100 -138,-194 -1,-130 79,-212 207,-212 72,0 111,17 157,68 85,94 56,267 -53,322 -54,28 -124,34 -173,16 z m 154,-48 c 60,-41 75,-71 75,-152 0,-64 -3,-77 -27,-108 -55,-72 -163,-87 -234,-33 -45,34 -64,79 -64,148 0,62 25,108 79,144 47,32 125,32 171,1 z"
         id="path71664"
         style="fill:#575556;fill-opacity:1" /><path
         d="m 5006,600 c -84,-27 -146,-112 -146,-202 0,-123 84,-208 205,-208 65,0 110,17 145,55 l 25,27 -30,24 c -25,20 -31,21 -38,9 -13,-24 -63,-45 -106,-45 -142,0 -163,231 -24,269 38,11 94,-1 113,-24 16,-20 27,-19 55,3 28,22 20,41 -28,71 -38,23 -128,35 -171,21 z"
         id="path71666"
         style="fill:#575556;fill-opacity:1" /><path
         d="M 370,395 V 190 h 140 140 v 35 35 H 550 450 v 50 50 h 85 85 v 35 35 h -85 -85 v 50 50 h 95 95 v 35 35 H 505 370 Z"
         id="path71668"
         style="fill:#575556;fill-opacity:1" /><path
         d="M 880,395 V 190 h 140 140 v 35 35 H 1060 960 v 50 50 h 85 85 v 35 35 h -85 -85 v 50 50 h 95 95 v 35 35 H 1015 880 Z"
         id="path71670"
         style="fill:#575556;fill-opacity:1" /><path
         d="m 1360,597 c 0,-4 124,-341 141,-382 12,-30 12,-29 74,100 62,129 63,130 75,100 39,-101 104,-225 111,-212 5,8 39,100 77,206 l 69,192 -40,-3 -40,-3 -41,-114 c -35,-101 -41,-111 -50,-90 -39,98 -98,211 -105,203 -9,-9 -83,-171 -96,-209 -5,-15 -18,11 -48,98 l -42,117 h -42 c -24,0 -43,-1 -43,-3 z"
         id="path71672"
         style="fill:#575556;fill-opacity:1" /><path
         d="m 2280,395 c 0,-198 1,-205 20,-205 18,0 20,7 20,80 v 80 h 60 c 112,0 160,37 160,125 0,92 -47,125 -180,125 h -80 z m 169,164 c 38,-13 51,-35 51,-87 0,-59 -33,-85 -115,-90 l -65,-4 v 96 96 h 49 c 26,0 62,-5 80,-11 z"
         id="path71674"
         style="fill:#575556;fill-opacity:1" /><path
         d="m 2770,395 c 0,-198 1,-205 20,-205 18,0 20,7 20,80 v 80 h 50 50 l 46,-80 c 38,-66 51,-80 71,-80 h 25 l -23,38 c -13,20 -35,57 -51,82 -25,41 -26,46 -11,55 64,38 86,102 56,163 -26,54 -70,72 -170,72 h -83 z m 174,161 c 61,-26 70,-111 14,-150 -15,-11 -44,-16 -85,-16 h -63 v 90 90 h 50 c 28,0 66,-6 84,-14 z"
         id="path71676"
         style="fill:#575556;fill-opacity:1" /><path
         d="m 3850,565 v -35 h 60 60 V 360 190 h 40 40 v 170 170 h 60 60 v 35 35 h -160 -160 z"
         id="path71678"
         style="fill:#575556;fill-opacity:1" /><path
         d="M 4370,395 V 190 h 140 140 v 35 35 h -100 -100 v 50 50 h 85 85 v 35 35 h -85 -85 v 50 50 h 95 95 v 35 35 h -135 -135 z"
         id="path71680"
         style="fill:#575556;fill-opacity:1" /></g></g></svg>
