<?xml version="1.0" encoding="UTF-8" standalone="no"?>
<svg
   width="121.25354"
   height="65.369171"
   viewBox="0 0 32.081665 17.295594"
   version="1.1"
   id="svg8"
   shape-rendering="crispEdges"
   xmlns="http://www.w3.org/2000/svg"
   xmlns:svg="http://www.w3.org/2000/svg"
   xmlns:rdf="http://www.w3.org/1999/02/22-rdf-syntax-ns#"
   xmlns:cc="http://creativecommons.org/ns#"
   xmlns:dc="http://purl.org/dc/elements/1.1/">
  <defs
     id="defs2" />
  <metadata
     id="metadata5">
    <rdf:RDF>
      <cc:Work
         rdf:about="">
        <dc:format>image/svg+xml</dc:format>
        <dc:type
           rdf:resource="http://purl.org/dc/dcmitype/StillImage" />
        <dc:title />
      </cc:Work>
    </rdf:RDF>
  </metadata>
  <g
     id="layer1"
     transform="translate(-579.82448,727.8034)">
    <g
       id="g2775"
       transform="matrix(0.08826536,0,0,0.08826536,531.37267,-654.14365)">
      <path
         style="fill:#000000;stroke-width:1.76164"
         d="m 611.9146,-659.15117 -13.6499,-19.46813 3.51391,-5.76335 c 3.53303,-5.79469 4.63382,-16.26875 2.1247,-20.21641 -0.74172,-1.16687 -7.26965,-3.06862 -14.50655,-4.22609 -7.23696,-1.15749 -14.14899,-2.87625 -15.36011,-3.81945 -4.02912,-3.13781 -2.27896,-7.79762 4.76091,-12.67628 3.82965,-2.65393 8.13621,-6.6159 9.57012,-8.80437 2.43762,-3.72022 2.2695,-4.2287 -2.5849,-7.81768 -3.32742,-2.4601 -5.92184,-6.56742 -7.22431,-11.43705 -1.9037,-7.11777 -2.56959,-7.7361 -10.52722,-9.77558 -8.07242,-2.0689 -19.098,-10.06098 -19.098,-13.84352 0,-0.9689 2.46205,0.53824 5.47121,3.34924 3.82099,3.56933 7.28149,5.11089 11.4728,5.11089 h 6.00161 l -6.1879,-12.28749 c -3.77545,-7.49701 -6.08496,-14.53676 -5.9239,-18.05681 0.21639,-4.72744 0.3895,-4.96448 0.96037,-1.31263 1.16325,7.44368 15.6158,32.3835 20.11657,34.71383 2.31159,1.19684 6.28378,2.18777 8.82714,2.20205 5.36927,0.0299 6.83133,-4.44984 6.81882,-20.8935 -0.006,-8.05524 -0.99346,-11.39239 -5.27739,-17.8366 -2.89837,-4.36005 -5.27321,-9.00789 -5.27733,-10.32851 -0.005,-1.32063 2.56886,1.45395 5.71777,6.16574 7.98246,11.94425 11.30583,11.45614 18.49724,-2.7167 3.14891,-6.20596 5.70791,-10.16966 5.68661,-8.8082 -0.0599,3.88781 -6.87143,17.95181 -10.63483,21.96092 -2.46432,2.62521 -3.72091,7.32947 -4.53713,16.98566 -1.03282,12.21802 -0.80837,13.62937 2.63676,16.57917 2.07116,1.77335 3.76565,4.63357 3.76565,6.35606 0,2.14155 1.35274,3.13177 4.27828,3.13177 5.38572,0 9.81487,-4.3189 9.81487,-9.57057 0,-3.37451 0.73466,-3.89353 4.49406,-3.17488 3.10224,0.59305 5.83015,-0.39609 8.80821,-3.19382 6.60223,-6.20251 5.6151,-10.01729 -3.17282,-12.26147 -11.00134,-2.8094 -16.77664,-5.309 -19.30488,-8.35533 -1.57225,-1.89445 -0.0266,-1.57347 5.15636,1.07034 4.07107,2.07692 9.51671,3.77622 12.10141,3.77622 4.5408,0 4.65931,-0.25281 3.51085,-7.48696 -0.65383,-4.11784 -3.10198,-11.6763 -5.44052,-16.79656 -2.33862,-5.12029 -3.40199,-8.78431 -2.36319,-8.14228 2.42171,1.49669 9.05818,16.75654 12.02605,27.65252 1.38483,5.08419 3.74509,9.21313 5.93728,10.38632 3.16336,1.69301 4.48128,0.9978 10.09051,-5.32301 11.02167,-12.41986 10.50006,-29.02506 -1.44774,-46.09264 -4.16123,-5.94434 -4.0728,-5.90912 2.46252,0.98054 3.7283,3.93046 7.72306,8.68688 8.87726,10.56984 1.81408,2.95959 2.13693,2.22986 2.38236,-5.38465 0.28097,-8.72415 0.29828,-8.74937 1.82081,-2.64246 2.78464,11.17185 -1.57752,30.0832 -9.8196,42.57037 -2.34393,3.55123 -11.03325,12.11262 -19.30954,19.02531 -8.27623,6.9127 -15.04778,13.32182 -15.04778,14.24248 0,4.04276 7.28982,1.11999 11.73175,-4.70372 4.31122,-5.65229 16.21276,-14.76199 19.2861,-14.76199 0.6272,0 0.75657,3.98956 0.2883,8.86569 -0.87675,9.12404 -5.67914,16.45644 -12.11639,18.49956 -5.01506,1.5917 -5.58194,7.05627 -1.55156,14.95647 5.55744,10.8934 10.54907,32.48667 10.54168,45.60162 -0.007,13.31735 -1.69197,16.70556 -16.12567,32.43667 l -9.41152,10.25757 z m -10.13218,-93.36069 c 0,-3.36086 -7.95326,-7.39593 -13.91557,-7.06001 -1.55095,0.0873 -0.23437,0.90508 2.92506,1.81711 3.15976,0.91204 6.71962,3.21874 7.9107,5.12604 2.6899,4.3072 3.07981,4.32199 3.07981,0.11686 z"
         id="path826-3" />
      <text
         xml:space="preserve"
         style="font-style:normal;font-variant:normal;font-weight:normal;font-stretch:normal;font-size:129.425px;line-height:1.25;font-family:'Baskerville Old Face';-inkscape-font-specification:'Baskerville Old Face, Normal';font-variant-ligatures:normal;font-variant-caps:normal;font-variant-numeric:normal;font-feature-settings:normal;text-align:start;letter-spacing:0px;word-spacing:0px;writing-mode:lr-tb;text-anchor:start;fill:#000000;fill-opacity:1;stroke:none;stroke-width:3.23565"
         x="658.54456"
         y="-639.71429"
         id="text939-9"><tspan
           id="tspan937-5"
           x="658.54456"
           y="-639.71429"
           style="font-style:normal;font-variant:normal;font-weight:normal;font-stretch:normal;font-size:129.425px;font-family:'Baskerville Old Face';-inkscape-font-specification:'Baskerville Old Face, Normal';font-variant-ligatures:normal;font-variant-caps:normal;font-variant-numeric:normal;font-feature-settings:normal;text-align:start;writing-mode:lr-tb;text-anchor:start;stroke-width:3.23565">Holz</tspan></text>
    </g>
  </g>
</svg>
