<?xml version="1.0" encoding="UTF-8" standalone="no"?>
<svg
   width="73.353844"
   height="63.184361"
   viewBox="0 0 19.408204 16.717529"
   version="1.1"
   id="svg8"
   inkscape:export-filename="D:\Drives\OneDrive\PERSONAL\06 PORTAFOLIO\Logos\bitmap.png"
   inkscape:export-xdpi="96"
   inkscape:export-ydpi="96"
   inkscape:version="1.0 (4035a4fb49, 2020-05-01)"
   sodipodi:docname="Logos.svg"
   shape-rendering="crispEdges"
   xmlns:inkscape="http://www.inkscape.org/namespaces/inkscape"
   xmlns:sodipodi="http://sodipodi.sourceforge.net/DTD/sodipodi-0.dtd"
   xmlns="http://www.w3.org/2000/svg"
   xmlns:svg="http://www.w3.org/2000/svg"
   xmlns:rdf="http://www.w3.org/1999/02/22-rdf-syntax-ns#"
   xmlns:cc="http://creativecommons.org/ns#"
   xmlns:dc="http://purl.org/dc/elements/1.1/">
  <defs
     id="defs2" />
  <sodipodi:namedview
     inkscape:pagecheckerboard="true"
     id="base"
     pagecolor="#ffffff"
     bordercolor="#666666"
     borderopacity="1.0"
     inkscape:pageopacity="0.0"
     inkscape:pageshadow="2"
     inkscape:zoom="0.087500001"
     inkscape:cx="446.07182"
     inkscape:cy="-1190.589"
     inkscape:document-units="mm"
     inkscape:current-layer="layer1"
     showgrid="false"
     units="px"
     inkscape:window-width="1920"
     inkscape:window-height="1057"
     inkscape:window-x="1912"
     inkscape:window-y="-8"
     inkscape:window-maximized="1"
     inkscape:document-rotation="0"
     inkscape:showpageshadow="0"
     inkscape:deskcolor="#d1d1d1" />
  <metadata
     id="metadata5">
    <rdf:RDF>
      <cc:Work
         rdf:about="">
        <dc:format>image/svg+xml</dc:format>
        <dc:type
           rdf:resource="http://purl.org/dc/dcmitype/StillImage" />
        <dc:title />
      </cc:Work>
    </rdf:RDF>
  </metadata>
  <g
     inkscape:label="Layer 1"
     inkscape:groupmode="layer"
     id="layer1"
     transform="translate(-483.66518,728.66717)">
    <path
       style="fill:#000000;stroke-width:0.0242643"
       d="m 485.26663,-714.67327 c 0.8808,-1.49801 1.6146,-2.73735 1.63067,-2.75408 0.0232,-0.0242 0.6934,-0.0291 3.24922,-0.0243 l 3.22004,0.006 -1.61625,2.74793 -1.61624,2.74792 h -3.23446 -3.23444 z m 9.75724,0.0364 c -0.86902,-1.478 -1.60013,-2.72219 -1.62466,-2.76487 -0.0245,-0.0427 -0.78596,-1.32375 -1.69204,-2.84683 -1.62445,-2.73063 -1.64695,-2.77019 -1.61357,-2.8382 0.064,-0.13049 3.26102,-5.57991 3.2738,-5.58039 0.019,-7e-4 3.29927,5.56645 3.29927,5.59932 0,0.0155 -0.73293,1.27041 -1.62873,2.78883 -0.8958,1.51842 -1.634,2.77441 -1.64043,2.79109 -0.01,0.0242 0.64142,0.0303 3.20424,0.0303 h 3.21596 l 0.0466,0.0667 c 0.0257,0.0367 0.74269,1.25141 1.59343,2.69939 0.85073,1.44796 1.5623,2.65723 1.58127,2.68726 l 0.0344,0.0546 h -3.2348 -3.2348 z"
       id="path952"
       inkscape:connector-curvature="0" />
  </g>
</svg>
