<?xml version="1.0" encoding="UTF-8" standalone="no"?>
<svg
   width="1417.9521"
   height="514.97302"
   viewBox="0 0 375.16649 136.25328"
   version="1.1"
   id="svg8"
   inkscape:export-filename="D:\Drives\OneDrive\PERSONAL\06 PORTAFOLIO\Logos\bitmap.png"
   inkscape:export-xdpi="96"
   inkscape:export-ydpi="96"
   inkscape:version="1.0 (4035a4fb49, 2020-05-01)"
   sodipodi:docname="Logos.svg"
   shape-rendering="crispEdges"
   xml:space="preserve"
   xmlns:inkscape="http://www.inkscape.org/namespaces/inkscape"
   xmlns:sodipodi="http://sodipodi.sourceforge.net/DTD/sodipodi-0.dtd"
   xmlns="http://www.w3.org/2000/svg"
   xmlns:svg="http://www.w3.org/2000/svg"
   xmlns:rdf="http://www.w3.org/1999/02/22-rdf-syntax-ns#"
   xmlns:cc="http://creativecommons.org/ns#"
   xmlns:dc="http://purl.org/dc/elements/1.1/"><defs
     id="defs2" /><sodipodi:namedview
     inkscape:pagecheckerboard="true"
     id="base"
     pagecolor="#ffffff"
     bordercolor="#666666"
     borderopacity="1.0"
     inkscape:pageopacity="0.0"
     inkscape:pageshadow="2"
     inkscape:zoom="0.087500001"
     inkscape:cx="446.07182"
     inkscape:cy="-1190.589"
     inkscape:document-units="mm"
     inkscape:current-layer="layer1"
     showgrid="false"
     units="px"
     inkscape:window-width="1920"
     inkscape:window-height="1057"
     inkscape:window-x="1912"
     inkscape:window-y="-8"
     inkscape:window-maximized="1"
     inkscape:document-rotation="0"
     inkscape:showpageshadow="0"
     inkscape:deskcolor="#d1d1d1" /><metadata
     id="metadata5"><rdf:RDF><cc:Work
         rdf:about=""><dc:format>image/svg+xml</dc:format><dc:type
           rdf:resource="http://purl.org/dc/dcmitype/StillImage" /><dc:title /></cc:Work></rdf:RDF></metadata><g
     inkscape:label="Layer 1"
     inkscape:groupmode="layer"
     id="layer1"
     transform="translate(-2296.8922,221.62812)"><path
       style="opacity:1;fill:#000000;stroke-width:0.264583"
       d="m 2394.7384,-86.090418 c -20.5335,-2.421647 -33.1992,-28.052472 -22.7169,-45.744392 8.375,-18.9121 36.5444,-22.65814 50.596,-7.91983 12.8578,12.00631 12.4081,34.16442 -0.9607,45.706692 -7.0553,6.61507 -17.4356,9.660637 -26.9184,7.95753 z m 10.1358,-12.55254 c 13.7928,-3.080052 19.2758,-22.196412 9.0239,-31.956092 -9.9328,-11.45038 -31.2016,-4.79386 -32.6741,10.05751 -2.9838,13.55861 10.5585,25.248266 23.6502,21.898582 z m 189.6247,12.56953 c -17.6735,-2.397595 -29.5917,-21.273762 -25.4279,-38.298652 3.3328,-19.0725 25.8462,-29.42338 43.0252,-22.14557 6.3613,3.22034 20.808,10.66582 9.4444,16.61598 -9.7622,9.90654 -20.2363,19.51588 -29.559,29.60589 7.1015,4.548597 17.6978,1.642284 23.0475,-4.95191 4.7769,-6.69097 18.5818,9.649364 5.47,12.110689 -6.944,6.198864 -16.9381,8.449748 -26.0002,7.063573 z m 13.4937,-48.332912 c -13.2396,-7.71351 -30.6101,6.46226 -26.9096,20.87558 0.4935,8.38205 5.2915,0.1618 8.5438,-2.45542 6.1411,-6.12022 12.3819,-12.14579 18.3658,-18.42016 z m 25.0047,31.60955 c 0.049,-11.65885 -1.605,-24.65073 6.6926,-34.20729 7.5517,-9.994 20.4043,-12.71073 32.2137,-11.896 -0.6893,5.22451 2.8341,15.2492 -5.7066,12.70592 -11.8839,-1.46574 -22.5476,10.53899 -20.3924,22.18183 -0.046,9.44901 -0.092,18.898021 -0.1376,28.347032 -3.8111,-1.246965 -12.8548,2.73866 -12.6728,-2.501365 v -14.630127 z m -329.8756,10.622502 c -2.2365,-7.447909 3.7888,-6.582166 9.2426,-6.291601 10.5224,-0.310528 21.2919,0.401377 31.6631,-0.535034 6.9098,-2.323077 3.9326,-13.175137 -3.0334,-12.374897 -9.6583,-0.31899 -19.9475,0.86859 -29.2185,-0.35338 -14.1707,-2.17117 -19.8002,-21.66043 -9.8819,-31.40892 7.9587,-8.94333 20.8775,-5.06798 31.3641,-5.96426 7.044,-0.026 14.0879,-0.0521 21.1319,-0.0782 -1.2585,3.72559 2.7518,12.71998 -2.5014,12.45096 -12.9488,0.38728 -26.0565,-0.77182 -38.9059,0.58255 -4.4633,2.73905 -4.8533,8.95376 -0.082,11.78881 10.9736,1.56653 22.8442,-0.45334 33.9685,1.40993 13.9159,2.92834 18.3894,22.92726 7.6134,31.980686 -8.4997,7.907605 -20.8035,4.182109 -31.2609,5.036026 -6.7264,6.67e-4 -13.4528,0.0013 -20.1792,0.002 0.03,-2.078075 0.035,-4.181768 0.08,-6.2447 z m 159.3989,5.82736 c -8.5173,-0.975943 -18.9768,-6.7751 -22.132,-13.696022 5.6344,-11.22541 11.4773,-6.8005 18.379,0.0241 11.6996,6.093918 27.9968,-4.09398 26.9641,-17.42395 1.486,-15.28024 -19.8033,-25.97717 -31.1257,-15.09334 -4.6901,7.70807 -10.4523,3.3173 -14.3407,-2.79796 10.2656,-16.28874 36.8129,-18.48994 49.719,-3.68187 13.5922,13.74158 9.8077,39.258082 -7.1662,48.482321 -6.0732,3.382615 -13.3286,5.480706 -20.2975,4.186711 z m 69.4043,0.2601 c -17.0919,-1.353932 -30.1137,-17.886322 -28.3104,-34.629002 1.2815,-18.96843 22.1637,-32.66476 40.0178,-27.07066 7.2688,1.58651 14.0356,6.5002 17.9645,12.65357 -4.8752,5.45097 -9.5217,11.9205 -14.9905,2.28337 -11.4447,-10.12872 -31.7416,0.048 -30.5564,15.31571 -0.906,14.43091 18.2403,25.048529 29.6076,15.87328 4.4517,-2.31192 7.9221,-10.20493 11.8779,-2.58014 11.2783,6.736144 -7.8527,14.720092 -13.8746,16.926064 -3.7366,1.623129 -7.7802,1.216285 -11.7359,1.227808 z m -163.4745,-71.156012 c -19.6952,-3.10336 -32.0574,-26.70717 -22.9789,-44.44654 7.5221,-18.88181 34.8554,-24.69892 49.5424,-10.75173 4.2553,2.8217 8.3837,6.99843 2.0512,10.1677 -10.2186,10.36007 -21.2339,20.81406 -30.9771,31.02874 8.8895,3.99091 19.7356,0.57156 25.265,-7.45802 5.0954,0.79719 13.5013,9.97088 4.3269,13.65095 -7.1587,6.76514 -17.6158,9.35208 -27.2295,7.8089 z m -10.7124,-23.73797 c 8.1838,-8.22992 16.4551,-16.37241 24.6871,-24.55413 -11.9983,-7.13771 -29.3192,4.31952 -27.1582,18.32484 0.3406,1.02891 0.5541,8.17953 2.4711,6.22929 z m 137.393,23.48282 c -21.1274,-2.81352 -33.3782,-29.96855 -21.2551,-47.55534 9.3815,-16.99004 35.3842,-20.24835 48.8395,-6.17869 15.3536,13.03202 12.1146,40.13123 -5.587,49.6064 -6.4566,4.1179 -14.5019,5.61777 -21.9974,4.12763 z m 10.8647,-12.60791 c 14.8624,-3.04066 19.3221,-25.16797 6.5937,-33.64852 -10.6696,-9.05132 -29.0622,-1.73958 -30.8415,12.03955 -2.1295,11.54964 7.7975,23.46459 19.813,22.2389 1.5246,0.005 2.9888,-0.10605 4.4348,-0.62993 z m -202.4978,9.78719 c 0.8441,-14.22169 -2.8051,-29.66038 3.3778,-43.04991 6.5097,-12.41245 21.178,-19.28198 34.9461,-17.1013 -1.2978,3.78075 2.6027,12.67506 -2.6424,12.57275 -11.894,-1.74875 -24.5147,8.45254 -22.883,20.8856 l -0.036,29.90936 c -3.8466,-1.24937 -12.6572,2.73951 -12.7246,-2.49776 l -0.039,-0.71878 z m 131.1372,2.35665 c -10.659,-20.80239 -21.5114,-41.51634 -32.356,-62.2242 4.057,-2.1736 10.5474,-0.59549 15.7427,-1.07737 -3.0585,4.6223 8.7726,17.20047 10.7522,24.68979 3.4933,8.07417 7.2796,16.33645 10.8206,3.4782 4.7185,-9.33494 9.6486,-18.56083 14.2557,-27.95288 6.6925,-0.0721 20.3627,-3.4991 10.8692,7.18088 -9.8988,18.81625 -19.6905,37.69152 -29.5628,56.50098 l -0.5216,-0.59531 z m 34.319,-62.7807 c 0.6572,-1.65372 0.9358,1.34043 0,0 z"
       id="path43112"
       sodipodi:nodetypes="cccccccccssscccsssccssscccsssssssssscsssssscsssccccssscccscssssscssccssscccccccscsssssscssssscsssscscccccccccc" /><path
       style="opacity:1;fill:#80c600;fill-opacity:1;fill-rule:evenodd;stroke-width:0;stroke-linecap:round;paint-order:stroke fill markers;stop-color:#000000"
       d="m 9434.2856,-639.18224 c -61.4991,-7.87424 -110.9676,-75.62095 -98.9853,-135.55955 15.6519,-78.29412 97.6966,-119.9636 167.9701,-85.30989 63.2841,31.20709 85.1632,106.04414 48.7659,166.80351 -23.0531,38.48333 -70.2394,60.14921 -117.7507,54.06593 z m 43.0809,-46.43893 c 16.5349,-4.91033 35.276,-22.53276 42.6383,-40.09311 6.6499,-15.86124 6.8629,-42.60113 0.4717,-59.23327 -10.6344,-27.67468 -45.8578,-47.99952 -75.7527,-43.71136 -40.2025,5.76669 -66.027,34.29684 -66.027,72.94463 0,53.46961 45.5902,85.85603 98.6697,70.09311 z"
       id="path43183"
       transform="matrix(0.26458333,0,0,0.26458333,0,11.249983)" /><path
       style="opacity:1;fill:#80c600;fill-opacity:1;fill-rule:evenodd;stroke-width:0;stroke-linecap:round;paint-order:stroke fill markers;stop-color:#000000"
       d="m 9546.9865,-374.01162 c -33.3112,-12.70712 -57.2767,-34.09457 -72.0626,-64.31054 -8.5952,-17.5648 -9.2097,-20.82258 -9.2097,-48.82069 0,-26.56878 0.8758,-31.86857 7.6573,-46.33733 9.0182,-19.24086 29.9966,-42.63829 47.3467,-52.80609 16.6239,-9.74225 44.0744,-17.99944 59.8381,-17.99944 15.6771,0 43.7181,6.99199 58.7061,14.63826 12.0342,6.13939 39.3089,31.04963 39.3089,35.90118 0,5.0621 -25.2163,26.60342 -31.1421,26.60342 -3.0555,0 -9.9217,-5.10098 -15.2582,-11.33552 -11.5235,-13.4626 -30.5575,-22.80056 -46.6525,-22.88745 -28.5644,-0.1542 -57.7647,16.79816 -70.5509,40.95853 -8.8459,16.71493 -8.8459,49.81395 0,66.52888 12.3942,23.41965 41.2942,41.02127 67.3526,41.02127 18.1638,0 31.8691,-5.56945 50.1955,-20.39801 9.44,-7.63823 18.3577,-13.8877 19.8171,-13.8877 3.361,0 26.2385,24.66479 26.2385,28.28837 0,7.53314 -17.5961,21.67844 -42.1172,33.85747 -25.9384,12.88297 -28.6319,13.60106 -53.3149,14.21405 -16.4837,0.40936 -29.7128,-0.77208 -36.1527,-3.22866 z"
       id="path43185"
       transform="matrix(0.26458333,0,0,0.26458333,0,11.249983)" /><path
       style="opacity:1;fill:#80c600;fill-opacity:1;fill-rule:evenodd;stroke-width:0;stroke-linecap:round;paint-order:stroke fill markers;stop-color:#000000"
       d="m 9286.4626,-375.38367 c -28.7994,-9.49544 -59.3198,-33.01952 -59.3198,-45.72172 0,-2.72397 4.0097,-9.05389 8.9104,-14.0665 14.3398,-14.66706 20.8464,-12.97307 54.6226,14.22094 17.7057,14.25531 58.7328,8.93049 81.528,-10.58135 16.9913,-14.54384 23.5161,-30.04723 23.4836,-55.79833 -0.023,-18.41221 -1.1843,-23.25909 -8.7184,-36.39692 -24.0023,-41.85444 -83.3888,-50.46329 -114.2396,-16.56052 -12.8388,14.10885 -22.0702,13.80453 -37.0977,-1.22298 l -11.5111,-11.51106 7.4957,-9.82732 c 15.014,-19.68438 50.0684,-37.20038 80.8969,-40.42259 74.4807,-7.78478 138.876,60.37086 126.1484,133.5149 -7.0403,40.45946 -30.9153,71.75279 -67.9742,89.09475 -24.7586,11.58598 -58.6522,13.71022 -84.2248,5.2787 z"
       id="path43187"
       transform="matrix(0.26458333,0,0,0.26458333,0,11.249983)" /></g></svg>
