<svg width="30" height="30" viewBox="0 0 7.9375 7.9375" xml:space="preserve" xmlns="http://www.w3.org/2000/svg">
  <g transform="translate(-585.5623 658.8025)">
    <circle style="fill:gray;fill-opacity:1;stroke:none;stroke-width:.00778531" cx="589.531" cy="-654.8337" r="3.9688"/>
    <path style="fill:#fff;stroke-width:.00746659" d="M587.4184-652.714c-.2295-.0243-.4436-.129-.5988-.2924-.1302-.137-.2095-.2854-.2503-.4684l-.0175-.0785v-1.2806c0-1.4133-.002-1.3163.0458-1.4634.1123-.3386.4166-.5946.774-.6511.0492-.008.4762-.01 2.167-.01 1.9902 0 2.1094.0009 2.1761.0134.2.0378.3607.1209.5061.2619.1366.1324.2187.275.2687.4666l.0207.0795v1.2992c0 1.2436-.0006 1.3018-.0141 1.359-.0823.3516-.319.6143-.6525.7239-.1453.0477.031.0443-2.2716.0457-1.152.0009-2.1211-.002-2.1538-.005zm4.2458-.4257c.0475-.01.1495-.0509.1463-.0588a4.3505 4.3505 0 0 0-.133-.128 696.745 696.745 0 0 1-.8173-.7647c-.0657-.0618-.201-.1885-.3003-.2818-.0995-.0933-.1836-.1696-.1869-.1696-.003 0-.0464.0374-.0955.083-.0491.0456-.1103.0986-.1358.1176-.2862.2132-.6663.2608-.999.1252-.128-.0522-.228-.1212-.3691-.2545-.0414-.0391-.0781-.0713-.0814-.0713-.003 0-.0696.0594-.1473.132-.4237.396-.9693.907-1.1223 1.051l-.1747.1644.0402.0183a.6535.6535 0 0 0 .0925.0313c.0489.0121.1856.013 2.1481.0135 1.5061.0003 2.107-.002 2.1355-.008zm-3.8803-1.131c.3162-.2959.5795-.5437.5851-.5506.009-.011.009-.0145 0-.0249-.009-.011-.3307-.3129-.9846-.924a124.7505 124.7505 0 0 1-.2884-.2703c-.054-.0508-.1012-.0923-.1053-.0923-.0224 0-.0245.1124-.0244 1.2968.0001 1.1055.002 1.2534.019 1.3002.002.007.0447-.0288.1137-.0933l.685-.6414zm4.3037.6888c.005-.033.008-.4076.008-1.2519 0-1.1773-.002-1.2992-.023-1.2992-.005 0-.1083.0951-.664.6155l-.4464.4178c-.1531.1433-.2772.2642-.2757.2686.003.0124 1.3742 1.2953 1.384 1.296.004.0002.0122-.0201.0168-.0467zm-2.3967-.998c.0702-.0199.1494-.0586.203-.099.0351-.0265.4812-.4423 1.7277-1.6103.1027-.0962.1877-.1771.1889-.1799.003-.008-.08-.0429-.137-.0574-.049-.0125-.1621-.0133-2.1387-.0133-1.9871 0-2.0896.0006-2.143.0135a.7366.7366 0 0 0-.1002.0338l-.0443.0203.2832.2655c1.0916 1.0233 1.608 1.5046 1.6411 1.5296.0709.0533.169.095.2648.1125.057.011.1925.002.2545-.0152z"/>
  </g>
</svg>
