<svg width="30" height="30" viewBox="0 0 7.9375 7.9375" xml:space="preserve" xmlns="http://www.w3.org/2000/svg">
  <g transform="translate(-575.3078 658.8025)">
    <circle style="fill:#1b75bb;fill-opacity:1;stroke:none;stroke-width:.00778531" cx="579.2766" cy="-654.8337" r="3.9688"/>
    <path style="fill:#fff;stroke-width:.00203653" d="M577.027-652.4876a.0299.0299 0 0 1-.0227-.0136c-.004-.005-.004-.0781-.004-1.5554 0-.8524.0006-1.5524.002-1.5555.0006-.003.004-.007.007-.009.005-.004.0302-.004.48-.004.4731 0 .4747 0 .4818.004a.033.033 0 0 1 .0112.0122c.004.008.004.0122.004 1.5528v1.5448l-.004.008a.0236.0236 0 0 1-.0116.0119c-.007.004-.0214.004-.4714.004a63.9838 63.9838 0 0 1-.4723-.0006zm1.5833-.0004a.0322.0322 0 0 1-.0231-.016c-.004-.007-.004-.0106-.004-1.5516v-1.5448l.004-.008c.002-.005.007-.01.0112-.0122.007-.004.0106-.004.4584-.004h.4514l.006.004c.0121.009.012.007.0113.1088-.0003.051 0 .1405.0006.199l.001.1063.0186-.0269c.0663-.0959.14-.1757.222-.2405a1.0459 1.0459 0 0 1 .3444-.1795c.1804-.0543.4125-.0657.6223-.0305.2432.0408.4176.1217.5545.2572a.8753.8753 0 0 1 .158.2116c.0785.1449.1404.3624.1579.5556.005.0512.0135.2261.0194.3859.004.1154.006.4882.006 1.115-.0006.721.0006.6604-.0138.6674-.007.003-.0391.004-.478.004-.4563.0003-.471.0002-.4785-.004a.027.027 0 0 1-.0119-.012c-.004-.008-.004-.0136-.004-.8604-.0003-.8427-.0006-.8952-.007-.9562a.8674.8674 0 0 0-.0593-.248c-.0677-.1653-.191-.253-.3746-.2661-.2377-.017-.4122.0539-.5136.2086-.0596.091-.0973.2147-.1124.3686-.008.0813-.008.0752-.009.9236-.001.7845-.001.8282-.005.8344-.002.005-.006.007-.0112.009-.009.002-.928.004-.9417.002zm-1.1737-3.5574a.5693.5693 0 0 1-.42-.2515c-.127-.1907-.1245-.4506.006-.6408a.5722.5722 0 0 1 .1634-.1574.9022.9022 0 0 1 .048-.0263.5633.5633 0 0 1 .1852-.0554.7053.7053 0 0 1 .1452 0 .5574.5574 0 0 1 .2421.0888.5034.5034 0 0 1 .0863.0703.5751.5751 0 0 1 .165.3445c.004.0348.003.1107-.002.1423a.5604.5604 0 0 1-.059.1816.5174.5174 0 0 1-.1037.1402c-.089.0884-.1942.141-.32.1598a.7857.7857 0 0 1-.1364.004z"/>
  </g>
</svg>
