<?xml version="1.0" encoding="UTF-8" standalone="no"?>
<!-- Created with Inkscape (http://www.inkscape.org/) -->

<svg
   width="200"
   height="160"
   viewBox="0 0 52.916666 42.333332"
   version="1.1"
   id="svg5"
   xml:space="preserve"
   xmlns="http://www.w3.org/2000/svg"
   xmlns:svg="http://www.w3.org/2000/svg"><defs
     id="defs2" /><g
     id="layer1"><g
       id="g420"
       transform="matrix(0.05854342,0,0,0.05854342,-2.8163038,-8.1021162)">
	<g
   id="g402">
		<path
   class="st0"
   d="m 500,393.6 c -58.8,0 -106.4,47.6 -106.4,106.4 0,19.2 5.1,37.2 14,52.8 L 592,446.6 c -18.4,-31.7 -52.7,-53 -92,-53 z"
   id="path398" />
		<path
   class="st0"
   d="m 286.4,500 c 0,-118 95.7,-213.6 213.6,-213.6 79,0 148,42.9 185,106.7 l 128.8,-74.2 c -5.2,-9.1 -12.9,-16.7 -23.3,-22.7 -85.6,-49.4 -171.4,-98.6 -257,-148.1 -23.1,-13.3 -45.5,-12.8 -68.4,0.7 -34.1,20.2 -204.7,118 -255.6,147.4 -20.9,12.1 -31.1,30.7 -31.1,54.8 0,99.3 0,198.6 0,297.9 0,11.9 2.5,22.4 7.5,31.5 L 314.7,606.2 C 296.7,575 286.4,538.7 286.4,500 Z"
   id="path400" />
	</g>
	<g
   id="g408">
		<path
   class="st1"
   d="m 407.6,552.8 c 18.3,32 52.8,53.6 92.4,53.6 39.8,0 74.5,-21.9 92.7,-54.2 L 501,499 Z"
   id="path404" />
		<path
   class="st1"
   d="m 500,713.6 c -79.3,0 -148.5,-43.2 -185.4,-107.3 l -128.8,74.2 c 5.2,9.3 13,17.1 23.6,23.3 50.9,29.4 221.6,127.2 255.7,147.3 22.9,13.5 45.3,14 68.4,0.7 85.6,-49.4 171.4,-98.7 257,-148.1 10.6,-6.1 18.5,-14 23.6,-23.3 L 685.6,606 C 648.7,670.3 579.4,713.6 500,713.6 Z"
   id="path406" />
	</g>
	<path
   class="st2"
   d="m 821.6,351 c 0,-12.2 -2.6,-22.9 -7.9,-32.1 L 501,499 814.2,680.4 c 5,-9.1 7.5,-19.6 7.5,-31.5 0,0 0,-198.5 -0.1,-297.9 z M 715.1,512 h -24.5 v 24.5 H 666.1 V 512 h -24.5 v -24.5 h 24.5 V 463 h 24.5 v 24.5 h 24.5 z m 89.3,0 H 780 v 24.5 H 755.5 V 512 H 731 v -24.5 h 24.5 V 463 H 780 v 24.5 h 24.5 V 512 Z"
   id="path410" />
	<g
   id="g418">
		<polygon
   class="st3"
   points="755.5,512 755.5,536.5 780,536.5 780,512 804.4,512 804.4,487.5 780,487.5 780,463.1 755.5,463.1 755.5,487.5 731,487.5 731,512 "
   id="polygon412" />
		<polygon
   class="st3"
   points="666.2,512 666.2,536.5 690.7,536.5 690.7,512 715.1,512 715.1,487.5 690.7,487.5 690.7,463.1 666.2,463.1 666.2,487.5 641.7,487.5 641.7,512 "
   id="polygon414" />
		<path
   class="st3"
   d="m 592.7,552.2 c -18.2,32.4 -52.9,54.2 -92.7,54.2 -39.5,0 -74,-21.6 -92.4,-53.6 -8.9,-15.6 -14,-33.6 -14,-52.8 0,-58.8 47.6,-106.4 106.4,-106.4 39.3,0 73.6,21.3 92,53 l 93,-53.5 C 648,329.3 579,286.4 500,286.4 c -118,0 -213.6,95.7 -213.6,213.6 0,38.7 10.3,75 28.3,106.3 36.9,64.1 106.1,107.3 185.4,107.3 79.4,0 148.7,-43.4 185.6,-107.7 z"
   id="path416" />
	</g>
</g></g><style
     type="text/css"
     id="style396">
	.st0{fill-rule:evenodd;clip-rule:evenodd;fill:#5E98CF;}
	.st1{fill:#044E87;}
	.st2{fill:#0062A2;}
	.st3{fill:#FFFFFF;}
</style></svg>
