<?xml version="1.0" encoding="UTF-8" standalone="no"?>
<!-- Created with Inkscape (http://www.inkscape.org/) -->

<svg
   width="159.99998"
   height="159.99013"
   viewBox="0 0 42.333329 42.33072"
   version="1.1"
   id="svg5"
   xml:space="preserve"
   xmlns="http://www.w3.org/2000/svg"
   xmlns:svg="http://www.w3.org/2000/svg"><defs
     id="defs2" /><g
     id="layer1"
     transform="translate(255.66085,-414.27287)"><g
       id="g2471"><path
         style="fill:#000000;stroke-width:0.0827896"
         d="m -255.25886,456.51372 c -0.39163,-0.19866 -0.41935,-0.36935 -0.39595,-2.43757 0.0213,-1.87609 0.0264,-1.92729 0.21025,-2.11114 0.18806,-0.18799 0.19514,-0.18847 3.12531,-0.21213 l 2.93682,-0.0237 v -3.35373 -3.35373 l 0.20321,-0.20321 0.20322,-0.20321 h 3.75952 c 4.64185,0 4.19581,-0.15905 4.19581,1.49622 v 1.15305 h 2.19393 c 1.20666,0 2.19393,-0.0141 2.19393,-0.0313 0,-0.0172 -0.0559,-0.16503 -0.12419,-0.3285 -0.10661,-0.25517 -0.12418,-1.17011 -0.12418,-6.46771 v -6.17049 h -0.69454 c -0.54129,0 -0.73219,-0.032 -0.86514,-0.14488 -0.0982,-0.0834 -0.51988,-1.02283 -0.99402,-2.21462 l -0.82343,-2.06974 -4.29299,-0.0414 c -4.16332,-0.0401 -4.3062,-0.0468 -4.73022,-0.2207 -1.30699,-0.53599 -2.23145,-1.5382 -2.61676,-2.83685 -0.11719,-0.395 -0.13342,-1.16098 -0.13342,-6.29988 0,-5.84233 2.4e-4,-5.85042 0.17427,-6.00793 0.1702,-0.15402 0.57646,-0.15771 17.37715,-0.15771 16.80069,0 17.20695,0.004 17.37714,0.15771 0.17404,0.15751 0.17427,0.1656 0.17427,6.00793 0,6.43516 0.0153,6.2217 -0.51754,7.22818 -0.2844,0.53721 -1.12421,1.37193 -1.65034,1.64034 -0.90168,0.46 -0.70398,0.44186 -5.31251,0.48765 l -4.29299,0.0427 -0.82343,2.06974 c -0.47414,1.19179 -0.89579,2.1312 -0.99403,2.21462 -0.13295,0.11291 -0.32384,0.14488 -0.86513,0.14488 h -0.69454 v 6.11609 c 0,3.36385 -0.0244,6.23797 -0.0542,6.38693 l -0.0542,0.27083 0.43584,-0.23721 c 0.54771,-0.2981 1.22452,-0.96936 1.51441,-1.50198 0.26463,-0.48622 0.47619,-1.25153 0.47619,-1.7226 0,-0.40918 0.21273,-0.67282 0.5999,-0.74345 0.14817,-0.027 1.87968,-0.0381 3.84782,-0.0245 l 3.57842,0.0247 0.18851,0.18853 0.18851,0.18852 0.0229,4.26142 0.0229,4.26142 h 3.76015 3.76013 l 0.23229,0.19981 0.23229,0.19981 v 2.03321 c 0,2.00548 -0.002,2.03579 -0.18857,2.2218 l -0.18858,0.18857 -20.67443,0.0198 c -16.47888,0.0157 -20.7161,-0.001 -20.87977,-0.0844 z m 40.64811,-2.33623 v -1.11766 h -19.86953 -19.86953 v 1.11766 1.11767 h 19.86953 19.86953 z m -8.03061,-6.25166 v -3.80937 l -2.94935,0.0217 -2.94935,0.0217 -0.14023,0.53813 c -0.37876,1.45353 -1.34824,2.64222 -2.6962,3.30582 -0.99059,0.48766 -1.13849,0.49994 -6.03749,0.50129 l -4.46531,10e-4 -0.19161,-0.18001 c -0.18237,-0.17133 -0.19161,-0.23522 -0.19161,-1.32464 v -1.14462 h -2.93904 -2.93903 v 2.93903 2.93904 h 12.74961 12.74961 z m -11.36008,-0.6603 c 0.57107,-0.25919 0.67617,-0.58954 0.6784,-2.13226 l 0.002,-1.26199 -1.15906,-0.58063 -1.15906,-0.58063 v 1.86598 c 0,1.96551 0.0416,2.23509 0.39363,2.54845 0.16593,0.14773 0.52372,0.28644 0.76543,0.29675 0.0683,0.003 0.28378,-0.0671 0.47884,-0.15567 z m 0.68022,-6.37523 v -1.48966 l -1.15906,-0.58063 -1.15906,-0.58064 v 1.51291 1.5129 l 1.09697,0.55261 c 0.60333,0.30394 1.1249,0.55477 1.15905,0.5574 0.0342,0.002 0.0621,-0.66557 0.0621,-1.48489 z m 0,-4.80235 v -1.82138 h -1.15906 -1.15906 v 1.28262 1.28262 l 1.05557,0.53444 c 0.58056,0.29394 1.10214,0.53638 1.15906,0.53875 0.0798,0.003 0.10349,-0.41285 0.10349,-1.81705 z m 2.59937,-4.63646 c 0.34618,-0.86527 0.62942,-1.59176 0.62942,-1.6144 0,-0.0226 -1.97453,-0.0412 -4.38785,-0.0412 -2.41332,0 -4.38786,0.0185 -4.38786,0.0412 0,0.0227 0.28324,0.74913 0.62942,1.6144 l 0.62942,1.57324 h 3.12902 3.12902 z m 10.49337,-3.06337 c 0.65537,-0.20671 1.20519,-0.60603 1.54886,-1.12488 0.51494,-0.77741 0.50891,-0.70081 0.50891,-6.46502 v -5.24212 h -16.30957 -16.30957 v 5.24399 c 0,4.32288 0.0209,5.31349 0.11908,5.63967 0.18032,0.59915 0.65131,1.24667 1.14397,1.57275 0.85134,0.56348 -0.0861,0.53011 15.05849,0.53612 13.50184,0.005 13.72181,0.003 14.23983,-0.16051 z m -28.07768,-1.90378 c -0.15811,-0.15811 -0.16558,-0.27596 -0.16558,-2.61332 0,-1.56703 0.0316,-2.50678 0.0878,-2.61184 0.21252,-0.39709 0.86911,-0.35976 1.0605,0.0603 0.0625,0.13712 0.0935,0.98361 0.0935,2.54971 0,2.24646 -0.007,2.35357 -0.17159,2.56259 -0.21501,0.27333 -0.65816,0.29908 -0.90468,0.0526 z m 16.50238,-0.42022 c -0.49793,-0.19308 -1.01658,-0.66484 -1.28635,-1.17007 -0.18312,-0.34295 -0.19058,-0.43779 -0.21506,-2.73543 l -0.0254,-2.38016 0.22339,-0.49776 c 0.25253,-0.56271 0.695,-1.0069 1.26602,-1.27093 0.37608,-0.1739 0.46061,-0.17695 4.89473,-0.17695 4.23938,0 4.53676,0.01 4.92113,0.15778 0.53465,0.2062 1.09919,0.7322 1.34122,1.24964 0.18837,0.40272 0.19365,0.47655 0.19443,2.72246 6.3e-4,1.47856 -0.0328,2.42073 -0.0927,2.62066 -0.14481,0.48333 -0.64124,1.06897 -1.14832,1.35467 l -0.45535,0.25655 -4.59482,0.0178 c -4.42417,0.0171 -4.61073,0.0116 -5.02295,-0.14823 z m 9.56504,-1.30997 c 0.38136,-0.272 0.50807,-0.62443 0.50807,-1.41316 v -0.66498 h -5.17435 -5.17436 l 0.002,0.64162 c 0.002,0.85718 0.17987,1.2535 0.67102,1.49871 0.35994,0.17971 0.38665,0.18063 4.6257,0.15857 l 4.26367,-0.0222 0.27843,-0.19859 z m 0.48875,-4.06509 c 0.0252,-0.80317 -0.10447,-1.11785 -0.58015,-1.40787 -0.2601,-0.15859 -0.42483,-0.16451 -4.57488,-0.16451 -4.12144,0 -4.31635,0.007 -4.56964,0.16131 -0.42042,0.25635 -0.54581,0.52266 -0.58782,1.24844 -0.0207,0.35822 -0.0155,0.70929 0.0117,0.78016 0.0441,0.115 0.59911,0.12655 5.16406,0.10751 l 5.11462,-0.0213 z m -22.98178,3.11998 c -0.15472,-0.1647 -0.18001,-0.28735 -0.18001,-0.87306 0,-0.61312 0.0204,-0.70181 0.20321,-0.88465 0.25899,-0.25899 0.57643,-0.25899 0.83542,0 0.18151,0.1815 0.20321,0.27317 0.20321,0.85813 0,0.5372 -0.0308,0.69412 -0.17159,0.87305 -0.22429,0.28514 -0.63576,0.2974 -0.89024,0.0265 z m 5.00216,-1.26924 c -0.60827,-0.18673 -1.31625,-0.92342 -1.50222,-1.56312 -0.3437,-1.1823 0.13236,-2.29035 1.23639,-2.87776 0.27381,-0.14568 0.47914,-0.18129 1.04452,-0.18116 0.60369,1.4e-4 0.76416,0.0319 1.12907,0.22337 1.16643,0.61206 1.61034,2.00963 1.01607,3.19887 -0.53884,1.07832 -1.72886,1.56665 -2.92383,1.1998 z m 1.42529,-1.35612 c 0.48655,-0.29665 0.6473,-0.97614 0.34732,-1.46815 -0.44208,-0.72507 -1.3794,-0.79302 -1.89513,-0.13738 -0.37973,0.48274 -0.24798,1.2729 0.26727,1.60299 0.34559,0.2214 0.9197,0.22253 1.28054,0.002 z m -6.38932,-0.91458 c -0.21686,-0.17057 -0.21814,-0.17832 -0.21814,-1.31546 0,-1.34059 0.0756,-1.52649 0.62092,-1.52649 0.54238,0 0.62092,0.18908 0.62092,1.49487 0,1.07052 -0.008,1.11987 -0.20321,1.31546 -0.24834,0.24835 -0.53112,0.25924 -0.82049,0.0316 z m -3.59809,-0.93071 c -0.15472,-0.16469 -0.18001,-0.28734 -0.18001,-0.87305 0,-0.62118 0.0188,-0.70023 0.21246,-0.89391 0.17138,-0.17137 0.26344,-0.20262 0.47604,-0.16156 0.43438,0.0839 0.55335,0.30787 0.55335,1.04188 0,0.52411 -0.0315,0.68203 -0.17159,0.86012 -0.2243,0.28514 -0.63577,0.2974 -0.89025,0.0265 z m 4.41592,22.58675 c -0.27259,-0.15632 -0.5427,-0.34859 -0.60022,-0.42726 -0.24286,-0.33213 -0.044,-0.87421 0.35765,-0.97502 0.23195,-0.0582 1.08122,0.31913 1.39362,0.61922 0.23849,0.22907 0.20706,0.64295 -0.0667,0.87843 -0.30118,0.25907 -0.4962,0.24191 -1.08435,-0.0954 z m -3.47827,-1.91518 c -0.45534,-0.2548 -0.89309,-0.52078 -0.97278,-0.59108 -0.17684,-0.15599 -0.18861,-0.58239 -0.0226,-0.81936 0.24439,-0.34892 0.4884,-0.31801 1.43737,0.18207 0.9566,0.5041 1.25523,0.76144 1.25523,1.08167 0,0.27893 -0.34847,0.61286 -0.63786,0.61125 -0.12729,-6.2e-4 -0.60399,-0.20976 -1.05933,-0.46455 z m 22.32626,0.19144 c -0.38382,-0.40855 -0.16118,-0.84723 0.63467,-1.25052 0.52715,-0.26712 0.79254,-0.26976 1.05185,-0.0104 0.40574,0.40574 0.19664,0.82941 -0.61148,1.23892 -0.52593,0.2665 -0.83935,0.27293 -1.07504,0.0221 z m -16.13269,-1.80382 c -0.21906,-0.1868 -0.46266,-0.41965 -0.54133,-0.51744 -0.30528,-0.37945 -0.0924,-0.91838 0.40034,-1.01344 0.22201,-0.0428 0.31854,0.004 0.70371,0.34014 0.24553,0.21438 0.49298,0.44863 0.5499,0.52056 0.16682,0.21081 0.12614,0.6511 -0.0777,0.84101 -0.28246,0.26315 -0.58446,0.2133 -1.03492,-0.17083 z m 19.43122,0.23517 c -0.26429,-0.13629 -0.39035,-0.48411 -0.28469,-0.78552 0.10114,-0.28851 1.75351,-1.25033 2.16077,-1.25775 0.51723,-0.009 0.80238,0.70014 0.41996,1.04501 -0.23888,0.21541 -1.64217,0.99871 -1.89654,1.05862 -0.10664,0.0251 -0.28642,-0.002 -0.3995,-0.0604 z m -5.94781,-1.90852 c -0.31824,-0.33875 -0.24071,-0.61551 0.32258,-1.15151 0.41174,-0.3918 0.55391,-0.47825 0.7865,-0.47825 0.36899,0 0.61508,0.24339 0.61508,0.60832 0,0.23053 -0.0825,0.35589 -0.4906,0.74511 -0.5669,0.54073 -0.91244,0.61814 -1.23356,0.27633 z m -16.46232,-1.23399 c -0.79308,-0.77775 -0.91411,-0.97749 -0.81985,-1.35306 0.0688,-0.27423 0.48601,-0.46181 0.79078,-0.35558 0.11922,0.0416 0.54327,0.4036 0.94233,0.80451 0.60963,0.61247 0.72682,0.77305 0.73341,1.005 0.006,0.20352 -0.0512,0.32682 -0.21673,0.46924 -0.39535,0.34006 -0.57476,0.26853 -1.42994,-0.57011 z m 19.2923,-1.05816 c -0.0976,-0.039 -0.23729,-0.1563 -0.31046,-0.26077 -0.26921,-0.38436 -0.18385,-0.55904 0.69181,-1.41565 0.92167,-0.90162 1.15082,-0.99158 1.53842,-0.60399 0.36872,0.36873 0.28682,0.56649 -0.60399,1.45848 -0.83034,0.83144 -1.01033,0.94386 -1.31578,0.82193 z"
         id="path2369" /><rect
         style="fill:none;fill-opacity:1;stroke:none;stroke-width:0.264507;stroke-dasharray:none"
         id="rect3723-9-5"
         width="42.068825"
         height="42.068825"
         x="-255.52859"
         y="414.40381" /></g></g><style
     type="text/css"
     id="style396">
	.st0{fill-rule:evenodd;clip-rule:evenodd;fill:#5E98CF;}
	.st1{fill:#044E87;}
	.st2{fill:#0062A2;}
	.st3{fill:#FFFFFF;}
</style></svg>
