<?xml version="1.0" encoding="UTF-8" standalone="no"?>
<!-- Created with Inkscape (http://www.inkscape.org/) -->

<svg
   width="159.99998"
   height="159.00026"
   viewBox="0 0 42.333329 42.068817"
   version="1.1"
   id="svg5"
   xml:space="preserve"
   xmlns="http://www.w3.org/2000/svg"
   xmlns:svg="http://www.w3.org/2000/svg"><defs
     id="defs2" /><g
     id="layer1"
     transform="translate(251.37018,-400.32728)"><g
       id="g3605"
       transform="translate(-15.138893,-0.25333017)"><path
         style="fill:#000000;stroke-width:0.231605"
         d="m -222.21163,435.83321 c -4.96794,-2.07524 -9.84541,-4.10567 -10.83885,-4.51205 -2.11583,-0.86553 -2.71007,-1.41075 -2.71007,-2.48653 0,-1.4378 1.85445,-2.59446 2.04279,-1.27412 0.0444,0.31109 -0.0718,0.57581 -0.2895,0.65933 -0.49559,0.19017 -0.45931,0.94891 0.0586,1.22611 0.8856,0.47396 21.24983,8.84814 21.58023,8.87423 0.50644,0.04 16.14965,-6.52905 16.4715,-6.91684 0.21478,-0.25878 0.16598,-0.44076 -0.23168,-0.86404 -0.53627,-0.57084 -0.46414,-1.30306 0.12836,-1.30306 1.72653,0 2.12027,2.77219 0.51189,3.60392 -2.29904,1.18888 -16.35361,6.81451 -16.96922,6.79228 -0.39682,-0.0144 -4.78614,-1.72399 -9.75408,-3.79923 z m -1.85285,-6.47824 c -7.17304,-2.99065 -11.49779,-4.91499 -11.75398,-5.23008 -0.73696,-0.90639 -0.41676,-2.04265 0.74492,-2.6434 0.3703,-0.19148 0.83622,-0.28563 1.03537,-0.20921 0.56111,0.21532 0.42999,0.99479 -0.21694,1.28955 -0.91455,0.41669 -0.6893,0.78683 0.86852,1.42719 0.79614,0.32726 5.86268,2.41141 11.25898,4.63145 l 9.81146,4.03642 3.39005,-1.40227 c 1.86453,-0.77124 5.63085,-2.30786 8.36958,-3.4147 4.86562,-1.9664 5.77341,-2.52614 4.66667,-2.8774 -0.60909,-0.19332 -0.82359,-0.82665 -0.41751,-1.23273 0.26746,-0.26745 0.4313,-0.27585 0.87704,-0.0449 0.99367,0.51481 1.35874,0.9784 1.35874,1.72542 0,1.34048 -0.11677,1.39992 -13.24354,6.7408 -2.63446,1.07188 -4.92736,1.94586 -5.09532,1.94217 -0.16795,-0.003 -5.41227,-2.13591 -11.65404,-4.73829 z m 10.07484,-1.31317 c -0.57323,-0.25681 -4.42945,-1.87569 -8.5694,-3.59753 -14.44924,-6.00957 -13.66473,-5.61428 -13.66473,-6.88501 0,-1.01964 1.35405,-2.1646 2.18349,-1.84631 0.61614,0.23643 0.41575,0.97804 -0.37474,1.38683 -0.67583,0.34948 -0.70437,0.40737 -0.33426,0.678 0.22257,0.16275 1.7797,0.84436 3.46029,1.51472 1.68058,0.67035 6.63706,2.71138 11.01439,4.53562 l 7.95878,3.31682 6.63237,-2.75374 c 3.64779,-1.51457 7.49219,-3.09109 8.54311,-3.50339 1.93897,-0.76071 2.37811,-1.25287 1.34848,-1.51128 -0.70202,-0.1762 -0.95131,-0.76944 -0.50915,-1.21161 0.29259,-0.29259 0.44678,-0.27998 1.21183,0.099 1.71125,0.84776 1.55368,2.54949 -0.31101,3.35864 -6.41062,2.78178 -16.60282,6.91539 -17.01934,6.90249 -0.29034,-0.009 -0.99689,-0.22647 -1.57011,-0.48327 z m -10.53804,-9.81898 c -2.54767,-1.07439 -5.66979,-2.39169 -6.93807,-2.92736 -2.9721,-1.25526 -3.66315,-1.85452 -3.66315,-3.17655 0,-0.73564 0.142,-1.13105 0.5527,-1.53903 0.32145,-0.31932 3.84728,-1.91752 8.42728,-3.81993 6.01777,-2.49965 8.03842,-3.24371 8.5694,-3.15557 1.07388,0.17827 21.24138,8.62872 21.81746,9.14181 0.9828,0.87532 0.97291,2.46807 -0.0209,3.3532 -0.29181,0.25993 -2.34509,1.26365 -4.56285,2.23052 l -4.0323,1.75792 -7.75877,0.0442 -7.75878,0.0442 z m 7.18988,-0.37708 c 0.64248,-0.3811 1.8731,-1.30927 2.73471,-2.06259 0.8616,-0.7533 1.70623,-1.36965 1.87695,-1.36965 0.17071,0 1.02454,0.55594 1.89739,1.23542 1.85807,1.44641 3.31664,2.32476 4.62979,2.78807 0.93872,0.3312 0.95986,0.32581 4.50871,-1.14975 1.96107,-0.81538 3.77402,-1.5473 4.0288,-1.6265 0.67395,-0.20952 1.27382,-0.79686 1.27382,-1.24724 0,-0.21528 -0.18239,-0.54724 -0.40531,-0.73769 -0.50524,-0.43163 -20.56684,-8.75878 -21.09572,-8.75639 -0.71591,0.003 -15.62474,6.3616 -15.88042,6.77272 -0.18186,0.29242 -0.18143,0.5182 0.002,0.81062 0.34266,0.54763 14.19443,6.30798 14.79839,6.15399 0.25477,-0.0649 0.98888,-0.4299 1.63135,-0.81101 z m 8.31406,0.14207 c -0.75681,-0.45441 -1.86372,-1.23608 -2.45979,-1.73704 -0.59608,-0.50097 -1.17585,-0.91085 -1.2884,-0.91085 -0.11254,0 -0.51073,0.32674 -0.88487,0.72609 -0.37414,0.39933 -1.291,1.181 -2.03746,1.73703 l -1.35721,1.01097 h 4.70186 4.70186 z"
         id="path3579" /><rect
         style="fill:none;fill-opacity:1;stroke:none;stroke-width:0.264507;stroke-dasharray:none"
         id="rect3723-9-84"
         width="42.068825"
         height="42.068825"
         x="-236.09904"
         y="400.5806" /></g></g><style
     type="text/css"
     id="style396">
	.st0{fill-rule:evenodd;clip-rule:evenodd;fill:#5E98CF;}
	.st1{fill:#044E87;}
	.st2{fill:#0062A2;}
	.st3{fill:#FFFFFF;}
</style></svg>
