<?xml version="1.0" encoding="UTF-8" standalone="no"?>
<!-- Created with Inkscape (http://www.inkscape.org/) -->

<svg
   width="159.81422"
   height="160.00005"
   viewBox="0 0 42.28418 42.333344"
   version="1.1"
   id="svg5"
   xml:space="preserve"
   xmlns="http://www.w3.org/2000/svg"
   xmlns:svg="http://www.w3.org/2000/svg"><defs
     id="defs2" /><g
     id="layer1"
     transform="translate(428.86387,-135.34284)"><path
       style="fill:#ec1e25;stroke:none;stroke-width:0.0573765"
       d="m -407.01777,135.42984 c -0.39716,0.0577 -1.19946,0.97534 -0.72742,1.33957 0.55494,0.42832 1.46339,0.58243 2.10446,0.86564 1.31811,0.58232 2.60845,1.24301 3.84422,1.98448 4.10753,2.46444 7.63274,5.85935 10.28951,9.843 1.15665,1.73427 2.1223,3.59183 2.93997,5.50815 0.19313,0.45276 0.34874,0.91975 0.5301,1.37698 0.0678,0.1711 0.13713,0.37937 0.35757,0.36285 0.25378,-0.019 0.88962,-0.21206 1.02865,-0.43595 0.11056,-0.17798 0.059,-0.47255 0.059,-0.67274 v -1.60654 c 0,-2.7368 -0.77682,-5.54969 -2.0325,-7.97534 -2.66514,-5.14822 -7.40186,-8.85589 -13.05752,-10.13562 -1.66897,-0.37759 -3.62534,-0.70303 -5.33602,-0.45448 m 12.39333,32.16368 c 0.74865,0 1.48863,0.0574 2.23768,0.0574 0.27352,0 0.65507,0.0674 0.91292,-0.0346 0.55736,-0.22066 1.07627,-1.21265 1.41502,-1.68669 0.42751,-0.59833 1.1465,-1.44015 1.26768,-2.18031 0.0983,-0.59999 -0.16226,-1.3577 -0.26313,-1.9508 -0.32642,-1.91936 -0.90667,-3.81502 -1.6229,-5.6229 -3.19231,-8.05836 -9.787,-14.06609 -17.83239,-17.07388 -1.48646,-0.55569 -3.08347,-0.95388 -4.6475,-1.21506 -0.53733,-0.0897 -1.23618,-0.33015 -1.77867,-0.2279 -0.97982,0.18475 -2.16465,1.23514 -2.9262,1.84322 -0.2769,0.22107 -0.69512,0.45654 -0.85905,0.78055 -0.22244,0.4395 -0.059,1.29086 -0.059,1.77844 0,0.35201 -0.12221,0.98269 0.0346,1.30142 0.0993,0.20168 0.52178,0.14114 0.7113,0.16604 0.73562,0.0966 1.49649,0.0746 2.23768,0.14878 2.78173,0.27834 5.53833,1.15115 8.03271,2.39834 8.06359,4.03179 13.13923,12.55295 13.13923,21.51798 m 4.877,3.44259 v -0.0574 l -1.14753,-1.14753 c -1.04316,0.73195 -1.92871,1.68228 -2.98358,2.41647 -2.15208,1.49781 -4.57474,2.54729 -7.11469,3.17918 -10.71024,2.66445 -21.98955,-3.95858 -25.24423,-14.43163 -1.635,-5.26132 -1.12143,-11.20352 1.50808,-16.06543 0.98625,-1.8236 2.27693,-3.24958 3.51896,-4.87701 0.3045,-0.39894 -0.56935,-1.41186 -1.01212,-1.3293 -0.37117,0.0692 -0.74314,0.6584 -0.9754,0.92767 -0.79587,0.92255 -1.52524,1.89669 -2.17727,2.9262 -2.87387,4.53757 -4.01188,10.12811 -3.26604,15.43429 0.34965,2.48744 1.10048,5.00323 2.27503,7.22944 1.5078,2.85792 3.56033,5.4413 6.09448,7.45872 6.66314,5.30457 16.11678,6.50305 23.86864,2.94416 2.34612,-1.07713 4.99485,-2.58527 6.65567,-4.60785 m -29.20465,-24.99178 c -2.30246,0.31345 -4.37875,1.71062 -5.49042,3.76246 -1.63219,3.01256 -0.82708,7.11527 1.8757,9.21324 0.98923,0.76787 2.15087,1.28414 3.38521,1.49121 0.88257,0.14804 1.77351,0.11619 2.63933,0.38098 1.48524,0.45431 2.7438,1.41571 3.63073,2.68494 1.0746,1.53792 1.45908,3.64639 0.90058,5.45077 -0.20816,0.67234 -0.4877,1.30738 -0.87832,1.89343 -0.13604,0.20403 -0.47904,0.53681 -0.37467,0.80321 0.13655,0.34873 0.63877,0.62799 0.91016,0.87023 0.97489,0.87011 2.00336,1.07575 3.27046,1.29579 0.3714,0.0645 0.94465,0.23886 1.31433,0.15646 0.50772,-0.11325 0.90219,-1.37474 1.08688,-1.80603 0.86725,-2.02511 1.07673,-4.13444 0.92807,-6.31142 -0.3259,-4.77138 -3.81032,-8.8676 -8.1489,-10.58884 -0.89301,-0.3543 -1.86118,-0.57015 -2.81145,-0.69816 -0.59494,-0.0801 -1.28862,-0.0121 -1.836,-0.29365 -0.88967,-0.45764 -0.8179,-1.79973 0.1147,-2.16998 0.52236,-0.20742 1.12492,-0.10225 1.66392,-0.0361 1.16199,0.14269 2.27515,0.41001 3.38521,0.78135 5.65314,1.89131 9.45158,7.13913 10.13924,12.94799 0.19129,1.61572 -0.003,3.29514 -0.35218,4.87701 -0.0987,0.44696 -0.23461,0.88514 -0.37725,1.31966 -0.0506,0.15394 -0.15876,0.38327 -0.055,0.53652 0.19359,0.28597 0.94378,0.43457 1.25987,0.55059 0.40284,0.1478 0.88767,0.42843 1.31966,0.4461 0.36417,0.0149 0.80528,-0.17638 1.14753,-0.29004 0.76047,-0.25257 1.73908,-0.44438 2.40649,-0.89857 0.57543,-0.3916 0.55334,-1.94438 0.64193,-2.58229 0.37461,-2.69589 0.16031,-5.71556 -0.63717,-8.3196 -2.20309,-7.19352 -7.6355,-12.83254 -14.97671,-14.8118 -1.91282,-0.51576 -4.09565,-0.92583 -6.08191,-0.65547 m -0.11475,17.95965 c -2.35215,0.37043 -3.39279,3.21814 -2.14887,5.1387 0.7401,1.14271 2.09981,1.61561 3.41115,1.40923 2.18995,-0.34472 3.35286,-2.93705 2.33391,-4.85182 -0.69851,-1.31254 -2.15673,-1.92274 -3.59619,-1.69611 z"
       id="path3697" /></g><style
     type="text/css"
     id="style396">
	.st0{fill-rule:evenodd;clip-rule:evenodd;fill:#5E98CF;}
	.st1{fill:#044E87;}
	.st2{fill:#0062A2;}
	.st3{fill:#FFFFFF;}
</style></svg>
