<?xml version="1.0" encoding="UTF-8" standalone="no"?>
<!-- Created with Inkscape (http://www.inkscape.org/) -->

<svg
   width="159.99998"
   height="160.00005"
   viewBox="0 0 42.333329 42.333344"
   version="1.1"
   id="svg5"
   xml:space="preserve"
   xmlns="http://www.w3.org/2000/svg"
   xmlns:svg="http://www.w3.org/2000/svg"><defs
     id="defs2" /><g
     id="layer1"
     transform="translate(199.07857,-414.40379)"><g
       id="g2705"
       transform="matrix(1.0062875,0,0,1.0062875,1.2517104,-2.6055721)"><rect
         style="fill:none;fill-opacity:1;stroke:none;stroke-width:0.264507;stroke-dasharray:none"
         id="rect3723-9-8"
         width="42.068825"
         height="42.068825"
         x="-199.07857"
         y="414.40381" /><path
         style="fill:#000000;stroke-width:0.0826823"
         d="m -197.31549,454.70958 -0.24168,-0.24169 v -1.90675 -1.90674 l 0.24126,-0.27003 0.24126,-0.27002 h 1.89145 c 1.66102,0 1.9183,0.0176 2.11193,0.14448 0.34717,0.22747 0.40742,0.62925 0.37766,2.51864 l -0.0266,1.69156 -0.27002,0.24112 -0.27002,0.24112 h -1.90675 -1.90675 z m 2.98293,-2.1561 v -0.82682 h -0.82683 -0.82682 v 0.82682 0.82682 h 0.82682 0.82683 z m 15.83365,2.24538 c -0.73415,-0.44927 -7.96605,-5.51125 -8.12353,-5.68608 -0.26719,-0.29664 -0.24961,-0.72659 0.0413,-1.01136 0.21166,-0.20716 11.04677,-7.78592 11.45318,-8.01108 0.13499,-0.0748 0.86731,-0.10246 2.73501,-0.10335 2.13305,-10e-4 2.59482,0.0197 2.82041,0.12679 0.60378,0.28651 0.60378,1.11112 0,1.39763 -0.22343,0.10602 -0.67943,0.12874 -2.65505,0.13226 l -2.38529,0.004 -4.96094,3.45784 c -2.72851,1.90182 -4.95694,3.48885 -4.95206,3.52675 0.0153,0.11886 6.40376,4.51117 6.52197,4.48411 0.17078,-0.0391 17.23766,-11.92358 17.217,-11.98902 -0.01,-0.0314 -2.69693,-1.91937 -5.97115,-4.19551 -3.98515,-2.77035 -6.00467,-4.22269 -6.10905,-4.3933 -0.38066,-0.62221 0.37472,-1.41683 1.01906,-1.07199 0.53603,0.28688 13.12687,9.13844 13.20892,9.28609 0.17952,0.32305 0.12755,0.62054 -0.16076,0.92029 -0.23385,0.24313 -18.40937,12.92846 -18.88747,13.18223 -0.2579,0.13688 -0.52601,0.1182 -0.81159,-0.0566 z m 15.40088,-0.0889 -0.27002,-0.24126 v -1.89144 c 0,-1.66103 0.0176,-1.91831 0.14448,-2.11194 0.22747,-0.34717 0.62925,-0.40742 2.51864,-0.37765 l 1.69156,0.0266 0.24112,0.27002 0.24112,0.27003 v 1.90674 1.90675 l -0.24169,0.24169 -0.24169,0.24169 h -1.90675 -1.90674 z m 2.99593,-2.15652 v -0.82682 h -0.82682 -0.82682 v 0.82682 0.82682 h 0.82682 0.82682 z m -33.0414,-7.898 c -2.17741,-1.52444 -4.06124,-2.88308 -4.1863,-3.01921 -0.24541,-0.26714 -0.28797,-0.58008 -0.12,-0.88229 0.0814,-0.14652 12.67998,-9.00378 13.21178,-9.28839 0.37169,-0.19893 0.91768,0.0229 1.0598,0.43059 0.21686,0.62209 0.39202,0.4762 -5.47562,4.56061 -2.96414,2.0633 -5.67769,3.95087 -6.03012,4.19459 -0.35244,0.24372 -0.63994,0.46342 -0.63891,0.48821 0.001,0.0248 1.45034,1.05942 3.22065,2.29918 l 3.21877,2.25411 2.69981,-2.00606 2.69982,-2.00606 -1.9173,-0.0413 -1.91731,-0.0413 -0.24112,-0.27003 c -0.31606,-0.35394 -0.31601,-0.67707 1.7e-4,-1.03091 l 0.24126,-0.27003 h 3.36258 3.36257 l 0.19955,0.23199 c 0.21142,0.2458 0.26614,0.68798 0.11912,0.9627 -0.0442,0.0827 -0.38841,0.37145 -0.76482,0.64176 -0.37641,0.27032 -2.22164,1.63272 -4.10052,3.02755 -3.07488,2.2827 -3.44757,2.53607 -3.73055,2.53607 -0.27908,0 -0.75903,-0.3113 -4.27331,-2.7717 z m 14.80996,-4.41401 c -0.0909,-0.0389 -0.23978,-0.15348 -0.33073,-0.25451 -0.15796,-0.17546 -0.16646,-0.31852 -0.18989,-3.19303 l -0.0245,-3.00933 h -0.19045 c -0.22719,0 -0.45641,-0.16224 -2.29028,-1.62104 -0.8003,-0.63661 -1.43969,-1.20733 -1.48442,-1.32498 -0.0432,-0.11367 -0.0786,-1.06835 -0.0786,-2.12151 v -1.91484 l -2.02572,-2.03166 -2.02571,-2.03165 v -2.62137 -2.62136 h -5.04998 -5.04998 l -0.24169,-0.24169 c -0.33356,-0.33356 -0.33356,-0.75402 0,-1.08759 l 0.24169,-0.24168 h 5.59377 5.59378 l 0.24169,0.24168 0.24168,0.24169 v 2.83762 2.83762 l 2.03856,2.03978 2.03855,2.03978 -0.018,1.9819 -0.018,1.98189 1.32098,1.04322 1.32098,1.04323 0.73057,-0.004 0.73058,-0.004 1.24023,-1.01427 1.24024,-1.01426 v -1.44139 -1.44139 l -2.61863,-0.0413 -2.61863,-0.0413 -0.21324,-0.20045 c -0.2859,-0.26874 -0.29195,-0.73232 -0.0138,-1.05584 l 0.19947,-0.23198 2.88045,-0.023 2.88045,-0.023 1.79834,-1.7953 1.79834,-1.7953 v -2.83894 -2.83893 l 0.24169,-0.24169 0.24168,-0.24168 h 5.59378 5.59377 l 0.24169,0.24168 c 0.33357,0.33357 0.33357,0.75403 0,1.08759 l -0.24169,0.24169 h -5.04998 -5.04998 v 2.62136 2.62137 l -2.02571,2.03165 -2.02572,2.03166 -0.001,1.94089 c -8.8e-4,1.39221 -0.0306,1.99896 -0.10515,2.14629 -0.0572,0.11297 -0.64262,0.64494 -1.30102,1.18215 -1.84078,1.50194 -2.13657,1.71304 -2.40035,1.71304 h -0.236 l -0.0245,3.01612 -0.0245,3.01613 -0.20671,0.20648 c -0.22967,0.22942 -0.61544,0.32635 -0.86816,0.21814 z m -4.94076,-1.94228 c -1.03483,-0.51094 -1.93591,-1.0009 -2.00241,-1.08881 -0.17708,-0.23409 -0.1557,-0.7201 0.0428,-0.97243 0.3558,-0.45233 0.53755,-0.40952 2.66142,0.62688 1.21268,0.59177 1.98947,1.01924 2.07561,1.14221 0.34582,0.49373 -0.0326,1.24225 -0.62081,1.22786 -0.17372,-0.004 -0.96837,-0.34904 -2.15659,-0.93571 z m 7.78694,0.70075 c -0.28058,-0.28058 -0.32245,-0.68108 -0.10384,-0.9932 0.0866,-0.12362 0.85955,-0.54818 2.07852,-1.14166 1.66158,-0.80897 1.98012,-0.93744 2.21501,-0.89338 0.54937,0.10307 0.81836,0.86777 0.44588,1.26758 -0.23875,0.25627 -3.85948,2.00235 -4.15214,2.00235 -0.15695,0 -0.32652,-0.0848 -0.48343,-0.24169 z m -21.82813,-7.11067 -0.24168,-0.24169 v -1.91441 -1.91442 l 0.24168,-0.24168 0.24169,-0.24169 h 1.91096 c 2.14693,0 2.24852,0.024 2.39924,0.56661 0.10971,0.39498 0.10839,3.27209 -0.002,3.66842 -0.15155,0.5457 -0.21451,0.56054 -2.37752,0.56054 h -1.931 z m 2.98293,-2.1561 v -0.82682 h -0.82683 -0.82682 v 0.82682 0.82682 h 0.82682 0.82683 z m 31.27551,2.27132 c -0.0993,-0.0695 -0.21899,-0.26489 -0.26598,-0.43408 -0.11007,-0.39633 -0.11139,-3.27344 -0.002,-3.66842 0.15072,-0.54262 0.25231,-0.56661 2.39924,-0.56661 h 1.91096 l 0.24169,0.24169 0.24169,0.24168 v 1.91442 1.91441 l -0.24169,0.24169 -0.24169,0.24168 h -1.93099 c -1.59917,0 -1.96203,-0.0217 -2.11155,-0.12646 z m 2.95495,-2.27132 v -0.82682 h -0.82682 -0.82682 v 0.82682 0.82682 h 0.82682 0.82682 z"
         id="path2679" /></g></g><style
     type="text/css"
     id="style396">
	.st0{fill-rule:evenodd;clip-rule:evenodd;fill:#5E98CF;}
	.st1{fill:#044E87;}
	.st2{fill:#0062A2;}
	.st3{fill:#FFFFFF;}
</style></svg>
