<?xml version="1.0" encoding="UTF-8" standalone="no"?>
<!-- Created with Inkscape (http://www.inkscape.org/) -->

<svg
   width="160.00027"
   height="180.86"
   viewBox="0 0 42.333405 47.85254"
   version="1.1"
   id="svg5"
   xml:space="preserve"
   xmlns="http://www.w3.org/2000/svg"
   xmlns:svg="http://www.w3.org/2000/svg"><defs
     id="defs2" /><g
     id="layer1"
     transform="translate(363.14539,-312.24427)"><path
       style="fill:#000000;stroke-width:0.0938854"
       d="m -321.73311,359.36921 c -0.12525,-0.8672 -0.68024,-2.84376 -1.02086,-3.6357 -0.8814,-2.04925 -1.4055,-3.09194 -1.80069,-3.58249 -0.53255,-0.66104 -1.20911,-1.18831 -1.73571,-1.3527 -0.21438,-0.0669 -0.56038,-0.28356 -0.76888,-0.48141 -0.20851,-0.19785 -0.41675,-0.35973 -0.46276,-0.35973 -0.046,0 -0.2155,-0.1373 -0.37663,-0.30513 -0.16113,-0.16782 -0.44931,-0.42311 -0.6404,-0.56731 -0.53041,-0.40028 -0.46392,-0.51538 0.23936,-0.41434 0.32273,0.0464 0.72553,0.14362 0.8951,0.21612 0.16957,0.0725 0.38081,0.13274 0.46943,0.13389 0.0886,10e-4 0.26673,0.0847 0.39582,0.18569 0.1291,0.10097 0.34034,0.18494 0.46943,0.1866 0.41968,0.005 1.17511,0.43455 1.80958,1.02807 0.63802,0.59683 1.11033,1.23516 1.62707,2.19898 0.5699,1.06297 0.50507,0.18379 -0.19634,-2.66257 -0.60279,-2.44615 -0.7765,-3.74561 -0.61177,-4.57662 0.18908,-0.95387 0.21528,-0.93943 0.38281,0.21094 0.13513,0.92795 0.30784,1.53227 0.97931,3.42683 1.31961,3.72326 1.26693,3.45365 1.26693,6.48446 0,2.49014 -0.009,2.6145 -0.22531,3.23971 -0.24945,0.71983 -0.5115,1.35432 -0.55935,1.35432 -0.0171,0 -0.0784,-0.32743 -0.13614,-0.72761 z m -18.07973,-10.7499 c 0.35962,-0.60885 1.85484,-1.99298 2.80138,-2.59326 l 0.45878,-0.29095 -12.19785,-0.0248 -12.19784,-0.0248 -0.56332,-0.29657 c -0.69734,-0.36715 -1.14308,-0.79603 -1.39934,-1.34643 -0.18591,-0.3993 -0.19825,-0.60223 -0.22476,-3.69821 -0.0247,-2.87828 -0.009,-3.33754 0.13221,-3.78526 0.20907,-0.66469 0.81474,-1.33999 1.46566,-1.63414 l 0.49566,-0.224 10.86477,-0.025 c 10.19909,-0.0235 10.86987,-0.035 10.94807,-0.18777 0.0458,-0.0895 0.10605,-0.31064 0.13384,-0.49137 0.0808,-0.5256 0.50883,-1.4032 0.72298,-1.48242 0.10627,-0.0393 0.36182,-0.0554 0.56789,-0.0358 0.45102,0.043 0.45242,0.055 0.13878,1.18891 -0.12845,0.46437 -0.23354,0.8763 -0.23354,0.91539 0,0.0391 0.16436,0.0711 0.36525,0.0711 h 0.36526 l 0.19805,-0.73401 c 0.24059,-0.89163 0.24477,-1.04026 0.0337,-1.20198 -0.25391,-0.1946 0.0244,-0.3364 0.53984,-0.27507 0.48315,0.0575 0.84497,0.38538 0.84497,0.76573 0,0.25335 -0.20451,0.70202 -0.4827,1.05898 -0.096,0.12315 -0.1745,0.26045 -0.1745,0.30513 0,0.0447 1.76388,0.0799 3.91972,0.0782 3.4662,-0.002 3.89865,-0.0189 3.73756,-0.14076 -0.65988,-0.49911 -2.778,-0.94401 -4.9274,-1.03495 -2.09892,-0.0888 -2.113,-0.25131 -0.0541,-0.62459 1.64045,-0.29742 3.65732,-0.23296 5.25467,0.16795 0.31845,0.0799 0.3121,-0.0807 -0.0449,-1.13682 -0.31968,-0.94572 -0.50865,-1.26106 -1.32201,-2.20609 -0.31572,-0.36683 -0.54968,-0.69134 -0.51989,-0.72113 0.0787,-0.0787 1.04536,0.68897 1.45843,1.15824 1.24675,1.41638 2.13397,3.48021 2.17418,5.05751 0.008,0.30982 -0.0179,0.98094 -0.0573,1.49137 -0.0424,0.54845 -0.0369,0.91143 0.0133,0.88741 0.88417,-0.42298 1.16721,-0.54112 1.42283,-0.59386 l 0.30513,-0.063 3.6e-4,0.73508 c 7.1e-4,1.53792 0.39749,3.15255 0.9433,3.83937 0.15359,0.19326 0.26001,0.37063 0.2365,0.39414 -0.073,0.073 -0.56431,-0.32121 -0.95129,-0.76341 -0.652,-0.74504 -0.8388,-1.03055 -0.85474,-1.30642 -0.009,-0.14838 -0.0825,-0.34374 -0.1643,-0.43411 -0.0818,-0.0904 -0.14871,-0.29313 -0.14871,-0.45056 0,-0.15743 -0.0634,-0.33883 -0.14082,-0.40311 -0.0775,-0.0643 -0.14083,-0.18099 -0.14083,-0.25933 0,-0.15753 -0.26279,-0.39023 -0.44596,-0.39488 -0.0912,-0.002 -0.11736,0.60039 -0.11736,2.70891 0,2.27566 -0.0252,2.7899 -0.15661,3.19682 -0.21986,0.68076 -0.75199,1.24537 -1.54998,1.64459 l -0.66577,0.33307 h 1.18618 1.18618 v -0.94087 c 0,-0.9129 0.007,-0.94405 0.23511,-1.04799 0.12932,-0.0589 0.25187,-0.0897 0.27234,-0.0684 0.0504,0.0524 -0.47992,2.9115 -0.59725,3.2201 -0.0513,0.135 -0.13888,0.24544 -0.19458,0.24544 -0.0557,0 -0.59445,-0.12805 -1.19724,-0.28457 -1.54221,-0.40042 -3.14081,-0.52225 -4.94953,-0.3772 -1.57347,0.12618 -2.76326,0.30515 -3.52659,0.53048 -0.73916,0.21819 -2.35795,1.03301 -2.79432,1.40651 -0.38694,0.33121 -0.54839,0.40805 -0.42756,0.20348 z m 11.02972,-3.65103 c 0.45895,-0.15366 0.8983,-0.50659 1.19113,-0.95684 0.24681,-0.3795 0.25559,-0.4393 0.28574,-1.94651 l 0.0311,-1.55498 -0.64136,-0.62089 c -0.35274,-0.34148 -0.74697,-0.71165 -0.87607,-0.82259 -0.12909,-0.11094 -0.63607,-0.57313 -1.12662,-1.02708 -0.49056,-0.45395 -1.37777,-1.27309 -1.9716,-1.82031 l -1.07968,-0.99494 -2.51144,-0.004 -2.51144,-0.004 10e-4,3.35641 c 7.1e-4,1.84602 0.0248,3.44413 0.0536,3.55136 0.0607,0.22596 0.49513,0.50918 0.78107,0.50918 0.17789,0 0.19676,0.054 0.19676,0.56332 v 0.56331 h -0.47244 c -0.81296,0 -1.44658,-0.37057 -1.76341,-1.03133 -0.13988,-0.29173 -0.15823,-0.74658 -0.15823,-3.92116 v -3.59115 l -10.56855,3e-5 c -11.63155,3e-5 -11.13102,-0.0243 -11.85874,0.57748 -0.70107,0.57976 -0.71111,0.64136 -0.71343,4.37813 l -0.002,3.31259 0.22812,0.44283 c 0.22929,0.44512 0.67173,0.81698 1.21656,1.02248 0.41375,0.15606 31.80501,0.17323 32.26968,0.0176 z m -31.88936,-1.43182 c -0.031,-0.12335 -0.0404,-1.23237 -0.0209,-2.46449 0.0329,-2.07712 0.0506,-2.27215 0.24339,-2.67877 0.40555,-0.85524 1.24452,-1.3282 2.36509,-1.3333 0.71014,-0.003 1.13682,0.1305 1.80382,0.56537 0.24719,0.16116 0.26108,0.16008 0.47071,-0.0369 0.37351,-0.3509 0.91398,-0.52152 1.66866,-0.52679 1.15534,-0.008 1.96346,0.46053 2.40504,1.39459 0.21532,0.45545 0.22195,0.54136 0.22284,2.88698 l 10e-4,2.41755 h -0.70415 -0.70414 v -2.40347 -2.40347 l -0.3118,-0.31181 c -0.40296,-0.40295 -0.86952,-0.49683 -1.42152,-0.28602 -0.73614,0.28113 -0.75061,0.33712 -0.78398,3.03416 l -0.0293,2.37061 h -0.65134 -0.65134 v -2.33326 c 0,-2.27447 -0.005,-2.34129 -0.21449,-2.65226 -0.49672,-0.73877 -1.77826,-0.67262 -2.18439,0.11275 -0.10794,0.20874 -0.13603,0.73891 -0.13603,2.56791 v 2.30486 h -0.65541 c -0.61266,0 -0.65908,-0.0146 -0.71169,-0.22428 z m 11.1312,0.0678 c -1.74547,-0.60939 -2.21466,-2.86673 -0.85177,-4.09802 1.39371,-1.25913 3.84425,-0.78662 4.53581,0.8746 0.0537,0.12909 0.12347,0.6572 0.15496,1.17357 l 0.0573,0.93886 h 0.56331 0.56331 l 0.0469,-1.18931 c 0.0448,-1.13499 0.0598,-1.20764 0.32947,-1.59092 0.37927,-0.53917 0.99362,-0.84676 1.8061,-0.90428 1.47885,-0.10468 2.51455,0.65698 2.58453,1.90068 l 0.0211,0.37554 -0.66805,0.0273 -0.66806,0.0273 -0.0596,-0.3726 c -0.0807,-0.50475 -0.41568,-0.76241 -0.98758,-0.75966 -0.4581,0.002 -0.75351,0.16951 -0.93868,0.53159 -0.0644,0.12588 -0.10487,0.78747 -0.10487,1.71341 v 1.50834 h -1.91604 -1.91604 l -0.0329,-1.38481 c -0.0234,-0.9851 -0.0733,-1.4651 -0.17291,-1.66297 -0.36989,-0.73481 -1.44203,-0.95345 -2.08332,-0.42484 -0.64826,0.53435 -0.70164,1.35519 -0.12128,1.86476 0.32711,0.2872 0.59204,0.36714 1.36044,0.41046 l 0.42249,0.0238 0.028,0.58679 0.028,0.58678 -0.77903,-0.004 c -0.45475,-0.002 -0.95491,-0.0659 -1.20152,-0.15198 z m 12.9562,-2.28868 v -2.44514 l 0.68067,0.0276 0.68067,0.0276 0.0255,1.85866 0.0255,1.85867 0.58478,-0.0279 0.58479,-0.0279 0.0526,-1.12663 c 0.0566,-1.2117 0.11826,-1.44116 0.51326,-1.91059 0.3834,-0.45565 0.92751,-0.69424 1.69798,-0.74457 1.12443,-0.0734 1.93299,0.30972 2.33732,1.10763 0.232,0.45783 0.23757,0.51373 0.2126,2.13546 l -0.0256,1.66532 -0.6259,0.0276 -0.62591,0.0276 -0.0313,-1.6554 -0.0313,-1.65539 -0.26342,-0.22643 c -0.39735,-0.34155 -1.08423,-0.31982 -1.49545,0.0473 l -0.30661,0.27374 -0.0297,1.60397 -0.0297,1.60398 h -1.96541 -1.96542 z m 0.001,-3.44206 c 0.002,-0.50765 0.0483,-0.60869 0.35614,-0.77087 0.52434,-0.27624 1.09689,0.20422 1.03274,0.86662 l -0.029,0.29915 -0.68067,0.0276 -0.68067,0.0276 z m 13.38286,5.3943 c 0.41419,-3.1016 0.51725,-6.17704 0.28082,-8.37928 -0.24245,-2.25826 -0.62585,-4.09401 -1.12748,-5.39842 -0.69071,-1.79611 -1.68033,-3.37457 -3.04599,-4.85838 -0.9674,-1.05109 -1.65651,-1.62016 -2.61375,-2.15844 -0.60555,-0.34052 -0.49684,-0.39413 0.2666,-0.13147 2.91798,1.00394 5.65163,3.81553 7.07309,7.27479 0.59692,1.45266 0.86664,3.52477 0.77176,5.92912 -0.0326,0.82619 -0.0808,1.67116 -0.10698,1.87771 -0.0471,0.37114 -0.0466,0.37196 0.0485,0.0704 0.0529,-0.16782 0.12763,-0.30513 0.16605,-0.30513 0.11144,0 0.67586,1.1884 0.67586,1.42305 0,0.0471 -0.0851,0.0402 -0.18916,-0.0155 -0.22386,-0.11981 -0.22419,-0.1191 -0.37317,0.79255 l -0.10637,0.65097 0.34296,0.69394 c 0.18863,0.38166 0.32298,0.7139 0.29856,0.73832 -0.0734,0.0734 -0.70984,-0.72091 -0.90615,-1.13106 -0.14327,-0.29931 -0.17358,-0.51553 -0.13922,-0.9929 0.0652,-0.90558 -0.0817,-0.46601 -0.42642,1.27598 -0.3061,1.54693 -0.7102,2.94887 -0.84998,2.94887 -0.0441,0 -0.0619,-0.1373 -0.0395,-0.30512 z m -2.14387,-8.40275 c -0.0259,-0.14201 -0.11777,-0.49056 -0.20409,-0.77456 -0.17326,-0.57004 -0.26292,-0.96638 -0.42406,-1.87449 -0.0593,-0.33387 -0.14283,-0.65073 -0.18574,-0.70414 -0.0429,-0.0534 -0.10092,-0.2661 -0.12892,-0.47265 -0.028,-0.20655 -0.10227,-0.60791 -0.16504,-0.89191 -0.1,-0.45233 -0.19237,-1.87771 -0.12171,-1.87771 0.0717,0 0.44187,0.97543 0.69043,1.81938 0.35836,1.21676 0.55619,2.43785 0.62927,3.88416 0.0548,1.08351 0.0156,1.47094 -0.0901,0.89192 z m -25.22937,-0.74173 c 0,-0.34429 0.66391,-1.2968 1.48377,-2.12874 0.81132,-0.82328 2.21432,-1.85043 3.02058,-2.2114 0.45096,-0.2019 0.63758,-0.17617 0.3306,0.0456 -0.28437,0.20544 -1.17341,1.08887 -1.17341,1.16602 0,0.0373 0.42433,-0.008 0.94297,-0.10157 0.93801,-0.16848 1.53666,-0.2147 2.34302,-0.1809 l 0.42248,0.0177 -0.37554,0.0918 c -0.20655,0.0505 -0.79556,0.19448 -1.30891,0.31993 -1.11705,0.27299 -2.94656,1.04184 -3.85383,1.61959 -0.36094,0.22984 -0.92073,0.67187 -1.24399,0.98228 -0.45583,0.43771 -0.58774,0.52292 -0.58774,0.37967 z m 8.59052,-0.75004 c -0.10327,-0.0276 -0.90599,-0.25278 -1.78382,-0.50045 -0.87783,-0.24767 -1.86396,-0.48097 -2.1914,-0.51845 -0.41143,-0.0471 -0.56525,-0.0983 -0.4979,-0.16559 0.16787,-0.16787 1.49644,-0.19687 3.26435,-0.0712 1.93674,0.13763 2.58292,0.069 3.36797,-0.35756 1.13807,-0.6184 1.6867,-2.39962 1.31541,-4.2707 -0.09,-0.45375 -0.13868,-0.85004 -0.10809,-0.88062 0.18405,-0.18405 0.95089,1.2814 1.13932,2.17729 0.17489,0.83143 0.17447,1.00754 -0.004,1.69278 -0.22029,0.84575 -0.50545,1.33721 -1.07476,1.85231 -0.77495,0.70114 -1.52257,1.02247 -2.46854,1.06099 -0.42392,0.0173 -0.85525,0.009 -0.95853,-0.0188 z m -1.09779,-2.80256 c -2.16321,-1.30947 -4.27641,-1.85084 -8.24382,-2.11193 -1.14215,-0.0752 -2.80903,-0.2188 -5.35218,-0.46119 -0.96697,-0.0922 -1.83619,-0.30866 -2.12052,-0.52817 -0.16027,-0.12373 -0.0858,-0.1337 0.71295,-0.0955 4.0962,0.19602 5.47647,0.15552 8.26193,-0.24243 1.97579,-0.28227 2.76778,-0.48684 3.95012,-1.0203 0.89075,-0.4019 1.16309,-0.48182 1.76704,-0.51858 l 0.71399,-0.0435 -0.65927,0.21882 c -0.8296,0.27535 -0.95721,0.34362 -1.87564,1.00345 -0.42452,0.30499 -1.03682,0.64191 -1.40828,0.7749 -0.62256,0.22289 -0.64235,0.23878 -0.37554,0.30148 2.6494,0.62254 4.66169,1.59311 5.29953,2.55608 0.50651,0.76469 0.37249,0.79804 -0.67031,0.1668 z m -0.0288,-1.19121 c -0.25799,-0.14409 -0.23834,-0.11726 -0.37332,-0.50989 -0.31649,-0.92059 0.67711,-1.5611 1.26409,-0.81488 0.33104,0.42086 0.16423,1.10036 -0.32483,1.3232 -0.29658,0.13512 -0.32668,0.13521 -0.56594,0.001 z m 15.73869,-2.68261 c -0.4269,-0.83295 -1.09948,-1.77022 -1.72986,-2.41064 l -0.6536,-0.664 0.68158,0.77755 c 0.37486,0.42766 0.65816,0.80097 0.62954,0.82959 -0.0286,0.0286 -0.41638,-0.16316 -0.86169,-0.42619 -0.44531,-0.26302 -1.05528,-0.60221 -1.35547,-0.75375 -1.82704,-0.92228 -6.46578,-1.35749 -7.30142,-0.68502 -0.11204,0.0902 -0.35554,0.28556 -0.54111,0.43423 -0.21815,0.17476 -0.74349,0.39439 -1.48624,0.62137 -1.27829,0.39063 -1.90095,0.66206 -2.76677,1.2061 -0.32186,0.20223 -0.69474,0.38864 -0.82861,0.41423 -0.13388,0.0256 -0.20853,0.018 -0.16589,-0.0169 0.0426,-0.0349 0.27504,-0.22 0.51643,-0.41133 0.2414,-0.19133 0.76592,-0.73845 1.1656,-1.21582 0.70783,-0.84541 1.00925,-1.09469 2.13008,-1.76159 0.29835,-0.17752 0.7771,-0.56535 1.0639,-0.86184 0.37152,-0.38409 0.61704,-0.55701 0.85396,-0.60146 0.37978,-0.0712 2.12515,0.02 3.03198,0.15849 1.47626,0.22546 3.2859,0.97558 4.52132,1.87415 0.72617,0.52817 0.83926,0.50087 0.18338,-0.0443 -0.91558,-0.76101 -2.52334,-1.53535 -4.01101,-1.93178 -0.54383,-0.14492 -1.15673,-0.21228 -2.30652,-0.2535 l -1.56589,-0.0561 -0.0676,-0.71353 c -0.10446,-1.10212 0.15441,-2.86671 0.57281,-3.90454 0.65206,-1.61745 1.456,-2.82936 2.39563,-3.61132 0.31959,-0.26597 0.59933,-0.46533 0.62164,-0.44302 0.0223,0.0223 -0.0444,0.20407 -0.14815,0.40391 -0.15049,0.28976 -0.18002,0.48693 -0.14579,0.9736 0.0236,0.33564 0.0537,0.81797 0.067,1.07184 0.0132,0.25387 0.0738,0.47818 0.13461,0.49846 0.0695,0.0232 0.0918,0.15232 0.0601,0.34797 -0.0293,0.18054 -0.007,0.33815 0.0537,0.37553 0.0573,0.0354 0.10424,0.18566 0.10424,0.33383 0,0.14817 0.0634,0.33278 0.14083,0.41024 0.0774,0.0774 0.14083,0.22834 0.14083,0.3353 0,0.10696 0.0845,0.27898 0.18777,0.38225 0.10327,0.10328 0.18777,0.29897 0.18777,0.43487 0,0.16078 0.11479,0.35536 0.3286,0.55701 0.18072,0.17045 0.32859,0.37514 0.32859,0.45488 0,0.0797 0.10563,0.21417 0.23472,0.29876 0.13589,0.089 0.23471,0.24323 0.23471,0.36621 0,0.11683 0.0658,0.26704 0.14626,0.3338 0.0804,0.0668 0.20332,0.25797 0.27308,0.42493 0.0698,0.16695 0.21509,0.33157 0.32296,0.3658 0.10787,0.0342 0.22193,0.16505 0.25346,0.29071 0.0316,0.12565 0.0738,0.22845 0.0939,0.22845 0.0201,0 0.24299,-0.14832 0.49531,-0.32959 1.23252,-0.88548 3.36481,-1.54033 4.44374,-1.36473 0.61981,0.10088 1.40532,0.42108 1.62298,0.66159 0.14844,0.16403 0.13901,0.16509 -0.25149,0.0283 -0.50864,-0.1782 -1.53912,-0.1128 -2.4712,0.15682 -0.69902,0.20221 -2.04567,0.81435 -2.49438,1.13387 -0.2108,0.15009 -0.31077,0.17079 -0.45421,0.094 -0.35286,-0.18884 -0.6795,-0.29028 -0.61888,-0.19219 0.0318,0.0515 0.10255,0.0936 0.15718,0.0936 0.0546,0 0.26731,0.17956 0.47262,0.39902 0.20531,0.21945 0.53798,0.568 0.73927,0.77455 0.51916,0.53272 0.5075,0.52002 0.90504,0.9858 0.73486,0.86099 2.05881,3.15238 1.97073,3.41078 -0.0206,0.0605 -0.12952,-0.0697 -0.24202,-0.28919 z m -2.36,-4.70776 c -0.4634,-0.1289 -0.23643,-0.3193 0.97892,-0.8212 0.66749,-0.27566 1.22286,-0.49105 1.23415,-0.47866 0.0113,0.0124 -0.33924,0.32883 -0.77894,0.7032 -0.79442,0.67639 -0.93589,0.73525 -1.43413,0.59666 z"
       id="path375" /></g><style
     type="text/css"
     id="style396">
	.st0{fill-rule:evenodd;clip-rule:evenodd;fill:#5E98CF;}
	.st1{fill:#044E87;}
	.st2{fill:#0062A2;}
	.st3{fill:#FFFFFF;}
</style></svg>
