<?xml version="1.0" encoding="UTF-8" standalone="no"?>
<!-- Created with Inkscape (http://www.inkscape.org/) -->

<svg
   width="200"
   height="160"
   viewBox="0 0 52.916666 42.333332"
   version="1.1"
   id="svg5"
   xml:space="preserve"
   xmlns="http://www.w3.org/2000/svg"
   xmlns:svg="http://www.w3.org/2000/svg"><defs
     id="defs2" /><g
     id="layer1"><path
       style="fill:#136083;fill-opacity:1;stroke-width:0.113729"
       d="m 13.878583,38.976686 -0.31275,-0.114222 v -0.559169 -0.559171 h 0.74378 0.74377 l 0.43892,-0.223923 0.43893,-0.223925 0.23893,-0.38658 0.23891,-0.38658 V 35.953447 35.38378 l -0.32936,-1.065986 -0.32937,-1.065986 -0.97851,-3.034521 -0.97854,-3.034522 v -0.1259 -0.125901 l 0.98932,0.03286 0.98932,0.03286 0.71868,2.331454 0.71869,2.331455 0.28197,1.023566 0.28198,1.023565 3.5e-4,0.335502 3.4e-4,0.335503 0.10699,-0.108048 0.107,-0.108047 0.45943,-1.573198 0.45944,-1.573198 0.2764,-1.440634 0.27642,-1.440634 0.0777,-0.59708 0.0778,-0.59708 h 0.95604 0.95603 v 0.189241 0.189242 l -0.4051,1.829456 -0.4051,1.829458 -0.55421,1.670257 -0.55421,1.670256 -0.52523,1.047567 -0.52524,1.047565 -0.35872,0.52347 -0.35875,0.523468 -0.56973,0.556891 -0.56975,0.556891 -0.57239,0.266538 -0.57238,0.266535 -0.68237,-0.0079 -0.68238,-0.0079 -0.31276,-0.114235 z m 25.25391,-2.201022 -1.44409,-0.851373 -0.6001,0.128698 -0.6001,0.128697 -0.86698,-0.06685 -0.86699,-0.06686 -0.63116,-0.236151 -0.63116,-0.236149 -0.4989,-0.439139 -0.49888,-0.439137 -0.31389,-0.57672 -0.3139,-0.576722 -0.16143,-0.544129 -0.16143,-0.544131 -0.12501,-1.080429 -0.12501,-1.080431 0.0771,-1.023566 0.0771,-1.023566 0.21151,-0.831811 0.21151,-0.831813 0.36362,-0.682221 0.36363,-0.682223 0.54558,-0.490533 0.5456,-0.490535 0.51814,-0.24356 0.51815,-0.243559 0.84941,-0.132054 0.84941,-0.132054 0.7889,0.122112 0.78892,0.122115 0.60489,0.280631 0.60489,0.280631 0.42721,0.433341 0.42722,0.433339 0.28813,0.491672 0.28814,0.491672 0.23286,0.881831 0.23284,0.881832 10e-4,1.705942 10e-4,1.705943 -0.23159,0.870498 -0.2316,0.870499 -0.29575,0.583637 -0.29575,0.583636 -0.39407,0.436185 -0.39407,0.436187 v 0.04811 0.04811 l 1.02356,0.501709 1.02357,0.501708 v 0.104922 0.104923 l -0.34953,0.610923 -0.34954,0.610925 -0.0201,-0.0017 -0.0201,-0.0018 -1.44411,-0.851374 z m -1.68552,-2.442382 0.4438,-0.226409 0.29535,-0.387212 0.29534,-0.387211 0.24851,-0.665837 0.24852,-0.665836 0.004,-2.047132 0.004,-2.04713 -0.21567,-0.716725 -0.21569,-0.716727 -0.33155,-0.457703 -0.33156,-0.457704 -0.47634,-0.21626 -0.47632,-0.216259 -0.69694,-0.0025 -0.69691,-0.0025 -0.38351,0.161279 -0.38351,0.16128 -0.30667,0.322071 -0.30665,0.322072 -0.22412,0.511784 -0.22413,0.511782 -0.1371,0.706478 -0.13711,0.706479 0.0564,1.738707 0.0564,1.738704 0.24183,0.671555 0.24184,0.671554 0.29962,0.392823 0.29962,0.392822 0.46811,0.212582 0.46813,0.212584 0.71535,0.0025 0.71533,0.0025 z m -11.88268,1.739179 -0.34118,-0.04536 -0.56865,-0.180783 -0.56865,-0.180781 -0.53217,-0.266434 -0.53216,-0.266436 -0.0681,-0.11026 -0.0681,-0.11026 0.23599,-0.502054 0.23599,-0.502054 0.68448,0.276474 0.68449,0.276474 0.6595,0.10621 0.65948,0.10621 0.61256,-0.114797 0.61255,-0.114798 0.28433,-0.208404 0.28432,-0.208405 0.2559,-0.375982 0.25588,-0.375983 v -0.384886 -0.384889 l -0.15512,-0.371277 -0.15514,-0.371279 -0.36221,-0.304787 -0.36222,-0.304785 -1.53458,-0.86621 -1.53459,-0.86621 -0.40459,-0.415907 -0.4046,-0.415906 -0.18725,-0.34119 -0.18726,-0.341187 3.5e-4,-1.023566 3.4e-4,-1.023566 0.25033,-0.469499 0.25031,-0.469501 0.52557,-0.462631 0.52559,-0.46263 0.53117,-0.172576 0.53118,-0.172574 0.58255,-0.07374 0.58256,-0.07375 0.79956,0.134862 0.79955,0.134862 0.69641,0.329352 0.69642,0.329352 -0.17949,0.429914 -0.17948,0.429916 -0.086,0.08622 -0.086,0.08622 -0.89299,-0.228387 -0.89298,-0.228386 h -0.38636 -0.38636 l -0.50537,0.127255 -0.50538,0.127254 -0.34109,0.388485 -0.3411,0.388485 v 0.513475 0.513473 l 0.15975,0.307108 0.15976,0.307109 0.31942,0.276235 0.31943,0.276234 1.59639,0.897169 1.59637,0.897168 0.38356,0.361946 0.38354,0.361944 0.26928,0.568648 0.2693,0.568648 0.001,0.649678 10e-4,0.649678 -0.23241,0.621164 -0.23241,0.621163 -0.46073,0.474751 -0.46072,0.474752 -0.6067,0.277759 -0.60671,0.277757 -0.66199,0.108423 -0.662,0.108422 -0.34119,-0.01639 -0.34119,-0.01639 -0.34118,-0.04536 z m -25.48590967,-1.99612 0.0781,-1.848105 0.16638,-2.331454 0.16637,-2.331456 0.17066,-1.649078 0.17064,-1.649077 0.0579,-0.255892 0.0579,-0.255891 h 1.29780997 1.29781 l 0.0364,0.219826 0.0364,0.219827 1.36476,4.15674 1.36475,4.156739 0.0604,0.002 0.0604,0.002 1.44041,-4.350154 1.4404,-4.350154 1.2570597,-0.03215 1.25707,-0.03216 10e-4,0.202752 10e-4,0.202751 0.2206,2.16086 0.22058,2.160862 0.16921,2.331454 0.1692,2.331455 0.0709,1.393188 0.0709,1.393185 h -1.0202 -1.0202 l -0.0615,-0.938268 -0.0615,-0.938269 -0.11687,-2.331454 -0.11687,-2.331455 -0.13412,-1.454945 -0.13411,-1.454948 -0.0852,0.0902 -0.0852,0.0902 -1.09845,3.468749 -1.09844,3.468751 -0.36975,1.137295 -0.36977,1.137294 -0.80503,0.03317 -0.80503,0.03317 -0.41866,-1.341062 -0.41865,-1.34106 -0.79921,-2.502049 -0.7992,-2.50205 -0.3111,-0.9667 -0.31108,-0.966702 -0.079,1.023566 -0.079,1.023566 -0.10788,1.990267 -0.10787,1.990265 -0.002,1.435837 -0.002,1.435834 -0.0711,0.355405 -0.0711,0.355404 H 0.91187333 4.2333333e-4 Z M 42.908053,29.839917 v -6.084529 h 0.96669 0.96671 v 5.345286 5.345287 h 1.9334 1.93341 v 0.739244 0.739241 h -2.90011 -2.9001 z m 7.16495,5.459016 v -0.625512 h -0.22746 -0.22745 v -0.113735 -0.113735 h 0.62552 0.62551 v 0.100473 0.10046 l -0.22747,0.05949 -0.22746,0.05949 v 0.579294 0.579296 h -0.17058 -0.17061 z m 1.1373,-0.113722 v -0.739244 h 0.21021 0.21021 l 0.19849,0.483351 0.1985,0.483352 0.16942,-0.483352 0.16942,-0.483351 h 0.27486 0.27483 v 0.739244 0.739241 h -0.17059 -0.17059 l -0.008,-0.483351 -0.007,-0.48335 -0.21886,0.493014 -0.21887,0.493015 -0.13489,-0.04496 -0.13488,-0.04496 -0.12162,-0.354593 -0.1215,-0.354593 -0.0853,-0.08399 -0.0852,-0.08399 v 0.473872 0.473875 h -0.11374 -0.11375 V 35.1852 Z m 0.9667,-11.208196 -0.56865,-0.448912 -1.02356,-0.530724 -1.02357,-0.530727 -0.60607,-0.446291 -0.60607,-0.446291 -0.33221,-0.523818 -0.33219,-0.523817 v -0.137894 -0.137887 l 0.71081,-0.247282 0.71082,-0.247282 0.99928,-0.06349 0.99926,-0.0635 -0.0325,-0.09295 -0.0326,-0.09295 -1.23561,-0.850008 -1.23562,-0.850009 -1.18049,-0.420585 -1.18049,-0.420586 -0.34323,-0.557808 -0.34321,-0.557804 -0.58188,-1.275498 -0.58186,-1.275497 -0.43476,-1.002563 -0.43478,-1.002559 -0.64294,-0.966287 -0.64295,-0.9662845 -0.93195,-0.931256 -0.93197,-0.931256 -0.99454,-0.667848 -0.99454,-0.667848 -0.81955,-0.323372 -0.81955,-0.323372 -0.75894,-0.0042 -0.75895,-0.0042 -0.34467,-0.290013 -0.34465,-0.290012 -0.74197,-0.386735 -0.74195,-0.386734 -0.40184,-0.07535 -0.40184,-0.07535 -0.16935,0.14054 -0.16934,0.140548 v 0.191265 0.191274 l 0.33818,0.505611 0.33818,0.505619 0.50474,0.708895 0.50472,0.708894 0.47655,1.429977 0.47654,1.429976 0.37253,0.4880325 0.37252,0.488041 0.18581,0.283571 0.18581,0.283578 -0.35158,1.126918 -0.3516,1.126912 0.0499,1.194163 0.0499,1.194157 0.23746,0.609841 0.23746,0.609844 0.1943,0.214696 0.1943,0.214698 h 0.13726 0.13726 l 0.075,-0.731742 0.0749,-0.731743 0.16378,-0.464232 0.16379,-0.464227 0.30139,-0.395133 0.30138,-0.395135 0.0885,0.05468 0.0885,0.05468 0.0784,0.31383 0.0784,0.313833 0.56855,1.137294 0.56855,1.137296 0.60748,0.909836 0.60745,0.909836 0.48191,0.48335 0.4819,0.483351 h -0.0864 -0.0864 l -0.97698,-0.881404 -0.97697,-0.881404 -0.31665,-0.341188 -0.31666,-0.341189 -0.3721,-0.710389 -0.37212,-0.710389 -0.0763,-4.3e-4 -0.0763,-4.3e-4 -0.0817,0.76388 -0.0817,0.763878 -0.32986,0.329858 -0.32985,0.329857 -0.36094,-0.07219 -0.36096,-0.07218 -0.30638,-0.293527 -0.30638,-0.293526 -0.29691,-0.66162 -0.29693,-0.66162 -0.12424,-0.66348 -0.12425,-0.663477 0.0586,-0.966702 0.0586,-0.966701 0.25459,-0.930857 0.25458,-0.930862 -0.30695,-0.364812 -0.30697,-0.364808 -0.26345,-0.524003 -0.26343,-0.5240015 -0.41351,-1.22827 -0.41351,-1.228269 -0.73689,-0.989457 -0.7369,-0.989457 -0.12647,-0.37703 -0.12647,-0.377038 0.0699,-0.372453 0.0699,-0.372454 0.29202,-0.274078 0.29203,-0.274079 0.6445,0.0042 0.64451,0.0042 0.74716,0.350137 0.74716,0.350129 0.49249,0.356774 0.49251,0.356765 h 0.50673 0.50674 l 0.69879,0.178705 0.69879,0.178704 0.62552,0.346968 0.62551,0.346959 0.71674,0.507874 0.71673,0.507865 0.78528,0.700834 0.7853,0.700835 0.59241,0.739245 0.59241,0.739245 0.47128,0.7392435 0.47128,0.739237 0.766,1.762809 0.76604,1.762807 0.42134,0.788032 0.42134,0.788029 0.17059,0.08906 0.17059,0.08906 0.9667,0.449753 0.96672,0.449756 0.9287,0.692472 0.92871,0.692472 0.57821,0.59048 0.5782,0.590481 v 0.132599 0.132599 l -0.71081,0.13837 -0.71081,0.138372 -0.87228,0.175972 -0.87227,0.175974 0.0634,0.164984 0.0634,0.164983 1.11746,0.734481 1.11746,0.734481 0.74351,0.852497 0.7435,0.852497 v 0.110096 0.110096 l -0.0284,-0.0059 -0.0284,-0.0059 -0.56865,-0.448912 z m -16.04624,-16.1721855 -0.18682,-0.369623 -0.23119,-0.252924 -0.2312,-0.252924 0.18788,-0.07213 0.18789,-0.07213 0.282,0.07077 0.28201,0.07077 0.17273,0.334034 0.17274,0.334025 -0.13206,0.289835 -0.13206,0.289835 h -0.0925 -0.0925 z"
       id="path512" /></g><style
     type="text/css"
     id="style396">
	.st0{fill-rule:evenodd;clip-rule:evenodd;fill:#5E98CF;}
	.st1{fill:#044E87;}
	.st2{fill:#0062A2;}
	.st3{fill:#FFFFFF;}
</style></svg>
