<?xml version="1.0" encoding="UTF-8" standalone="no"?>
<!-- Created with Inkscape (http://www.inkscape.org/) -->

<svg
   width="160"
   height="160"
   viewBox="0 0 42.333333 42.333332"
   version="1.1"
   id="svg5"
   xml:space="preserve"
   xmlns="http://www.w3.org/2000/svg"
   xmlns:svg="http://www.w3.org/2000/svg"><defs
     id="defs2" /><g
     id="layer1"><path
       style="fill:#01d7ff;stroke:none;stroke-width:0.00859086"
       d="m 21.197063,7.0038424 h -0.009 c -0.14888,-0.18464 -0.35644,-0.34114 -0.53264,-0.49972 -0.41545,-0.37389 -0.8401,-0.73782 -1.28004,-1.0828 -0.44543,-0.3493 -0.90032,-0.69081 -1.37453,-1.00037 -0.37963,-0.24782 -0.76381,-0.48759 -1.15977,-0.70861 -0.31924,-0.17821 -0.64526,-0.34938 -0.97935,-0.49826 -1.05883,-0.47186 -2.18054,-0.84072 -3.35044,-0.84072 -0.65222,0 -1.33339,0.12085 -1.90717,0.44673 -0.20704,0.11757 -0.40334,0.24949 -0.58418,0.40489 -0.3063501,0.26328 -0.5577201,0.57929 -0.7758401,0.9181 -0.31245,0.48534 -0.53848,1.04951 -0.68564,1.60649 -0.49945,1.89092 -0.42233,3.87042 -0.15249,5.7902496 0.0888,0.6322 0.21744,1.25744 0.35111,1.88139 0.0339,0.15799 0.0714,0.31572 0.11057,0.4725 0.0101,0.0404 0.0542,0.13823 0.0337,0.17672 -0.0215,0.0403 -0.13763,0.0514 -0.17869,0.064 -0.17724,0.0545 -0.35635,0.10274 -0.53264,0.16022 -0.6941,0.2262 -1.38937,0.45394 -2.06181,0.74036 -0.46465,0.19794 -0.92276,0.40463 -1.37453,0.63057 -0.36292,0.18144 -0.7184,0.37826 -1.06527,0.5889 -0.28709,0.17431 -0.56887,0.35712 -0.8419,0.55274 -1.42333,1.01991 -2.92599005,2.55922 -2.84324005,4.44886 0.0135,0.30885 0.0712,0.61408 0.15794,0.91064 0.26498,0.9059 0.85824005,1.69523 1.51694005,2.35389 1.23674,1.23674 2.80449,2.12263 4.39852,2.8142 0.65601,0.28453 1.32907,0.53899 2.01026,0.75668 0.19124,0.0611 0.38333,0.11941 0.57559,0.17714 0.05,0.015 0.17628,0.028 0.20807,0.0707 0.021,0.0282 -0.006,0.0939 -0.0137,0.12449 -0.0276,0.11151 -0.054,0.22311 -0.0797,0.33504 -0.10472,0.45626 -0.19518,0.91442 -0.28126,1.37454 -0.30187,1.61388 -0.40199,3.28222 -0.22718,4.91397 0.0801,0.74758 0.24926,1.50083 0.52949,2.19927 0.19243,0.47962 0.44397,0.93803 0.77026,1.34017 0.19011,0.23436 0.40746,0.4469 0.6489501,0.62799 1.38923,1.04199 3.29313,0.79723 4.82806,0.25094 0.28831,-0.10266 0.57001,-0.22061 0.8505,-0.34269 0.34862,-0.15163 0.68985,-0.3249 1.02231,-0.50926 0.41056,-0.22775 0.8121,-0.47104 1.20272,-0.73143 0.81528,-0.54354 1.59704,-1.14413 2.32813,-1.79695 0.19956,-0.17818 0.39706,-0.35824 0.59277,-0.54054 0.0441,-0.0411 0.14201,-0.17895 0.20618,-0.1792 0.0421,-1e-4 0.10128,0.0753 0.12886,0.10266 0.10051,0.1 0.20678,0.19389 0.30927,0.29174 0.39355,0.37568 0.81244,0.73229 1.23709,1.07249 1.379,1.10487 2.89417,2.1252 4.57893,2.69924 0.44947,0.1531 0.91277,0.28058 1.38313,0.34991 0.25196,0.0371 0.50479,0.0389 0.75599,0.0686 0.23573,0.0278 0.49595,-0.011 0.73022,-0.0391 0.81098,-0.0974 1.58115,-0.46597 2.14737,-1.05805 0.44493,-0.46528 0.7554,-1.01931 1.00789,-1.60649 0.33297,-0.77447 0.50239,-1.63081 0.59182,-2.46558 0.16305,-1.52367 0.0662,-3.05783 -0.1683,-4.57034 -0.0687,-0.44312 -0.15249,-0.8852 -0.24913,-1.32299 -0.0508,-0.22963 -0.12826,-0.46305 -0.15962,-0.69586 0.24174,-0.0325 0.48968,-0.14631 0.72163,-0.22044 0.54862,-0.17526 1.09121,-0.37594 1.62368,-0.59561 1.94883,-0.8041 3.96296,-1.86499 5.32135,-3.52234 0.81475,-0.99405 1.34344,-2.25458 1.03691,-3.54802 -0.24338,-1.02653 -0.90126,-1.88699 -1.65047,-2.60338 -1.37333,-1.31311 -3.14847,-2.20407 -4.90538,-2.88455 -0.45635,-0.1768 -0.91794,-0.33685 -1.38313,-0.48848 -0.28127,-0.0917 -0.56915,-0.20051 -0.85909,-0.26056 0.12139,-0.58788 0.26443,-1.16896 0.36726,-1.76113 0.28582,-1.64532 0.40498,-3.3292296 0.22697,-4.9912896 -0.12749,-1.18983 -0.43925,-2.42298 -1.12712,-3.41917 -0.20609,-0.29855 -0.45111,-0.57049 -0.72996,-0.8025 -0.16882,-0.14042 -0.34965,-0.25844 -0.54123,-0.36466 -0.64088,-0.3553 -1.38201,-0.46272 -2.10476,-0.43108 -1.05625,0.0463 -2.07796,0.3894 -3.03257,0.82772 -0.31022,0.14242 -0.61159,0.30299 -0.91064,0.46721 -0.38555,0.21175 -0.75951,0.44599 -1.1254,0.6899 -0.46588,0.31058 -0.92008,0.63986 -1.35735,0.98967 -0.43462,0.34768 -0.85849,0.70626 -1.27145,1.07927 -0.1506,0.13606 -0.30146,0.27194 -0.44673,0.41369 -0.0663,0.0647 -0.14381,0.12135 -0.19759,0.19772 m 8.47059,-2.86689 c 0.12826,-0.0151 0.26752,-3.7e-4 0.39518,0.0133 0.25429,0.0272 0.50394,0.0876 0.73022,0.21026 0.52173,0.28286 0.83933,0.86193 1.04311,1.39765 0.27679,0.72766 0.39956,1.5033 0.45248,2.27658 0.0696,1.01609 0.01,2.0306496 -0.11108,3.0411696 -0.0793,0.66167 -0.20549,1.31475 -0.33814,1.96731 -0.0315,0.15515 -0.0661,0.3103 -0.10455,0.4639 -0.008,0.0335 -0.0157,0.1354 -0.0582,0.14072 -0.11125,0.014 -0.2835,-0.0612 -0.39397,-0.0856 -0.30558,-0.0674 -0.61245,-0.12783 -0.91923,-0.18917 -0.93417,-0.18685 -1.88062,-0.33556 -2.82639,-0.44879 -0.34913,-0.0418 -0.69826,-0.0852 -1.04809,-0.12018 -0.10867,-0.0109 -0.2182,-0.018 -0.32645,-0.0322 -0.0406,-0.005 -0.091,0.002 -0.12732,-0.0207 -0.0674,-0.0417 -0.12138,-0.15911 -0.16726,-0.22345 -0.12697,-0.17809 -0.25343,-0.35644 -0.38307,-0.53264 -0.44758,-0.60814 -0.90453,-1.20942 -1.3808,-1.79549 -0.38891,-0.4785396 -0.78864,-0.9478196 -1.19792,-1.4088996 -0.10472,-0.11801 -0.20884,-0.23809 -0.31777,-0.35222 -0.0304,-0.0319 -0.11821,-0.0986 -0.11813,-0.14605 0,-0.0411 0.0661,-0.0791 0.0927,-0.10386 0.0923,-0.0859 0.18033,-0.17597 0.27491,-0.2594 0.37654,-0.33212 0.74526,-0.67053 1.13399,-0.98915 0.8694,-0.71258 1.80022,-1.3722 2.80063,-1.88856 0.6145,-0.31718 1.25125,-0.59946 1.92435,-0.76774 0.32302,-0.0808 0.6426,-0.1081 0.97077,-0.14681 m -19.00298,9.4990396 c -0.11434,-0.55402 -0.25661,-1.10058 -0.35721,-1.65804 -0.28831,-1.59877 -0.4377901,-3.2752496 -0.18762,-4.8881996 0.0971,-0.62612 0.2524,-1.26224 0.55935,-1.82126 0.14501,-0.26398 0.32396,-0.51979 0.56107,-0.70919 0.64019,-0.51138 1.58149,-0.43186 2.32812,-0.24761 1.7058,0.42097 3.25259,1.40186 4.62188,2.47558 0.45068,0.35338 0.89526,0.71973 1.31441,1.11024 0.0967,0.0901 0.19226,0.18304 0.29209,0.26974 0.0322,0.028 0.10704,0.0798 0.11236,0.12522 0.005,0.0441 -0.074,0.0987 -0.10016,0.12886 -0.10396,0.1197 -0.2134,0.23551 -0.3207,0.35223 -0.41846,0.45495 -0.81665,0.93092 -1.20848,1.4088996 -0.48538,0.59226 -0.95118,1.1992 -1.40933,1.81267 -0.12912,0.17303 -0.25601,0.34819 -0.38118,0.52405 -0.0469,0.066 -0.1042,0.19037 -0.17439,0.23169 -0.0388,0.0229 -0.10017,0.0148 -0.14347,0.0199 -0.11434,0.0135 -0.22929,0.0203 -0.34363,0.0343 -0.42052,0.0517 -0.84251,0.0908 -1.26286,0.14605 -0.85685,0.11271 -1.71061,0.24742 -2.56008,0.4066 -0.44861,0.084 -0.89233,0.19141 -1.34017,0.27826 m 13.01516,-1.03949 c -1.0962,-0.0471 -2.1917,-0.0646 -3.2903,-0.0515 -0.36151,0.004 -0.72164,0.0168 -1.08245,0.0257 -0.20352,0.005 -0.42705,-0.0113 -0.62714,0.0259 0.037,-0.0876 0.11693,-0.16546 0.17483,-0.24055 0.12637,-0.164 0.25368,-0.32705 0.38178,-0.48968 0.42825,-0.54397 0.8675,-1.08494 1.33278,-1.5979 0.15258,-0.16823 0.30077,-0.3402696 0.45514,-0.5068596 0.033,-0.0356 0.11332,-0.16145 0.16435,-0.16145 0.0555,0 0.14244,0.13088 0.17645,0.17004 0.14811,0.17059 0.30069,0.3378296 0.45077,0.5068596 0.45798,0.51589 0.8974,1.0523 1.31955,1.59791 0.12397,0.16021 0.24983,0.31906 0.3713,0.48108 0.0568,0.0757 0.13445,0.15412 0.17294,0.24055 m -3.04117,1.74643 c 0.12027,-0.0143 0.24828,-0.003 0.36941,-0.003 0.25222,0 0.50437,0.002 0.75599,0.008 0.71983,0.0176 1.43837,0.0189 2.15631,0.068 0.27766,0.019 0.55617,0.0245 0.83331,0.0509 0.0755,0.007 0.21375,-0.0141 0.27904,0.0275 0.0352,0.0223 0.0617,0.0774 0.0846,0.11142 0.0577,0.0856 0.1146,0.17182 0.17182,0.25773 0.20832,0.31245 0.41004,0.62911 0.61304,0.945 0.77438,1.20452 1.48072,2.45234 2.16163,3.71125 0.20894,0.38633 0.41297,0.7755 0.60944,1.16836 l 0.15463,0.30927 c 0.021,0.0419 0.0629,0.0979 0.0629,0.14604 0,0.0671 -0.0678,0.15575 -0.0973,0.21477 -0.0784,0.15687 -0.15351,0.31554 -0.23195,0.4725 -0.29973,0.59938 -0.61467,1.19224 -0.93975,1.77831 -0.60764,1.09551 -1.24937,2.16894 -1.91499,3.23016 -0.16125,0.25713 -0.32663,0.51211 -0.49501,0.76459 -0.0477,0.0716 -0.11572,0.23685 -0.20901,0.24767 -0.48496,0.0559 -0.9816,0.0577 -1.46904,0.0791 -1.03177,0.0452 -2.06662,0.0635 -3.1013,0.0512 -0.33178,-0.004 -0.66494,-0.0242 -0.99654,-0.0258 -0.49905,-0.002 -0.9968,-0.038 -1.49481,-0.0598 -0.14631,-0.006 -0.29209,-0.0154 -0.43814,-0.0254 -0.0492,-0.003 -0.12371,0.01 -0.16743,-0.0182 -0.041,-0.026 -0.0696,-0.089 -0.0961,-0.1286 -0.0613,-0.0921 -0.12474,-0.18281 -0.18608,-0.27491 -0.21812,-0.32714 -0.43728,-0.65428 -0.64509,-0.98795 -0.74921,-1.20281 -1.45563,-2.42211 -2.12959,-3.6683 -0.20644,-0.38177 -0.3981,-0.77163 -0.59225,-1.15977 -0.057,-0.11391 -0.11907,-0.22671 -0.16967,-0.34363 -0.0168,-0.0389 -0.0512,-0.085 -0.0488,-0.12886 0.006,-0.10782 0.11847,-0.26365 0.16692,-0.36082 0.13462,-0.26984 0.26709,-0.54096 0.4078,-0.80754 0.50455,-0.95625 1.02369,-1.89953 1.56663,-2.83498 0.37139,-0.63985 0.78349,-1.25341 1.1736,-1.8814 0.11598,-0.1866 0.24304,-0.367 0.36494,-0.54982 0.0443,-0.0666 0.0982,-0.19037 0.16761,-0.23187 0.067,-0.04 0.18909,-0.0201 0.26477,-0.0273 0.2225,-0.0211 0.44681,-0.032 0.67009,-0.0418 0.50101,-0.0219 1.00229,-0.0461 1.5034,-0.068 0.29217,-0.0128 0.59457,0.0192 0.88486,-0.015 m -5.6442,0.37551 -0.30231,0.48109 -0.77653,1.28004 -0.96312,1.70958 -0.44939,0.8505 c -0.0626,-0.0827 -0.0904,-0.20541 -0.13127,-0.30068 -0.10721,-0.24939 -0.20334,-0.50368 -0.30343,-0.756 -0.3377,-0.85118 -0.6639,-1.72161 -0.91406,-2.60303 0.13401,-0.0503 0.28951,-0.0665 0.42954,-0.0963 0.29415,-0.0625 0.58925,-0.11984 0.88486,-0.17525 0.83099,-0.15567 1.68217,-0.32336 2.52571,-0.38994 m 16.21955,0.67868 c -0.26915,0.8273 -0.55506,1.64558 -0.86931,2.45699 -0.15197,0.39242 -0.28994,0.81389 -0.48805,1.18553 l -0.11907,-0.21477 -0.28736,-0.53263 -0.82567,-1.46904 -0.85384,-1.42608 -0.2738,-0.43814 -0.1402,-0.23195 c 0.1402,3.5e-4 0.28196,0.0335 0.42095,0.0502 0.33023,0.0397 0.65987,0.0925 0.98795,0.14673 0.81742,0.13514 1.64558,0.26546 2.4484,0.47319 M 9.3754129,26.590142 c -0.12423,-0.0168 -0.2494,-0.0695 -0.36941,-0.10549 -0.2567,-0.077 -0.5121,-0.15954 -0.76459,-0.2494 -0.8466,-0.30128 -1.67014,-0.6413 -2.47417,-1.04327 -1.14543,-0.57276 -2.28709,-1.31037 -3.12819,-2.28732 -0.416,-0.48315 -0.80311,-1.07893 -0.83186,-1.73535 -0.0344,-0.78589 0.54252,-1.51362 1.06493,-2.03604 1.23503,-1.23502 2.89935,-2.04926 4.5188,-2.655 0.4738,-0.17723 0.95161,-0.33934 1.43467,-0.48951 0.13135,-0.0408 0.26297,-0.0809 0.39518,-0.11881 0.0452,-0.013 0.11478,-0.0479 0.16202,-0.04 0.0309,0.005 0.0362,0.0486 0.0442,0.0731 0.0233,0.0711 0.0427,0.14355 0.0659,0.21477 0.10103,0.30996 0.20223,0.61983 0.30919,0.92781 0.3547201,1.02189 0.7450801,2.03062 1.1736801,3.02399 0.11512,0.26683 0.22723,0.53649 0.35206,0.79894 0.0357,0.0752 0.14578,0.23462 0.12611,0.31787 -0.0166,0.0703 -0.0613,0.14063 -0.0913,0.20618 -0.064,0.13986 -0.12585,0.28075 -0.189,0.42095 -0.18418,0.4085 -0.35574,0.823 -0.52662,1.23709 -0.47894,1.1607 -0.8893201,2.34418 -1.2715301,3.53943 m 23.6678301,-0.0945 c -0.41065,-1.28434 -0.89302,-2.54101 -1.4248,-3.77998 -0.1555,-0.36228 -0.30953,-0.7292 -0.48453,-1.08245 -0.056,-0.11314 -0.10532,-0.22955 -0.15918,-0.34364 -0.0213,-0.0451 -0.0669,-0.10352 -0.0669,-0.15463 0,-0.0497 0.0417,-0.11082 0.0628,-0.15464 0.0479,-0.0991 0.0912,-0.20059 0.13702,-0.30068 0.16787,-0.36657 0.32706,-0.73727 0.48504,-1.10822 0.34424,-0.80814 0.65523,-1.62969 0.94964,-2.45699 0.14673,-0.41227 0.31631,-0.83615 0.41502,-1.26285 0.18754,0.0153 0.3877,0.1073 0.567,0.16296 0.42774,0.13299 0.8523,0.27663 1.27145,0.43479 1.59669,0.60222 3.18901,1.36878 4.46725,2.51927 0.63151,0.56837 1.32428,1.37849 1.26208,2.28663 -0.0592,0.86381 -0.75582,1.6046 -1.35659,2.15708 -0.4895,0.45016 -1.04585,0.8297 -1.61508,1.17102 -0.86956,0.52146 -1.79317,0.95427 -2.74048,1.31457 -0.38101,0.14493 -0.7645,0.27989 -1.15118,0.40876 -0.19802,0.066 -0.41184,0.15858 -0.61854,0.189 m -12.07876,-9.14564 c -0.22817,0.03 -0.45317,0.045 -0.67868,0.0984 -0.60041,0.14235 -1.16097,0.43805 -1.62367,0.84542 -0.35257,0.31031 -0.65093,0.6938 -0.86124,1.11432 -0.66596,1.33202 -0.49861,2.94521 0.43857,4.10644 0.23238,0.28788 0.51253,0.5377 0.81785,0.74577 0.34466,0.2347 0.73194,0.40703 1.13399,0.5158 0.50557,0.13676 1.03821,0.15798 1.55495,0.0847 1.83638,-0.2603 3.24949,-1.95648 3.2043,-3.80326 -0.0418,-1.70641 -1.24593,-3.2294 -2.9208,-3.61375 -0.33505,-0.0769 -0.72121,-0.13909 -1.06527,-0.0939 m 8.90873,5.88113 c 0.14251,0.25051 0.23581,0.54192 0.34724,0.80754 0.23083,0.54991 0.44492,1.10659 0.64972,1.66663 0.10215,0.27912 0.20051,0.55995 0.2945,0.8419 0.043,0.12904 0.11417,0.27689 0.12603,0.41237 l -0.63573,0.13565 -1.1254,0.21443 -1.56354,0.24028 -0.61854,0.0797 0.11005,-0.189 0.22998,-0.3694 0.70797,-1.17695 0.99396,-1.76113 0.32645,-0.60995 0.15731,-0.29209 m -17.36214,0.0687 c 0.17354,0.41683 0.42662,0.81664 0.64552,1.21131 0.3853,0.69466 0.77807,1.38639 1.19653,2.06181 0.14751,0.23796 0.29364,0.47662 0.44355,0.71304 0.0765,0.12044 0.17053,0.24055 0.23153,0.36941 -0.34862,-2.6e-4 -0.71124,-0.081 -1.05668,-0.12646 -0.65849,-0.0866 -1.31449,-0.19458 -1.96731,-0.31692 -0.28702,-0.0538 -0.58598,-0.15146 -0.87627,-0.17517 0.0804,-0.35059 0.21718,-0.70084 0.33771,-1.03949 0.20051,-0.56348 0.39879,-1.12695 0.61759,-1.68381 0.13273,-0.33779 0.29381,-0.67043 0.41065,-1.01372 h 0.0172 m 19.27789,5.39506 c 0.052,0.13763 0.075,0.2945 0.1067,0.43813 0.0581,0.2628 0.11546,0.52551 0.16322,0.79037 0.15498,0.859 0.27646,1.72289 0.31461,2.59444 0.057,1.30349 0.007,2.6611 -0.44665,3.90025 -0.21176,0.57902 -0.53512,1.19267 -1.08287,1.51671 -0.64947,0.38427 -1.52239,0.27131 -2.21645,0.0887 -1.65451,-0.43495 -3.18153,-1.42075 -4.49301,-2.4953 -0.40472,-0.33152 -0.79346,-0.67765 -1.18554,-1.02343 -0.10799,-0.0954 -0.21478,-0.19415 -0.31787,-0.29466 -0.0311,-0.0303 -0.0978,-0.0766 -0.10867,-0.12019 -0.008,-0.0302 0.0288,-0.0575 0.0461,-0.0773 0.0507,-0.058 0.10368,-0.114 0.15454,-0.17182 0.21598,-0.24526 0.43238,-0.4901 0.64449,-0.73881 0.70307,-0.82455 1.36423,-1.68484 2.0027,-2.56008 0.16993,-0.2329 0.33668,-0.46829 0.50196,-0.70445 0.0477,-0.0681 0.12182,-0.2353 0.20412,-0.26013 0.0749,-0.0225 0.17071,-0.0178 0.24879,-0.0242 0.14897,-0.0119 0.29794,-0.0288 0.44673,-0.0436 0.44166,-0.0442 0.8828,-0.0977 1.32299,-0.15558 0.81089,-0.10661 1.61955,-0.23616 2.42262,-0.39105 0.42543,-0.0821 0.84638,-0.18565 1.27145,-0.26804 m -21.13841,0.0914 c 0.0393,-0.0172 0.11932,0.0164 0.15953,0.0253 0.1286,0.0282 0.25747,0.0551 0.38659,0.0809 0.49612,0.0992 0.99413,0.19879 1.49481,0.27259 0.85196,0.12551 1.70322,0.25025 2.56008,0.3359 0.24303,0.0243 0.48667,0.0515 0.73022,0.0694 0.0972,0.007 0.27448,-0.0112 0.36004,0.0354 0.0714,0.0388 0.12912,0.16641 0.1762,0.2317 0.13917,0.19269 0.28187,0.38289 0.42095,0.57559 0.43513,0.60256 0.89989,1.1882 1.37308,1.76112 0.40171,0.48633 0.81819,0.95831 1.23133,1.43468 0.10111,0.11657 0.20583,0.23246 0.31296,0.34363 0.0284,0.0295 0.10988,0.094 0.10979,0.13746 0,0.0301 -0.0393,0.0582 -0.0583,0.0773 -0.0616,0.0617 -0.12697,0.11906 -0.189,0.1804 -0.2609,0.25773 -0.54612,0.49415 -0.82472,0.73254 -1.1699,1.00127 -2.47065,1.87934 -3.88307,2.49883 -0.72283,0.317 -1.50297,0.5487 -2.29376,0.58331 -0.38736,0.0169 -0.80659,-0.0197 -1.15977,-0.19629 -0.59122,-0.29562 -0.92489,-0.91716 -1.14301,-1.51363 -0.32972,-0.90144 -0.4159701,-1.88303 -0.4205201,-2.83498 -0.002,-0.4146 0.002,-0.83203 0.0415,-1.24568 0.0878,-0.91913 0.19887,-1.83827 0.40626,-2.74048 0.0486,-0.21177 0.0913,-0.42491 0.1439,-0.63573 0.0107,-0.0425 0.0227,-0.19071 0.0649,-0.20927 m 13.07159,0.94808 c -0.037,0.0744 -0.0978,0.13866 -0.14604,0.20619 -0.12723,0.17809 -0.26348,0.35007 -0.39622,0.52404 -0.41794,0.54775 -0.85221,1.08391 -1.30117,1.60649 -0.15377,0.17904 -0.30824,0.35721 -0.46605,0.53264 -0.0351,0.0391 -0.11675,0.17001 -0.17328,0.17001 -0.0547,0 -0.14304,-0.13118 -0.1768,-0.17001 -0.1536,-0.17689 -0.314,-0.34811 -0.46889,-0.52405 -0.45806,-0.52043 -0.90307,-1.05315 -1.33201,-1.5979 -0.12147,-0.1542 -0.242,-0.3091 -0.36262,-0.4639 -0.0679,-0.0872 -0.15318,-0.17577 -0.20257,-0.27491 l 1.08244,0.0343 2.2594,0.009 z"
       id="path302" /></g><style
     type="text/css"
     id="style396">
	.st0{fill-rule:evenodd;clip-rule:evenodd;fill:#5E98CF;}
	.st1{fill:#044E87;}
	.st2{fill:#0062A2;}
	.st3{fill:#FFFFFF;}
</style></svg>
