<svg width="160" height="160" viewBox="0 0 42.333 42.333" xml:space="preserve" xmlns="http://www.w3.org/2000/svg"><path style="fill:#01d7ff;stroke:none;stroke-width:.00859086" d="M21.197 7.004h-.009c-.149-.185-.356-.341-.533-.5a24.74 24.74 0 0 0-1.28-1.083c-.445-.349-.9-.69-1.374-1-.38-.248-.764-.488-1.16-.709a12.25 12.25 0 0 0-.98-.498c-1.058-.472-2.18-.84-3.35-.84-.652 0-1.333.12-1.907.446-.207.118-.403.25-.584.405-.306.263-.558.58-.776.918a5.679 5.679 0 0 0-.686 1.607c-.499 1.89-.422 3.87-.152 5.79a26.772 26.772 0 0 0 .462 2.354c.01.04.054.138.033.176-.021.04-.137.052-.178.064-.178.055-.357.103-.533.16-.694.227-1.39.455-2.062.741-.464.198-.923.405-1.374.63a14.826 14.826 0 0 0-1.907 1.142c-1.424 1.02-2.926 2.56-2.844 4.45.014.308.071.613.158.91.265.906.858 1.695 1.517 2.354 1.237 1.236 2.805 2.122 4.399 2.814a21.546 21.546 0 0 0 2.586.934c.05.015.176.028.208.07.02.029-.006.094-.014.125-.028.111-.054.223-.08.335-.105.456-.195.914-.281 1.374-.302 1.614-.402 3.283-.227 4.914.08.748.249 1.501.53 2.2.192.48.443.938.77 1.34.19.234.407.447.648.628 1.39 1.042 3.294.797 4.829.25.288-.102.57-.22.85-.342.349-.152.69-.325 1.022-.51.41-.227.812-.47 1.203-.73a20.926 20.926 0 0 0 2.328-1.798c.2-.178.397-.358.593-.54.044-.041.142-.179.206-.18.042 0 .101.076.129.103.1.1.207.194.31.292.393.376.812.732 1.236 1.073 1.38 1.104 2.895 2.125 4.58 2.699.449.153.912.28 1.382.35.252.037.505.039.756.068.236.028.496-.01.73-.039a3.565 3.565 0 0 0 2.148-1.058c.445-.465.755-1.02 1.008-1.606.333-.775.502-1.631.592-2.466.163-1.524.066-3.058-.169-4.57a21.261 21.261 0 0 0-.249-1.323c-.05-.23-.128-.463-.16-.696.242-.033.49-.146.722-.22a21.104 21.104 0 0 0 1.624-.596c1.949-.804 3.963-1.865 5.321-3.522.815-.995 1.344-2.255 1.037-3.549-.243-1.026-.901-1.887-1.65-2.603-1.374-1.313-3.149-2.204-4.906-2.884a26.89 26.89 0 0 0-1.383-.489c-.281-.092-.569-.2-.859-.26.122-.588.265-1.17.367-1.762.286-1.645.405-3.329.227-4.99-.127-1.19-.439-2.424-1.127-3.42a3.997 3.997 0 0 0-.73-.803 3.464 3.464 0 0 0-.54-.364c-.642-.356-1.383-.463-2.106-.431-1.056.046-2.078.39-3.032.827a15.412 15.412 0 0 0-2.036 1.157c-.466.311-.92.64-1.358.99-.434.348-.858.706-1.271 1.08-.15.136-.302.271-.447.413-.066.065-.144.121-.197.198m8.47-2.867c.128-.015.268 0 .395.013.255.028.504.088.73.21.522.283.84.862 1.044 1.398.276.728.4 1.503.452 2.277.07 1.016.01 2.03-.11 3.04a24.549 24.549 0 0 1-.444 2.432c-.008.034-.015.136-.058.14-.111.015-.283-.06-.394-.085-.305-.067-.612-.128-.919-.189a36.643 36.643 0 0 0-2.826-.449c-.35-.041-.699-.085-1.048-.12-.11-.01-.219-.018-.327-.032-.04-.005-.09.002-.127-.02-.068-.043-.122-.16-.167-.224-.127-.178-.254-.357-.384-.533a47.244 47.244 0 0 0-1.38-1.795 42.5 42.5 0 0 0-1.198-1.41c-.105-.117-.21-.237-.318-.351-.03-.032-.118-.099-.118-.147 0-.04.066-.079.093-.103.092-.086.18-.176.274-.26.377-.332.746-.67 1.134-.989.87-.713 1.8-1.372 2.801-1.888.615-.318 1.251-.6 1.924-.768.323-.081.643-.108.971-.147m-19.003 9.499c-.114-.554-.256-1.1-.357-1.658-.288-1.599-.438-3.275-.188-4.888.097-.626.253-1.262.56-1.821.145-.264.324-.52.56-.71.641-.511 1.582-.432 2.329-.247 1.706.42 3.252 1.402 4.622 2.475.45.354.895.72 1.314 1.11.097.09.192.184.292.27.032.028.107.08.113.125.005.045-.074.1-.1.13-.104.12-.214.235-.321.352-.419.455-.817.93-1.209 1.408a50.907 50.907 0 0 0-1.79 2.337c-.047.066-.104.19-.175.232-.038.023-.1.015-.143.02-.114.013-.23.02-.344.034-.42.052-.842.09-1.263.146-.856.113-1.71.248-2.56.407-.448.084-.892.191-1.34.278m13.015-1.04a60.01 60.01 0 0 0-3.29-.051c-.361.004-.722.017-1.082.026-.204.005-.427-.012-.628.026.037-.088.117-.166.175-.241l.382-.49c.428-.544.868-1.085 1.333-1.598.152-.168.3-.34.455-.506.033-.036.113-.162.164-.162.056 0 .143.131.177.17.148.17.3.338.45.507.459.516.898 1.052 1.32 1.598.124.16.25.319.371.481.057.076.135.154.173.24m-3.04 1.747c.12-.014.247-.003.369-.003.252 0 .504.003.756.009.72.018 1.438.019 2.156.068.278.019.556.024.833.05.076.008.214-.013.28.028.034.023.06.078.084.112l.172.257c.208.313.41.63.613.945a56.877 56.877 0 0 1 2.161 3.712c.21.386.413.775.61 1.168l.154.31c.021.041.063.097.063.145 0 .067-.067.156-.097.215-.078.157-.153.316-.232.473-.3.599-.615 1.192-.94 1.778a69.793 69.793 0 0 1-1.915 3.23 32.51 32.51 0 0 1-.495.765c-.047.071-.115.237-.209.247-.485.056-.981.058-1.469.08a55.763 55.763 0 0 1-3.101.05c-.332-.003-.665-.023-.997-.025-.499-.003-.996-.038-1.494-.06a17.89 17.89 0 0 1-.438-.025c-.05-.004-.124.01-.168-.018-.04-.027-.07-.09-.096-.13-.061-.091-.125-.182-.186-.274-.218-.327-.437-.654-.645-.988a69.06 69.06 0 0 1-2.13-3.668c-.206-.382-.398-.772-.592-1.16-.057-.114-.12-.227-.17-.344-.016-.039-.05-.085-.048-.128.006-.108.118-.264.166-.361.135-.27.268-.541.408-.808.505-.956 1.024-1.9 1.567-2.835.371-.64.783-1.253 1.173-1.881.116-.187.243-.367.365-.55.045-.067.099-.19.168-.232.067-.04.19-.02.265-.027.222-.021.447-.032.67-.042l1.503-.068c.292-.013.595.02.885-.015m-5.644.375-.302.481-.777 1.28-.963 1.71-.45.85c-.062-.082-.09-.205-.13-.3-.108-.25-.204-.504-.304-.756-.338-.851-.664-1.722-.914-2.603.134-.05.29-.067.43-.096.294-.063.589-.12.884-.176.831-.155 1.682-.323 2.526-.39m16.22.679c-.27.827-.556 1.646-.87 2.457-.152.392-.29.814-.488 1.186l-.119-.215-.287-.533-.826-1.469-.854-1.426-.274-.438-.14-.232c.14 0 .282.033.421.05.33.04.66.093.988.147.817.135 1.646.265 2.448.473M9.376 26.591c-.125-.017-.25-.07-.37-.106a15.9 15.9 0 0 1-.764-.249 22.005 22.005 0 0 1-2.475-1.043c-1.145-.573-2.287-1.31-3.128-2.288-.416-.483-.803-1.079-.832-1.735-.034-.786.543-1.514 1.065-2.036 1.235-1.235 2.9-2.05 4.519-2.655a26.783 26.783 0 0 1 1.83-.608c.045-.013.115-.048.162-.04.03.005.036.048.044.073.023.071.043.143.066.215.101.31.202.62.31.927.354 1.022.744 2.031 1.173 3.024.115.267.227.537.352.8.036.075.146.234.126.317-.017.07-.061.14-.091.206l-.19.421a45.922 45.922 0 0 0-1.798 4.777m23.668-.095a42.077 42.077 0 0 0-1.424-3.78c-.156-.362-.31-.729-.485-1.082-.056-.113-.105-.23-.16-.344-.02-.045-.066-.103-.066-.154 0-.05.042-.111.063-.155.048-.099.091-.2.137-.3a43.337 43.337 0 0 0 1.435-3.565c.146-.413.316-.837.414-1.264.188.016.388.108.567.163.428.133.853.277 1.272.435 1.597.602 3.189 1.369 4.467 2.52.632.568 1.324 1.378 1.262 2.286-.059.864-.756 1.605-1.356 2.157-.49.45-1.046.83-1.615 1.171-.87.522-1.794.954-2.74 1.315a29.2 29.2 0 0 1-1.152.408c-.198.066-.412.159-.619.19M20.965 17.35c-.229.03-.454.045-.679.098-.6.143-1.161.438-1.624.846-.352.31-.65.693-.86 1.114a3.829 3.829 0 0 0 .438 4.106 3.797 3.797 0 0 0 1.951 1.262 3.882 3.882 0 0 0 1.555.085c1.837-.26 3.25-1.957 3.205-3.804-.042-1.706-1.246-3.229-2.921-3.613-.335-.077-.721-.14-1.065-.094m8.908 5.88c.143.251.236.543.348.808a38.18 38.18 0 0 1 .944 2.509c.043.129.114.277.126.412l-.636.136-1.125.214-1.564.24-.618.08.11-.189.23-.369.708-1.177.994-1.761.326-.61.157-.292m-17.362.069c.174.416.427.816.646 1.21.385.696.778 1.387 1.196 2.063.148.238.294.476.444.713.076.12.17.24.231.37-.348-.001-.71-.082-1.056-.127a36.587 36.587 0 0 1-1.968-.317c-.287-.054-.586-.152-.876-.175.08-.351.217-.701.338-1.04.2-.563.399-1.127.617-1.684.133-.337.294-.67.411-1.013h.017m19.278 5.395c.052.137.075.294.107.438.058.263.115.525.163.79.155.86.277 1.723.315 2.595.057 1.303.006 2.66-.447 3.9-.212.579-.535 1.193-1.083 1.517-.65.384-1.522.27-2.216.088-1.655-.435-3.182-1.42-4.493-2.495-.405-.332-.794-.678-1.186-1.023a8.81 8.81 0 0 1-.318-.295c-.03-.03-.098-.077-.108-.12-.008-.03.028-.058.046-.078.05-.058.103-.114.154-.171.216-.246.433-.49.645-.74a42.904 42.904 0 0 0 2.002-2.56c.17-.232.337-.468.502-.704.048-.068.122-.235.205-.26.074-.022.17-.018.248-.024.15-.012.298-.029.447-.044.442-.044.883-.097 1.323-.155.811-.107 1.62-.236 2.423-.391.425-.082.846-.186 1.271-.268m-21.138.091c.039-.017.12.016.16.025a29.802 29.802 0 0 0 1.881.354c.852.125 1.703.25 2.56.336.243.024.486.051.73.07.097.006.274-.012.36.035.071.038.13.166.176.231.14.193.282.383.421.576.435.602.9 1.188 1.373 1.761.402.486.818.958 1.232 1.435.1.116.205.232.313.343.028.03.11.094.11.138 0 .03-.04.058-.059.077-.062.062-.127.12-.189.18-.26.258-.546.495-.825.733-1.17 1.001-2.47 1.88-3.883 2.499-.723.317-1.503.549-2.294.583-.387.017-.806-.02-1.16-.196-.59-.296-.924-.917-1.142-1.514-.33-.901-.416-1.883-.42-2.835-.003-.414.001-.832.04-1.245.088-.92.2-1.839.407-2.74.048-.213.091-.426.144-.637.01-.042.022-.19.065-.209m13.071.948c-.037.075-.097.139-.146.206-.127.178-.263.35-.396.524a35.679 35.679 0 0 1-1.767 2.14c-.035.039-.117.17-.173.17-.055 0-.144-.132-.177-.17-.154-.177-.314-.349-.47-.525a38.036 38.036 0 0 1-1.331-1.597l-.363-.464c-.068-.088-.153-.176-.202-.275l1.082.034 2.26.009z"/></svg>