<?xml version="1.0" encoding="UTF-8" standalone="no"?>
<!-- Created with Inkscape (http://www.inkscape.org/) -->

<svg
   width="160"
   height="160"
   viewBox="0 0 42.333333 42.333332"
   version="1.1"
   id="svg5"
   xml:space="preserve"
   xmlns:inkscape="http://www.inkscape.org/namespaces/inkscape"
   xmlns:sodipodi="http://sodipodi.sourceforge.net/DTD/sodipodi-0.dtd"
   xmlns="http://www.w3.org/2000/svg"
   xmlns:svg="http://www.w3.org/2000/svg"><sodipodi:namedview
     id="namedview7"
     pagecolor="#ffffff"
     bordercolor="#000000"
     borderopacity="0.25"
     inkscape:showpageshadow="2"
     inkscape:pageopacity="0.0"
     inkscape:pagecheckerboard="0"
     inkscape:deskcolor="#d1d1d1"
     inkscape:document-units="mm"
     showgrid="false" /><defs
     id="defs2" /><g
     inkscape:label="Layer 1"
     inkscape:groupmode="layer"
     id="layer1"><path
       style="fill:#01d7ff;stroke:none;stroke-width:0.00859086"
       d="m 21.196607,7.0038697 h -0.0086 C 21.039126,6.8192287 20.831574,6.6627287 20.655372,6.5041497 20.23992,6.1302567 19.815272,5.7663317 19.375335,5.4213487 18.929901,5.0720527 18.475014,4.7305377 18.000797,4.4209767 17.621169,4.1731657 17.236986,3.9333957 16.841033,3.7123687 16.521794,3.5341577 16.195773,3.3629939 15.861675,3.214106 14.802848,2.7422547 13.681142,2.3733948 12.511237,2.3733948 c -0.652217,0 -1.333388,0.1208413 -1.907172,0.4467278 -0.207038,0.1175645 -0.40334,0.2494873 -0.584177,0.404884 -0.3063523,0.2632847 -0.5577195,0.5792911 -0.775842,0.9181081 -0.3124507,0.48534 -0.5384757,1.049504 -0.6856386,1.606489 -0.4994457,1.89092 -0.4223237,3.870419 -0.1524849,5.7902443 0.088829,0.632201 0.2174333,1.257445 0.3511076,1.881397 0.033862,0.157988 0.071389,0.315717 0.1105662,0.472499 0.010131,0.04038 0.054206,0.138229 0.033749,0.176713 -0.021471,0.04029 -0.1376256,0.05137 -0.1786898,0.064 -0.1772319,0.05455 -0.3563509,0.102747 -0.5326335,0.160222 -0.694106,0.226195 -1.3893758,0.453941 -2.0618085,0.740361 -0.464653,0.197933 -0.9227674,0.404627 -1.3745387,0.630566 -0.36292,0.181439 -0.7183933,0.378258 -1.0652636,0.588903 -0.2870898,0.174309 -0.5688724,0.357123 -0.8419052,0.552737 -1.4233282,1.019909 -2.92598214,2.55922 -2.84323635,4.448865 0.01352285,0.308843 0.07119699,0.614077 0.15794276,0.910633 0.26497599,0.905904 0.85823739,1.695235 1.51693319,2.353897 1.2367438,1.236739 2.8044964,2.122628 4.3985252,2.814196 0.6560064,0.284527 1.3290643,0.538988 2.0102619,0.756679 0.1912326,0.06108 0.3833238,0.119414 0.5755846,0.177146 0.050002,0.01503 0.1762866,0.02799 0.2080734,0.0707 0.020979,0.02818 -0.00618,0.0939 -0.013674,0.124484 -0.027572,0.111508 -0.054036,0.223107 -0.079721,0.335044 -0.1047242,0.456261 -0.1951839,0.914413 -0.2812666,1.37454 -0.3018666,1.613879 -0.4019839,3.282222 -0.2271776,4.913971 0.080101,0.747578 0.2492576,1.500822 0.5294921,2.199262 0.1924341,0.479628 0.4439743,0.938038 0.770256,1.340175 0.190114,0.23436 0.4074645,0.446897 0.6489514,0.627994 1.389229,1.041985 3.293136,0.797229 4.828066,0.250936 0.28831,-0.102658 0.570002,-0.220612 0.850497,-0.342688 0.348618,-0.15163 0.689846,-0.324906 1.022312,-0.509265 0.410557,-0.227748 0.812093,-0.471038 1.20272,-0.731427 0.815275,-0.543545 1.597042,-1.144133 2.328125,-1.796953 0.199565,-0.178173 0.397068,-0.358237 0.59277,-0.540535 0.04407,-0.04106 0.14201,-0.178949 0.206182,-0.179205 0.04209,-9.8e-5 0.101285,0.07526 0.128863,0.102658 0.10051,0.1 0.206782,0.193897 0.309268,0.291746 0.393547,0.375681 0.812441,0.732284 1.237086,1.072485 1.379006,1.104869 2.894174,2.125208 4.57893,2.699248 0.449474,0.153093 0.912778,0.280577 1.383131,0.349906 0.251965,0.0371 0.504796,0.03892 0.755991,0.06856 0.235736,0.02784 0.495951,-0.01101 0.730224,-0.03909 0.810982,-0.09742 1.58115,-0.465969 2.147371,-1.058051 0.444924,-0.465283 0.755396,-1.019307 1.007883,-1.606491 0.332978,-0.774465 0.502391,-1.630805 0.591823,-2.465578 0.163054,-1.523675 0.06623,-3.05783 -0.168294,-4.570336 -0.06873,-0.443122 -0.15249,-0.885203 -0.249137,-1.322994 -0.05077,-0.229634 -0.128259,-0.46305 -0.15962,-0.695862 0.241747,-0.03254 0.489682,-0.146304 0.721632,-0.220443 0.548616,-0.175252 1.091213,-0.375935 1.623677,-0.595606 1.948836,-0.804103 3.962966,-1.86499 5.321353,-3.52234 0.814755,-0.994047 1.343437,-2.254583 1.036915,-3.548023 -0.24338,-1.026524 -0.901266,-1.886984 -1.650479,-2.603377 -1.37333,-1.313112 -3.148462,-2.204071 -4.90538,-2.884553 -0.456348,-0.176798 -0.917935,-0.336847 -1.383126,-0.488477 -0.281267,-0.09166 -0.569147,-0.20051 -0.859088,-0.260561 0.12139,-0.587872 0.264424,-1.168959 0.367262,-1.761125 0.285814,-1.645323 0.404972,-3.3292283 0.226965,-4.9912933 -0.127489,-1.189827 -0.43925,-2.422977 -1.127117,-3.419164 C 32.70816,3.6383847 32.463148,3.3664404 32.184293,3.1344265 32.015478,2.9940097 31.834641,2.8759894 31.643064,2.7697663 31.002188,2.4144737 30.261055,2.3070489 29.538304,2.3386925 c -1.056246,0.046247 -2.077956,0.3894033 -3.032573,0.8277165 -0.310219,0.1424205 -0.611585,0.3029927 -0.910633,0.4672147 -0.385558,0.211749 -0.759518,0.445985 -1.125402,0.689898 -0.465884,0.310579 -0.920081,0.639855 -1.357355,0.989667 -0.434615,0.347681 -0.858486,0.706265 -1.27145,1.079272 -0.150598,0.136063 -0.301456,0.271944 -0.446725,0.413691 -0.06632,0.06473 -0.143809,0.121346 -0.197588,0.197718 m 8.470591,-2.866891 c 0.128259,-0.01514 0.267517,-3.7e-4 0.395176,0.0133 0.254294,0.02723 0.503944,0.08756 0.730224,0.210261 0.521721,0.282864 0.83933,0.861929 1.043104,1.397655 0.276796,0.727655 0.399563,1.503298 0.45248,2.276579 0.06959,1.016086 0.0099,2.0306463 -0.111083,3.0411663 -0.07929,0.661667 -0.205489,1.314747 -0.338135,1.967307 -0.03153,0.155152 -0.06615,0.310303 -0.10455,0.463907 -0.0084,0.03349 -0.01572,0.135392 -0.05816,0.140718 -0.111247,0.01401 -0.283496,-0.06117 -0.393975,-0.08556 -0.305578,-0.06744 -0.612442,-0.127832 -0.919223,-0.189172 -0.93417,-0.186852 -1.880624,-0.335559 -2.826391,-0.448788 -0.349136,-0.04184 -0.698264,-0.08522 -1.048088,-0.120186 -0.108673,-0.01093 -0.218205,-0.01797 -0.326452,-0.03221 -0.04063,-0.0053 -0.09098,0.0019 -0.127317,-0.02072 -0.06735,-0.04175 -0.121388,-0.159103 -0.167265,-0.223449 -0.12697,-0.17809 -0.253428,-0.356434 -0.383069,-0.532633 C 25.036863,11.387007 24.579917,10.785733 24.103641,10.199662 23.714735,9.7211177 23.315,9.2518427 22.905729,8.7907597 c -0.104722,-0.118013 -0.208844,-0.238086 -0.317775,-0.352223 -0.0304,-0.03186 -0.118208,-0.09858 -0.118126,-0.146047 0,-0.04111 0.06606,-0.07906 0.0927,-0.103854 0.09227,-0.08593 0.180324,-0.175974 0.274907,-0.259409 0.376537,-0.332112 0.745257,-0.670527 1.133994,-0.989144 0.869399,-0.712584 1.800217,-1.372199 2.800623,-1.888565 0.614505,-0.317174 1.251257,-0.599461 1.924351,-0.76774 0.32302,-0.08075 0.642597,-0.108099 0.97077,-0.146808 M 10.664195,13.636011 c -0.114344,-0.554025 -0.25661,-1.100576 -0.35721,-1.658039 -0.28831,-1.598768 -0.4377896,-3.2752483 -0.187624,-4.8882013 0.09708,-0.626118 0.252399,-1.262236 0.559351,-1.821263 0.145015,-0.263981 0.323961,-0.519782 0.561068,-0.709183 0.640194,-0.511379 1.581493,-0.431861 2.328125,-0.247616 1.7058,0.420972 3.252587,1.401858 4.621883,2.475578 0.450679,0.353387 0.895256,0.719734 1.314405,1.110241 0.09673,0.09014 0.192261,0.183044 0.292088,0.269745 0.0322,0.02802 0.10704,0.07981 0.112367,0.125218 0.0052,0.04412 -0.07397,0.09873 -0.100167,0.128864 -0.103952,0.119697 -0.213399,0.235502 -0.3207,0.352227 -0.418459,0.454947 -0.816646,0.930915 -1.208475,1.4089023 -0.485384,0.592252 -0.951179,1.199198 -1.409331,1.812671 -0.129121,0.173021 -0.256008,0.348189 -0.381177,0.524042 -0.04691,0.06598 -0.104208,0.190374 -0.174395,0.231698 -0.03883,0.02294 -0.100167,0.01476 -0.143468,0.01993 -0.114344,0.01348 -0.229287,0.02026 -0.343631,0.03428 -0.420523,0.05172 -0.842508,0.09081 -1.262858,0.146044 -0.856855,0.112713 -1.710614,0.247419 -2.560079,0.406605 -0.448615,0.08402 -0.892333,0.191406 -1.340172,0.278261 m 13.015157,-1.039496 c -1.096195,-0.04708 -2.191702,-0.0646 -3.290302,-0.05155 -0.361505,0.0043 -0.721633,0.01684 -1.082448,0.02569 -0.203519,0.005 -0.427051,-0.01126 -0.627135,0.02588 0.03703,-0.08763 0.116924,-0.165462 0.174825,-0.240546 0.126371,-0.163999 0.253687,-0.327054 0.38178,-0.489678 0.428252,-0.543972 0.867503,-1.084941 1.332786,-1.597901 0.152572,-0.168234 0.300765,-0.3402753 0.455141,-0.5068593 0.033,-0.03556 0.113316,-0.16145 0.164344,-0.16145 0.0555,0 0.142438,0.130873 0.176456,0.170038 0.148108,0.170591 0.300683,0.3378303 0.450762,0.5068623 0.457981,0.515884 0.897401,1.052295 1.319557,1.597901 0.123968,0.160218 0.249822,0.319065 0.371297,0.481087 0.05678,0.07569 0.134449,0.15412 0.172937,0.240546 m -3.041165,1.746435 c 0.120271,-0.01428 0.248274,-0.0026 0.369406,-0.0026 0.252224,0 0.504372,0.0022 0.755996,0.0085 0.719828,0.01763 1.438368,0.01891 2.156304,0.06804 0.277659,0.01898 0.556173,0.02448 0.833313,0.05086 0.07551,0.0072 0.213744,-0.01409 0.279035,0.0275 0.03522,0.02234 0.06168,0.0774 0.08462,0.111421 0.05773,0.08565 0.114604,0.171819 0.17182,0.257729 0.208325,0.312447 0.410041,0.629109 0.61304,0.944994 0.774385,1.204524 1.480725,2.452346 2.161635,3.711252 0.208934,0.38633 0.412965,0.775496 0.609436,1.168357 l 0.154636,0.309271 c 0.02098,0.04192 0.06288,0.09794 0.06288,0.146045 0,0.0671 -0.06778,0.15575 -0.09725,0.21477 -0.07843,0.156869 -0.153517,0.315542 -0.23195,0.472499 -0.299738,0.599381 -0.614677,1.192241 -0.939757,1.778309 -0.607632,1.095505 -1.249371,2.168935 -1.914989,3.230163 -0.16125,0.257122 -0.326625,0.512104 -0.495006,0.764588 -0.04768,0.07156 -0.115718,0.236849 -0.209013,0.247671 -0.484958,0.05593 -0.981596,0.05773 -1.469038,0.07912 -1.031767,0.04519 -2.066621,0.06349 -3.101303,0.0512 -0.331778,-0.0039 -0.664934,-0.02416 -0.996542,-0.02577 -0.499043,-0.0024 -0.996797,-0.03797 -1.494808,-0.05979 -0.146304,-0.0064 -0.292088,-0.01537 -0.438136,-0.02535 -0.04922,-0.0034 -0.123708,0.0095 -0.167435,-0.01823 -0.04098,-0.02604 -0.06959,-0.089 -0.09605,-0.128603 -0.06134,-0.09209 -0.12474,-0.182814 -0.186079,-0.27491 -0.218119,-0.327139 -0.437274,-0.654281 -0.645087,-0.987949 -0.749208,-1.202807 -1.455635,-2.422107 -2.129589,-3.668298 -0.206439,-0.381777 -0.398101,-0.771633 -0.592252,-1.159769 -0.05696,-0.113914 -0.119072,-0.226713 -0.169673,-0.343633 -0.01684,-0.03892 -0.0512,-0.08505 -0.04879,-0.12886 0.0058,-0.107817 0.118469,-0.263654 0.166919,-0.360819 0.13462,-0.269838 0.267089,-0.540965 0.407807,-0.807542 0.504542,-0.956249 1.023687,-1.899526 1.56663,-2.834984 0.371384,-0.639847 0.783489,-1.253407 1.1736,-1.881397 0.115975,-0.186596 0.243035,-0.367003 0.364939,-0.549817 0.04433,-0.06658 0.09819,-0.190374 0.167608,-0.231867 0.06701,-0.03995 0.189086,-0.02011 0.264769,-0.02731 0.222503,-0.02113 0.44681,-0.03205 0.670089,-0.04184 0.501017,-0.02192 1.002297,-0.04613 1.5034,-0.06804 0.292175,-0.01281 0.594573,0.01917 0.884861,-0.01503 m -5.644197,0.375505 -0.302314,0.481091 -0.776528,1.280037 -0.963123,1.709582 -0.449388,0.850493 c -0.06263,-0.08273 -0.09038,-0.205406 -0.131267,-0.30068 -0.107214,-0.249389 -0.203346,-0.503679 -0.303429,-0.755995 -0.337707,-0.851183 -0.663902,-1.721609 -0.914067,-2.60303 0.134017,-0.05026 0.289511,-0.06649 0.42954,-0.09631 0.294153,-0.06254 0.58925,-0.119839 0.88486,-0.17525 0.830994,-0.155668 1.682176,-0.323363 2.525716,-0.389942 m 16.219545,0.678677 c -0.269147,0.827303 -0.555056,1.645583 -0.869307,2.45699 -0.151971,0.392428 -0.289941,0.813897 -0.488047,1.185536 l -0.119068,-0.21477 -0.287364,-0.532634 -0.825667,-1.469036 -0.853847,-1.426086 -0.273794,-0.438132 -0.140203,-0.231953 c 0.140203,3.44e-4 0.281956,0.03348 0.420953,0.05017 0.330231,0.03969 0.659868,0.09252 0.987948,0.14673 0.817423,0.135136 1.645579,0.265458 2.448396,0.473184 M 9.3755614,26.590897 C 9.2513374,26.574148 9.1261681,26.521398 9.0061515,26.485402 8.7494586,26.408429 8.4940499,26.325869 8.2415681,26.236008 7.394962,25.93473 6.5714265,25.594703 5.7673988,25.192735 4.6219622,24.619981 3.4803036,23.88237 2.639208,22.905417 2.223205,22.42227 1.8360918,21.826491 1.8073448,21.170063 c -0.03439,-0.785891 0.542521,-1.513621 1.0649321,-2.036032 1.2350223,-1.235023 2.8993481,-2.049266 4.5187941,-2.655006 0.4738024,-0.177232 0.9516087,-0.339341 1.4346733,-0.489509 0.1313542,-0.04081 0.2629683,-0.08093 0.3951814,-0.118812 0.045188,-0.01296 0.1147733,-0.04785 0.1620221,-0.03995 0.030849,0.0052 0.03616,0.04863 0.044156,0.07311 0.023278,0.07113 0.042699,0.143554 0.065894,0.21477 0.101029,0.309961 0.2022274,0.619831 0.3091852,0.927815 0.354716,1.021883 0.745084,2.030621 1.173683,3.023983 0.11512,0.266832 0.22723,0.536498 0.352053,0.798948 0.03567,0.07517 0.145788,0.234617 0.126115,0.317866 -0.01665,0.07035 -0.06134,0.140631 -0.09132,0.206176 -0.064,0.139862 -0.125855,0.280752 -0.188998,0.420955 -0.184186,0.408495 -0.355745,0.823002 -0.526619,1.237086 -0.47894,1.160708 -0.8893274,2.344184 -1.2715326,3.539432 m 23.6678256,-0.0945 c -0.410644,-1.284336 -0.893019,-2.541011 -1.424794,-3.779983 -0.155499,-0.362276 -0.309531,-0.729192 -0.484527,-1.082448 -0.05601,-0.113141 -0.105322,-0.229547 -0.159189,-0.343635 -0.02133,-0.0451 -0.06692,-0.103519 -0.06692,-0.154636 0,-0.04966 0.04167,-0.110821 0.0628,-0.154636 0.04786,-0.09905 0.09124,-0.200594 0.137025,-0.300678 0.167868,-0.366574 0.327055,-0.737268 0.485043,-1.108222 0.344236,-0.808141 0.655224,-1.629688 0.949634,-2.456986 0.14673,-0.412274 0.316315,-0.83615 0.415023,-1.262858 0.187539,0.01529 0.387704,0.107301 0.566997,0.162968 0.427741,0.132989 0.852302,0.276626 1.27145,0.434784 1.596697,0.602222 3.189015,1.368783 4.467249,2.519271 0.63151,0.568371 1.324279,1.37849 1.262083,2.286631 -0.05919,0.863812 -0.755824,1.604603 -1.356585,2.157077 -0.489505,0.450164 -1.04585,0.829706 -1.615085,1.171022 -0.869564,0.521464 -1.793169,0.954275 -2.740483,1.314571 -0.381003,0.144931 -0.7645,0.279892 -1.151176,0.408758 -0.198016,0.06598 -0.411845,0.158586 -0.61854,0.189 M 20.964633,17.350752 c -0.228171,0.02998 -0.453167,0.04501 -0.678677,0.09845 -0.600415,0.142353 -1.16097,0.43805 -1.623672,0.845428 -0.35257,0.310303 -0.650929,0.693801 -0.861236,1.11432 -0.665962,1.332013 -0.498614,2.945207 0.438565,4.106434 0.232383,0.28788 0.512531,0.537703 0.817848,0.745771 0.344667,0.234704 0.731942,0.407035 1.133996,0.515797 0.505572,0.136769 1.038204,0.157986 1.554943,0.0847 1.836386,-0.2603 3.249497,-1.95648 3.204308,-3.803259 -0.04184,-1.706402 -1.24593,-3.229392 -2.920806,-3.613745 -0.335045,-0.07689 -0.721204,-0.139087 -1.065269,-0.0939 m 8.908728,5.881132 c 0.142518,0.25051 0.235818,0.541912 0.347239,0.80754 0.230839,0.549902 0.444924,1.106591 0.649727,1.666629 0.102145,0.279117 0.200509,0.559951 0.294495,0.841902 0.04304,0.129037 0.114175,0.276886 0.126029,0.412361 l -0.635728,0.135652 -1.1254,0.214429 -1.563534,0.240284 -0.618543,0.07973 0.110051,-0.188999 0.229976,-0.369406 0.707974,-1.176949 0.993961,-1.761128 0.326451,-0.609952 0.157302,-0.292089 m -17.362136,0.06873 c 0.173537,0.416829 0.426622,0.816647 0.645516,1.211312 0.385302,0.694656 0.778076,1.386393 1.196535,2.061808 0.147506,0.237967 0.293637,0.476621 0.443549,0.713042 0.07646,0.120441 0.170527,0.240546 0.231524,0.369406 -0.348618,-2.59e-4 -0.71124,-0.08101 -1.056679,-0.126458 -0.658488,-0.0866 -1.314487,-0.194582 -1.967307,-0.316918 -0.287018,-0.05378 -0.585981,-0.151458 -0.876268,-0.175167 0.08041,-0.350592 0.217177,-0.700842 0.337709,-1.039492 0.20051,-0.563476 0.398786,-1.126951 0.617594,-1.683811 0.13273,-0.337794 0.29381,-0.670428 0.410644,-1.013722 h 0.01718 m 19.27789,5.395063 c 0.05198,0.137628 0.075,0.294497 0.106703,0.438134 0.05807,0.262795 0.115462,0.525505 0.163222,0.790361 0.154982,0.859001 0.276458,1.722895 0.314603,2.59444 0.05704,1.303494 0.0066,2.661105 -0.446641,3.900252 -0.211764,0.579023 -0.535125,1.192671 -1.082876,1.516716 -0.649473,0.384271 -1.522389,0.271302 -2.216444,0.08874 -1.654513,-0.434953 -3.181538,-1.420757 -4.493019,-2.495301 -0.40472,-0.33152 -0.793457,-0.677648 -1.18554,-1.023429 -0.107987,-0.09536 -0.214776,-0.194154 -0.317865,-0.294667 -0.03111,-0.03032 -0.09785,-0.07663 -0.108675,-0.120184 -0.0076,-0.03017 0.02878,-0.05748 0.04614,-0.07732 0.05068,-0.05799 0.103687,-0.114001 0.154546,-0.171818 0.215976,-0.245269 0.432382,-0.490109 0.644485,-0.738812 0.703077,-0.824553 1.364231,-1.684843 2.002705,-2.560079 0.169929,-0.2329 0.336675,-0.468289 0.501963,-0.704451 0.04768,-0.06813 0.121819,-0.235304 0.204118,-0.26013 0.07491,-0.02252 0.170704,-0.01778 0.24879,-0.02416 0.148966,-0.01193 0.297935,-0.02878 0.446728,-0.04364 0.441659,-0.04416 0.882799,-0.09768 1.322991,-0.15558 0.81089,-0.106617 1.619552,-0.236165 2.422623,-0.391057 0.425421,-0.08205 0.846373,-0.18565 1.271445,-0.268036 m -21.138413,0.09141 c 0.03935,-0.01725 0.119327,0.01643 0.159532,0.02527 0.128605,0.02817 0.257469,0.05515 0.38659,0.08093 0.49612,0.09922 0.994134,0.198792 1.494808,0.27259 0.851958,0.12551 1.703224,0.250248 2.560079,0.335902 0.243035,0.02429 0.486673,0.05154 0.73022,0.06941 0.09725,0.0071 0.274479,-0.01119 0.360046,0.03541 0.07139,0.03883 0.129121,0.166407 0.176196,0.231698 0.139174,0.192691 0.281869,0.382895 0.420953,0.575586 0.435126,0.602564 0.899893,1.188201 1.373077,1.761127 0.401709,0.486331 0.818194,0.95831 1.231331,1.434674 0.101112,0.116576 0.205836,0.232468 0.312963,0.343633 0.02844,0.02946 0.109877,0.09399 0.10979,0.137456 0,0.03006 -0.03926,0.05816 -0.05833,0.07732 -0.0616,0.06168 -0.126973,0.119067 -0.188999,0.180406 -0.260904,0.257725 -0.546122,0.494146 -0.824722,0.732541 -1.169904,1.001268 -2.470647,1.879338 -3.883071,2.498826 -0.722834,0.317005 -1.50297,0.548698 -2.293758,0.583316 -0.387366,0.01691 -0.806597,-0.01966 -1.159769,-0.196297 -0.591224,-0.295614 -0.924892,-0.917162 -1.143014,-1.513626 -0.329717,-0.901438 -0.41597,-1.883032 -0.4205237,-2.834984 -0.00188,-0.414594 0.00188,-0.832024 0.041493,-1.245674 0.0878,-0.919136 0.198879,-1.838275 0.406262,-2.740485 0.04862,-0.211765 0.09132,-0.424905 0.143898,-0.635725 0.01066,-0.04252 0.02267,-0.190717 0.06495,-0.209275 m 13.071597,0.948086 c -0.03703,0.0744 -0.09776,0.138658 -0.146045,0.206185 -0.12723,0.178086 -0.26348,0.350075 -0.396211,0.524042 -0.417946,0.547751 -0.852215,1.083908 -1.30117,1.606491 -0.153779,0.179033 -0.30824,0.357207 -0.466056,0.532633 -0.03514,0.03909 -0.116747,0.170014 -0.173275,0.170014 -0.05473,0 -0.143039,-0.131184 -0.1768,-0.170014 -0.153607,-0.176884 -0.314,-0.348102 -0.468892,-0.524041 -0.458064,-0.520436 -0.90307,-1.053159 -1.332012,-1.597901 -0.121474,-0.154207 -0.242003,-0.309102 -0.362618,-0.463907 -0.06795,-0.0872 -0.153178,-0.175771 -0.202574,-0.274908 l 1.082447,0.03428 2.259398,0.0087 z"
       id="path302" /></g></svg>
