<?xml version="1.0" encoding="UTF-8" standalone="no"?>
<!-- Created with Inkscape (http://www.inkscape.org/) -->

<svg
   width="159.00037"
   height="160.00143"
   viewBox="0 0 42.068846 42.333711"
   version="1.1"
   id="svg5"
   xml:space="preserve"
   xmlns="http://www.w3.org/2000/svg"
   xmlns:svg="http://www.w3.org/2000/svg"><defs
     id="defs2" /><g
     id="layer1"
     transform="translate(320.94428,-395.62852)"><g
       id="g3357"
       transform="translate(-298.51954,-42.603762)"><path
         style="fill:#000000;stroke-width:0.0945757"
         d="m -17.622882,480.45561 c -0.111102,-0.0538 -0.24942,-0.20186 -0.307371,-0.32906 -0.149,-0.32701 -0.149348,-18.4646 -3.59e-4,-18.79159 0.05775,-0.12675 0.208712,-0.27771 0.335464,-0.33547 0.312684,-0.14246 7.122486,-0.14622 7.428506,-0.005 0.132362,0.0614 1.6676921,2.27867 3.9294236,5.67454 l 3.7121787,5.57365 h 1.1347394 1.13473936 L 3.456619,466.66946 c 2.2617314,-3.39588 3.7970623,-5.61307 3.9294245,-5.67454 0.3060196,-0.14212 7.1158205,-0.13836 7.4285055,0.005 0.126752,0.0578 0.277712,0.20871 0.335465,0.33547 0.14867,0.32629 0.14867,18.4645 0,18.7908 -0.05775,0.12675 -0.208713,0.27772 -0.335465,0.33547 -0.313526,0.14284 -32.142191,0.13734 -32.437431,-0.006 z m 31.364689,-9.72525 V 462.4077 H 10.904621 8.067435 l -3.7121787,5.57365 c -2.2617326,3.39587 -3.79706348,5.61306 -3.92942457,5.67454 -0.12689009,0.0589 -0.88224373,0.10089 -1.81613203,0.10089 -0.9338883,0 -1.689242,-0.042 -1.816132,-0.10089 -0.1323611,-0.0615 -1.667692,-2.27867 -3.9294246,-5.67454 l -3.7121781,-5.57365 h -2.837186 -2.837186 v 8.32266 8.32266 H -1.3903003 13.741807 Z m -15.4060134,-4.60688 c -0.2735321,-0.10832 -15.3842166,-13.77676 -15.5107126,-14.03024 -0.289471,-0.58007 0.350717,-1.21763 0.934361,-0.93052 0.147975,0.0728 3.531558,3.06892 7.519072,6.65806 3.9875158,3.58915 7.2893381,6.52573 7.3373819,6.52573 0.048042,0 3.3618387,-2.94686 7.3639888,-6.54857 4.0021502,-3.60171 7.3839093,-6.59744 7.5150183,-6.65718 0.33539,-0.15282 0.763458,0.0396 0.917928,0.41246 0.104113,0.25134 0.09589,0.33011 -0.06282,0.60165 -0.174925,0.29929 -14.97724129,13.67738 -15.3956035,13.91429 -0.2162198,0.12244 -0.4048614,0.13901 -0.6186151,0.0543 z m -0.057112,-3.8246 c -0.2955419,-0.16105 -2.4089957,-2.27296 -2.5601204,-2.55824 -0.1137439,-0.21471 -0.1352859,-1.34812 -0.1352859,-7.11682 v -6.86143 H -5.216169 c -0.8944829,0 -1.2112351,-0.10215 -1.3653681,-0.44047 -0.1469211,-0.32246 -0.1452591,-6.36631 0.00183,-6.68916 0.058759,-0.12897 0.229,-0.28509 0.3783025,-0.34694 0.3486598,-0.14442 0.7695671,0.0141 0.9212191,0.34694 0.07141,0.15673 0.1068465,1.12693 0.1068465,2.92545 v 2.69096 h 3.7830274 3.7830273 v -2.69096 c 0,-1.79852 0.035436,-2.76872 0.1068465,-2.92545 0.2393232,-0.52525 1.0602008,-0.52525 1.2995227,0 0.1470996,0.32285 0.1487616,6.3667 0.00183,6.68916 -0.1541376,0.33828 -0.4708898,0.44047 -1.3653727,0.44047 H 1.636098 v 6.86295 c 0,4.83624 -0.030964,6.92395 -0.1048447,7.06953 -0.1502864,0.29611 -2.25792599,2.41635 -2.5622195,2.57755 -0.3020733,0.16001 -0.4358699,0.16514 -0.6903707,0.0264 z m 1.10917218,-2.51343 0.73505384,-0.73074 v -6.64616 -6.64616 H -1.3903037 -2.9035149 v 6.64185 6.64184 l 0.7307427,0.73506 c 0.4019091,0.40428 0.7520799,0.73505 0.7781573,0.73505 0.02608,0 0.3781881,-0.32884 0.78246868,-0.73074 z"
         id="path3331" /><rect
         style="fill:none;fill-opacity:1;stroke:none;stroke-width:0.264507;stroke-dasharray:none"
         id="rect3723-9-4"
         width="42.068825"
         height="42.068825"
         x="-22.424744"
         y="438.36475" /></g></g><style
     type="text/css"
     id="style396">
	.st0{fill-rule:evenodd;clip-rule:evenodd;fill:#5E98CF;}
	.st1{fill:#044E87;}
	.st2{fill:#0062A2;}
	.st3{fill:#FFFFFF;}
</style></svg>
