<?xml version="1.0" encoding="UTF-8" standalone="no"?>
<svg
   width="171.02063"
   height="64.999611"
   viewBox="0 0 45.249207 17.197814"
   version="1.1"
   id="svg8"
   inkscape:export-filename="D:\Drives\OneDrive\PERSONAL\06 PORTAFOLIO\Logos\bitmap.png"
   inkscape:export-xdpi="96"
   inkscape:export-ydpi="96"
   inkscape:version="1.0 (4035a4fb49, 2020-05-01)"
   sodipodi:docname="Logos.svg"
   shape-rendering="crispEdges"
   xmlns:inkscape="http://www.inkscape.org/namespaces/inkscape"
   xmlns:sodipodi="http://sodipodi.sourceforge.net/DTD/sodipodi-0.dtd"
   xmlns="http://www.w3.org/2000/svg"
   xmlns:svg="http://www.w3.org/2000/svg"
   xmlns:rdf="http://www.w3.org/1999/02/22-rdf-syntax-ns#"
   xmlns:cc="http://creativecommons.org/ns#"
   xmlns:dc="http://purl.org/dc/elements/1.1/">
  <defs
     id="defs2" />
  <sodipodi:namedview
     inkscape:pagecheckerboard="true"
     id="base"
     pagecolor="#ffffff"
     bordercolor="#666666"
     borderopacity="1.0"
     inkscape:pageopacity="0.0"
     inkscape:pageshadow="2"
     inkscape:zoom="0.087500001"
     inkscape:cx="446.07182"
     inkscape:cy="-1190.589"
     inkscape:document-units="mm"
     inkscape:current-layer="layer1"
     showgrid="false"
     units="px"
     inkscape:window-width="1920"
     inkscape:window-height="1057"
     inkscape:window-x="1912"
     inkscape:window-y="-8"
     inkscape:window-maximized="1"
     inkscape:document-rotation="0"
     inkscape:showpageshadow="0"
     inkscape:deskcolor="#d1d1d1" />
  <metadata
     id="metadata5">
    <rdf:RDF>
      <cc:Work
         rdf:about="">
        <dc:format>image/svg+xml</dc:format>
        <dc:type
           rdf:resource="http://purl.org/dc/dcmitype/StillImage" />
        <dc:title />
      </cc:Work>
    </rdf:RDF>
  </metadata>
  <g
     inkscape:label="Layer 1"
     inkscape:groupmode="layer"
     id="layer1"
     transform="translate(-532.49044,681.15759)">
    <path
       style="fill:#000000;stroke-width:0.119392"
       d="m 565.82548,-664.17428 c -0.0842,-0.11492 -0.12104,-0.14178 -0.0819,-0.0597 0.0392,0.0821 0.0175,0.14924 -0.0482,0.14924 -0.0657,0 -0.16285,-0.0672 -0.21598,-0.14924 -0.0531,-0.0821 -0.12345,-2.02966 -0.15628,-4.32795 l -0.0597,-4.17872 h -0.34634 c -0.40517,0 -0.52821,-0.34992 -0.23641,-0.67235 0.18347,-0.20273 1.05587,-0.28968 0.93439,-0.0931 -0.036,0.0583 0.0156,0.0749 0.11485,0.0369 0.24855,-0.0954 0.66528,0.615 0.67256,1.14649 l 0.006,0.41787 0.22715,-0.42977 c 0.52256,-0.98869 1.52617,-1.50785 2.54642,-1.31725 0.82357,0.15386 1.23976,0.47138 1.16699,0.8903 -0.009,0.0541 0.0335,0.0671 0.0953,0.0289 0.1452,-0.0897 0.45605,0.88051 0.55209,1.72323 0.0799,0.7011 -0.12337,2.30323 -0.30015,2.3657 -0.0585,0.0207 -0.0767,0.11468 -0.0405,0.20894 0.0361,0.0942 -0.003,0.17137 -0.0863,0.17137 -0.0836,0 -0.11783,0.0343 -0.076,0.0761 0.11957,0.11957 -0.39753,0.77186 -0.54141,0.68294 -0.0759,-0.0469 -0.0942,-0.0237 -0.0447,0.0565 0.11215,0.18146 -0.56003,0.58205 -1.14153,0.6803 -0.76084,0.12853 -1.42043,-0.0467 -1.87088,-0.4972 l -0.40403,-0.40404 0.043,1.76225 c 0.0427,1.75134 0.0414,1.76219 -0.21969,1.75341 -0.14448,-0.005 -0.23533,0.0354 -0.20189,0.0895 0.11934,0.19309 -0.13649,0.0944 -0.28667,-0.11055 z m 0.63187,-0.14924 c -0.0406,-0.0657 -0.13778,-0.11857 -0.21599,-0.11757 -0.0854,9.1e-4 -0.0707,0.048 0.0369,0.11757 0.22937,0.14823 0.2707,0.14823 0.17909,0 z m 2.41217,-3.3102 c 0.30537,-0.20009 0.66359,-0.82235 0.80034,-1.3903 0.14909,-0.61912 0.0887,-2.62088 -0.0947,-3.14077 -0.096,-0.27202 -0.16516,-0.51286 -0.15375,-0.53521 0.0114,-0.0223 1.5e-4,-0.0291 -0.0248,-0.015 -0.0251,0.0141 -0.15789,-0.053 -0.2952,-0.14924 -0.68067,-0.47676 -1.61717,-0.0106 -2.15291,1.07173 -0.28434,0.57442 -0.35774,0.9006 -0.40471,1.79856 -0.0387,0.74063 -0.006,1.24826 0.1018,1.56294 0.0875,0.25632 0.14977,0.50153 0.13827,0.54488 -0.0115,0.0434 0.20583,0.19296 0.48295,0.33244 0.55459,0.27913 1.09581,0.25211 1.6027,-0.08 z m -24.39322,0.74419 c -0.62354,-0.18411 -1.02108,-0.45574 -1.26071,-0.86139 -0.10833,-0.1834 -0.19398,-0.36031 -0.19033,-0.39314 0.004,-0.0328 -0.0311,-0.17855 -0.0772,-0.32382 -0.11491,-0.36204 0.0929,-0.70111 0.5212,-0.85041 0.41717,-0.14543 0.48215,-0.0786 0.46135,0.47484 -0.008,0.22425 0.0448,0.52001 0.11822,0.65725 0.0734,0.13724 0.0951,0.29688 0.0482,0.35477 -0.0469,0.0579 -0.0353,0.0642 0.0258,0.014 0.0611,-0.0502 0.26611,0.0573 0.45556,0.23878 0.319,0.30562 0.41663,0.32995 1.32158,0.32931 0.78952,-5.4e-4 1.03826,-0.0464 1.2954,-0.23877 0.60707,-0.45419 0.72158,-0.8463 0.55347,-1.89526 -0.0396,-0.24721 -0.58244,-0.8424 -0.94548,-1.03669 -0.12728,-0.0681 -0.20025,-0.17426 -0.16217,-0.23588 0.0391,-0.0633 -0.0199,-0.0778 -0.13563,-0.0334 -0.15,0.0576 -0.1787,0.0363 -0.10715,-0.0795 0.0616,-0.0997 0.0513,-0.12945 -0.0278,-0.0805 -0.28849,0.1783 -2.71503,-1.50047 -2.60219,-1.80029 0.0306,-0.0813 -0.004,-0.13502 -0.0767,-0.11939 -0.0728,0.0156 -0.17984,-0.1462 -0.23791,-0.35961 -0.1196,-0.4396 0.21353,-0.39298 -2.97409,-0.4162 -1.17035,-0.009 -1.62174,-0.0515 -1.62174,-0.15432 0,-0.0784 0.0582,-0.14151 0.12934,-0.14029 0.0711,10e-4 0.29052,-0.006 0.48752,-0.0165 l 0.35817,-0.0188 -0.0262,-3.47857 c -0.0144,-1.91322 -0.0429,-3.49527 -0.0633,-3.51568 -0.0204,-0.0204 -0.26383,-0.0505 -0.54094,-0.0668 -0.27712,-0.0163 -0.50386,-0.073 -0.50386,-0.12578 0,-0.0528 1.01105,-0.096 2.24678,-0.096 1.70264,0 2.40103,0.0458 2.88371,0.18915 1.86278,0.55318 2.7214,1.84953 2.65726,4.01193 -0.0252,0.85116 -0.0223,0.85547 0.68907,0.99246 0.52379,0.10087 0.71779,0.19956 0.63994,0.32552 -0.0478,0.0773 -0.0241,0.0948 0.0589,0.0435 0.17012,-0.10514 0.39805,0.11184 0.67005,0.63783 0.19762,0.38216 0.19653,0.4108 -0.0272,0.71051 -0.22818,0.30562 -0.67485,0.42956 -0.69528,0.19292 -0.0101,-0.11721 -0.0851,-0.33749 -0.29245,-0.85928 -0.1276,-0.32111 -0.526,-0.58085 -1.03373,-0.67394 -0.30946,-0.0567 -0.39537,-0.0257 -0.45576,0.16453 -0.0409,0.12896 -0.12769,0.23447 -0.19281,0.23447 -0.0651,0 -0.0885,0.0483 -0.052,0.10736 0.0767,0.12406 -0.66296,0.80476 -1.08178,0.99558 -0.65505,0.29846 -0.20597,0.9471 1.17897,1.70288 0.46705,0.25487 0.77314,0.49322 0.72775,0.56666 -0.0474,0.0767 -0.0213,0.0915 0.0664,0.0373 0.23492,-0.14519 1.78766,0.99778 1.71289,1.26086 -0.0164,0.0577 0.0195,0.105 0.0797,0.105 0.0602,0 0.20099,0.23952 0.31279,0.53226 0.22336,0.58486 0.15837,1.69461 -0.0902,1.54097 -0.0796,-0.0492 -0.0958,-0.0249 -0.0417,0.0626 0.11649,0.18849 -0.26222,0.76101 -0.43341,0.65521 -0.0784,-0.0485 -0.0991,-0.0277 -0.0507,0.0507 0.0453,0.0733 -0.0504,0.21933 -0.21425,0.32667 -0.71483,0.46838 -2.48862,0.64884 -3.48521,0.35459 z m -1.41975,-7.04732 c 0.17205,-0.0343 0.24627,-0.15518 0.26555,-0.43264 0.0298,-0.42939 0.62653,-1.2441 0.89591,-1.22329 0.21907,0.0169 0.22239,-9.1e-4 0.29255,-1.56536 0.038,-0.84771 0.005,-1.54611 -0.0935,-1.96997 -0.0838,-0.36116 -0.15556,-0.7641 -0.15948,-0.89543 -0.004,-0.13133 -0.0609,-0.24134 -0.12652,-0.24447 -0.0657,-0.003 -0.30389,-0.12137 -0.52939,-0.26278 -0.40032,-0.25104 -1.38103,-0.43519 -1.85845,-0.34895 -0.23127,0.0418 -0.23978,0.14978 -0.27054,3.43292 -0.0175,1.86439 -0.005,3.45962 0.0278,3.54496 0.0558,0.14535 0.72616,0.13027 1.55607,-0.035 z m 7.84674,7.03963 -0.26535,-0.18585 v -4.50625 c 0,-3.34566 0.0369,-4.54313 0.14327,-4.64951 0.17474,-0.17474 0.83771,-0.18904 1.00508,-0.0217 0.0753,0.0752 0.0877,0.35963 0.0326,0.7462 -0.14332,1.00596 -0.12355,3.29316 0.0262,3.03568 0.10582,-0.1819 0.15653,-0.19122 0.3247,-0.0597 0.17926,0.14019 0.18253,0.1345 0.0325,-0.0566 -0.14635,-0.18643 -0.13355,-0.24779 0.10465,-0.50133 0.28139,-0.29953 1.17408,-0.66313 1.60562,-0.65399 0.47235,0.01 1.14865,0.32817 1.41363,0.66502 0.14654,0.1863 0.27094,0.3669 0.27644,0.40135 0.006,0.0344 0.0666,0.19785 0.13572,0.36314 0.16947,0.40513 0.25713,5.25057 0.0951,5.25301 -0.0668,9.1e-4 -0.0488,0.0478 0.04,0.10407 0.11368,0.072 0.0466,0.11907 -0.22697,0.15922 -0.27475,0.0404 -0.45286,-0.008 -0.60906,-0.16376 -0.19787,-0.19787 -0.22075,-0.43666 -0.22075,-2.30423 0,-2.14734 -0.12769,-3.16771 -0.42756,-3.41658 -0.13747,-0.11409 -0.14301,-0.18211 -0.0274,-0.33612 0.11879,-0.15825 0.11631,-0.16774 -0.0137,-0.0526 -0.10414,0.0922 -0.2531,0.10461 -0.43357,0.036 -0.55041,-0.20926 -1.25561,0.0339 -1.57339,0.54259 -0.51766,0.82859 -0.55311,1.02816 -0.57717,3.24912 -0.0134,1.23624 0.022,2.14916 0.0819,2.11215 0.058,-0.0359 0.10547,-0.0169 0.10547,0.0421 0,0.10206 -0.51078,0.38439 -0.6954,0.38439 -0.048,0 -0.20662,-0.0836 -0.35256,-0.18586 z m 7.82344,0.0569 c -0.11491,-0.0669 -0.20893,-0.0892 -0.20893,-0.0494 0,0.0398 -0.12089,-0.0542 -0.26864,-0.20885 -0.18608,-0.19474 -0.21417,-0.20596 -0.0914,-0.0365 0.0988,0.13644 0.006,0.0896 -0.20893,-0.10602 -0.34992,-0.31775 -0.38616,-0.41515 -0.38616,-1.03764 0,-0.39048 0.0595,-0.72373 0.13784,-0.77215 0.0912,-0.0564 0.10516,-0.0323 0.0412,0.0711 -0.0644,0.10419 -0.05,0.12749 0.0432,0.0699 0.0769,-0.0475 0.10678,-0.1398 0.0664,-0.20506 -0.1676,-0.27117 1.11064,-1.16723 1.40529,-0.98512 0.0778,0.0481 0.10061,0.0291 0.0546,-0.0455 -0.0955,-0.15445 0.56942,-0.32419 0.77418,-0.19765 0.0842,0.0521 0.10907,0.0357 0.0619,-0.0406 -0.0518,-0.0838 0.23395,-0.1569 0.83269,-0.21301 l 0.91154,-0.0854 -0.0736,-0.70388 c -0.0405,-0.38713 -0.1527,-0.85689 -0.24941,-1.04392 -0.0967,-0.18702 -0.15112,-0.37372 -0.12091,-0.41488 0.0302,-0.0411 0.0196,-0.0484 -0.0237,-0.0161 -0.10355,0.0773 -0.41138,-0.18083 -0.34456,-0.28895 0.0285,-0.0461 -0.29013,-0.0803 -0.70808,-0.076 -0.63362,0.007 -0.8111,0.0559 -1.06796,0.29727 -0.38806,0.3646 -0.41756,1.03156 -0.0654,1.47921 l 0.24263,0.30844 -0.40915,0.0768 c -0.69554,0.13048 -1.12209,-0.2549 -1.23854,-1.11902 -0.0478,-0.35479 -0.0263,-0.40175 0.15241,-0.33316 0.17519,0.0672 0.18422,0.0511 0.0572,-0.10198 -0.13682,-0.16486 -0.0884,-0.23183 0.14267,-0.19739 0.0469,0.007 0.057,-0.0609 0.0225,-0.15075 -0.0406,-0.10582 0.12792,-0.25575 0.47792,-0.42518 0.62545,-0.30278 2.42424,-0.40125 2.72778,-0.14933 0.094,0.078 0.20621,0.10645 0.24942,0.0632 0.0432,-0.0432 0.0786,-0.0127 0.0786,0.0678 0,0.0805 0.0492,0.11592 0.10936,0.0788 0.19278,-0.11915 0.83533,0.64617 0.97741,1.16413 0.0756,0.27563 0.14407,1.33391 0.15215,2.35172 0.0163,2.04872 0.0735,2.22684 0.67667,2.1062 0.31413,-0.0628 0.35285,-0.0384 0.35285,0.22218 0,0.37979 -0.45844,0.6803 -1.03783,0.6803 -0.33874,0 -0.51436,-0.0791 -0.72843,-0.32794 -0.16266,-0.18911 -0.2576,-0.42156 -0.22425,-0.54908 0.0318,-0.12164 0.009,-0.25124 -0.0504,-0.28801 -0.0595,-0.0368 -0.10819,-0.20853 -0.10819,-0.38167 0,-0.28917 -0.0275,-0.27158 -0.33722,0.21598 -0.38797,0.61068 -1.06426,1.11102 -1.75213,1.29628 -0.58502,0.15755 -0.77558,0.15774 -1.04468,9e-4 z m 4.80552,-0.54056 c 0,-0.0988 -0.23183,-0.15469 -0.28498,-0.0687 -0.0345,0.0558 0.0155,0.10144 0.11114,0.10144 0.0956,0 0.17384,-0.0147 0.17384,-0.0328 z m -3.0004,-0.45059 c 0.25359,-0.22949 0.42294,-0.25415 0.30199,-0.044 -0.0499,0.0867 -0.0403,0.10755 0.0228,0.0498 0.0598,-0.0547 0.10876,-0.13531 0.10887,-0.17909 10e-5,-0.0438 0.12533,-0.25516 0.27828,-0.46974 0.15295,-0.21459 0.37743,-0.67126 0.49883,-1.01484 l 0.22075,-0.62467 -0.49903,-0.0401 c -0.82011,-0.0659 -1.66818,0.18372 -2.21549,0.6522 -0.27169,0.23254 -0.46356,0.47203 -0.42638,0.53218 0.0372,0.0602 0.0179,0.10936 -0.0428,0.10936 -0.0649,0 -0.0721,0.20937 -0.0176,0.50742 0.051,0.27907 0.0975,0.53427 0.10337,0.56711 0.006,0.0329 0.0598,0.0597 0.12001,0.0597 0.0602,0 0.15421,0.0454 0.20893,0.10097 0.15362,0.15588 1.09833,0.0102 1.33751,-0.20624 z m 13.71194,0.94851 c -0.59984,-0.214 -1.26367,-0.67352 -1.34751,-0.93278 -0.0371,-0.11492 -0.11335,-0.20894 -0.16931,-0.20894 -0.21485,0 -0.51054,-1.24934 -0.51054,-2.15712 0,-2.24644 1.09156,-3.47991 3.08327,-3.48417 1.53724,-0.003 2.43951,0.68323 2.43999,1.85653 1.5e-4,0.51153 -0.30707,1.20371 -0.48543,1.09348 -0.0645,-0.0399 -0.1025,-0.007 -0.0845,0.0727 0.10522,0.46555 -2.13264,0.98715 -3.19359,0.74437 l -0.56248,-0.12871 0.0573,0.50857 c 0.0315,0.27972 0.14443,0.68319 0.25089,0.89659 0.10646,0.2134 0.15895,0.44864 0.11664,0.52274 -0.0423,0.0741 -0.0343,0.0962 0.0179,0.0491 0.0522,-0.0471 0.22896,0.0199 0.39291,0.14884 0.41115,0.32341 1.13882,0.49966 1.67152,0.40485 0.60196,-0.10713 1.28447,-0.49679 1.46675,-0.83738 0.19605,-0.36632 0.32615,-0.27217 0.25873,0.18721 -0.15597,1.06264 -2.02306,1.75631 -3.4026,1.26414 z m 1.06699,-3.58806 c 0.32948,-0.0978 0.69564,-0.28462 0.81368,-0.41506 0.11804,-0.13044 0.24774,-0.21692 0.28821,-0.19219 0.0405,0.0247 0.0894,-0.24321 0.10875,-0.59542 0.048,-0.87515 -0.19192,-1.3134 -0.82265,-1.50237 -0.48224,-0.14448 -0.5326,-0.13695 -1.3513,0.20222 -0.17327,0.0718 -0.20489,0.0564 -0.13079,-0.0634 0.0655,-0.106 0.0516,-0.12965 -0.0421,-0.0717 -0.0769,0.0475 -0.10958,0.13526 -0.0727,0.19498 0.0369,0.0597 -0.0465,0.26226 -0.18537,0.45009 -0.28379,0.38383 -0.46771,1.05533 -0.47195,1.72311 l -0.003,0.44773 h 0.63498 c 0.34925,0 0.90456,-0.0801 1.23404,-0.1779 z m -41.89511,-2.16653 c -0.11492,-0.0335 -0.20894,-0.11071 -0.20894,-0.17156 0,-0.0608 -0.0403,-0.1 -0.0895,-0.087 -0.0492,0.013 -0.21261,-0.0182 -0.36303,-0.0693 -0.25759,-0.0875 -0.27146,-0.14614 -0.23878,-1.00864 0.0325,-0.85647 0.0527,-0.91825 0.31317,-0.95514 0.3641,-0.0516 0.73618,0.29413 0.73702,0.68475 10e-4,0.6 0.24506,1.21355 0.53457,1.34546 0.31122,0.1418 1.32531,0.0369 1.4402,-0.14904 0.0389,-0.0629 0.13417,-0.0781 0.21172,-0.0337 0.0775,0.0444 0.10228,0.0379 0.055,-0.0144 -0.0473,-0.0524 0.0292,-0.25704 0.17007,-0.45485 0.20109,-0.28241 0.26234,-0.56131 0.28519,-1.29879 0.0283,-0.91286 0.0182,-0.95067 -0.35931,-1.35098 -0.28422,-0.30137 -0.35366,-0.44891 -0.25887,-0.55003 0.0974,-0.10386 0.0702,-0.10899 -0.10924,-0.0207 -0.35023,0.1724 -1.474,0.27682 -1.55574,0.14456 -0.0953,-0.15418 1.02575,-1.43638 1.17513,-1.34407 0.0661,0.0408 0.082,0.0136 0.0357,-0.0613 -0.0467,-0.0756 0.13775,-0.37473 0.41978,-0.68069 l 0.50313,-0.54584 -1.50852,0.0183 c -0.8297,0.0101 -1.49809,0.0529 -1.48533,0.0951 0.0462,0.15292 -0.39091,1.09169 -0.50826,1.09169 -0.0729,0 -0.12036,-0.47117 -0.12036,-1.19392 v -1.19391 h 2.56692 c 2.26348,0 2.56693,0.0224 2.56693,0.18926 0,0.1041 -0.61785,0.81057 -1.37301,1.56994 -0.75515,0.75936 -1.373,1.40431 -1.373,1.43322 0,0.0289 -0.0966,0.14177 -0.21457,0.2508 -0.118,0.10902 -0.1531,0.15818 -0.078,0.10924 0.31922,-0.20798 2.4416,0.017 2.4416,0.25874 0,0.0555 0.10285,0.12777 0.22855,0.16064 0.57301,0.14985 0.89068,1.92249 0.41401,2.31024 -0.12358,0.10053 -0.15753,0.14876 -0.0755,0.10718 0.25573,-0.12954 0.16616,0.0208 -0.30387,0.51 -0.72986,0.75964 -1.11281,0.90481 -2.47199,0.93713 -0.65665,0.0156 -1.28794,9.1e-4 -1.40285,-0.0325 z"
       id="path841-0"
       inkscape:connector-curvature="0" />
  </g>
</svg>
