<?xml version="1.0" encoding="UTF-8" standalone="no"?>
<svg
   width="263.11023"
   height="100.00012"
   viewBox="0 0 69.614578 26.458366"
   version="1.1"
   id="svg8"
   shape-rendering="crispEdges"
   xml:space="preserve"
   xmlns="http://www.w3.org/2000/svg"
   xmlns:svg="http://www.w3.org/2000/svg"
   xmlns:rdf="http://www.w3.org/1999/02/22-rdf-syntax-ns#"
   xmlns:cc="http://creativecommons.org/ns#"
   xmlns:dc="http://purl.org/dc/elements/1.1/"><defs
     id="defs2" /><metadata
     id="metadata5"><rdf:RDF><cc:Work
         rdf:about=""><dc:format>image/svg+xml</dc:format><dc:type
           rdf:resource="http://purl.org/dc/dcmitype/StillImage" /></cc:Work></rdf:RDF></metadata><g
     id="layer1"
     transform="translate(6.1215509,130.93744)"><path
       style="fill:#000000;stroke-width:0.183681"
       d="m 45.163379,-104.80913 c -0.12954,-0.1768 -0.18621,-0.21812 -0.126,-0.0919 0.0603,0.12631 0.0269,0.2296 -0.0741,0.2296 -0.10108,0 -0.25054,-0.10338 -0.33228,-0.2296 -0.0817,-0.12631 -0.18992,-3.12257 -0.24043,-6.65842 l -0.0919,-6.42883 h -0.53283 c -0.62334,0 -0.81264,-0.53834 -0.36371,-1.03439 0.28226,-0.3119 1.62442,-0.44566 1.43753,-0.14323 -0.0554,0.0897 0.024,0.11523 0.17669,0.0568 0.38239,-0.14677 1.02351,0.94616 1.03472,1.76384 l 0.009,0.64288 0.34946,-0.66119 c 0.80394,-1.52107 2.34797,-2.31978 3.91759,-2.02655 1.26704,0.23671 1.90733,0.7252 1.79538,1.3697 -0.0138,0.0832 0.0515,0.10323 0.14661,0.0445 0.22339,-0.138 0.70162,1.35464 0.84938,2.65114 0.12292,1.07862 -0.1898,3.54345 -0.46177,3.63956 -0.09,0.0318 -0.118,0.17643 -0.0623,0.32144 0.0555,0.14493 -0.005,0.26365 -0.13277,0.26365 -0.12862,0 -0.18128,0.0528 -0.11693,0.11708 0.18396,0.18395 -0.61158,1.18748 -0.83294,1.05068 -0.11677,-0.0722 -0.14492,-0.0365 -0.0688,0.0869 0.17254,0.27917 -0.86159,0.89547 -1.75621,1.04662 -1.17053,0.19774 -2.18529,-0.0718 -2.87829,-0.76493 l -0.62159,-0.6216 0.0662,2.71117 c 0.0657,2.69438 0.0637,2.71108 -0.33799,2.69757 -0.22228,-0.008 -0.36205,0.0545 -0.3106,0.13769 0.1836,0.29706 -0.20999,0.14523 -0.44103,-0.17008 z m 0.97212,-0.2296 c -0.0625,-0.10107 -0.21197,-0.18241 -0.3323,-0.18088 -0.13138,0.001 -0.10877,0.0739 0.0568,0.18088 0.35288,0.22805 0.41647,0.22805 0.27553,0 z m 3.71105,-5.09264 c 0.4698,-0.30783 1.02091,-1.26516 1.2313,-2.13893 0.22937,-0.9525 0.13646,-4.03215 -0.1457,-4.83198 -0.14769,-0.4185 -0.25409,-0.78902 -0.23654,-0.82341 0.0175,-0.0343 2.3e-4,-0.0448 -0.0382,-0.0231 -0.0386,0.0217 -0.24291,-0.0815 -0.45416,-0.2296 -1.04719,-0.73348 -2.48796,-0.0163 -3.31218,1.64882 -0.43745,0.88373 -0.55038,1.38555 -0.62264,2.76703 -0.0595,1.13944 -0.009,1.92042 0.15662,2.40454 0.13461,0.39434 0.23041,0.77159 0.21272,0.83828 -0.0177,0.0668 0.31667,0.29687 0.74301,0.51145 0.85322,0.42943 1.68587,0.38786 2.4657,-0.12308 z m -37.52823,1.14491 c -0.9593,-0.28324 -1.5709,-0.70114 -1.93957,-1.32522 -0.16666,-0.28215 -0.29843,-0.55432 -0.29281,-0.60483 0.006,-0.0505 -0.0478,-0.2747 -0.1187697,-0.49819 -0.17679,-0.55699 0.1429197,-1.07864 0.8018497,-1.30833 0.6418,-0.22374 0.74177,-0.12092 0.70977,0.73053 -0.0123,0.345 0.0689,0.80002 0.18188,1.01116 0.11292,0.21114 0.14631,0.45674 0.0741,0.5458 -0.0721,0.0891 -0.0543,0.0988 0.0397,0.0215 0.094,-0.0772 0.40941,0.0882 0.70087,0.36736 0.49077,0.47018 0.64097,0.50761 2.03321,0.50663 1.21465,-8.3e-4 1.59733,-0.0714 1.99293,-0.36734 0.93396,-0.69876 1.11013,-1.30201 0.8515,-2.9158 -0.0609,-0.38033 -0.89607,-1.29601 -1.45459,-1.59492 -0.19582,-0.10477 -0.30808,-0.26809 -0.2495,-0.36289 0.0602,-0.0974 -0.0306,-0.11969 -0.20866,-0.0514 -0.23077,0.0886 -0.27492,0.0559 -0.16485,-0.12231 0.0948,-0.15339 0.0789,-0.19915 -0.0428,-0.12385 -0.44384,0.27431 -4.177,-2.30842 -4.0034,-2.76969 0.0471,-0.12508 -0.006,-0.20772 -0.118,-0.18368 -0.112,0.024 -0.27667,-0.22492 -0.36601,-0.55325 -0.184,-0.67631 0.32851,-0.60458 -4.5755497,-0.64031 -1.80055,-0.0138 -2.495,-0.0792 -2.495,-0.23741 0,-0.12062 0.0895,-0.21771 0.19899,-0.21584 0.10938,0.002 0.44695,-0.009 0.75003,-0.0254 l 0.55104,-0.0289 -0.0403,-5.35167 c -0.0222,-2.94343 -0.066,-5.37737 -0.0974,-5.40877 -0.0314,-0.0314 -0.40589,-0.0777 -0.83222,-0.10277 -0.42634,-0.0251 -0.77517,-0.1123 -0.77517,-0.19351 0,-0.0812 1.55547,-0.14769 3.4566,-0.14769 2.61946,0 3.6939097,0.0705 4.4364997,0.291 2.86583,0.85105 4.18679,2.84545 4.08812,6.17224 -0.0388,1.30948 -0.0343,1.31611 1.06011,1.52687 0.80584,0.15518 1.1043,0.30701 0.98453,0.5008 -0.0735,0.11892 -0.0371,0.14585 0.0906,0.0669 0.26173,-0.16176 0.61239,0.17206 1.03086,0.98128 0.30403,0.58794 0.30235,0.632 -0.0419,1.0931 -0.35105,0.47019 -1.038241,0.66086 -1.069671,0.2968 -0.0155,-0.18032 -0.13092,-0.51922 -0.44992,-1.32198 -0.19631,-0.49401 -0.80924,-0.89362 -1.59037,-1.03683 -0.47609,-0.0872 -0.60826,-0.0395 -0.70117,0.25312 -0.0629,0.1984 -0.19645,0.36073 -0.29663,0.36073 -0.10016,0 -0.13616,0.0743 -0.08,0.16517 0.118,0.19086 -1.01995,1.2381 -1.66429,1.53167 -1.00777,0.45917 -0.31688,1.45708 1.81381,2.61983 0.71854,0.39211 1.18946,0.7588 1.11962,0.87179 -0.0729,0.118 -0.0328,0.14077 0.10216,0.0574 0.36142,-0.22337 2.750261,1.53505 2.635231,1.93979 -0.0252,0.0888 0.03,0.16154 0.12261,0.16154 0.0926,0 0.30922,0.36849 0.48122,0.81887 0.34363,0.89979 0.24365,2.6071 -0.13877,2.37073 -0.12246,-0.0757 -0.14738,-0.0383 -0.0642,0.0963 0.17921,0.28999 -0.40342,1.17079 -0.66679,1.00802 -0.12062,-0.0746 -0.15246,-0.0426 -0.078,0.078 0.0697,0.11277 -0.0775,0.33744 -0.32962,0.50257 -1.099741,0.72059 -3.828661,0.99823 -5.361891,0.54553 z m -2.18425,-10.84208 c 0.2647,-0.0528 0.37888,-0.23874 0.40854,-0.66561 0.0459,-0.6606 0.9639,-1.91401 1.37834,-1.88199 0.33703,0.026 0.34214,-10e-4 0.45007,-2.40826 0.0585,-1.30418 0.008,-2.37864 -0.14384,-3.03074 -0.12893,-0.55563 -0.23933,-1.17555 -0.24536,-1.37759 -0.006,-0.20205 -0.0937,-0.3713 -0.19464,-0.37611 -0.10108,-0.005 -0.46753,-0.18673 -0.81446,-0.40428 -0.61588,-0.38622 -2.1246697,-0.66953 -2.8591597,-0.53685 -0.35581,0.0643 -0.3689,0.23043 -0.41622,5.28144 -0.0269,2.86831 -0.008,5.32252 0.0428,5.45382 0.0858,0.22361 1.11717,0.20041 2.3939597,-0.0538 z m 12.07198,10.83025 -0.40824,-0.28592 v -6.93273 c 0,-5.1472 0.0568,-6.98947 0.22042,-7.15313 0.26883,-0.26883 1.28879,-0.29083 1.54628,-0.0334 0.11585,0.11569 0.13493,0.55328 0.0502,1.14801 -0.22049,1.54763 -0.19008,5.06642 0.0403,4.6703 0.1628,-0.27985 0.24081,-0.29419 0.49954,-0.0919 0.27578,0.21568 0.28081,0.20692 0.05,-0.0871 -0.22516,-0.28682 -0.20546,-0.38122 0.161,-0.77128 0.43291,-0.46082 1.80629,-1.02021 2.4702,-1.00615 0.72669,0.0154 1.76716,0.50488 2.17482,1.02312 0.22545,0.28661 0.41684,0.56446 0.4253,0.61746 0.009,0.0529 0.10246,0.30439 0.2088,0.55868 0.26072,0.62328 0.39559,8.07784 0.14631,8.0816 -0.10277,10e-4 -0.0751,0.0735 0.0615,0.16011 0.17489,0.11077 0.0717,0.18318 -0.34919,0.24495 -0.42269,0.0622 -0.69671,-0.0123 -0.93702,-0.25194 -0.30442,-0.30442 -0.33962,-0.67179 -0.33962,-3.54499 0,-3.30361 -0.19644,-4.87342 -0.65779,-5.2563 -0.21149,-0.17553 -0.22001,-0.28017 -0.0422,-0.51711 0.18276,-0.24347 0.17894,-0.25807 -0.0211,-0.0809 -0.16021,0.14184 -0.38938,0.16094 -0.66703,0.0554 -0.84679,-0.32194 -1.93172,0.0521 -2.42061,0.83476 -0.79641,1.27476 -0.85095,1.58179 -0.88796,4.99867 -0.0206,1.90192 0.0338,3.30642 0.126,3.24948 0.0892,-0.0552 0.16226,-0.026 0.16226,0.0648 0,0.15701 -0.78582,0.59137 -1.06985,0.59137 -0.0738,0 -0.31788,-0.12862 -0.5424,-0.28594 z m 12.03612,0.0875 c -0.17678,-0.10292 -0.32143,-0.13723 -0.32143,-0.076 0,0.0612 -0.18599,-0.0834 -0.4133,-0.32131 -0.28627,-0.2996 -0.32949,-0.31686 -0.14061,-0.0562 0.152,0.20991 0.009,0.13785 -0.32143,-0.1631 -0.53835,-0.48885 -0.5941,-0.6387 -0.5941,-1.59638 0,-0.60074 0.0915,-1.11344 0.21206,-1.18793 0.14031,-0.0868 0.16179,-0.0497 0.0634,0.10938 -0.0991,0.1603 -0.0769,0.19614 0.0665,0.10754 0.11831,-0.0731 0.16428,-0.21508 0.10215,-0.31548 -0.25784,-0.41718 1.70869,-1.79574 2.162,-1.51557 0.11969,0.074 0.15479,0.0448 0.084,-0.07 -0.14692,-0.23762 0.87604,-0.49876 1.19105,-0.30408 0.12954,0.0802 0.1678,0.0549 0.0952,-0.0625 -0.0797,-0.12893 0.35993,-0.24139 1.28107,-0.32771 l 1.40238,-0.13139 -0.11323,-1.08289 c -0.0623,-0.59559 -0.23493,-1.3183 -0.38371,-1.60604 -0.14877,-0.28773 -0.23249,-0.57496 -0.18602,-0.63828 0.0465,-0.0632 0.0302,-0.0745 -0.0365,-0.0248 -0.15931,0.11892 -0.6329,-0.27821 -0.53009,-0.44455 0.0438,-0.0709 -0.44636,-0.12353 -1.08936,-0.11692 -0.97481,0.0108 -1.24786,0.086 -1.64303,0.45734 -0.59702,0.56093 -0.6424,1.58703 -0.10061,2.27572 l 0.37327,0.47453 -0.62946,0.11815 c -1.07007,0.20074 -1.7263,-0.39215 -1.90546,-1.72158 -0.0735,-0.54583 -0.0405,-0.61808 0.23448,-0.51255 0.26953,0.10338 0.28342,0.0786 0.088,-0.1569 -0.21049,-0.25363 -0.136,-0.35666 0.2195,-0.30368 0.0721,0.0108 0.0877,-0.0937 0.0346,-0.23192 -0.0625,-0.1628 0.1968,-0.39346 0.73527,-0.65413 0.96223,-0.46581 3.72962,-0.61731 4.1966,-0.22974 0.14462,0.12 0.31725,0.16377 0.38373,0.0972 0.0665,-0.0665 0.12092,-0.0195 0.12092,0.10431 0,0.12385 0.0757,0.17834 0.16825,0.12123 0.29659,-0.1833 1.28513,0.99412 1.50372,1.79098 0.1163,0.42405 0.22164,2.05218 0.23407,3.61805 0.0251,3.1519 0.11308,3.42593 1.04104,3.24033 0.48328,-0.0966 0.54285,-0.0591 0.54285,0.34182 0,0.58429 -0.7053,1.04662 -1.59667,1.04662 -0.52114,0 -0.79133,-0.1217 -1.12067,-0.50453 -0.25025,-0.29094 -0.39631,-0.64856 -0.345,-0.84474 0.0489,-0.18714 0.0139,-0.38653 -0.0775,-0.4431 -0.0915,-0.0566 -0.16645,-0.32081 -0.16645,-0.58719 0,-0.44487 -0.0423,-0.41781 -0.5188,0.33228 -0.59688,0.93952 -1.63733,1.70927 -2.6956,1.99429 -0.90003,0.24239 -1.1932,0.24268 -1.60721,0.001 z m 7.39315,-0.83163 c 0,-0.152 -0.35666,-0.23799 -0.43843,-0.1057 -0.0531,0.0858 0.0238,0.15607 0.17098,0.15607 0.14708,0 0.26745,-0.0226 0.26745,-0.0505 z m -4.61603,-0.69322 c 0.39014,-0.35306 0.65068,-0.391 0.46461,-0.0677 -0.0768,0.13338 -0.062,0.16546 0.0351,0.0766 0.092,-0.0841 0.16733,-0.20817 0.1675,-0.27553 1.5e-4,-0.0674 0.19281,-0.39255 0.42812,-0.72268 0.23531,-0.33014 0.58067,-1.03271 0.76744,-1.5613 l 0.33961,-0.96103 -0.76774,-0.0617 c -1.26171,-0.10139 -2.56644,0.28265 -3.40846,1.00339 -0.41799,0.35775 -0.71318,0.7262 -0.65598,0.81874 0.0572,0.0926 0.0275,0.16825 -0.0658,0.16825 -0.0999,0 -0.11093,0.32211 -0.0271,0.78065 0.0785,0.42934 0.15,0.82196 0.15903,0.87248 0.009,0.0506 0.092,0.0919 0.18463,0.0919 0.0926,0 0.23725,0.0699 0.32144,0.15534 0.23634,0.23982 1.68974,0.0157 2.05772,-0.31729 z m 21.09541,1.45925 c -0.92284,-0.32923 -1.94412,-1.03619 -2.0731,-1.43505 -0.0571,-0.1768 -0.17439,-0.32145 -0.26048,-0.32145 -0.33054,0 -0.78545,-1.92207 -0.78545,-3.31866 0,-3.45608 1.67933,-5.35374 4.74351,-5.36029 2.365,-0.005 3.75312,1.05113 3.75385,2.85621 2.4e-4,0.78698 -0.47241,1.85187 -0.74681,1.68229 -0.0992,-0.0614 -0.1577,-0.0108 -0.13001,0.11185 0.16188,0.71623 -3.281,1.5187 -4.91324,1.14519 l -0.86536,-0.19802 0.0882,0.78242 c 0.0485,0.43034 0.2222,1.05107 0.38599,1.37938 0.16378,0.3283 0.24454,0.69021 0.17944,0.80422 -0.0651,0.114 -0.0528,0.148 0.0275,0.0755 0.0803,-0.0725 0.35225,0.0306 0.60448,0.22898 0.63254,0.49756 1.75204,0.76871 2.57158,0.62285 0.9261,-0.16482 1.97612,-0.7643 2.25655,-1.28828 0.30162,-0.56357 0.50178,-0.41873 0.39805,0.28801 -0.23995,1.63484 -3.11241,2.70203 -5.23479,1.94485 z m 1.64153,-5.52012 c 0.5069,-0.15046 1.07022,-0.43788 1.25182,-0.63856 0.1816,-0.20067 0.38114,-0.33372 0.4434,-0.29567 0.0623,0.038 0.13754,-0.37418 0.16731,-0.91604 0.0738,-1.34639 -0.29526,-2.02063 -1.26562,-2.31135 -0.74191,-0.22228 -0.81939,-0.21069 -2.07893,0.31111 -0.26657,0.11046 -0.31522,0.0868 -0.20122,-0.0975 0.10077,-0.16308 0.0794,-0.19946 -0.0648,-0.11031 -0.11831,0.0731 -0.16858,0.20809 -0.11185,0.29997 0.0568,0.0918 -0.0715,0.40348 -0.28518,0.69245 -0.4366,0.59051 -0.71956,1.62359 -0.72608,2.65095 l -0.005,0.68882 h 0.9769 c 0.53731,0 1.39164,-0.12323 1.89853,-0.27369 z m -64.4543598,-3.33314 c -0.1768,-0.0515 -0.32145,-0.17032 -0.32145,-0.26394 0,-0.0935 -0.062,-0.15385 -0.13769,-0.13385 -0.0757,0.02 -0.32709,-0.028 -0.55851,-0.10661 -0.39629,-0.13462 -0.41763,-0.22483 -0.36736,-1.55176 0.05,-1.31766 0.0811,-1.4127 0.48181,-1.46946 0.56015,-0.0794 1.13259,0.45251 1.13388,1.05347 0.002,0.92308 0.37702,1.86701 0.82242,2.06995 0.4788,0.21815 2.0389496,0.0568 2.2156996,-0.2293 0.0598,-0.0968 0.20642,-0.12015 0.32573,-0.0519 0.11923001,0.0683 0.15735001,0.0583 0.0846,-0.0221 -0.0728,-0.0806 0.0449,-0.39544 0.26165001,-0.69977 0.30937,-0.43448 0.4036,-0.86356 0.43876,-1.99815 0.0435,-1.40441 0.028,-1.46257 -0.55279,-2.07844 -0.43726001,-0.46365 -0.54409001,-0.69063 -0.39826001,-0.8462 0.14984,-0.15979 0.108,-0.16768 -0.16807,-0.0319 -0.53881,0.26523 -2.2676996,0.42587 -2.3934496,0.2224 -0.14662,-0.2372 1.5780796,-2.20983 1.8078996,-2.06781 0.10169,0.0628 0.12615,0.0209 0.0549,-0.0943 -0.0718,-0.11631 0.21193,-0.57652 0.64582,-1.04723 l 0.77405001,-0.83975 -2.32080961,0.0282 c -1.27647,0.0155 -2.30477,0.0814 -2.28514,0.1463 0.0711,0.23527 -0.6014,1.67954 -0.78194,1.67954 -0.11215,0 -0.18517,-0.72488 -0.18517,-1.83681 v -1.8368 h 3.9491296 c 3.4822905,0 3.9491405,0.0345 3.9491405,0.29117 0,0.16016 -0.95054049,1.24704 -2.11233049,2.41531 -1.16178001,1.16825 -2.11232001,2.16049 -2.11232001,2.20496 0,0.0445 -0.1486196,0.21811 -0.3301096,0.38585 -0.18154,0.16773 -0.23554,0.24336 -0.12,0.16806 0.4911096,-0.31997 3.75632961,0.0262 3.75632961,0.39807 0,0.0854 0.15823049,0.19657 0.35161049,0.24714 0.88156,0.23054 1.37029,2.95769 0.63695,3.55423 -0.19013,0.15466 -0.24236,0.22887 -0.11616,0.1649 0.39343,-0.1993 0.25563,0.032 -0.46749,0.78462 -1.12287049,1.16868 -1.71203049,1.39202 -3.8030801,1.44174 -1.01024,0.024 -1.98146,0.001 -2.15825,-0.05 z"
       id="path841-0" /></g></svg>
