<?xml version="1.0" encoding="UTF-8" standalone="no"?>
<svg
   width="70.841797"
   height="99.999969"
   viewBox="0 0 18.743558 26.458326"
   version="1.1"
   id="svg8"
   inkscape:export-filename="h100 svg\sofasa_h100.svg"
   inkscape:export-xdpi="96"
   inkscape:export-ydpi="96"
   inkscape:version="1.2.2 (732a01da63, 2022-12-09)"
   sodipodi:docname="Logos.svg"
   shape-rendering="crispEdges"
   xml:space="preserve"
   xmlns:inkscape="http://www.inkscape.org/namespaces/inkscape"
   xmlns:sodipodi="http://sodipodi.sourceforge.net/DTD/sodipodi-0.dtd"
   xmlns="http://www.w3.org/2000/svg"
   xmlns:svg="http://www.w3.org/2000/svg"
   xmlns:rdf="http://www.w3.org/1999/02/22-rdf-syntax-ns#"
   xmlns:cc="http://creativecommons.org/ns#"
   xmlns:dc="http://purl.org/dc/elements/1.1/"><defs
     id="defs2" /><sodipodi:namedview
     inkscape:pagecheckerboard="true"
     id="base"
     pagecolor="#ffffff"
     bordercolor="#666666"
     borderopacity="1.0"
     inkscape:pageopacity="0.0"
     inkscape:pageshadow="2"
     inkscape:zoom="1.4"
     inkscape:cx="2356.4285"
     inkscape:cy="-3771.4285"
     inkscape:document-units="mm"
     inkscape:current-layer="layer1"
     showgrid="false"
     units="px"
     inkscape:window-width="1920"
     inkscape:window-height="1017"
     inkscape:window-x="-8"
     inkscape:window-y="-8"
     inkscape:window-maximized="1"
     inkscape:document-rotation="0"
     inkscape:showpageshadow="0"
     inkscape:deskcolor="#d1d1d1" /><metadata
     id="metadata5"><rdf:RDF><cc:Work
         rdf:about=""><dc:format>image/svg+xml</dc:format><dc:type
           rdf:resource="http://purl.org/dc/dcmitype/StillImage" /></cc:Work></rdf:RDF></metadata><g
     inkscape:label="Layer 1"
     inkscape:groupmode="layer"
     id="layer1"
     transform="translate(-11.794888,-11.249986)"><path
       sodipodi:nodetypes="ccscssscscccccscsccsscccsscsccccscccccc"
       inkscape:connector-curvature="0"
       id="path935-9-7"
       d="m 20.013572,36.607973 c -4.75359,-4.71235 -7.57669,-9.782 -8.1502,-14.63597 -0.20622,-1.7453 0.0609,-3.71761 0.69869,-5.15987 0.41599,-0.94063 1.3542,-2.28664 2.06925,-2.96865 0.70213,-0.66969 1.87753,-1.46851 2.74553,-1.8659 2.21143,-1.01241 5.67921,-0.96232 7.82093,0.11296 2.765641,1.38857 4.683946,3.92673 5.198694,6.87853 0.470555,2.69835 -0.235386,6.04213 -2.01589,9.54858 -0.639813,1.26001 -2.163773,3.63397 -3.075324,4.79059 -0.71101,0.90217 -2.94828,3.32014 -3.60011,3.89086 l -0.58156,0.50921 z m 3.40205,-7.75098 c 0.35452,-0.0946 1.10384,-0.39513 1.66517,-0.66799 0.89434,-0.43476 1.153605,-0.63067 2.096013,-1.58396 1.179965,-1.19358 1.76704,-2.14699 2.195606,-3.56569 1.146428,-3.79502 -0.521759,-7.96749 -3.959033,-9.90234 -4.397336,-2.4753 -9.808496,-0.76672 -11.989806,3.78578 -0.62662,1.30781 -0.82919,2.20218 -0.82729,3.65263 0.002,1.43576 0.19949,2.34377 0.77938,3.58123 1.17782,2.5134 3.33806,4.2402 6.01133,4.80518 0.8952,0.18919 3.14554,0.1306 4.02863,-0.10477 z m -1.98746,-4.33432 v -3.73399 l 2.65969,-2.6581 c 1.462821,-1.46195 2.715635,-2.65808 2.784029,-2.65808 0.195067,0 0.86563,0.98057 1.26185,1.84522 1.477906,3.22518 0.596477,7.03161 -2.14239,9.25183 -1.133069,0.91853 -3.015109,1.68103 -4.160309,1.68554 l -0.40287,0.002 z m -7.99168,-4.72611 c 0.4489,-3.727 3.16134,-6.44326 6.94424,-6.95407 l 0.51029,-0.0689 v 3.76664 3.76663 h -3.75799 -3.758 z"
       style="fill:#000000;stroke-width:0.10743" /></g></svg>
