<?xml version="1.0" encoding="UTF-8" standalone="no"?>
<svg
   width="246.46808"
   height="100.00018"
   viewBox="0 0 65.211342 26.458382"
   version="1.1"
   id="svg8"
   shape-rendering="crispEdges"
   xml:space="preserve"
   xmlns="http://www.w3.org/2000/svg"
   xmlns:svg="http://www.w3.org/2000/svg"
   xmlns:rdf="http://www.w3.org/1999/02/22-rdf-syntax-ns#"
   xmlns:cc="http://creativecommons.org/ns#"
   xmlns:dc="http://purl.org/dc/elements/1.1/"><defs
     id="defs2" /><metadata
     id="metadata5"><rdf:RDF><cc:Work
         rdf:about=""><dc:format>image/svg+xml</dc:format><dc:type
           rdf:resource="http://purl.org/dc/dcmitype/StillImage" /></cc:Work></rdf:RDF></metadata><g
     id="layer1"
     transform="translate(81.466878,84.770301)"><path
       style="fill:#063d5e;fill-opacity:1;stroke-width:0.143719"
       d="m -81.444808,-58.48616 c -0.04401,-0.114627 -0.02011,-0.3884 0.05312,-0.608384 0.131895,-0.396425 0.151434,-0.4021 2.205273,-0.640503 2.765364,-0.321002 7.767056,-0.796304 11.12649,-1.057334 11.749912,-0.912976 25.586079,-0.910758 37.366929,0.006 3.209817,0.24978 9.907467,0.885741 11.856817,1.125847 l 1.365326,0.168173 0.04444,0.614601 c 0.04172,0.577031 0.02412,0.609949 -0.287435,0.538397 -0.781615,-0.179502 -6.698783,-0.815843 -10.679636,-1.148513 -14.052128,-1.17427 -24.645431,-1.300124 -36.504616,-0.433692 -6.324389,0.46206 -15.650111,1.367764 -16.28161,1.581257 -0.101798,0.03444 -0.221077,-0.03122 -0.265064,-0.145847 z m 62.033724,-2.331462 c -0.653521,-0.238901 -1.29347,-1.187649 -1.29347,-1.91764 0,-1.150991 0.887625,-2.004992 2.083926,-2.004992 2.116131,0 2.845191,2.638758 1.034156,3.74302 -0.438402,0.267313 -1.341513,0.356213 -1.824612,0.179612 z m 1.818121,-0.572625 c 0.17231,-0.112902 0.414633,-0.458549 0.538494,-0.768108 0.302295,-0.755514 0.06679,-1.505489 -0.617309,-1.965842 -0.749384,-0.504288 -1.505961,-0.446983 -2.112969,0.160024 -0.398709,0.398706 -0.48865,0.598418 -0.48865,1.085031 0,0.963631 0.368869,1.472213 1.293469,1.783403 0.301096,0.101336 1.013801,-0.04998 1.386965,-0.294508 z m -1.818121,-1.409798 v -1.077896 h 0.689853 c 0.379417,0 0.76746,0.07761 0.862313,0.17246 0.249904,0.249908 0.211504,0.797442 -0.06686,0.953224 -0.217395,0.121665 -0.209868,0.17138 0.08217,0.542652 0.215274,0.273668 0.264601,0.427682 0.149295,0.466117 -0.09471,0.03157 -0.330398,-0.144731 -0.523743,-0.391786 -0.465945,-0.595371 -0.90559,-0.60412 -0.90559,-0.01804 0,0.237133 -0.06467,0.431156 -0.143717,0.431156 -0.08304,0 -0.143722,-0.45511 -0.143722,-1.077895 z m 1.261309,-0.240908 c 0.249317,-0.249317 -0.05679,-0.549548 -0.560313,-0.549548 -0.345316,0 -0.413557,0.05929 -0.413557,0.359295 0,0.297701 0.06899,0.3593 0.402414,0.3593 0.221328,0 0.478486,-0.07607 0.571456,-0.169047 z m -50.557105,-0.866595 c 1.05e-4,-0.0558 0.202146,-0.443843 0.448976,-0.862313 1.384164,-2.346666 4.576461,-8.259464 5.824348,-10.787908 l 0.692895,-1.403915 3.144337,0.03859 3.144351,0.03858 0.848991,2.371361 c 0.954604,2.66634 2.028774,5.554274 3.195159,8.590273 l 0.787987,2.05106 -2.731463,-0.03898 -2.731459,-0.03898 -0.403499,-1.221608 c -0.221919,-0.671888 -0.482265,-1.433452 -0.578534,-1.692361 l -0.175048,-0.470747 -2.141376,0.0396 -2.141372,0.0396 -0.757679,1.65277 -0.757679,1.652765 -2.834567,0.07187 c -1.559014,0.03956 -2.834479,0.02619 -2.834368,-0.02959 z m 10.333596,-7.896658 c -0.226779,-0.723358 -0.441885,-1.344746 -0.478001,-1.380866 -0.03612,-0.03612 -0.159614,0.151509 -0.274439,0.416948 -0.114825,0.265444 -0.37731,0.856338 -0.583301,1.313102 -0.205987,0.456768 -0.374523,0.860977 -0.374523,0.898248 0,0.03726 0.477587,0.06776 1.061302,0.06776 h 1.061298 z m 23.893908,7.958897 -2.636592,-0.0392 0.08228,-0.823089 c 0.258802,-2.588738 0.519002,-7.589605 0.51954,-9.98517 l 4.41e-4,-2.263574 h 2.730656 c 1.501869,0 2.729312,0.04851 2.727671,0.107787 -0.0018,0.05928 -0.09672,1.239578 -0.211287,2.622874 -0.11457,1.383295 -0.25292,4.280013 -0.307446,6.437154 -0.05453,2.157145 -0.137302,3.935666 -0.183939,3.952269 -0.04666,0.01662 -1.271262,0.01252 -2.721396,-0.009 z m 7.740153,-0.176349 c 8.82e-4,-0.118569 0.09278,-1.185683 0.203897,-2.371365 0.11112,-1.185683 0.247244,-3.274455 0.302498,-4.641713 l 0.100454,-2.485921 -2.136601,0.02148 -2.136604,0.02148 0.0072,-0.517697 c 0.004,-0.284741 0.02011,-1.067432 0.03589,-1.739315 l 0.02875,-1.221613 h 6.908889 6.908898 l -0.100727,1.6887 c -0.0554,0.928781 -0.121876,1.712781 -0.147739,1.742216 -0.02584,0.02946 -1.003808,0.06177 -2.173228,0.07186 l -2.126224,0.01834 -0.09228,1.077896 c -0.15288,1.785784 -0.259252,4.411164 -0.263243,6.497144 l -0.004,1.970001 -2.658968,0.04202 c -2.28706,0.03616 -2.658707,0.01191 -2.657111,-0.173509 z m -54.422335,-0.682665 c 0.04927,-0.454515 0.187695,-1.731814 0.307569,-2.838448 0.119874,-1.106642 0.260822,-3.677411 0.313219,-5.71283 l 0.09526,-3.700765 5.905344,-2.74e-4 5.905342,-2.73e-4 -0.04438,1.724899 -0.04438,1.724904 h -3.368943 -3.368951 v 0.64673 0.64674 h 2.663964 2.663968 l -0.0843,1.329395 c -0.04639,0.731173 -0.116289,1.539595 -0.155395,1.796496 l -0.0711,0.467083 h -2.652286 -2.652287 l -0.0022,0.323365 c -8.82e-4,0.177858 -0.04374,0.479377 -0.09472,0.670058 l -0.09275,0.346679 3.440455,-0.08763 3.440454,-0.08763 -0.04339,1.034411 c -0.02386,0.568934 -0.07894,1.373952 -0.1224,1.788942 l -0.07902,0.754526 h -5.974482 -5.974467 l 0.08962,-0.826382 z m 31.283747,0.431156 c 8.82e-4,-0.217373 0.09358,-1.36533 0.205886,-2.551013 0.112311,-1.185682 0.24178,-3.09355 0.287712,-4.239713 0.04595,-1.146158 0.121594,-2.940846 0.168134,-3.988199 l 0.08462,-1.904274 h 5.877754 5.877754 v 1.057831 c 0,0.58181 -0.04114,1.357891 -0.0914,1.724626 l -0.09139,0.666799 h -3.27091 -3.2709 l -0.05554,0.582344 c -0.03052,0.320283 -0.02655,0.611316 0.0089,0.64673 0.03541,0.03541 1.259105,0.0644 2.719297,0.0644 h 2.654893 l -0.07213,1.634491 c -0.03964,0.898976 -0.117176,1.707393 -0.172244,1.796492 -0.06842,0.110701 -0.939263,0.161991 -2.750439,0.161991 h -2.650351 v 2.371365 2.37136 h -2.730661 -2.730661 l 0.0018,-0.395226 z m -29.560268,-15.109201 c -0.905321,-0.423378 -0.956897,-0.609049 -0.838734,-3.019661 0.05661,-1.15477 0.132252,-2.148087 0.168108,-2.207372 0.03585,-0.05928 0.482005,-0.107791 0.991447,-0.107791 H -78.191 l -0.093,1.837506 c -0.103941,2.053583 -0.0068,2.330346 0.817413,2.330346 0.674146,0 0.85703,-0.450899 0.97107,-2.39415 l 0.09987,-1.701841 0.991244,-0.04299 0.991254,-0.04299 -0.09884,2.126903 c -0.106129,2.283488 -0.177589,2.506431 -1.000263,3.120644 -0.58495,0.43673 -3.07143,0.500932 -3.925823,0.101371 z m 5.923028,-2.424516 c 0.05427,-1.4821 0.145856,-2.746134 0.203562,-2.808964 0.05771,-0.06283 0.616175,-0.09517 1.241042,-0.07186 l 1.136117,0.04238 0.807311,1.652769 0.80731,1.652765 0.108568,-1.695098 0.108563,-1.695099 0.880423,0.04233 0.880424,0.04233 -0.05553,1.077896 c -0.03051,0.592839 -0.09513,1.821635 -0.143527,2.730661 l -0.088,1.652765 h -1.221615 -1.221613 l -0.804382,-1.562966 -0.804383,-1.56297 -0.09386,0.684782 c -0.0516,0.376635 -0.09386,1.096139 -0.09386,1.598901 v 0.914114 h -0.872592 -0.872596 z m 7.025447,1.437192 c 0.05052,-0.691648 0.120848,-1.936615 0.156338,-2.766592 l 0.06452,-1.509047 1.008067,-0.0422 1.008064,-0.0422 -0.08331,2.629153 c -0.04585,1.446037 -0.108197,2.709997 -0.138602,2.808805 -0.03748,0.121775 -0.385746,0.179648 -1.081089,0.179648 h -1.025799 z m 4.871185,1.083535 c -0.167371,-0.218021 -1.774072,-4.985366 -1.772048,-5.257953 8.82e-4,-0.138126 0.250997,-0.175239 0.967975,-0.143718 l 0.966589,0.04251 0.462942,1.580909 c 0.254613,0.8695 0.466382,1.690269 0.470597,1.823933 0.01954,0.619923 0.293697,0.251985 0.984022,-1.320621 0.411546,-0.937538 0.748264,-1.766937 0.748264,-1.84311 0,-0.07617 0.102301,-0.177757 0.227334,-0.225734 0.32595,-0.125078 1.92963,-0.107933 1.922306,0.02055 -0.0031,0.05928 -0.60161,1.304247 -1.3294,2.766587 l -1.323253,2.658804 -1.091544,0.04158 c -0.763328,0.02906 -1.134309,-0.01416 -1.233784,-0.143722 z m 5.525373,0.06973 c -0.03021,-0.06122 0.01354,-1.307761 0.09714,-2.770101 l 0.152065,-2.6588 2.343456,-0.03951 2.343452,-0.03951 -0.04392,0.67158 -0.04392,0.671574 -1.3294,-0.0299 -1.3294,-0.0299 v 0.439809 0.439808 h 1.086155 1.08616 l -0.04422,0.610805 -0.04422,0.610804 -1.113822,0.04198 c -1.075796,0.04053 -1.113821,0.05404 -1.113821,0.395231 0,0.350542 0.01054,0.35325 1.373206,0.35325 h 1.373197 l -0.04379,0.682665 -0.04379,0.682665 -2.324781,0.03942 c -1.278626,0.0217 -2.349497,-0.01063 -2.379717,-0.07186 z m 5.832749,-1.009545 c 0.04813,-0.612599 0.129923,-1.873736 0.181812,-2.802517 l 0.09434,-1.6887 1.741021,0.0035 c 0.957563,0.0018 1.999718,0.06317 2.315895,0.136194 0.774525,0.178876 1.221613,0.71744 1.221613,1.471552 0,0.495913 -0.08703,0.671896 -0.550051,1.112366 l -0.550056,0.52325 0.334478,0.99154 c 0.18396,0.54535 0.334473,1.075955 0.334473,1.179125 0,0.229575 -1.801461,0.268363 -1.941479,0.0418 -0.04954,-0.08018 -0.239624,-0.764263 -0.422368,-1.520187 -0.231144,-0.956121 -0.282853,-1.389235 -0.169893,-1.423124 0.08931,-0.02681 0.335919,-0.08661 0.548023,-0.132913 0.49818,-0.108766 0.686643,-0.633131 0.323087,-0.898963 -0.143356,-0.104828 -0.539327,-0.190601 -0.879921,-0.190601 h -0.619266 l -0.006,0.970104 c -0.0073,1.185819 -0.121514,2.917708 -0.208443,3.161817 -0.04176,0.117356 -0.370973,0.179648 -0.949348,0.179648 h -0.885384 l 0.08747,-1.113822 z m 6.596645,1.018911 c -0.287514,-0.06117 -0.323374,-0.155901 -0.323374,-0.854314 0,-0.702614 0.02655,-0.771574 0.251513,-0.653428 0.532739,0.279779 1.390823,0.330103 1.688695,0.09903 0.279277,-0.216641 0.26435,-0.244365 -0.525754,-0.976511 -1.162827,-1.07753 -1.348423,-1.561268 -0.91821,-2.393207 0.299204,-0.5786 0.964036,-0.807068 2.278822,-0.783114 0.617256,0.01124 1.1584,0.05656 1.202533,0.100692 0.04416,0.04413 0.112796,0.369041 0.152585,0.722017 l 0.07233,0.641778 -0.859932,-0.07797 c -1.281762,-0.116228 -1.37131,0.289308 -0.242831,1.099723 1.168648,0.839259 1.362932,1.7029 0.576228,2.561522 l -0.491865,0.536835 -1.268687,0.02289 c -0.697782,0.01257 -1.414208,-0.0081 -1.592056,-0.04593 z m 4.922109,-0.04923 c -0.049,-0.07928 -0.05329,-0.418814 -0.0096,-0.754522 0.04374,-0.335712 0.110613,-1.515816 0.148607,-2.62245 l 0.06909,-2.012065 h 0.973958 0.973963 l -0.03488,1.293469 c -0.01918,0.711408 -0.07392,1.956375 -0.12162,2.766591 l -0.08673,1.473118 h -0.911861 c -0.501527,0 -0.95195,-0.06486 -1.000946,-0.144141 z m 3.164132,-0.0355 c -0.03347,-0.09881 -0.01526,-1.343771 0.04048,-2.766587 l 0.101225,-2.586943 h 2.109459 c 1.920073,0 2.145873,0.02716 2.515078,0.302463 0.687851,0.512908 0.967824,1.151198 0.967824,2.206512 0,1.520892 -0.747131,2.593584 -2.010508,2.886597 -0.8849,0.205233 -3.650415,0.174008 -3.72352,-0.04202 z m 3.288817,-1.589107 c 0.429252,-0.429251 0.591199,-1.272399 0.343615,-1.788972 -0.229341,-0.4785 -0.874537,-0.810389 -1.345579,-0.692164 -0.338447,0.08495 -0.348704,0.127582 -0.348704,1.450112 v 1.362592 h 0.509553 c 0.340528,0 0.619535,-0.109983 0.841115,-0.331568 z m 2.386028,1.558296 c 0,-0.115751 0.361205,-0.871873 0.802684,-1.680273 0.441471,-0.808395 1.057845,-1.977312 1.36971,-2.597593 l 0.567037,-1.127774 1.251816,0.04145 1.251815,0.04145 0.272975,0.790452 c 0.150138,0.43475 0.585272,1.629998 0.96696,2.656101 0.381689,1.026104 0.640927,1.918703 0.576082,1.983548 -0.06485,0.06484 -0.523319,0.0984 -1.018836,0.07456 l -0.900933,-0.04335 -0.237825,-0.646735 -0.237826,-0.646735 -1.031712,-0.04207 -1.031713,-0.04207 -0.311781,0.724756 -0.311785,0.724756 h -0.988334 c -0.772024,0 -0.988334,-0.04606 -0.988334,-0.210459 z m 4.311569,-2.570614 c 0,-0.106773 -0.07037,-0.413972 -0.156373,-0.682665 -0.08601,-0.268694 -0.185941,-0.582265 -0.222065,-0.69683 -0.06055,-0.192026 -0.771314,1.138772 -0.771314,1.444181 0,0.0712 0.258692,0.129448 0.574878,0.129448 0.386958,0 0.574874,-0.06346 0.574874,-0.194134 z m 3.55942,2.702024 c -0.05798,-0.0593 -0.06763,-0.858031 -0.02148,-1.774946 0.04617,-0.916914 0.09363,-2.119834 0.105414,-2.673149 l 0.02148,-1.006034 h 2.109463 c 2.420529,0 2.66563,0.09252 3.244071,1.224549 0.524758,1.026973 0.391663,2.266943 -0.350648,3.266818 -0.593187,0.79902 -1.054003,0.947875 -3.134534,1.01253 -1.02759,0.03193 -1.915788,0.0095 -1.973762,-0.04977 z m 3.260304,-1.681508 c 0.529833,-0.465063 0.648512,-1.476711 0.234748,-2.001027 -0.16675,-0.21131 -0.507855,-0.429151 -0.75801,-0.484091 -0.670719,-0.147316 -0.83514,0.170515 -0.83514,1.614343 v 1.194145 h 0.495 c 0.308368,0 0.633907,-0.121925 0.863402,-0.32337 z"
       id="path5230" /></g></svg>
