<?xml version="1.0" encoding="UTF-8" standalone="no"?>
<svg
   width="160"
   height="100"
   viewBox="0 0 42.333331 26.458334"
   version="1.1"
   id="svg8"
   inkscape:export-filename="h100 svg\firefly.svg"
   inkscape:export-xdpi="96"
   inkscape:export-ydpi="96"
   inkscape:version="1.2.2 (732a01da63, 2022-12-09)"
   sodipodi:docname="Logos.svg"
   shape-rendering="crispEdges"
   xml:space="preserve"
   xmlns:inkscape="http://www.inkscape.org/namespaces/inkscape"
   xmlns:sodipodi="http://sodipodi.sourceforge.net/DTD/sodipodi-0.dtd"
   xmlns="http://www.w3.org/2000/svg"
   xmlns:svg="http://www.w3.org/2000/svg"
   xmlns:rdf="http://www.w3.org/1999/02/22-rdf-syntax-ns#"
   xmlns:cc="http://creativecommons.org/ns#"
   xmlns:dc="http://purl.org/dc/elements/1.1/"><defs
     id="defs2" /><sodipodi:namedview
     inkscape:pagecheckerboard="true"
     id="base"
     pagecolor="#ffffff"
     bordercolor="#666666"
     borderopacity="1.0"
     inkscape:pageopacity="0.0"
     inkscape:pageshadow="2"
     inkscape:zoom="1.4"
     inkscape:cx="2356.4285"
     inkscape:cy="-3771.4285"
     inkscape:document-units="mm"
     inkscape:current-layer="layer1"
     showgrid="false"
     units="px"
     inkscape:window-width="1920"
     inkscape:window-height="1017"
     inkscape:window-x="-8"
     inkscape:window-y="-8"
     inkscape:window-maximized="1"
     inkscape:document-rotation="0"
     inkscape:showpageshadow="0"
     inkscape:deskcolor="#d1d1d1" /><metadata
     id="metadata5"><rdf:RDF><cc:Work
         rdf:about=""><dc:format>image/svg+xml</dc:format><dc:type
           rdf:resource="http://purl.org/dc/dcmitype/StillImage" /></cc:Work></rdf:RDF></metadata><g
     inkscape:label="Layer 1"
     inkscape:groupmode="layer"
     id="layer1"
     transform="translate(0,-11.249983)"><path
       style="fill:#195665;fill-opacity:1;stroke-width:0.0442535"
       d="m 19.708561,37.671331 c -5.13714,-0.51455 -9.7731703,-4.30348 -11.2203603,-9.27327 -1.48234,-4.67111 -0.14623,-10.1593 3.5086603,-13.4684 2.28395,-2.3122 5.51013,-3.66493 8.7622,-3.67078 2.14389,-0.0709 4.31707,0.27589 6.23509,1.27963 1.5105,0.71695 2.83162,1.7813 3.96014,3.0078 2.47054,2.5311 3.64596,6.17444 3.46728,9.6748 -0.21994,4.57284 -2.99043,8.91659 -7.07108,11.00046 -1.74225,0.94166 -3.69796,1.46467 -5.6818,1.45483 -0.65302,0.0351 -1.30769,0.0513 -1.96013,-0.005 z m 2.89861,-0.83931 c 3.32192,-0.32085 6.39128,-2.18905 8.4303,-4.79302 -0.0827,-0.7247 -0.56353,-1.36885 -0.7899,-2.06215 -1.21391,-2.70804 -2.37341,-5.4487 -3.69197,-8.10455 -3.72538,0.5341 -7.40735,1.3652 -11.1415,1.82405 -0.52226,-0.0105 -0.6186,-0.78385 -0.73023,-1.19735 -0.14261,-0.7463 -0.13896,-1.5411 0.12243,-2.26275 0.5572,-0.54555 1.45024,-0.11995 2.13101,-0.1982 1.40368,0.0892 2.80536,0.20805 4.20957,0.28865 -2.34378,-0.7693 -4.74185,-1.3669 -7.102,-2.08544 -0.0457,-0.8677 -0.2382,-1.8297 0.23193,-2.6245 0.35829,-0.87375 1.06435,-1.93625 1.95114,-0.9199 5.77315,3.21305 11.50598,6.49974 17.28591,9.69959 0.089,-0.36205 0.0455,-0.91975 0.0237,-1.354 -0.40705,-3.77215 -2.68801,-7.23594 -5.91385,-9.20029 -1.94637,-1.19475 -4.24369,-1.90245 -6.53893,-1.77025 -3.12196,-0.10745 -6.21071,1.2366 -8.45679,3.37215 -2.49746,2.3594 -4.0272703,5.76969 -3.8505503,9.22689 -0.0263,3.09291 1.18794,6.17805 3.3948703,8.3587 2.53401,2.74668 6.35295,4.20192 10.06792,3.83123 0.12292,5e-4 0.24426,-0.0282 0.36697,-0.0288 z m -2.52279,-0.87389 c -1.01448,-0.32014 -1.29258,-1.74963 -0.47176,-2.42853 0.47866,-0.73235 1.43819,-0.98505 1.74544,-1.84485 0.51025,-1.0737 1.18229,-2.1284 1.4925,-3.27139 -0.19086,-0.45695 -0.42367,-0.9523 -0.32623,-1.48955 0.0751,-1.12255 0.57334,-2.18661 0.84358,-3.27536 0.0725,-0.86475 0.56337,-1.3152 1.45611,-1.2839 0.58443,-0.0175 1.58625,-0.6175 1.82568,0.2115 0.28552,0.64965 0.59729,1.28895 0.84607,1.9538 -0.9249,1.39571 -1.78651,2.88756 -3.00689,4.04801 -0.30002,0.34789 -1.01615,-0.1072 -1.11477,0.44934 -0.5181,1.1582 -1.12024,2.2976 -1.58575,3.46755 -0.0456,0.9558 0.0988,1.98217 -0.27522,2.87892 -0.27276,0.48218 -0.89501,0.80782 -1.42876,0.58446 z m 8.58171,-14.57718 c -1.27959,-0.71465 -2.61744,-1.3686 -3.83409,-2.16985 0.18945,-1.10329 1.47198,-0.84229 2.2846,-1.00989 0.60569,-0.16655 1.27347,0.0998 1.48777,0.71704 0.30935,0.71795 0.86051,1.3857 0.96535,2.1676 -0.0159,0.4991 -0.50161,0.693 -0.90363,0.2951 z m 4.3922,6.84601 c 0.19085,-0.5617 -0.56394,-0.8497 -0.83933,-1.24085 -0.42738,-0.45 -1.94978,-1.7918 -0.84867,-0.45255 0.5468,0.56835 0.9629,1.547 1.62765,1.86785 0.0201,-0.0582 0.0402,-0.1163 0.0603,-0.17445 z"
       id="path45634-8"
       inkscape:export-filename="firefly-200w.webp"
       inkscape:export-xdpi="95.999886"
       inkscape:export-ydpi="95.999886" /></g></svg>
