<?xml version="1.0" encoding="UTF-8" standalone="no"?>
<svg
   version="1.0"
   width="2400.000000pt"
   height="811.000000pt"
   viewBox="0 0 2400.000000 811.000000"
   preserveAspectRatio="xMidYMid meet"
   id="svg39058"
   sodipodi:docname="google-logo-black-transparent.svg"
   inkscape:version="1.2.2 (732a01da63, 2022-12-09)"
   xmlns:inkscape="http://www.inkscape.org/namespaces/inkscape"
   xmlns:sodipodi="http://sodipodi.sourceforge.net/DTD/sodipodi-0.dtd"
   xmlns="http://www.w3.org/2000/svg"
   xmlns:svg="http://www.w3.org/2000/svg">
  <defs
     id="defs39062" />
  <sodipodi:namedview
     id="namedview39060"
     pagecolor="#505050"
     bordercolor="#eeeeee"
     borderopacity="1"
     inkscape:showpageshadow="0"
     inkscape:pageopacity="0"
     inkscape:pagecheckerboard="0"
     inkscape:deskcolor="#505050"
     inkscape:document-units="pt"
     showgrid="false"
     inkscape:zoom="1.069499"
     inkscape:cx="285.64776"
     inkscape:cy="396.44731"
     inkscape:window-width="1920"
     inkscape:window-height="1017"
     inkscape:window-x="-8"
     inkscape:window-y="-8"
     inkscape:window-maximized="1"
     inkscape:current-layer="svg39058" />
  <g
     transform="matrix(0.0062761,0,0,-0.0062761,96.704589,85.943425)"
     fill="#000000"
     stroke="none"
     id="g39056">
    <path
       d="m 3635,7734 c -16,-2 -73,-9 -125,-15 -487,-54 -987,-263 -1410,-589 -125,-96 -396,-369 -491,-495 -302,-398 -484,-827 -554,-1307 -23,-152 -30,-439 -16,-598 41,-461 195,-898 450,-1282 120,-180 201,-279 356,-434 652,-656 1553,-948 2490,-808 588,87 1068,335 1475,760 400,418 613,966 645,1664 7,137 -6,384 -26,498 l -11,62 H 5134 3850 l 2,-377 3,-378 908,-3 c 715,-2 907,-5 907,-15 0,-61 -56,-296 -101,-424 -116,-328 -340,-590 -684,-798 -445,-269 -1083,-338 -1620,-173 -521,159 -955,531 -1196,1023 -138,284 -197,525 -206,846 -11,377 57,687 223,1009 198,385 488,674 869,865 648,325 1415,281 2001,-114 65,-44 153,-109 194,-145 l 75,-65 268,267 268,267 -68,64 c -316,294 -729,518 -1146,621 -224,54 -365,71 -637,75 -135,2 -258,1 -275,-1 z"
       id="path39044" />
    <path
       d="M 18430,4910 V 2280 h 385 385 v 2630 2630 h -385 -385 z"
       id="path39046" />
    <path
       d="m 8376,5749 c -642,-68 -1174,-437 -1440,-999 -132,-279 -193,-620 -167,-926 22,-259 78,-461 187,-679 213,-428 600,-754 1059,-892 126,-37 200,-53 334,-68 646,-76 1280,190 1658,695 358,477 452,1124 248,1710 -47,135 -138,309 -223,430 -86,122 -280,316 -402,403 -118,83 -341,195 -480,241 -242,80 -526,111 -774,85 z m 357,-714 c 418,-73 730,-393 819,-840 28,-144 22,-389 -15,-526 -72,-272 -220,-484 -441,-630 -105,-69 -214,-114 -346,-141 -123,-26 -314,-21 -435,12 -476,128 -786,581 -761,1110 14,296 109,527 297,725 146,154 369,269 574,298 72,10 229,6 308,-8 z"
       id="path39048" />
    <path
       d="m 12258,5749 c -284,-27 -599,-138 -826,-291 -400,-269 -656,-654 -754,-1138 -20,-101 -23,-144 -23,-355 0,-211 3,-254 23,-354 112,-552 441,-990 932,-1240 438,-222 944,-260 1424,-104 138,44 352,153 476,241 122,86 316,280 402,402 141,199 248,450 299,700 21,102 24,142 24,350 0,263 -11,348 -71,546 -245,815 -1031,1327 -1906,1243 z m 359,-714 c 211,-40 376,-126 524,-274 332,-332 412,-876 194,-1316 -129,-262 -351,-449 -630,-532 -80,-23 -107,-26 -250,-27 -174,-1 -246,11 -378,65 -426,172 -688,637 -637,1131 51,497 367,861 826,952 94,19 255,19 351,1 z"
       id="path39050" />
    <path
       d="m 16125,5754 c -16,-2 -66,-9 -110,-15 -532,-72 -1047,-458 -1300,-974 -128,-263 -185,-509 -185,-805 0,-492 182,-933 530,-1280 488,-488 1205,-643 1756,-381 129,62 208,115 304,208 43,40 83,73 90,73 19,0 7,-404 -15,-525 -74,-411 -285,-655 -650,-751 -88,-23 -120,-27 -265,-28 -183,-1 -243,10 -376,65 -208,87 -410,280 -515,495 -18,35 -36,64 -40,64 -5,0 -145,-57 -312,-126 -166,-69 -317,-132 -335,-140 l -32,-13 24,-56 c 130,-292 403,-596 691,-767 298,-177 637,-253 1020,-227 335,22 635,119 874,282 113,77 294,263 374,382 142,216 235,470 282,770 30,199 36,541 33,2100 l -3,1540 -372,3 -373,2 v -145 c 0,-121 -2,-145 -15,-145 -8,0 -45,30 -82,66 -155,152 -389,266 -628,309 -89,16 -312,27 -370,19 z m 335,-715 c 172,-27 338,-111 472,-238 150,-143 250,-318 306,-540 24,-97 27,-123 27,-301 0,-178 -3,-204 -27,-300 -82,-325 -264,-561 -532,-689 -127,-62 -202,-81 -343,-88 -509,-26 -936,337 -1030,872 -24,138 -14,378 21,510 29,106 103,273 156,350 160,232 402,385 680,428 53,9 208,6 270,-4 z"
       id="path39052" />
    <path
       d="m 21040,5750 c -633,-73 -1142,-466 -1380,-1065 -129,-325 -164,-755 -90,-1110 93,-452 359,-852 730,-1099 271,-181 527,-268 870,-298 613,-52 1201,215 1583,719 26,34 47,64 47,67 0,3 -136,97 -302,207 l -302,202 -31,-38 c -161,-205 -278,-301 -462,-380 -204,-88 -512,-99 -723,-27 -151,52 -298,154 -395,272 -61,74 -147,213 -137,221 4,4 122,54 262,112 140,58 469,194 730,302 261,108 682,282 935,387 253,105 461,191 462,192 4,4 -130,323 -166,395 -151,298 -355,534 -603,698 -248,163 -496,240 -803,248 -82,2 -184,0 -225,-5 z m 483,-730 c 116,-39 221,-104 289,-180 48,-53 106,-146 96,-155 -3,-3 -1444,-604 -1552,-646 l -49,-20 6,98 c 7,107 26,208 55,293 168,484 697,763 1155,610 z"
       id="path39054" />
  </g>
</svg>
