<?xml version="1.0" standalone="no"?>
<!DOCTYPE svg PUBLIC "-//W3C//DTD SVG 20010904//EN"
 "http://www.w3.org/TR/2001/REC-SVG-20010904/DTD/svg10.dtd">
<svg version="1.0" xmlns="http://www.w3.org/2000/svg"
 width="10000.000000pt" height="3382.000000pt" viewBox="0 0 10000.000000 3382.000000"
 preserveAspectRatio="xMidYMid meet">

<g transform="translate(0.000000,3382.000000) scale(0.100000,-0.100000)"
fill="#000000" stroke="none">
<path d="M12490 33633 c-2405 -102 -4663 -839 -6660 -2172 -733 -490 -1335
-986 -1975 -1626 -479 -478 -829 -881 -1211 -1390 -1383 -1844 -2228 -4007
-2449 -6265 -65 -670 -73 -1488 -19 -2160 282 -3562 2107 -6849 5034 -9067
1715 -1299 3751 -2160 5860 -2477 1039 -156 2081 -185 3230 -90 2623 217 4842
1119 6685 2718 490 425 1058 1002 1410 1431 1251 1526 2044 3517 2310 5799 67
573 90 991 89 1641 0 800 -47 1424 -150 1988 l-16 87 -5824 0 -5824 0 0 -1726
0 -1727 4135 5 4135 4 -5 -30 c-3 -17 -14 -94 -26 -171 -206 -1411 -663 -2603
-1344 -3510 -295 -393 -785 -883 -1276 -1276 -1334 -1070 -2875 -1658 -4729
-1803 -1252 -99 -2390 12 -3503 340 -1041 308 -2040 816 -2898 1476 -623 479
-1204 1059 -1670 1668 -1052 1372 -1689 2993 -1863 4740 -56 563 -60 1219 -10
1790 246 2820 1731 5338 4054 6875 1241 821 2650 1312 4160 1450 640 58 1398
45 2045 -36 1497 -186 2839 -713 4065 -1597 300 -217 688 -535 903 -741 l57
-56 1218 1218 1217 1218 -62 57 c-349 322 -579 523 -838 731 -2090 1682 -4436
2560 -7165 2681 -198 9 -912 11 -1090 3z"/>
<path d="M34040 24619 c-1210 -43 -2414 -351 -3475 -889 -599 -304 -1152 -678
-1665 -1126 -282 -246 -690 -672 -937 -979 -894 -1114 -1473 -2463 -1677
-3910 -64 -449 -80 -704 -81 -1230 0 -457 7 -607 45 -955 204 -1870 1011
-3564 2312 -4852 1167 -1156 2630 -1912 4293 -2217 450 -83 857 -120 1388
-128 423 -6 660 3 1005 38 2276 229 4318 1360 5669 3139 817 1076 1344 2343
1542 3705 68 467 85 721 85 1265 0 543 -17 804 -85 1270 -292 2005 -1288 3778
-2829 5041 -824 674 -1803 1188 -2850 1494 -687 201 -1364 309 -2110 335 -291
10 -317 10 -630 -1z m809 -3224 c1034 -114 1970 -563 2701 -1295 617 -617
1045 -1388 1264 -2271 113 -457 159 -847 159 -1349 0 -503 -46 -892 -159
-1347 -148 -599 -419 -1193 -762 -1673 -278 -390 -612 -736 -987 -1020 -653
-496 -1414 -795 -2250 -886 -220 -24 -660 -24 -880 0 -1078 117 -2017 574
-2775 1352 -733 751 -1201 1744 -1340 2839 -34 274 -44 427 -43 735 0 400 27
703 94 1055 252 1326 969 2433 2034 3142 604 403 1342 662 2055 723 69 5 143
12 165 14 92 9 589 -4 724 -19z"/>
<path d="M69065 24619 c-1119 -31 -2289 -359 -3323 -931 -2325 -1287 -3905
-3655 -4201 -6298 -40 -351 -46 -486 -46 -955 0 -491 9 -647 60 -1040 177
-1368 693 -2659 1511 -3780 446 -612 1026 -1207 1624 -1666 1272 -977 2731
-1528 4265 -1609 1519 -80 3007 387 4070 1279 120 101 378 354 477 469 l80 92
69 0 69 0 0 -652 c0 -668 -9 -967 -36 -1258 -125 -1359 -619 -2426 -1444
-3119 -583 -490 -1326 -790 -2207 -891 -611 -69 -1185 -41 -1699 85 -1037 255
-1960 925 -2612 1897 -153 229 -330 548 -435 787 -24 52 -42 81 -50 78 -137
-53 -3075 -1281 -3081 -1287 -6 -6 15 -64 54 -152 327 -735 781 -1433 1348
-2073 152 -171 491 -507 672 -666 1659 -1453 3703 -2081 6060 -1863 2500 231
4441 1376 5591 3299 750 1253 1149 2774 1219 4640 6 174 10 2904 10 7698 l0
7427 -1695 0 -1695 0 0 -665 0 -665 -67 0 -68 0 -73 84 c-41 47 -133 143 -205
213 -745 727 -1798 1241 -2942 1437 -425 72 -817 98 -1300 85z m1025 -3224
c1424 -174 2611 -1034 3295 -2386 307 -608 485 -1236 562 -1992 25 -241 25
-899 0 -1137 -74 -708 -235 -1297 -511 -1865 -115 -237 -187 -363 -331 -580
-570 -856 -1386 -1465 -2331 -1740 -894 -260 -1873 -209 -2764 142 -462 182
-914 459 -1290 790 -742 654 -1256 1519 -1500 2524 -162 671 -194 1426 -89
2144 185 1266 822 2410 1759 3160 698 557 1496 877 2385 955 156 13 658 4 815
-15z"/>
<path d="M91585 24623 c-562 -27 -1081 -103 -1590 -233 -1581 -405 -2968
-1299 -3986 -2571 -965 -1205 -1559 -2693 -1728 -4330 -39 -376 -46 -518 -46
-994 0 -481 7 -630 46 -980 122 -1101 447 -2147 956 -3074 655 -1193 1583
-2180 2720 -2890 1022 -639 2184 -1036 3423 -1170 343 -37 517 -45 950 -45
497 0 779 19 1206 79 1970 281 3713 1260 5046 2835 188 221 519 660 518 686 0
5 -623 424 -1384 931 l-1384 921 -91 -128 c-534 -750 -1153 -1303 -1851 -1654
-313 -157 -582 -257 -900 -335 -910 -222 -1941 -176 -2785 125 -723 258 -1362
747 -1863 1425 -144 196 -352 529 -450 725 l-31 61 352 147 c194 80 2644 1095
5445 2255 2801 1159 5095 2110 5097 2113 7 6 -502 1270 -585 1453 -373 825
-896 1629 -1495 2295 -172 191 -550 558 -740 719 -1196 1009 -2562 1548 -4135
1631 -175 9 -559 11 -715 3z m780 -3153 c859 -73 1613 -390 2138 -899 151
-147 234 -245 341 -404 89 -132 222 -388 213 -410 -3 -7 -288 -130 -633 -274
-346 -144 -1189 -494 -1874 -778 -2742 -1138 -3107 -1290 -3916 -1626 -462
-192 -846 -349 -854 -349 -11 0 -12 46 -7 268 17 716 151 1321 426 1920 488
1065 1423 1916 2557 2327 304 110 676 196 974 223 134 13 493 14 635 2z"/>
</g>
</svg>
