<?xml version="1.0" encoding="UTF-8" standalone="no"?>
<svg
   width="185.49127"
   height="99.999977"
   viewBox="0 0 49.077896 26.458328"
   version="1.1"
   id="svg8"
   inkscape:export-filename="h100 svg\sofasa_h100.svg"
   inkscape:export-xdpi="96"
   inkscape:export-ydpi="96"
   inkscape:version="1.2.2 (732a01da63, 2022-12-09)"
   sodipodi:docname="Logos.svg"
   shape-rendering="crispEdges"
   xml:space="preserve"
   xmlns:inkscape="http://www.inkscape.org/namespaces/inkscape"
   xmlns:sodipodi="http://sodipodi.sourceforge.net/DTD/sodipodi-0.dtd"
   xmlns="http://www.w3.org/2000/svg"
   xmlns:svg="http://www.w3.org/2000/svg"
   xmlns:rdf="http://www.w3.org/1999/02/22-rdf-syntax-ns#"
   xmlns:cc="http://creativecommons.org/ns#"
   xmlns:dc="http://purl.org/dc/elements/1.1/"><defs
     id="defs2" /><sodipodi:namedview
     inkscape:pagecheckerboard="true"
     id="base"
     pagecolor="#ffffff"
     bordercolor="#666666"
     borderopacity="1.0"
     inkscape:pageopacity="0.0"
     inkscape:pageshadow="2"
     inkscape:zoom="1.4"
     inkscape:cx="2356.4285"
     inkscape:cy="-3771.4285"
     inkscape:document-units="mm"
     inkscape:current-layer="layer1"
     showgrid="false"
     units="px"
     inkscape:window-width="1920"
     inkscape:window-height="1017"
     inkscape:window-x="-8"
     inkscape:window-y="-8"
     inkscape:window-maximized="1"
     inkscape:document-rotation="0"
     inkscape:showpageshadow="0"
     inkscape:deskcolor="#d1d1d1" /><metadata
     id="metadata5"><rdf:RDF><cc:Work
         rdf:about=""><dc:format>image/svg+xml</dc:format><dc:type
           rdf:resource="http://purl.org/dc/dcmitype/StillImage" /></cc:Work></rdf:RDF></metadata><g
     inkscape:label="Layer 1"
     inkscape:groupmode="layer"
     id="layer1"
     transform="translate(-85.006459,130.93739)"><g
       id="g6751"><path
         style="fill:#000000;stroke-width:0.237868"
         d="m 93.51059,-107.25715 -1.8431,-2.62871 0.47448,-0.7782 c 0.47705,-0.78244 0.62568,-2.19671 0.28689,-2.72975 -0.10016,-0.15756 -0.9816,-0.41434 -1.95877,-0.57063 -0.977179,-0.15629 -1.910485,-0.38837 -2.074018,-0.51573 -0.544036,-0.42369 -0.307719,-1.05288 0.642848,-1.71163 0.517103,-0.35835 1.098602,-0.89332 1.292218,-1.18882 0.329142,-0.50233 0.306442,-0.57099 -0.34903,-1.05559 -0.449289,-0.33218 -0.799604,-0.88678 -0.975471,-1.5443 -0.25705,-0.96109 -0.346962,-1.04458 -1.421451,-1.31996 -1.089989,-0.27936 -2.578731,-1.3585 -2.578731,-1.86924 0,-0.13083 0.332441,0.0727 0.738757,0.45223 0.515934,0.48196 0.983192,0.69011 1.549129,0.69011 h 0.810375 l -0.835529,-1.65914 c -0.509785,-1.01229 -0.82163,-1.96284 -0.799882,-2.43814 0.02922,-0.63833 0.05259,-0.67034 0.129675,-0.17724 0.157069,1.00509 2.108543,4.37262 2.716265,4.68728 0.312125,0.1616 0.848475,0.2954 1.191895,0.29733 0.72499,0.004 0.92241,-0.60084 0.92072,-2.82117 -8.1e-4,-1.08767 -0.13414,-1.53827 -0.712586,-2.40841 -0.391356,-0.58872 -0.712022,-1.2163 -0.712578,-1.39462 -6.75e-4,-0.17832 0.346863,0.19632 0.772049,0.83254 1.077845,1.61279 1.526585,1.54688 2.497615,-0.36683 0.42518,-0.83796 0.77072,-1.37317 0.76784,-1.18933 -0.008,0.52495 -0.92782,2.42396 -1.43598,2.9653 -0.33275,0.35447 -0.50242,0.98967 -0.61263,2.29351 -0.13946,1.64975 -0.10915,1.84032 0.35603,2.23862 0.27966,0.23945 0.50846,0.62565 0.50846,0.85823 0,0.28917 0.18266,0.42288 0.57768,0.42288 0.72721,0 1.32526,-0.58317 1.32526,-1.29228 0,-0.45565 0.0992,-0.52573 0.60682,-0.42869 0.41888,0.0801 0.78722,-0.0535 1.18934,-0.43125 0.89147,-0.83751 0.75819,-1.3526 -0.42841,-1.65562 -1.48547,-0.37935 -2.26529,-0.71686 -2.60667,-1.12819 -0.21229,-0.2558 -0.004,-0.21246 0.69624,0.14452 0.54971,0.28044 1.28501,0.50989 1.63401,0.50989 0.61313,0 0.62913,-0.0341 0.47406,-1.01094 -0.0883,-0.55601 -0.41885,-1.5766 -0.73461,-2.26797 -0.31578,-0.69138 -0.45936,-1.18612 -0.3191,-1.09942 0.327,0.20209 1.2231,2.26257 1.62384,3.73381 0.18698,0.6865 0.50568,1.24402 0.80168,1.40243 0.42714,0.2286 0.6051,0.13473 1.36249,-0.71875 1.48821,-1.67701 1.41778,-3.91914 -0.19548,-6.22371 -0.56188,-0.80265 -0.54994,-0.79789 0.3325,0.13239 0.50342,0.53072 1.04282,1.17296 1.19866,1.42721 0.24495,0.39962 0.28855,0.30109 0.32168,-0.72707 0.0379,-1.17799 0.0403,-1.18139 0.24586,-0.3568 0.376,1.50849 -0.213,4.06202 -1.3259,5.74812 -0.31649,0.47951 -1.48978,1.63552 -2.6073,2.56891 -1.1175,0.9334 -2.03184,1.7988 -2.03184,1.92311 0,0.54588 0.98432,0.15123 1.58409,-0.63512 0.58213,-0.76321 2.18915,-1.99326 2.60413,-1.99326 0.0847,0 0.10216,0.53869 0.0389,1.1971 -0.11838,1.23198 -0.76683,2.22205 -1.63603,2.49793 -0.67717,0.21492 -0.75371,0.95278 -0.2095,2.01951 0.7504,1.4709 1.4244,4.38655 1.4234,6.15742 -9.4e-4,1.79819 -0.22846,2.25569 -2.17739,4.3798 l -1.2708,1.38504 z m -1.36811,-12.60615 c 0,-0.4538 -1.0739,-0.99864 -1.878968,-0.95328 -0.209419,0.0118 -0.03165,0.12221 0.39496,0.24536 0.426648,0.12314 0.907328,0.43461 1.068148,0.69215 0.36321,0.58158 0.41586,0.58358 0.41586,0.0158 z"
         id="path826-3"
         inkscape:connector-curvature="0"
         sodipodi:nodetypes="cccccccccccscscsccscscccccsccssscccccscccccccccccccscscccccccscccs" /><text
         xml:space="preserve"
         style="font-style:normal;font-variant:normal;font-weight:normal;font-stretch:normal;font-size:17.4758px;line-height:1.25;font-family:'Baskerville Old Face';-inkscape-font-specification:'Baskerville Old Face, Normal';font-variant-ligatures:normal;font-variant-caps:normal;font-variant-numeric:normal;font-feature-settings:normal;text-align:start;letter-spacing:0px;word-spacing:0px;writing-mode:lr-tb;text-anchor:start;fill:#000000;fill-opacity:1;stroke:none;stroke-width:0.436898"
         x="99.806862"
         y="-104.63267"
         id="text939-9"><tspan
           sodipodi:role="line"
           id="tspan937-5"
           x="99.806862"
           y="-104.63267"
           style="font-style:normal;font-variant:normal;font-weight:normal;font-stretch:normal;font-size:17.4758px;font-family:'Baskerville Old Face';-inkscape-font-specification:'Baskerville Old Face, Normal';font-variant-ligatures:normal;font-variant-caps:normal;font-variant-numeric:normal;font-feature-settings:normal;text-align:start;writing-mode:lr-tb;text-anchor:start;stroke-width:0.436898">Holz</tspan></text></g></g></svg>
