<?xml version="1.0" encoding="UTF-8" standalone="no"?>
<!-- Created with Inkscape (http://www.inkscape.org/) -->

<svg
   width="147.88077mm"
   height="59.999954mm"
   viewBox="0 0 147.88077 59.999954"
   version="1.1"
   id="svg5"
   xml:space="preserve"
   xmlns="http://www.w3.org/2000/svg"
   xmlns:svg="http://www.w3.org/2000/svg"><defs
     id="defs2" /><g
     id="layer1"
     transform="translate(-438.77305,175.85125)"><path
       style="fill:#063d5e;fill-opacity:1;stroke-width:0.325913"
       d="m 438.8231,-116.24632 c -0.0998,-0.25994 -0.0456,-0.88078 0.12047,-1.37964 0.2991,-0.89898 0.34341,-0.91185 5.00093,-1.45248 6.27106,-0.72794 17.61347,-1.80579 25.23171,-2.39773 26.64545,-2.07037 58.02193,-2.06534 84.73754,0.0135 7.27895,0.56643 22.46731,2.00861 26.88788,2.5531 l 3.09617,0.38137 0.10077,1.39374 c 0.0946,1.30854 0.0547,1.38319 -0.65182,1.22093 -1.77248,-0.40706 -15.19093,-1.8501 -24.21837,-2.6045 -31.86622,-2.66291 -55.88881,-2.94831 -82.78206,-0.98349 -14.34191,1.04782 -35.48999,3.1017 -36.92205,3.58584 -0.23085,0.0781 -0.50134,-0.0708 -0.60109,-0.33074 z m 140.6748,-5.28709 c -1.482,-0.54176 -2.93322,-2.69325 -2.93322,-4.34866 0,-2.61012 2.01288,-4.54675 4.72575,-4.54675 4.79878,0 6.45208,5.98395 2.34517,8.4881 -0.99417,0.60619 -3.04217,0.80779 -4.1377,0.40731 z m 4.12298,-1.29855 c 0.39075,-0.25603 0.94027,-1.03986 1.22115,-1.74185 0.68552,-1.71329 0.15146,-3.41402 -1.39988,-4.45797 -1.69939,-1.14358 -3.41509,-1.01363 -4.79161,0.36289 -0.90416,0.90415 -1.10812,1.35704 -1.10812,2.46054 0,2.18524 0.83649,3.33856 2.93322,4.04425 0.6828,0.2298 2.29901,-0.11333 3.14524,-0.66786 z m -4.12298,-3.19702 v -2.44436 h 1.56439 c 0.86041,0 1.74038,0.176 1.95548,0.39109 0.56671,0.56672 0.47963,1.80837 -0.15162,2.16164 -0.49299,0.2759 -0.47592,0.38864 0.18634,1.23058 0.48818,0.6206 0.60004,0.96986 0.33856,1.05702 -0.21477,0.0716 -0.74925,-0.32821 -1.1877,-0.88846 -1.05663,-1.35013 -2.05362,-1.36997 -2.05362,-0.0409 0,0.53775 -0.14665,0.97774 -0.32591,0.97774 -0.1883,0 -0.32592,-1.03206 -0.32592,-2.44436 z m 2.86029,-0.54631 c 0.56538,-0.56538 -0.12878,-1.24622 -1.27063,-1.24622 -0.78308,0 -0.93783,0.13445 -0.93783,0.81478 0,0.6751 0.15644,0.81479 0.91256,0.81479 0.50191,0 1.08507,-0.17251 1.2959,-0.38335 z m -114.6491,-1.96519 c 2.4e-4,-0.12655 0.45841,-1.00651 1.01815,-1.95548 3.13889,-5.32157 10.37811,-18.73011 13.20796,-24.4639 l 1.57129,-3.18368 7.13046,0.0875 7.13049,0.0875 1.92527,5.37757 c 2.16477,6.0465 4.60068,12.59551 7.24571,19.48029 l 1.78693,4.65122 -6.19418,-0.0884 -6.19417,-0.0884 -0.91502,-2.77026 c -0.50325,-1.52365 -1.09364,-3.25066 -1.31195,-3.83779 l -0.39696,-1.06752 -4.85603,0.0898 -4.85602,0.0898 -1.7182,3.74801 -1.7182,3.748 -6.42799,0.16297 c -3.5354,0.0897 -6.42779,0.0594 -6.42754,-0.0671 z m 23.43365,-17.90737 c -0.51427,-1.64037 -1.00207,-3.0495 -1.08397,-3.13141 -0.0819,-0.0819 -0.36196,0.34358 -0.62235,0.94552 -0.26039,0.60195 -0.85563,1.94193 -1.32276,2.97774 -0.46712,1.03582 -0.84931,1.95245 -0.84931,2.03697 0,0.0845 1.08303,0.15366 2.40673,0.15366 h 2.40672 z m 54.18457,18.04851 -5.97904,-0.0889 0.18659,-1.86653 c 0.58689,-5.87052 1.17695,-17.21106 1.17817,-22.64352 l 10e-4,-5.13314 h 6.19235 c 3.40581,0 6.1893,0.11 6.18558,0.24443 -0.004,0.13444 -0.21934,2.81101 -0.47914,5.94793 -0.25981,3.13692 -0.57355,9.70585 -0.6972,14.59763 -0.12366,4.89179 -0.31136,8.92497 -0.41712,8.96262 -0.10582,0.0377 -2.88286,0.0284 -6.17135,-0.0205 z m 17.55246,-0.39991 c 0.002,-0.26888 0.21039,-2.68879 0.46238,-5.37758 0.25199,-2.68879 0.56068,-7.42553 0.68598,-10.52608 l 0.2278,-5.63736 -4.8452,0.0487 -4.84521,0.0487 0.0163,-1.17399 c 0.009,-0.64571 0.0456,-2.42063 0.0814,-3.94427 l 0.0652,-2.77027 h 15.66739 15.66741 l -0.22842,3.82949 c -0.12562,2.10621 -0.27638,3.8841 -0.33503,3.95085 -0.0586,0.0668 -2.27635,0.14008 -4.92826,0.16295 l -4.82167,0.0416 -0.20926,2.44436 c -0.34669,4.04965 -0.58791,10.00326 -0.59696,14.73367 l -0.009,4.4674 -6.02978,0.0953 c -5.1864,0.082 -6.02919,0.027 -6.02557,-0.39347 z m -123.41434,-1.54809 c 0.11172,-1.03071 0.42564,-3.92726 0.69748,-6.43679 0.27184,-2.50955 0.59147,-8.33932 0.71029,-12.95507 l 0.21603,-8.39228 13.39164,-6.2e-4 13.39163,-6.2e-4 -0.10064,3.91158 -0.10064,3.91159 h -7.6398 -7.63982 v 1.4666 1.46662 h 6.04111 6.04112 l -0.19117,3.01469 c -0.10519,1.65809 -0.26371,3.49136 -0.35239,4.07394 l -0.16123,1.05921 h -6.01463 -6.01463 l -0.005,0.7333 c -0.002,0.40333 -0.0992,1.08709 -0.2148,1.5195 l -0.21034,0.78617 7.80197,-0.19871 7.80197,-0.19872 -0.0984,2.34575 c -0.0541,1.29018 -0.17902,3.11573 -0.27757,4.05681 l -0.1792,1.71105 H 452.81 439.26161 l 0.20324,-1.874 z m 70.94262,0.97774 c 0.002,-0.49294 0.21222,-3.09618 0.46689,-5.78497 0.25469,-2.68879 0.54829,-7.01529 0.65245,-9.61446 0.10421,-2.59916 0.27574,-6.669 0.38128,-9.0441 l 0.1919,-4.31835 h 13.32907 13.32907 v 2.39886 c 0,1.31938 -0.0933,3.07931 -0.20727,3.91096 l -0.20725,1.51211 h -7.41749 -7.41747 l -0.12594,1.32059 c -0.0692,0.72631 -0.0602,1.38629 0.0201,1.4666 0.0803,0.0803 2.85529,0.14603 6.16659,0.14603 h 6.02054 l -0.16358,3.70656 c -0.0899,2.03862 -0.26572,3.87188 -0.3906,4.07393 -0.15515,0.25104 -2.12998,0.36735 -6.23721,0.36735 h -6.01016 v 5.37758 5.37757 h -6.19236 -6.19236 l 0.004,-0.89626 z m -67.03426,-34.26336 c -2.05301,-0.9601 -2.16997,-1.38115 -1.90201,-6.84773 0.12837,-2.61869 0.29991,-4.87125 0.38122,-5.00569 0.0813,-0.13444 1.09305,-0.24444 2.24832,-0.24444 h 2.10049 l -0.2109,4.16694 c -0.23571,4.65694 -0.0155,5.28456 1.85366,5.28456 1.52877,0 1.9435,-1.02251 2.20211,-5.42925 l 0.22648,-3.85929 2.24786,-0.0975 2.24788,-0.0975 -0.22415,4.82321 c -0.24067,5.1783 -0.40272,5.68387 -2.26831,7.07673 -1.3265,0.99038 -6.96513,1.13597 -8.90265,0.22988 z m 13.43174,-5.49811 c 0.12306,-3.36098 0.33076,-6.22745 0.46162,-6.36993 0.13086,-0.14248 1.39731,-0.21581 2.81433,-0.16296 l 2.57639,0.0961 1.83075,3.74801 1.83075,3.748 0.2462,-3.844 0.24619,-3.844 1.99655,0.096 1.99655,0.096 -0.12593,2.44436 c -0.0692,1.34439 -0.21572,4.13095 -0.32548,6.19236 l -0.19956,3.748 h -2.77027 -2.77027 l -1.82411,-3.54436 -1.82411,-3.54437 -0.21285,1.55289 c -0.11702,0.8541 -0.21285,2.48573 -0.21285,3.62585 v 2.07295 h -1.97879 -1.9788 z m 15.93171,3.25914 c 0.11456,-1.56846 0.27405,-4.39169 0.35453,-6.27384 l 0.14632,-3.42209 2.28601,-0.0957 2.286,-0.0957 -0.18893,5.96217 c -0.10397,3.2792 -0.24536,6.1455 -0.31431,6.36957 -0.085,0.27615 -0.87476,0.40739 -2.4516,0.40739 h -2.32622 z m 11.04646,2.45715 c -0.37955,-0.49441 -4.02309,-11.30539 -4.0185,-11.92354 0.002,-0.31323 0.56919,-0.39739 2.19509,-0.32591 l 2.19195,0.0964 1.04982,3.58505 c 0.57739,1.97178 1.05762,3.83305 1.06718,4.13616 0.0443,1.40581 0.66602,0.57143 2.23148,-2.99479 0.93327,-2.12607 1.69685,-4.00691 1.69685,-4.17965 0,-0.17274 0.23199,-0.4031 0.51553,-0.5119 0.73916,-0.28364 4.37585,-0.24476 4.35924,0.0466 -0.007,0.13444 -1.36428,2.95766 -3.0147,6.27383 l -3.00076,6.02941 -2.47531,0.0943 c -1.73101,0.0659 -2.57229,-0.0321 -2.79787,-0.32592 z m 12.52997,0.15812 c -0.0685,-0.13882 0.0307,-2.96563 0.22029,-6.2818 l 0.34484,-6.0294 5.31429,-0.0896 5.31428,-0.0896 -0.0996,1.52295 -0.0996,1.52294 -3.0147,-0.0678 -3.0147,-0.0678 v 0.99736 0.99736 h 2.46309 2.4631 l -0.10027,1.38513 -0.10027,1.38513 -2.52583,0.0952 c -2.4396,0.0919 -2.52583,0.12254 -2.52583,0.89627 0,0.79493 0.0239,0.80107 3.11404,0.80107 h 3.11402 l -0.0993,1.54809 -0.0993,1.54809 -5.27194,0.0894 c -2.89956,0.0492 -5.32799,-0.0241 -5.39652,-0.16296 z m 13.22701,-2.28936 c 0.10914,-1.3892 0.29463,-4.2491 0.4123,-6.35531 l 0.21393,-3.82949 3.94814,0.008 c 2.17148,0.004 4.53479,0.14326 5.25179,0.30885 1.7564,0.40564 2.77027,1.62695 2.77027,3.33706 0,1.12459 -0.19735,1.52367 -1.24736,2.52253 l -1.24737,1.18658 0.7585,2.24853 c 0.41717,1.2367 0.75849,2.43996 0.75849,2.67392 0,0.52061 -4.0852,0.60857 -4.40272,0.0948 -0.11234,-0.18183 -0.5434,-1.73313 -0.95781,-3.44735 -0.52417,-2.16821 -0.64143,-3.15039 -0.38527,-3.22724 0.20252,-0.0608 0.76177,-0.1964 1.24276,-0.30141 1.12973,-0.24665 1.55711,-1.43576 0.73267,-2.03859 -0.32509,-0.23772 -1.22304,-0.43223 -1.99541,-0.43223 h -1.40432 l -0.0137,2.19992 c -0.0166,2.6891 -0.27556,6.61653 -0.47269,7.1701 -0.0947,0.26613 -0.84126,0.40739 -2.15285,0.40739 h -2.0078 l 0.19837,-2.52583 z m 14.95931,2.3106 c -0.652,-0.13872 -0.73332,-0.35354 -0.73332,-1.93734 0,-1.59333 0.0602,-1.74971 0.57036,-1.48179 1.2081,0.63446 3.15399,0.74858 3.82948,0.22458 0.63332,-0.49128 0.59947,-0.55415 -1.19226,-2.21445 -2.63696,-2.44353 -3.05784,-3.54051 -2.08224,-5.42711 0.67851,-1.3121 2.18616,-1.8302 5.16772,-1.77588 1.39976,0.0255 2.62692,0.12826 2.727,0.22834 0.10015,0.10008 0.25579,0.83688 0.34602,1.63733 l 0.16403,1.45537 -1.95008,-0.17682 c -2.90667,-0.26357 -3.10974,0.65607 -0.55067,2.49386 2.65016,1.9032 3.09074,3.86169 1.30672,5.8088 l -1.11541,1.21739 -2.87702,0.0519 c -1.58237,0.0285 -3.20702,-0.0183 -3.61033,-0.10415 z m 11.16194,-0.11164 c -0.11111,-0.17978 -0.12084,-0.94975 -0.0217,-1.71104 0.0992,-0.7613 0.25084,-3.43744 0.337,-5.94697 l 0.15668,-4.56279 h 2.20866 2.20867 l -0.0791,2.93322 c -0.0435,1.61327 -0.16763,4.4365 -0.2758,6.27384 l -0.19668,3.34061 h -2.06784 c -1.13732,0 -2.15875,-0.14709 -2.26986,-0.32687 z m 7.17535,-0.0805 c -0.0759,-0.22406 -0.0346,-3.04729 0.0918,-6.27383 l 0.22955,-5.86645 h 4.78365 c 4.35418,0 4.86623,0.0616 5.70348,0.6859 1.55985,1.16313 2.19475,2.61059 2.19475,5.00374 0,3.44895 -1.69428,5.88151 -4.55926,6.54598 -2.0067,0.46541 -8.2781,0.3946 -8.44388,-0.0953 z m 7.4581,-3.60364 c 0.97342,-0.97342 1.34067,-2.88544 0.77922,-4.05688 -0.52008,-1.0851 -1.9832,-1.83773 -3.05139,-1.56963 -0.7675,0.19263 -0.79076,0.28932 -0.79076,3.28844 v 3.08997 h 1.15552 c 0.77222,0 1.40493,-0.24941 1.90741,-0.7519 z m 5.41083,3.53377 c 0,-0.26249 0.81911,-1.97716 1.82026,-3.81038 1.00113,-1.83321 2.39889,-4.48398 3.10611,-5.8906 l 1.28588,-2.55747 2.83876,0.094 2.83876,0.094 0.61903,1.79252 c 0.34047,0.98589 1.32723,3.69637 2.19279,6.02328 0.86556,2.32691 1.45344,4.35107 1.30639,4.49812 -0.14706,0.14705 -1.18674,0.22314 -2.31043,0.16908 l -2.04306,-0.0983 -0.53932,-1.46661 -0.53932,-1.46661 -2.33963,-0.0954 -2.33963,-0.0954 -0.70703,1.64354 -0.70704,1.64354 h -2.24126 c -1.75073,0 -2.24126,-0.10445 -2.24126,-0.47726 z m 9.77741,-5.82942 c 0,-0.24213 -0.15958,-0.93877 -0.35461,-1.54809 -0.19504,-0.60932 -0.42166,-1.32041 -0.50358,-1.58021 -0.13731,-0.43546 -1.74912,2.58241 -1.74912,3.27499 0,0.16145 0.58664,0.29355 1.30366,0.29355 0.87751,0 1.30365,-0.1439 1.30365,-0.44024 z m 8.07175,6.12742 c -0.13148,-0.13448 -0.15336,-1.94577 -0.0487,-4.02507 0.10471,-2.0793 0.21232,-4.80718 0.23905,-6.06194 l 0.0487,-2.2814 h 4.78366 c 5.48907,0 6.04489,0.20981 7.35663,2.77693 1.19,2.32888 0.88818,5.14078 -0.79517,7.40821 -1.34518,1.81195 -2.39018,2.14951 -7.10823,2.29613 -2.33028,0.0724 -4.34446,0.0216 -4.47593,-0.11286 z m 7.39344,-3.81318 c 1.20151,-1.05463 1.47064,-3.34876 0.53234,-4.53776 -0.37814,-0.47919 -1.15167,-0.97319 -1.71895,-1.09778 -1.521,-0.33407 -1.89386,0.38668 -1.89386,3.66087 v 2.70798 h 1.12252 c 0.69929,0 1.43752,-0.27649 1.95795,-0.73331 z"
       id="path5230" /></g></svg>
