<?xml version="1.0" encoding="UTF-8" standalone="no"?>
<!-- Created with Inkscape (http://www.inkscape.org/) -->

<svg
   width="192.18378mm"
   height="60.000004mm"
   viewBox="0 0 192.18378 60.000004"
   version="1.1"
   id="svg5"
   xml:space="preserve"
   xmlns="http://www.w3.org/2000/svg"
   xmlns:svg="http://www.w3.org/2000/svg"><defs
     id="defs2" /><g
     id="layer1"
     transform="translate(-643.3116,65.372908)"><path
       style="fill:#000000;stroke-width:0;stroke-dasharray:none"
       d="m 741.08938,-35.372911 c 0,-26.41975 0.0663,-30 0.55555,-30 0.48926,0 0.55556,3.58025 0.55556,30 0,26.4197498 -0.0663,29.9999998 -0.55556,29.9999998 -0.48925,0 -0.55555,-3.58025 -0.55555,-29.9999998 z m -97.77778,0 v -21.11111 h 4.44444 4.44445 v 21.11111 21.11111 h -4.44445 -4.44444 z m 28.88889,0 v -21.11111 h 4.44444 4.44445 v 21.11111 21.11111 h -4.44445 -4.44444 z m 14.44444,7.22222 v -13.88889 h 4.44445 4.44444 v 13.88889 13.88889 h -4.44444 -4.44445 z m 14.44445,0 v -13.88889 h 4.44444 4.44445 v 13.88889 13.88889 h -4.44445 -4.44444 z m 120.92592,4.8138 c -2.13942,-0.75681 -4.0888,-3.00879 -4.8563,-5.61018 -0.86559,-2.93382 -0.87154,-9.52754 -0.0112,-12.44271 0.74057,-2.50942 2.4228,-4.5737 4.49398,-5.51462 2.05573,-0.9339 6.85159,-0.92835 8.91827,0.0103 3.68707,1.67463 5.13415,5.4055 4.91357,12.66826 -0.12147,3.99956 -0.26451,4.86224 -1.10601,6.67031 -1.02044,2.19256 -2.59027,3.63983 -4.72236,4.35368 -1.71832,0.57532 -5.82737,0.50259 -7.62992,-0.13505 z m 6.76342,-5.09745 c 1.2379,-1.15175 1.66252,-3.31494 1.5065,-7.67468 -0.10655,-2.97743 -0.30417,-4.16931 -0.83991,-5.06566 -1.76228,-2.94848 -5.74164,-2.55637 -7.05277,0.69495 -0.87337,2.16578 -0.88146,8.36857 -0.0137,10.53721 1.07026,2.67484 4.32233,3.44121 6.39992,1.50818 z m -69.42906,5.00587 c 0.0857,-0.15277 1.12333,-1.93345 2.30581,-3.95706 1.18247,-2.02361 2.14629,-3.85694 2.14181,-4.07407 -0.007,-0.34837 -1.26708,-2.6382 -3.52868,-6.41331 l -0.72112,-1.2037 h 2.81201 2.81201 l 0.99905,2.03703 c 0.54948,1.12037 1.09629,2.03704 1.21512,2.03704 0.11883,0 0.66564,-0.91667 1.21512,-2.03704 l 0.99906,-2.03703 h 2.79741 2.79741 l -1.00452,1.75926 c -0.5525,0.96759 -1.53799,2.68977 -2.18999,3.82707 l -1.18544,2.06782 1.84109,3.11737 c 1.01261,1.71455 2.07868,3.5757 2.36906,4.13588 l 0.52797,1.01852 h -2.76222 -2.76221 l -1.22168,-2.22222 c -0.67192,-1.22222 -1.31922,-2.22222 -1.43845,-2.22222 -0.11923,0 -0.69473,1 -1.27891,2.22222 l -1.06212,2.22222 h -2.91672 c -1.6042,0 -2.84659,-0.125 -2.76087,-0.27778 z m 18.40638,-11.75925 v -12.03704 h 5.51326 c 5.3017,0 5.58846,0.0393 7.47289,1.02372 2.63195,1.37495 3.68378,3.29957 3.67238,6.71972 -0.0181,5.42595 -2.69097,7.81211 -8.75083,7.81211 h -2.72251 v 4.25926 4.25926 h -2.5926 -2.59259 z m 10.13524,-1.69355 c 0.78498,-0.61747 0.97587,-1.08036 0.97587,-2.36638 0,-2.40025 -0.81509,-3.17211 -3.61816,-3.42629 l -2.30776,-0.20926 v 3.38478 3.38477 h 1.98709 c 1.44947,0 2.25111,-0.20769 2.96296,-0.76762 z m 8.75365,1.69355 v -12.03704 h 5.48958 c 6.24328,0 8.36433,0.48755 9.86147,2.2668 2.39351,2.84453 2.1968,8.0372 -0.40295,10.63695 l -1.27184,1.27184 1.90382,4.48628 c 1.04711,2.46745 1.9905,4.70168 2.09642,4.96495 0.15017,0.37324 -0.48266,0.45483 -2.87292,0.37037 l -3.0655,-0.1083 -1.51719,-4.34997 -1.51719,-4.34997 -1.75926,-0.002 -1.75926,-0.002 v 4.44445 4.44444 h -2.59259 -2.59259 z m 10.52854,-2.24813 c 1.36344,-1.36344 1.0558,-4.05276 -0.55779,-4.87604 -0.49317,-0.25163 -1.77168,-0.45996 -2.84112,-0.46297 l -1.94445,-0.005 v 2.96297 2.96296 h 2.38096 c 1.66971,0 2.55464,-0.17369 2.9624,-0.58146 z m -149.41743,-4.60373 v -14.44444 h 4.44445 4.44444 v 14.44444 14.44445 h -4.44444 -4.44445 z m 28.88889,-10 v -4.44444 h 4.44445 4.44444 v 4.44444 4.44445 h -4.44444 -4.44445 z m 14.44445,0 v -4.44444 h 11.11111 11.11111 v 4.44444 4.44445 h -11.11111 -11.11111 z"
       id="path25181" /><path
       style="fill:#a31f34;fill-opacity:1;fill-rule:evenodd;stroke:none;stroke-width:0;stroke-linecap:round;stroke-dasharray:none;paint-order:stroke fill markers;stop-color:#000000"
       d="M 686.64493,-28.149108 V -42.03892 h 4.44304 4.44306 v 13.889812 13.889813 h -4.44306 -4.44304 z"
       id="path26224" /></g></svg>
