<svg width="160" height="100" viewBox="0 0 42.3333 26.4583" shape-rendering="crispEdges" xml:space="preserve" xmlns="http://www.w3.org/2000/svg"><path style="fill:#015a86;fill-opacity:1;fill-rule:nonzero;stroke:none" d="M0 0v-102.905h-10.437v82.324l-40.427-69.24h-5.145l-40.427 68.799v-81.883h-10.438V0h8.968l44.69-76.296L-8.967 0Z" transform="matrix(.06 0 0 -.06 10.3508 20.2838)"/><path style="fill:#015a86;fill-opacity:1;fill-rule:nonzero;stroke:none" d="m0 0-24.697 55.274L-49.394 0Zm3.969-8.82h-57.332l-12.349-27.491h-11.319l47.042 102.905h10.731L27.785-36.311H16.318Z" transform="matrix(.06 0 0 -.06 15.996 24.2796)"/><path style="fill:#015a86;fill-opacity:1;fill-rule:nonzero;stroke:none;stroke-width:.352778" d="M78.4579 76.5607h3.8376v36.3026h-3.8376z" transform="matrix(.17009 0 0 .17009 5.3418 7.262)"/><path style="fill:#015a86;fill-opacity:1;fill-rule:nonzero;stroke:none" d="M0 0v-102.905h-8.968l-66.153 83.5v-83.5h-10.878V0h8.967l66.3-83.5V0Z" transform="matrix(.06 0 0 -.06 26.5102 20.2838)"/><path style="fill:#015a86;fill-opacity:1;fill-rule:nonzero;stroke:none" d="M0 0v-102.905h-23.815v83.794h-20.581V0Z" transform="matrix(.06 0 0 -.06 32.7375 20.2838)"/><path style="fill:#015a86;fill-opacity:1;fill-rule:nonzero;stroke:none" d="M0 0v-19.157h-76.772v15.238l39.184 37.008c4.159 3.966 6.966 7.376 8.417 10.231 1.452 2.853 2.177 5.683 2.177 8.49 0 4.063-1.378 7.184-4.136 9.36-2.757 2.177-6.798 3.266-12.117 3.266-4.452 0-8.468-.848-12.046-2.54-3.581-1.694-6.581-4.234-8.998-7.619l-17.125 11.03c3.966 5.9 9.433 10.521 16.4 13.859 6.966 3.338 14.948 5.007 23.946 5.007 7.546 0 14.149-1.234 19.809-3.701 5.66-2.467 10.061-5.95 13.207-10.449 3.142-4.499 4.716-9.796 4.716-15.891 0-5.515-1.161-10.692-3.483-15.529-2.322-4.839-6.821-10.354-13.497-16.544L-43.683 0Z" transform="matrix(.06 0 0 -.06 38.3952 25.3089)"/><path style="fill:#015a86;fill-opacity:1;fill-rule:nonzero;stroke:none" d="M2.2415 3.0161h-152.407v-152.407" transform="matrix(.06 0 0 -.06 30.267 9.5058)"/><path style="fill:#3e86b0;fill-opacity:1;fill-rule:nonzero;stroke:none" d="M0 0h152.407v152.407" transform="matrix(.06 0 0 -.06 11.9319 9.1448)"/></svg>