<?xml version="1.0" encoding="UTF-8" standalone="no"?>
<svg
   width="160"
   height="100"
   viewBox="0 0 42.333331 26.458334"
   version="1.1"
   id="svg8"
   shape-rendering="crispEdges"
   xml:space="preserve"
   xmlns="http://www.w3.org/2000/svg"
   xmlns:svg="http://www.w3.org/2000/svg"
   xmlns:rdf="http://www.w3.org/1999/02/22-rdf-syntax-ns#"
   xmlns:cc="http://creativecommons.org/ns#"
   xmlns:dc="http://purl.org/dc/elements/1.1/"><defs
     id="defs2" /><metadata
     id="metadata5"><rdf:RDF><cc:Work
         rdf:about=""><dc:format>image/svg+xml</dc:format><dc:type
           rdf:resource="http://purl.org/dc/dcmitype/StillImage" /></cc:Work></rdf:RDF></metadata><g
     id="layer1"
     transform="translate(0,-11.249983)"><g
       id="g10486"
       transform="matrix(1.1111112,0,0,1.1111112,-2.3518533,-1.2499989)"><g
         id="g10434"
         transform="matrix(0.15307688,0,0,0.15307688,6.9242534,17.785713)"><g
           transform="matrix(0.35277777,0,0,-0.35277777,29.4504,76.56071)"
           id="g1114-3-2"><path
             id="path1116-8-8"
             style="fill:#015a86;fill-opacity:1;fill-rule:nonzero;stroke:none"
             d="m 0,0 v -102.905 h -10.437 v 82.324 l -40.427,-69.24 h -5.145 l -40.427,68.799 v -81.883 h -10.438 V 0 h 8.968 L -53.216,-76.296 -8.967,0 Z" /></g><g
           transform="matrix(0.35277777,0,0,-0.35277777,62.6406,100.05359)"
           id="g1118-7-4"><path
             id="path1120-37-8"
             style="fill:#015a86;fill-opacity:1;fill-rule:nonzero;stroke:none"
             d="M 0,0 -24.697,55.274 -49.394,0 Z m 3.969,-8.82 h -57.332 l -12.349,-27.491 h -11.319 l 47.042,102.905 h 10.731 L 27.785,-36.311 H 16.318 Z" /></g><path
           id="path1122-5-5"
           style="fill:#015a86;fill-opacity:1;fill-rule:nonzero;stroke:none;stroke-width:0.352778"
           d="m 78.4579,76.56075 h 3.8376 v 36.30259 h -3.8376 z" /><g
           transform="matrix(0.35277777,0,0,-0.35277777,124.4577,76.56071)"
           id="g1124-4-9"><path
             id="path1126-7-2"
             style="fill:#015a86;fill-opacity:1;fill-rule:nonzero;stroke:none"
             d="m 0,0 v -102.905 h -8.968 l -66.153,83.5 v -83.5 H -85.999 V 0 h 8.967 l 66.3,-83.5 V 0 Z" /></g><g
           transform="matrix(0.35277777,0,0,-0.35277777,161.0704,76.56071)"
           id="g1128-5-80"><path
             id="path1130-7-4"
             style="fill:#015a86;fill-opacity:1;fill-rule:nonzero;stroke:none"
             d="m 0,0 v -102.905 h -23.815 v 83.794 H -44.396 V 0 Z" /></g><g
           transform="matrix(0.35277777,0,0,-0.35277777,194.3342,106.10514)"
           id="g1140-8-6"><path
             id="path1142-49-9"
             style="fill:#015a86;fill-opacity:1;fill-rule:nonzero;stroke:none"
             d="m 0,0 v -19.157 h -76.772 v 15.238 l 39.184,37.008 c 4.159,3.966 6.966,7.376 8.417,10.231 1.452,2.853 2.177,5.683 2.177,8.49 0,4.063 -1.378,7.184 -4.136,9.36 -2.757,2.177 -6.798,3.266 -12.117,3.266 -4.452,0 -8.468,-0.848 -12.046,-2.54 -3.581,-1.694 -6.581,-4.234 -8.998,-7.619 l -17.125,11.03 c 3.966,5.9 9.433,10.521 16.4,13.859 6.966,3.338 14.948,5.007 23.946,5.007 7.546,0 14.149,-1.234 19.809,-3.701 5.66,-2.467 10.061,-5.95 13.207,-10.449 3.142,-4.499 4.716,-9.796 4.716,-15.891 0,-5.515 -1.161,-10.692 -3.483,-15.529 -2.322,-4.839 -6.821,-10.354 -13.497,-16.544 L -43.683,0 Z" /></g></g><g
         id="g10421"
         transform="matrix(0.15307688,0,0,0.15307688,6.8083965,20.431548)"><path
           id="path1226-8-0"
           style="fill:#015a86;fill-opacity:1;fill-rule:nonzero;stroke:none"
           d="M 2.2414579,3.0161104 H -150.16554 V -149.39089"
           transform="matrix(0.35277777,0,0,-0.35277777,147.302,-4.0919401)" /><g
           transform="matrix(0.35277777,0,0,-0.35277777,39.5028,-6.21429)"
           id="g1228-6-7"><path
             id="path1230-9-8"
             style="fill:#3e86b0;fill-opacity:1;fill-rule:nonzero;stroke:none"
             d="M 0,0 H 152.407 V 152.407" /></g></g></g></g></svg>
