<?xml version="1.0" encoding="UTF-8" standalone="no"?>
<svg
   width="336.13486"
   height="100.00001"
   viewBox="0 0 88.935676 26.458336"
   version="1.1"
   id="svg8"
   shape-rendering="crispEdges"
   xml:space="preserve"
   xmlns="http://www.w3.org/2000/svg"
   xmlns:svg="http://www.w3.org/2000/svg"
   xmlns:rdf="http://www.w3.org/1999/02/22-rdf-syntax-ns#"
   xmlns:cc="http://creativecommons.org/ns#"
   xmlns:dc="http://purl.org/dc/elements/1.1/"><defs
     id="defs2" /><metadata
     id="metadata5"><rdf:RDF><cc:Work
         rdf:about=""><dc:format>image/svg+xml</dc:format><dc:type
           rdf:resource="http://purl.org/dc/dcmitype/StillImage" /></cc:Work></rdf:RDF></metadata><g
     id="layer1"
     transform="translate(116.57065,130.93736)"><g
       id="g30131"
       transform="matrix(1.5826738,0,0,1.5826738,-920.63958,1074.6487)"><path
         style="fill:#e60012;fill-opacity:1;stroke-width:0.0242643"
         d="m 509.64609,-747.74619 c 0.8808,-1.49801 1.6146,-2.73735 1.63067,-2.75408 0.0232,-0.0242 0.6934,-0.0291 3.24922,-0.0243 l 3.22004,0.006 -1.61625,2.74793 -1.61624,2.74792 h -3.23446 -3.23444 z m 9.75724,0.0364 c -0.86902,-1.478 -1.60013,-2.72219 -1.62466,-2.76487 -0.0245,-0.0427 -0.78596,-1.32375 -1.69204,-2.84683 -1.62445,-2.73063 -1.64695,-2.77019 -1.61357,-2.8382 0.064,-0.13049 3.26102,-5.57991 3.2738,-5.58039 0.019,-7e-4 3.29927,5.56645 3.29927,5.59932 0,0.0155 -0.73293,1.27041 -1.62873,2.78883 -0.8958,1.51842 -1.634,2.77441 -1.64043,2.79109 -0.01,0.0242 0.64142,0.0303 3.20424,0.0303 h 3.21596 l 0.0466,0.0667 c 0.0257,0.0367 0.74269,1.25141 1.59343,2.69939 0.85073,1.44796 1.5623,2.65723 1.58127,2.68726 l 0.0344,0.0546 h -3.2348 -3.2348 z"
         id="path952" /><path
         d="m 542.92248,-745.05788 c -0.29915,-0.0463 -0.44024,-0.0943 -0.75024,-0.25508 l -0.26188,-0.13581 -0.20844,-0.20832 -0.20842,-0.20831 -0.13714,-0.22576 -0.13713,-0.22575 -0.11417,-0.34933 -0.11414,-0.34932 -0.0378,-0.36756 -0.0377,-0.36755 0.0377,-0.36756 0.0378,-0.36756 0.11414,-0.34932 0.11417,-0.34932 0.13587,-0.22369 0.13588,-0.22368 0.19791,-0.1979 0.19791,-0.19791 0.24003,-0.13424 0.24003,-0.13422 0.29227,-0.0748 0.29227,-0.0748 h 0.36232 0.36231 l 0.28273,0.0723 c 0.1555,0.0398 0.38314,0.12299 0.50586,0.18495 l 0.22315,0.11264 0.20768,0.18982 0.20767,0.18979 0.1215,0.18936 c 0.12865,0.20048 0.29744,0.62447 0.29744,0.74715 v 0.0732 h -0.52128 -0.52126 l -0.0921,-0.20099 -0.092,-0.201 -0.13641,-0.15098 -0.13639,-0.15097 -0.16838,-0.0791 -0.16839,-0.0791 -0.21675,-0.0226 -0.21675,-0.0227 -0.22053,0.0642 -0.22051,0.0642 -0.16018,0.11503 -0.16017,0.11503 -0.13262,0.19253 -0.13259,0.19254 -0.0969,0.27848 -0.0968,0.27847 -0.0193,0.37596 -0.0192,0.37595 0.0634,0.31282 0.0634,0.31281 0.11214,0.22217 0.11215,0.22215 0.14769,0.16023 0.14769,0.16022 0.23369,0.10488 0.23372,0.10488 0.26214,-5.3e-4 0.26213,-5.2e-4 0.18321,-0.087 0.18321,-0.087 0.13091,-0.13091 0.13092,-0.13091 0.10733,-0.23671 0.10732,-0.23671 h 0.52365 0.52363 l -7.1e-4,0.10292 c -4.4e-4,0.0565 -0.0401,0.21432 -0.0882,0.35045 l -0.0874,0.24751 -0.14008,0.21104 c -0.0771,0.11608 -0.21844,0.2802 -0.31421,0.3647 l -0.1741,0.15364 -0.25267,0.12751 c -0.32473,0.16386 -0.57571,0.22787 -0.98768,0.25188 l -0.33169,0.0194 -0.22281,-0.0345 z m 14.18393,0.0173 c -0.0618,-0.008 -0.20493,-0.0338 -0.31815,-0.0569 l -0.20586,-0.042 -0.27806,-0.1315 -0.27806,-0.13149 -0.26556,-0.26649 -0.26558,-0.26648 -0.1539,-0.29943 c -0.17802,-0.34635 -0.25168,-0.58639 -0.31473,-1.02559 l -0.0451,-0.31444 0.0211,-0.35929 c 0.0116,-0.1976 0.048,-0.48561 0.0812,-0.63999 l 0.0601,-0.28073 0.17256,-0.35539 0.17256,-0.35538 0.24735,-0.24449 0.24736,-0.24447 0.22483,-0.11801 c 0.12366,-0.0649 0.35071,-0.15287 0.50454,-0.1955 l 0.2797,-0.0775 h 0.37736 0.37735 l 0.29713,0.0775 0.29712,0.0775 0.22459,0.12557 c 0.52378,0.29286 0.88393,0.77727 1.00901,1.35717 l 0.0262,0.12165 -0.53633,-5.3e-4 -0.53634,-5.3e-4 -0.086,-0.19895 c -0.0473,-0.10942 -0.13612,-0.25965 -0.19727,-0.33384 l -0.1112,-0.13491 -0.21445,-0.10513 -0.21447,-0.10513 h -0.29943 -0.29943 l -0.21389,0.10486 -0.21388,0.10485 -0.15065,0.17115 c -0.0829,0.0941 -0.19301,0.2577 -0.24476,0.3635 l -0.0941,0.19232 -0.0554,0.26136 -0.0554,0.26134 -5.3e-4,0.35895 -5.3e-4,0.35895 0.0726,0.28369 c 0.0928,0.36296 0.19214,0.55523 0.40349,0.78116 l 0.16965,0.18139 0.20096,0.0983 0.20094,0.0983 0.27157,7.1e-4 0.27159,7.1e-4 0.19564,-0.0847 0.19564,-0.0847 0.14344,-0.15562 0.14346,-0.15562 0.0889,-0.21443 0.0889,-0.21444 h 0.53912 0.53912 l -0.0262,0.15906 c -0.0606,0.36822 -0.29902,0.7974 -0.60994,1.0984 l -0.17515,0.16956 -0.29943,0.14399 -0.29943,0.14399 -0.18715,0.038 c -0.22564,0.0457 -0.74282,0.0797 -0.8983,0.0589 z m -28.06537,-0.11474 -0.0253,-0.0253 v -2.57672 -2.57672 l 1.91827,0.01 1.91824,0.01 v 0.43043 0.43045 l -1.39524,0.01 -1.39523,0.01 0.0103,0.55162 0.0103,0.55162 1.22581,0.01 1.22581,0.01 v 0.44865 0.44865 h -1.23517 -1.23517 v 0.69199 0.692 l 1.43167,0.01 1.43168,0.01 v 0.43043 0.43044 l -1.93041,0.01 -1.93038,0.01 z m 4.24165,-2.57671 v -2.60133 h 0.524 0.52403 v 2.15218 2.15218 h 1.21645 1.21643 v 0.44915 0.44916 h -1.74045 -1.74046 z m 3.80565,2.57671 -0.0253,-0.0253 v -2.57637 -2.57639 h 1.9288 1.9288 l -0.0106,0.43979 -0.0106,0.43979 -1.39523,0.01 -1.39524,0.01 0.0103,0.55162 0.0103,0.55163 1.22581,0.01 1.22581,0.01 v 0.44864 0.44863 h -1.23517 -1.23517 v 0.692 0.692 l 1.42717,0.01 1.42717,0.01 -0.004,0.43043 -0.003,0.43044 -1.92312,0.01 -1.92313,0.01 -0.0253,-0.0253 z m 9.65741,5.3e-4 -0.0259,-0.0259 v -2.12635 -2.12631 l -0.62695,-0.0103 -0.62693,-0.0103 -0.0106,-0.43979 -0.0106,-0.43979 h 1.79156 c 0.98535,0 1.79856,0.007 1.80713,0.0154 0.008,0.008 0.0104,0.21062 0.004,0.44914 l -0.0115,0.43371 h -0.61501 -0.61501 l -0.01,2.14281 -0.01,2.14284 -0.50739,0.0104 -0.5074,0.0104 -0.026,-0.026 z m 2.59097,0.008 c -0.008,-0.008 -0.0112,-1.17917 -0.006,-2.60133 l 0.01,-2.58576 1.31888,5.4e-4 1.31887,5.3e-4 0.25379,0.0538 0.2538,0.0538 0.1869,0.10172 0.18692,0.10173 0.16204,0.17324 0.16206,0.17326 0.0842,0.22267 0.0842,0.22268 7.1e-4,0.31816 7.1e-4,0.31814 -0.0817,0.21413 -0.0817,0.21414 -0.1622,0.16688 -0.16218,0.16687 -0.19624,0.0995 -0.19623,0.0994 0.18991,0.10847 0.18994,0.10846 0.0948,0.12429 c 0.0522,0.0683 0.12981,0.20343 0.17258,0.30015 l 0.0778,0.17587 0.0373,0.45838 c 0.0301,0.37183 0.0958,0.86095 0.15568,1.16014 l 0.009,0.0469 -0.5023,0.0105 -0.50228,0.0106 -0.0286,-0.0292 c -0.0157,-0.0161 -0.0473,-0.21449 -0.0701,-0.44094 -0.0229,-0.22644 -0.059,-0.54572 -0.0805,-0.70952 l -0.039,-0.29778 -0.0706,-0.13838 -0.0706,-0.13838 -0.1366,-0.1126 -0.13661,-0.11261 -0.16178,-0.0407 -0.16176,-0.0407 h -0.54487 -0.54486 v 1.02931 1.0293 h -0.49907 c -0.27448,0 -0.50606,-0.007 -0.51465,-0.0156 z m 2.68528,-3.00103 0.14375,-0.11585 0.0836,-0.14615 0.0836,-0.14616 5.3e-4,-0.18468 5.4e-4,-0.18469 -0.0743,-0.15218 -0.0743,-0.15217 -0.13808,-0.0936 -0.13806,-0.0936 h -0.77014 -0.77014 l -0.0103,0.65371 c -0.006,0.35952 -0.002,0.67659 0.009,0.70459 l 0.0195,0.0509 0.74531,-0.0122 0.74531,-0.0122 0.14373,-0.11585 z m 1.68562,2.99269 -0.0259,-0.0259 v -2.57639 -2.57638 h 0.52426 0.52426 l -0.01,2.59198 -0.01,2.59198 -0.48867,0.0104 -0.48866,0.0104 z m -12.77066,-5.98677 -0.262,-0.0578 -0.26643,-0.12754 -0.26644,-0.12753 -0.20761,-0.22424 -0.20761,-0.22424 -0.0791,-0.21156 c -0.23623,-0.63138 -0.20483,-0.68933 0.37359,-0.68933 h 0.47544 l 0.0218,0.13385 c 0.0119,0.0735 0.0656,0.20872 0.11925,0.30025 l 0.0975,0.16644 0.13829,0.0869 c 0.0761,0.0478 0.20566,0.10929 0.28801,0.13653 l 0.14973,0.0496 0.29943,-0.004 0.29943,-0.004 0.16586,-0.059 c 0.21016,-0.0748 0.39837,-0.21762 0.47047,-0.35705 l 0.0561,-0.1085 v -0.13656 -0.13656 l -0.0576,-0.12133 -0.0576,-0.12131 -0.1092,-0.0807 c -0.17513,-0.1295 -0.43678,-0.21653 -0.96624,-0.32143 -0.71218,-0.14109 -1.05184,-0.28467 -1.3638,-0.57648 l -0.18571,-0.17371 -0.11653,-0.22518 -0.1165,-0.22519 -7.1e-4,-0.37428 -7.3e-4,-0.37429 0.10741,-0.23251 0.10738,-0.23249 0.21279,-0.20294 0.21277,-0.20297 0.18511,-0.0927 c 0.10183,-0.0509 0.27778,-0.12455 0.39099,-0.16342 l 0.20587,-0.0707 0.524,6.9e-4 0.52402,7.2e-4 0.2786,0.10041 0.27861,0.10042 0.20326,0.13999 0.20326,0.14 0.14216,0.18874 c 0.16842,0.22357 0.27852,0.48871 0.3154,0.75954 l 0.0268,0.19651 h -0.5088 -0.50881 v -0.0761 c 0,-0.12528 -0.10849,-0.34653 -0.233,-0.47518 l -0.11692,-0.1208 -0.18475,-0.0613 -0.18476,-0.0614 -0.32402,0.0154 -0.32403,0.0154 -0.16633,0.0918 -0.16632,0.0918 -0.0856,0.12717 -0.0857,0.12719 v 0.17607 0.17608 l 0.0842,0.12495 0.0842,0.12496 0.16843,0.0845 0.16843,0.0845 0.46788,0.0979 c 0.82083,0.17181 0.96451,0.21012 1.18636,0.31619 0.25971,0.1242 0.46869,0.28679 0.61466,0.47821 l 0.10729,0.1407 0.0751,0.23789 0.0751,0.23786 v 0.21279 0.21276 l -0.0581,0.22308 c -0.14036,0.53903 -0.52474,0.90924 -1.15353,1.11105 l -0.2294,0.0735 -0.52401,0.0143 -0.52402,0.0143 -0.26201,-0.0578 z m 4.4728,0.0336 c -0.0514,-0.008 -0.21989,-0.0573 -0.37429,-0.10817 l -0.28071,-0.0925 -0.17785,-0.13044 c -0.21547,-0.15805 -0.37123,-0.3661 -0.48532,-0.64822 l -0.0855,-0.21129 -0.0109,-2.04925 -0.0109,-2.04925 h 0.5068 0.5068 v 1.92333 1.92333 l 0.10473,0.20049 0.10475,0.2005 0.21273,0.10878 0.21272,0.1088 0.2776,0.0178 0.27761,0.0178 0.21052,-0.0662 0.21051,-0.0661 0.16689,-0.1469 0.16688,-0.1469 0.0567,-0.19135 0.0567,-0.19137 v -1.84596 -1.84595 h 0.50528 0.5053 l -4.2e-4,1.95567 -4.3e-4,1.95569 -0.0513,0.19274 c -0.0282,0.10603 -0.099,0.28033 -0.15722,0.38734 l -0.10592,0.19458 -0.18135,0.16306 -0.18135,0.16305 -0.20694,0.0979 c -0.11383,0.0538 -0.31919,0.1217 -0.45636,0.15075 l -0.24939,0.0529 -0.48659,-0.004 c -0.2676,-0.003 -0.52868,-0.0115 -0.58015,-0.02 z m 10.14603,-0.0323 -0.24059,-0.0522 -0.26492,-0.12581 -0.26493,-0.1258 -0.18385,-0.18387 -0.18387,-0.18388 -0.10579,-0.22606 -0.10579,-0.22607 -0.0403,-0.21754 c -0.0221,-0.11966 -0.0312,-0.24113 -0.02,-0.26999 l 0.0201,-0.0524 h 0.48776 0.48775 v 0.10046 0.10047 l 0.0777,0.16067 0.0778,0.16065 0.11873,0.10013 c 0.15059,0.12698 0.3209,0.19829 0.57077,0.23895 l 0.19731,0.0321 0.24743,-0.035 0.24743,-0.0351 0.18254,-0.0925 0.18256,-0.0925 0.0804,-0.11296 0.0804,-0.11298 0.0207,-0.12729 0.0206,-0.12732 -0.044,-0.13318 -0.0439,-0.13318 -0.12566,-0.11032 -0.12565,-0.11032 -0.21829,-0.0817 c -0.12005,-0.045 -0.42882,-0.12367 -0.68614,-0.1749 l -0.46787,-0.0931 -0.24329,-0.0963 c -0.13381,-0.053 -0.34058,-0.16403 -0.45949,-0.24678 l -0.2162,-0.15045 -0.14451,-0.21639 -0.1445,-0.21639 -0.0462,-0.19284 -0.0462,-0.19283 0.0166,-0.28719 0.0166,-0.28721 0.0979,-0.21394 0.0979,-0.21394 0.19068,-0.19068 0.19067,-0.19068 0.30757,-0.14278 c 0.16918,-0.0785 0.39684,-0.16139 0.50592,-0.18415 l 0.19836,-0.0413 0.32566,5.4e-4 0.32566,5.2e-4 0.24947,0.0529 0.24946,0.0529 0.22673,0.1125 c 0.1247,0.0619 0.28706,0.1599 0.36077,0.21784 l 0.13405,0.10535 0.14805,0.22 0.14804,0.21998 0.054,0.19173 c 0.0297,0.10545 0.0652,0.25488 0.0787,0.33209 l 0.0246,0.14035 h -0.50946 -0.50946 l -4.3e-4,-0.0469 c 0,-0.0258 -0.0178,-0.11041 -0.0395,-0.18817 l -0.0392,-0.14139 -0.10998,-0.12524 -0.10997,-0.12525 -0.19465,-0.0838 -0.19465,-0.0837 -0.33899,0.0159 -0.339,0.0159 -0.14971,0.0782 c -0.0823,0.043 -0.19107,0.12243 -0.2416,0.17656 l -0.0919,0.0984 -0.0149,0.23461 -0.0149,0.23459 0.10557,0.12547 0.10558,0.12547 0.1646,0.0728 0.16459,0.0728 0.69115,0.14394 0.69111,0.14393 0.24064,0.1126 0.24064,0.11261 0.20089,0.19 0.20089,0.19 0.0974,0.21691 0.0973,0.21691 0.0233,0.25927 0.0234,0.25929 -0.0613,0.26085 -0.0613,0.26086 -0.1152,0.17953 c -0.0633,0.0987 -0.19329,0.24903 -0.28871,0.33403 l -0.17352,0.1545 -0.22628,0.10382 -0.22629,0.10381 -0.28679,0.0592 -0.28679,0.0592 -0.40394,-0.003 -0.40394,-0.003 -0.24059,-0.0522 z m -26.51508,-0.0791 -0.025,-0.025 v -2.57639 -2.57638 h 0.74553 0.74554 l 0.0758,0.23393 c 0.0417,0.12867 0.16286,0.52869 0.26927,0.88896 0.1064,0.36024 0.30946,1.0424 0.45124,1.51588 0.14177,0.47349 0.25778,0.88192 0.25778,0.90766 10e-6,0.0258 0.0156,0.0469 0.0349,0.0469 h 0.0349 l 0.0613,-0.21523 c 0.0337,-0.11837 0.17908,-0.61103 0.32309,-1.0948 0.144,-0.48377 0.30942,-1.0396 0.36757,-1.23517 0.0582,-0.19557 0.15241,-0.51137 0.20948,-0.70179 l 0.10376,-0.34622 h 0.74268 0.74268 v 2.60245 2.60245 l -0.47722,-0.0106 -0.47723,-0.0105 -0.0188,-1.89018 -0.0188,-1.89018 -0.0498,0.16843 c -0.0571,0.19307 -0.0946,0.32505 -0.56479,1.98376 -0.18964,0.66905 -0.37458,1.30909 -0.41095,1.42231 l -0.0661,0.20586 h -0.49761 -0.4976 l -0.52974,-1.86015 c -0.29136,-1.02308 -0.54186,-1.87226 -0.55665,-1.88706 l -0.0269,-0.027 v 1.8964 1.89642 h -0.46162 c -0.2539,0 -0.47286,-0.0113 -0.48658,-0.025 z m 5.58917,0.007 c -1.4e-4,-0.0109 -4.2e-4,-1.17777 -5.3e-4,-2.59306 l -2.8e-4,-2.57327 0.50612,-0.0104 0.50613,-0.0104 -0.01,2.59303 -0.01,2.59304 -0.49594,0.0105 c -0.27276,0.006 -0.49605,0.002 -0.4962,-0.009 z m 2.58288,-2.13349 v -2.15324 h -0.6363 -0.63629 v -0.44916 -0.44915 h 1.7966 1.7966 v 0.44915 0.44916 h -0.636 -0.63598 l -0.01,2.14282 -0.01,2.14283 -0.51465,0.0103 -0.51466,0.0104 z m 11.26594,2.13577 c 0,-0.0122 -4.4e-4,-1.18005 -5.2e-4,-2.59534 l -4.4e-4,-2.57327 1.22635,-0.0113 1.22635,-0.0113 0.28071,0.0425 0.28073,0.0425 0.19163,0.0863 0.19164,0.0863 0.15729,0.14209 0.1573,0.14211 0.067,0.13356 c 0.0369,0.0735 0.0882,0.22329 0.114,0.33298 l 0.0469,0.19942 -0.0248,0.18738 c -0.0136,0.10306 -0.0583,0.27681 -0.0992,0.38608 l -0.0743,0.19869 -0.1845,0.17259 c -0.10149,0.0949 -0.22727,0.19206 -0.27954,0.21587 -0.12123,0.0552 -0.11967,0.083 0.007,0.14009 0.0565,0.0253 0.16661,0.0896 0.24441,0.14288 l 0.14148,0.0969 0.13391,0.18243 c 0.0737,0.10034 0.16741,0.27035 0.20833,0.37779 l 0.0744,0.19536 -4.3e-4,0.29943 -4.2e-4,0.29943 -0.0795,0.21136 -0.0795,0.21137 -0.15216,0.17286 -0.15218,0.17288 -0.1642,0.0962 c -0.0903,0.0529 -0.25287,0.12247 -0.36122,0.15452 l -0.19704,0.0583 -1.45039,0.0166 c -0.79771,0.009 -1.45048,0.007 -1.45064,-0.006 z m 2.46704,-0.80706 c 0.1767,-0.0507 0.34971,-0.17654 0.45609,-0.33178 l 0.0902,-0.13163 v -0.26748 -0.26749 l -0.10046,-0.15181 -0.10047,-0.1518 -0.18025,-0.0886 -0.18026,-0.0886 -0.71117,-1.1e-4 -0.71115,-1.2e-4 -0.0101,0.75794 -0.0101,0.75794 h 0.6654 0.66538 l 0.12696,-0.0365 z m 0.0521,-2.33478 0.12103,-0.0506 0.11921,-0.13577 0.11923,-0.13579 0.0252,-0.13389 c 0.0139,-0.0737 0.0157,-0.19206 0.004,-0.26315 l -0.021,-0.12927 -0.0803,-0.11278 -0.0803,-0.11279 -0.14507,-0.074 -0.14507,-0.074 h -0.71265 -0.71266 v 0.63629 0.63629 h 0.69364 0.69366 z m 1.84052,3.1115 c -0.01,-0.0263 -0.014,-1.19322 -0.008,-2.59307 l 0.01,-2.5452 0.51491,-0.0104 0.5149,-0.0104 -0.01,2.59303 -0.01,2.59304 -0.49669,0.0105 -0.4967,0.0105 z m 5.78182,0.0311 c -0.009,-0.009 -0.0122,-1.1802 -0.007,-2.60237 l 0.01,-2.58574 h 0.50479 0.50479 v 1.01117 1.01119 l 1.03866,-0.01 1.03866,-0.01 0.007,-0.99187 0.007,-0.99188 0.50741,-0.0104 0.5074,-0.0104 -0.01,2.59303 -0.01,2.59304 h -0.49756 -0.49755 l -0.007,-1.12289 -0.007,-1.12287 -1.03813,-0.01 -1.0381,-0.01 -0.01,1.13282 -0.01,1.13283 -0.48866,0.0104 c -0.26876,0.006 -0.49615,0.003 -0.5053,-0.007 z m 4.56846,-2.58783 v -2.60239 l 0.51466,0.0104 0.51464,0.0104 0.01,2.56152 0.01,2.56153 -0.0471,0.0299 -0.0471,0.0299 -0.47723,5.3e-4 -0.47721,5.3e-4 z"
         style="fill:#000000;stroke-width:0.0374291"
         id="path30055" /></g></g></svg>
