<?xml version="1.0" encoding="UTF-8" standalone="no"?>
<svg
   width="192.1768"
   height="99.999977"
   viewBox="0 0 50.846776 26.458328"
   version="1.1"
   id="svg8"
   inkscape:export-filename="h100 svg\multiplo_h100.svg"
   inkscape:export-xdpi="96"
   inkscape:export-ydpi="96"
   inkscape:version="1.2.2 (732a01da63, 2022-12-09)"
   sodipodi:docname="Logos.svg"
   shape-rendering="crispEdges"
   xml:space="preserve"
   xmlns:inkscape="http://www.inkscape.org/namespaces/inkscape"
   xmlns:sodipodi="http://sodipodi.sourceforge.net/DTD/sodipodi-0.dtd"
   xmlns="http://www.w3.org/2000/svg"
   xmlns:svg="http://www.w3.org/2000/svg"
   xmlns:rdf="http://www.w3.org/1999/02/22-rdf-syntax-ns#"
   xmlns:cc="http://creativecommons.org/ns#"
   xmlns:dc="http://purl.org/dc/elements/1.1/"><defs
     id="defs2" /><sodipodi:namedview
     inkscape:pagecheckerboard="true"
     id="base"
     pagecolor="#ffffff"
     bordercolor="#666666"
     borderopacity="1.0"
     inkscape:pageopacity="0.0"
     inkscape:pageshadow="2"
     inkscape:zoom="0.12374369"
     inkscape:cx="2327.3915"
     inkscape:cy="169.70563"
     inkscape:document-units="mm"
     inkscape:current-layer="layer1"
     showgrid="false"
     units="px"
     inkscape:window-width="1920"
     inkscape:window-height="1009"
     inkscape:window-x="1912"
     inkscape:window-y="-8"
     inkscape:window-maximized="1"
     inkscape:document-rotation="0"
     inkscape:showpageshadow="0"
     inkscape:deskcolor="#d1d1d1" /><metadata
     id="metadata5"><rdf:RDF><cc:Work
         rdf:about=""><dc:format>image/svg+xml</dc:format><dc:type
           rdf:resource="http://purl.org/dc/dcmitype/StillImage" /></cc:Work></rdf:RDF></metadata><g
     inkscape:label="Layer 1"
     inkscape:groupmode="layer"
     id="layer1"
     transform="translate(16.141698,76.335411)"><path
       style="fill:#000000;stroke-width:0.0559358"
       d="m -16.029648,-49.989425 c -0.11136,-0.111252 -0.11205,-0.186461 -0.11205,-13.02062 0,-11.843705 0.007,-12.919485 0.0912,-13.038965 0.17726,-0.25289 0.37347,-0.28619 1.6958,-0.28619 1.32975,0 1.59912,0.0461 1.729,0.2966 0.035,0.0677 0.33962,1.60804 0.67653,3.42318 0.76135,4.099945 1.38397,7.385885 2.1968697,11.59478 0.59078,3.058565 0.63671,3.259381 0.74203,3.244291 0.0954,-0.01388 0.13044,-0.10754 0.23555,-0.631396 0.0676,-0.338404 0.42825,-2.150722 0.80096,-4.027381 1.45745,-7.338464 2.75338,-13.530244 2.85842,-13.656894 0.17553,-0.21161 0.39537,-0.24318 1.69903,-0.24318 1.30356,0 1.52343,0.0312 1.69896,0.24318 0.0652,0.0784 0.0663,1.76334 0.007,11.042008 -0.05,7.845748 -0.0878,10.98841 -0.13287,11.087115 -0.12141,0.266075 -0.37309,0.368502 -1.38747,0.564572 -1.15131,0.222504 -1.38592,0.234749 -1.55579,0.081 l -0.1235,-0.111634 0.0347,-4.279316 c 0.0173,-2.35364 0.0486,-5.449796 0.0669,-6.880357 0.0173,-1.430561 0.0173,-2.586548 2.8e-4,-2.568891 -0.0396,0.03851 -0.95982,4.463567 -1.88327,9.054996 -0.61243,3.044977 -0.68122,3.338575 -0.81471,3.477947 -0.0801,0.08378 -0.21195,0.178482 -0.29313,0.210571 -0.23763,0.09422 -2.3958497,0.620995 -2.5442197,0.620995 -0.33234,0 -0.32401,0.02845 -0.96093,-3.300204 -0.32643,-1.70747 -0.84388,-4.438535 -1.14953,-6.069085 -0.30562,-1.630517 -0.564,-2.989754 -0.57402,-3.020525 -0.0104,-0.03122 -0.0364,3.327128 -0.0583,7.461969 -0.0441,8.249437 -0.0173,7.693278 -0.38371,7.966051 -0.20398,0.151736 -2.12576,0.878402 -2.32145,0.877729 -0.0694,-2.39e-4 -0.17622,-0.05075 -0.23763,-0.112328 z m 49.8948,-0.02567 c -0.20121,-0.07334 -0.77606,-0.284739 -1.28011,-0.469756 -0.96582,-0.354445 -1.25514,-0.539099 -1.31796,-0.841484 0,-0.07993 -0.0555,-5.643854 -0.0867,-12.36423 -0.0486,-11.052935 -0.0486,-12.231685 0.0347,-12.352545 0.16999,-0.25775 0.36949,-0.29209 1.70129,-0.29209 1.32521,0 1.52124,0.0312 1.69851,0.28619 0.0833,0.11934 0.0902,1.19526 0.0902,13.038966 0,12.83418 -6.9e-4,12.909402 -0.11101,13.02063 -0.14223,0.143375 -0.28099,0.138588 -0.72749,-0.02567 z m -8.75408,-2.685644 c -0.43051,-0.102129 -1.03207,-0.241584 -1.33631,-0.309785 -0.87527,-0.19614 -0.84613,-0.152811 -1.35296,-2.013068 -1.53706,-5.640434 -3.86849,-13.875314 -3.95116,-13.956039 -0.0392,-0.03816 -0.0461,1.516697 -0.0208,4.894428 0.067,9.460373 0.0645,9.852076 -0.0562,9.940314 -0.19427,0.142023 -0.36737,0.144798 -1.46029,0.02324 -1.06489,-0.118398 -1.31283,-0.1815 -1.47393,-0.375544 -0.1169,-0.140739 -0.21473,-21.457527 -0.0992,-21.596877 0.1738,-0.20953 0.3964,-0.2411 1.6974,-0.2411 1.29218,0 1.52405,0.0312 1.69219,0.23486 0.10303,0.12419 2.16905,7.368435 4.27604,14.993615 0.12489,0.453785 0.25324,0.825062 0.28099,0.825062 0.0347,0 0.0382,-0.529205 0.0347,-1.384413 -0.0347,-0.761436 -0.0382,-4.314086 -0.0451,-7.894721 v -6.510303 l 0.1561,-0.11829 c 0.1457,-0.10893 0.23937,-0.11934 1.23848,-0.1353 0.8562,-0.0139 1.12192,-7e-5 1.27838,0.0652 0.39411,0.16478 0.35526,-0.86341 0.45135,11.922278 l 0.0867,11.578757 -0.14223,0.125787 c -0.18039,0.161311 -0.28099,0.155725 -1.22568,-0.06844 z m -21.8159403,-1.778169 -0.14708,-0.126585 0.0562,-10.700568 c 0.0458,-8.719349 0.0697,-10.717069 0.13008,-10.789639 0.19254,-0.23208 0.30181,-0.23971 3.48306,-0.23971 3.3235003,0 3.4078703,0.007 3.5472603,0.31325 0.0791,0.17346 0.0836,1.05469 0.007,1.19939 -0.12107,0.22618 -0.25637,0.24838 -1.7047903,0.27717 -1.27633,0.0243 -1.4153,0.0378 -1.59212,0.14189 -0.1065,0.0628 -0.21091,0.17588 -0.23207,0.25185 -0.0208,0.076 -0.0409,1.788532 -0.0441,3.80595 l -0.003,3.668054 0.12593,0.113437 c 0.0694,0.06244 0.16373,0.135987 0.20987,0.163739 0.0461,0.02775 0.74692,0.06279 1.55722,0.0784 l 1.4732303,0.02775 0.13494,0.156801 c 0.12315,0.143271 0.13495,0.205714 0.13495,0.715835 0,0.525178 -0.007,0.566771 -0.1405,0.689263 -0.19808,0.183859 -0.3364903,0.199817 -1.7085703,0.199817 -1.25953,0 -1.43413,0.02428 -1.66073,0.237282 l -0.12592,0.117947 v 3.733397 c 0,2.05336 0.0173,3.774127 0.0347,3.823925 0.0173,0.04982 0.11343,0.132274 0.20987,0.183269 0.15125,0.0802 0.35371,0.09065 1.49141,0.07743 1.13209,-0.01318 1.34966,-0.0013 1.5538503,0.07979 0.13044,0.05217 0.26191,0.140669 0.29175,0.196452 0.0312,0.05575 0.0545,0.35304 0.0545,0.660511 0,0.579162 -0.0277,0.655405 -0.27648,0.789147 -0.0552,0.02949 -1.1165803,0.0802 -2.3589103,0.112847 -1.24237,0.03261 -2.54832,0.08336 -2.90209,0.112952 -1.08789,0.09089 -1.42442,0.07583 -1.5952,-0.07094 z"
       id="path248" /></g></svg>
