<?xml version="1.0" encoding="UTF-8" standalone="no"?>
<svg
   width="170.44905"
   height="99.999977"
   viewBox="0 0 45.097976 26.458328"
   version="1.1"
   id="svg8"
   shape-rendering="crispEdges"
   xml:space="preserve"
   xmlns="http://www.w3.org/2000/svg"
   xmlns:svg="http://www.w3.org/2000/svg"
   xmlns:rdf="http://www.w3.org/1999/02/22-rdf-syntax-ns#"
   xmlns:cc="http://creativecommons.org/ns#"
   xmlns:dc="http://purl.org/dc/elements/1.1/"><defs
     id="defs2" /><metadata
     id="metadata5"><rdf:RDF><cc:Work
         rdf:about=""><dc:format>image/svg+xml</dc:format><dc:type
           rdf:resource="http://purl.org/dc/dcmitype/StillImage" /></cc:Work></rdf:RDF></metadata><g
     id="layer1"
     transform="translate(-67.913654,82.933936)"><g
       id="Capa_1-2"
       data-name="Capa 1"
       transform="matrix(0.29119891,0,0,0.29119891,67.913651,-82.933934)"><rect
         x="-41.66"
         y="41.66"
         width="90.639999"
         height="7.3200002"
         transform="rotate(90,3.66,45.32)"
         id="rect10904" /><path
         d="m 62.65,37.39 h -7.4 V 22.26 A 7.34,7.34 0 0 0 54.19,17.87 3.71,3.71 0 0 0 51,16.43 3.93,3.93 0 0 0 47.7,18.18 7.12,7.12 0 0 0 46.41,22.53 V 37.39 H 39 V 22.06 a 6.93,6.93 0 0 0 -1.07,-4.23 3.73,3.73 0 0 0 -3.16,-1.4 4,4 0 0 0 -3.37,1.67 7.25,7.25 0 0 0 -1.26,4.5 V 37.39 H 22.7 V 10.74 h 7.43 v 4.58 h 0.09 a 9.52,9.52 0 0 1 8.21,-4.62 8.07,8.07 0 0 1 4.57,1.22 7.54,7.54 0 0 1 2.81,3.59 9.76,9.76 0 0 1 3.6,-3.62 10,10 0 0 1 4.95,-1.19 7.6,7.6 0 0 1 6.24,2.57 q 2.09,2.55 2.08,7.7 z"
         id="path10906" /><path
         d="m 84.89,36.38 a 11.54,11.54 0 0 1 -2.59,0.77 16.37,16.37 0 0 1 -2.9,0.25 q -4.08,0 -6.15,-2 C 71.86,34.08 71.17,32.1 71.17,29.48 V 16.23 H 67 v -5.49 h 4.15 V 5.61 l 7.41,-2.14 v 7.27 h 5.8 v 5.49 h -5.8 V 29 a 3.45,3.45 0 0 0 0.6,2.26 2.34,2.34 0 0 0 1.87,0.7 4.53,4.53 0 0 0 1.24,-0.16 5.6,5.6 0 0 0 1.12,-0.42 z"
         id="path10908" /><path
         d="M 106.2,33.2 A 9.09,9.09 0 0 1 102.85,36.36 10.45,10.45 0 0 1 90.54,34 q -2.91,-3.39 -2.91,-9.4 c 0,-4.23 1.07,-7.6 3.22,-10.14 a 10.48,10.48 0 0 1 8.41,-3.8 9.1,9.1 0 0 1 4.2,0.9 6.53,6.53 0 0 1 2.74,2.72 h 0.09 V 0 h 7.43 v 37.39 h -7.43 V 33.2 Z m -11,-8.81 a 8.63,8.63 0 0 0 1.48,5.42 4.92,4.92 0 0 0 4.1,1.89 5,5 0 0 0 4.09,-2 8.16,8.16 0 0 0 1.57,-5.2 v -2.1 a 6.22,6.22 0 0 0 -1.51,-4.27 5.36,5.36 0 0 0 -8.19,0.43 9.73,9.73 0 0 0 -1.56,5.83 z"
         id="path10910" /><path
         d="M 45.39,71.2 C 43,74 41,75.58 39.1,75.58 c -1.9,0 -2.3,-1.46 -1.57,-5.5 l 1,-5.85 c -3.37,6.91 -8,11.57 -12,11.57 -2.47,0 -3.93,-1.62 -3.37,-5.84 1.18,-8.08 8.82,-17.3 14.77,-17.3 a 4.69,4.69 0 0 1 3.71,1.58 4.22,4.22 0 0 0 1.35,-2 c 0.11,-0.22 0.73,-0.11 0.67,0.06 l -3.27,17.78 c -0.39,2.19 0,3.25 0.85,3.25 0.85,0 2.19,-1 3.7,-2.58 0.23,-0.22 0.68,0.25 0.45,0.45 z M 39.33,59.52 c 0.56,-2.76 -0.57,-4.89 -3.32,-4.89 -3.93,0.11 -8.59,5.56 -9.66,12.81 -0.56,3.76 0.11,5.61 2.19,5.61 4.16,0 9.46,-7.41 10.79,-13.53 z"
         id="path10912" /><path
         d="m 67.47,55.7 a 7.48,7.48 0 0 0 -4.27,-0.62 7.74,7.74 0 0 1 1,6.18 c -1.06,5.05 -5.33,8.31 -9.32,8.31 a 10.23,10.23 0 0 1 -1.35,-0.11 3.26,3.26 0 0 0 -0.84,1.8 C 52,76 64.88,76.54 64.15,83.27 c -0.39,4 -5.61,7.59 -11.79,7.59 -6,0 -9.16,-3.26 -8.37,-6.74 0.67,-3 4,-5.23 8,-7.47 -1.4,-1 -2.24,-2.14 -2,-3.71 a 7.15,7.15 0 0 1 2.64,-3.71 c -2.87,-1.06 -4.1,-4.32 -3.26,-8 a 9.89,9.89 0 0 1 9.38,-8.2 5.46,5.46 0 0 1 3.76,1.29 13.6,13.6 0 0 1 5.4,-1.41 c 0.68,0.03 0.01,3.09 -0.44,2.79 z M 52.53,77 c -2.42,1.46 -5,3 -5.4,5.79 -0.61,3.59 2.7,6.46 7.92,6.46 4.05,0 6.24,-1.91 6.35,-4.39 0.17,-4 -5.4,-5.63 -8.87,-7.86 z m 4.83,-23 c -2.25,0 -4.38,2.47 -5,5.78 -0.73,4 0.68,8.65 3.82,8.65 2.19,0 4.27,-2.13 4.89,-5.73 0.62,-3.6 -0.34,-8.63 -3.71,-8.63 z"
         id="path10914" /><path
         d="m 72.13,63.05 c -1.07,6.18 1,10.79 5.73,10.79 A 9.23,9.23 0 0 0 83.48,72 c 0.22,-0.12 0.61,0.28 0.39,0.5 a 12.61,12.61 0 0 1 -8.2,3.26 c -6,0 -8,-5.22 -6.91,-11.07 1,-5.61 6.4,-12 12.81,-12 2.75,0 4.15,1.18 3.82,3 -0.68,3.38 -6.58,6.31 -13.26,7.36 z m 0.17,-0.78 c 5,-0.84 8.65,-2.59 9.32,-5.39 0.56,-2 -1,-2.7 -2.52,-2.7 -3.66,0 -5.96,3.65 -6.8,8.09 z"
         id="path10916" /><path
         d="m 111.45,71.2 c -2.42,2.81 -4.33,4.38 -6.29,4.38 -1.96,0 -2.36,-1.52 -1.63,-5.5 l 1.63,-8.93 c 0.84,-4.27 0.17,-6.3 -2.08,-6.3 -3.6,0 -8.15,7.19 -10.39,19.83 -0.11,0.51 -0.79,0.84 -1.86,0.84 -1.07,0 -1.29,-0.11 -1.29,-0.33 0,-0.22 0.51,-2.31 0.85,-4.27 l 2.3,-12.53 c 0.39,-2.19 0,-3.31 -1,-3.31 -1,0 -2.3,0.9 -3.87,2.58 -0.23,0.28 -0.73,-0.22 -0.45,-0.45 2.53,-2.92 4.6,-4.32 6.57,-4.32 1.97,0 2.25,1.46 1.57,5.39 l -1.18,6.8 c 2.64,-7.64 6.46,-12.42 10.56,-12.42 3.2,0 4.27,2.19 3.32,7.42 l -1.86,10 c -0.39,2.24 0,3.25 1,3.25 0.78,0 2.13,-1 3.65,-2.58 0.22,-0.28 0.73,0.17 0.45,0.45 z"
         id="path10918" /><path
         d="m 114.65,63.73 c 1.41,-7.08 7.19,-11.07 12,-11.07 2.64,0 5.06,1.35 4.83,3.32 a 1.74,1.74 0 0 1 -1.85,1.79 c -1.07,0 -1.69,-0.67 -2,-1.79 a 2.82,2.82 0 0 0 -2.92,-2.08 c -3.71,0 -5.79,3.65 -6.63,8.09 -1.18,6.18 0.39,11.85 5.78,11.85 a 9.5,9.5 0 0 0 6,-2.53 c 0.22,-0.17 0.67,0.28 0.45,0.51 -3.09,2.75 -6,4 -8.77,4 -6.54,-0.02 -8.07,-6.59 -6.89,-12.09 z"
         id="path10920" /><path
         d="m 154.87,55.92 c 0,9.38 -15.84,34.94 -23.82,34.94 -1.35,0 -2.47,-0.62 -2.24,-2.36 a 2,2 0 0 1 2.24,-1.5 c 2.31,0 4.72,0.06 6.69,-1.35 a 22.93,22.93 0 0 0 4.55,-5.11 c 0.33,-16 -2.14,-25.16 -6.35,-25.16 a 3.26,3.26 0 0 0 -2.81,2.08 c -0.17,0.33 -0.79,0.17 -0.67,-0.17 1.4,-2.87 3.2,-4.38 5.22,-4.38 5.22,0 8,10.73 7.47,23.48 3.09,-4.83 5.95,-10.28 6.63,-13.15 1,-4.27 -1.07,-7.13 -1.07,-8.53 a 1.85,1.85 0 0 1 2,-1.86 c 1.54,-0.02 2.16,1.22 2.16,3.07 z"
         id="path10922" /></g></g></svg>
