<?xml version="1.0" encoding="UTF-8" standalone="no"?>
<svg
   width="160"
   height="100"
   viewBox="0 0 42.333331 26.458334"
   version="1.1"
   id="svg8"
   shape-rendering="crispEdges"
   xml:space="preserve"
   xmlns="http://www.w3.org/2000/svg"
   xmlns:svg="http://www.w3.org/2000/svg"
   xmlns:rdf="http://www.w3.org/1999/02/22-rdf-syntax-ns#"
   xmlns:cc="http://creativecommons.org/ns#"
   xmlns:dc="http://purl.org/dc/elements/1.1/"><defs
     id="defs2" /><metadata
     id="metadata5"><rdf:RDF><cc:Work
         rdf:about=""><dc:format>image/svg+xml</dc:format><dc:type
           rdf:resource="http://purl.org/dc/dcmitype/StillImage" /></cc:Work></rdf:RDF></metadata><g
     id="layer1"
     transform="translate(0,-11.249983)"><path
       style="fill:#000000;stroke-width:0.0411945"
       d="m 8.108175,37.695701 c 0,-0.006 2.44696,-3.35689 5.43769,-7.44457 l 5.4377,-7.43214 v -3.29272 -3.29273 l -1.04018,0.0275 c -1.50969,0.0401 -3.32601,0.10616 -3.48093,0.12646 l -0.13385,0.0177 v -1.76256 c 0,-0.96941 0.0123,-1.89975 0.0259,-2.06744 l 0.0258,-0.30488 1.36454,-0.1363 c 2.61139,-0.26092 8.16281,-0.83146 8.33674,-0.85678 0.21793,-0.0317 0.18806,-0.32804 0.21424,2.12521 l 0.0226,2.12075 1.39926,-1.92509 1.39925,-1.92507 h 3.42566 c 3.193,0 3.68404,0.0108 3.68256,0.0772 -6.1e-4,0.0303 -0.73134,1.03343 -5.97492,8.20287 l -3.93181,5.37588 -0.0206,6.1174 -0.0206,6.1174 -2.64676,0.0108 -2.64674,0.0108 v -2.46054 -2.46053 l -0.0766,0.0812 c -0.0421,0.0446 -0.87824,1.17959 -1.85806,2.52202 l -1.78149,2.44078 h -3.57963 c -1.96879,0 -3.57962,-0.006 -3.57962,-0.0123 z m 8.78807,-3.66181 2.08732,-2.85037 v -3.43181 c 0,-1.88751 -0.009,-3.43183 -0.0203,-3.43183 -0.0249,0 -0.16711,0.1924 -2.38564,3.22875 -4.53534,6.20719 -6.73932,9.24832 -6.73932,9.29919 v 0.0365 h 2.4853 2.4853 z m 8.23544,-11.26789 c 0.39723,-0.53878 2.25406,-3.07434 4.12628,-5.63457 l 3.40405,-4.65499 -2.50203,-0.0108 -2.50203,-0.0108 -0.072,0.0725 c -0.0395,0.0398 -0.79564,1.06372 -1.68014,2.27527 l -1.60818,2.20284 6.1e-4,3.29663 c 3.3e-4,1.81315 0.0123,3.33815 0.0252,3.38887 l 0.0248,0.0921 0.0306,-0.0189 c 0.0168,-0.0108 0.35563,-0.45973 0.75286,-0.99849 z"
       id="path34845" /></g></svg>
