<?xml version="1.0" encoding="UTF-8" standalone="no"?>
<svg
   width="1107.3573"
   height="650.00076"
   viewBox="0 0 29.298828 17.197937"
   version="1.1"
   id="svg8"
   inkscape:export-filename="D:\Drives\OneDrive\PERSONAL\06 PORTAFOLIO\Logos\bitmap.png"
   inkscape:export-xdpi="96"
   inkscape:export-ydpi="96"
   inkscape:version="1.0 (4035a4fb49, 2020-05-01)"
   sodipodi:docname="Logos.svg"
   shape-rendering="crispEdges"
   xmlns:inkscape="http://www.inkscape.org/namespaces/inkscape"
   xmlns:sodipodi="http://sodipodi.sourceforge.net/DTD/sodipodi-0.dtd"
   xmlns="http://www.w3.org/2000/svg"
   xmlns:svg="http://www.w3.org/2000/svg"
   xmlns:rdf="http://www.w3.org/1999/02/22-rdf-syntax-ns#"
   xmlns:cc="http://creativecommons.org/ns#"
   xmlns:dc="http://purl.org/dc/elements/1.1/">
  <defs
     id="defs2" />
  <sodipodi:namedview
     inkscape:pagecheckerboard="true"
     id="base"
     pagecolor="#ffffff"
     bordercolor="#666666"
     borderopacity="1.0"
     inkscape:pageopacity="0.0"
     inkscape:pageshadow="2"
     inkscape:zoom="0.087500001"
     inkscape:cx="446.07182"
     inkscape:cy="-1190.589"
     inkscape:document-units="mm"
     inkscape:current-layer="layer1"
     showgrid="false"
     units="px"
     inkscape:window-width="1920"
     inkscape:window-height="1057"
     inkscape:window-x="1912"
     inkscape:window-y="-8"
     inkscape:window-maximized="1"
     inkscape:document-rotation="0"
     inkscape:showpageshadow="0"
     inkscape:deskcolor="#d1d1d1" />
  <metadata
     id="metadata5">
    <rdf:RDF>
      <cc:Work
         rdf:about="">
        <dc:format>image/svg+xml</dc:format>
        <dc:type
           rdf:resource="http://purl.org/dc/dcmitype/StillImage" />
        <dc:title />
      </cc:Work>
    </rdf:RDF>
  </metadata>
  <g
     inkscape:label="Layer 1"
     inkscape:groupmode="layer"
     id="layer1"
     transform="translate(-535.44851,726.90777)">
    <g
       id="g1330-5-9"
       transform="matrix(0.07255504,0,0,0.07255504,577.70032,-789.63805)"
       inkscape:export-filename="Primavera.svg"
       inkscape:export-xdpi="96"
       inkscape:export-ydpi="96">
      <path
         style="fill:#9eafa6;stroke-width:0.264583"
         d="m -582.24566,1101.2938 c -0.0922,-0.2403 -0.12319,-0.4719 -0.0688,-0.5148 0.0544,-0.043 0.75368,-0.5173 1.55404,-1.0542 0.80036,-0.537 2.88396,-1.9778 4.63021,-3.2017 1.74625,-1.224 4.30609,-3.0035 5.68854,-3.9546 1.38245,-0.9512 3.46604,-2.3927 4.63021,-3.2034 1.16416,-0.8107 2.41432,-1.6767 2.77812,-1.9243 0.3638,-0.2476 1.67845,-1.1649 2.92143,-2.0385 1.24299,-0.8735 2.45265,-1.7073 2.68814,-1.8528 0.2355,-0.1455 1.69611,-1.1575 3.24581,-2.2489 1.5497,-1.0914 4.52767,-3.175 6.6177,-4.6302 2.09004,-1.4553 6.27495,-4.3723 9.2998,-6.4823 3.02486,-2.1101 5.70454,-3.9556 5.95486,-4.1011 0.25033,-0.1455 1.88943,-1.2766 3.64246,-2.5135 1.75303,-1.2369 4.7679,-3.3448 6.69971,-4.684 1.93181,-1.3393 4.46488,-3.1029 5.62905,-3.9192 2.96856,-2.0813 8.68866,-6.029 9.19504,-6.3458 0.2326,-0.1455 1.77121,-1.22 3.41914,-2.3877 1.64793,-1.1677 3.68364,-2.5964 4.52379,-3.175 0.84016,-0.5785 3.10235,-2.1476 5.02709,-3.4869 1.92474,-1.3393 4.63062,-3.2194 6.01306,-4.178 1.38245,-0.9585 4.12089,-2.8643 6.08542,-4.235 1.96453,-1.3707 5.06016,-3.5177 6.87917,-4.7711 1.81901,-1.2534 4.73604,-3.277 6.48229,-4.4968 1.74625,-1.2199 4.30609,-3.002 5.68854,-3.9602 1.38245,-0.9582 4.12089,-2.8637 6.08542,-4.2344 1.96453,-1.3707 5.06015,-3.5177 6.87916,-4.7711 1.81901,-1.2534 4.73604,-3.277 6.48229,-4.4968 1.74625,-1.2199 4.3061,-3.002 5.68855,-3.9602 1.38244,-0.9582 4.12088,-2.86369 6.08541,-4.23442 1.96453,-1.37072 5.06016,-3.5156 6.87917,-4.76639 1.81901,-1.25079 4.73604,-3.27404 6.48229,-4.4961 1.74625,-1.22207 4.30609,-3.00625 5.68854,-3.96486 1.38245,-0.95861 4.12089,-2.86442 6.08542,-4.23515 1.96453,-1.37072 5.06016,-3.5156 6.87917,-4.76639 1.81901,-1.25079 4.73604,-3.27565 6.48229,-4.49969 1.74625,-1.22403 4.78234,-3.32309 6.74687,-4.66457 1.96453,-1.34148 4.28625,-2.94813 5.15938,-3.57033 0.87312,-0.6222 2.54,-1.79058 3.70416,-2.59639 1.16417,-0.80582 3.1287,-2.17184 4.36563,-3.03559 2.84683,-1.98797 7.46745,-5.20488 10.66675,-7.42627 1.36228,-0.94589 4.52531,-3.14855 7.02894,-4.8948 2.50364,-1.74625 6.12452,-4.2709 8.04642,-5.61034 1.92189,-1.33944 4.62544,-3.22376 6.00789,-4.18737 4.24809,-2.96108 9.55109,-6.64659 11.77396,-8.18275 1.16416,-0.80453 2.77151,-1.93088 3.57187,-2.50301 0.80037,-0.57212 2.94349,-2.06991 4.7625,-3.32841 1.81901,-1.2585 4.70186,-3.26176 6.40633,-4.45169 1.70447,-1.18993 5.21682,-3.64234 7.80521,-5.4498 2.58839,-1.80746 5.7182,-3.98729 6.95513,-4.84408 1.23692,-0.85678 3.43958,-2.39078 4.89479,-3.40888 1.45521,-1.0181 3.06255,-2.13561 3.57187,-2.48337 0.50933,-0.34776 1.52136,-1.05837 2.24896,-1.57913 0.72761,-0.52077 1.91823,-1.35159 2.64583,-1.84628 0.72761,-0.49469 2.27542,-1.56833 3.43959,-2.38587 1.16416,-0.81754 2.71198,-1.8891 3.43958,-2.38125 1.18682,-0.80275 2.65536,-1.82567 6.87917,-4.79168 2.59281,-1.82071 8.34723,-5.82299 10.24337,-7.12442 1.0601,-0.72761 3.20722,-2.24251 4.77139,-3.36646 1.56416,-1.12395 3.1715,-2.22775 3.57187,-2.45288 0.40037,-0.22513 1.44233,-0.93551 2.31545,-1.57863 0.87313,-0.64312 2.24234,-1.62178 3.04271,-2.1748 0.80036,-0.55301 2.42927,-1.69124 3.61979,-2.52938 1.19052,-0.83814 2.35138,-1.52389 2.57969,-1.52389 0.22831,0 0.4151,-0.11907 0.4151,-0.26459 0,-0.53377 0.78745,-0.24598 0.90496,0.33073 0.0667,0.32742 0.18094,0.89297 0.25389,1.25677 0.0729,0.36381 0.50731,1.97115 0.96523,3.57188 0.45794,1.60073 0.93408,3.38667 1.05809,3.96875 0.12401,0.58208 0.42064,1.71318 0.65916,2.51354 0.43135,1.44736 1.00044,3.52379 1.45034,5.29167 0.12962,0.50932 0.42077,1.61065 0.64698,2.44739 0.22625,0.83675 0.59645,2.20597 0.8227,3.04271 0.22622,0.83675 0.51737,1.93807 0.64699,2.4474 0.32027,1.25856 0.93146,3.53299 1.42197,5.29166 1.11964,4.01429 1.81211,6.57196 2.00575,7.40834 0.11793,0.50932 0.41646,1.64041 0.66342,2.51354 0.6994,2.4728 1.21052,4.41102 1.43568,5.44435 0.11343,0.52054 0.28761,1.07813 0.38709,1.23909 0.0995,0.16096 0.2866,0.80663 0.41579,1.43482 0.12922,0.62818 0.43871,1.85653 0.68779,2.72966 0.24907,0.87312 0.55305,2.00422 0.6755,2.51354 0.23128,0.96191 1.09165,4.1571 2.10175,7.80521 0.93117,3.36313 1.07606,3.9125 1.29087,4.89479 0.11137,0.50932 0.33351,1.34276 0.49364,1.85208 0.16012,0.50932 0.41259,1.40229 0.56105,1.98438 0.27725,1.0871 0.84939,3.22318 1.48822,5.55625 0.19923,0.7276 0.48536,1.79916 0.63585,2.38125 0.4894,1.89299 1.11596,4.20741 1.46833,5.42396 0.18968,0.65484 0.48512,1.7264 0.65654,2.38125 0.17142,0.65484 0.47466,1.78593 0.67389,2.51354 0.6618,2.41687 1.21518,4.4855 1.48638,5.55625 0.14742,0.58208 0.43106,1.65364 0.63029,2.38125 0.63884,2.33306 1.21097,4.46914 1.48823,5.55625 0.14846,0.58208 0.38576,1.43742 0.52736,1.90075 0.32505,1.06355 1.54761,5.73476 1.8223,6.96279 0.11393,0.50932 0.32549,1.28323 0.47011,1.71979 0.14462,0.43656 0.40314,1.32953 0.57449,1.98438 0.52723,2.01503 1.09611,4.05683 1.40062,5.02708 0.15984,0.50932 0.38074,1.34276 0.49088,1.85208 0.18706,0.865 0.76346,3.06515 1.28233,4.8948 0.1238,0.43656 0.58905,2.16296 1.03392,3.83645 0.44484,1.67349 1.12077,4.17381 1.50209,5.55629 0.38129,1.3824 0.78369,2.9302 0.89421,3.4395 0.11052,0.5094 0.33195,1.3428 0.49207,1.8521 0.16013,0.5094 0.41259,1.4023 0.56105,1.9844 0.27726,1.0871 0.84939,3.2232 1.48823,5.5563 0.19923,0.7276 0.48535,1.7991 0.63585,2.3812 0.15049,0.5821 0.47117,1.7727 0.71265,2.6458 0.24146,0.8732 0.58722,2.1233 0.76833,2.7782 0.1811,0.6548 0.47021,1.7264 0.64243,2.3812 0.17222,0.6549 0.47612,1.786 0.67535,2.5136 0.6618,2.4168 1.21518,4.4855 1.48637,5.5562 0.14743,0.5821 0.42953,1.6537 0.62688,2.3813 0.19735,0.7276 0.48213,1.7991 0.63278,2.3812 0.57224,2.2107 1.1353,4.2757 1.47894,5.424 0.19598,0.6548 0.4985,1.7859 0.67231,2.5135 0.1738,0.7276 0.47358,1.8587 0.66617,2.5135 0.34837,1.1845 0.95162,3.4049 1.47362,5.424 0.15049,0.5821 0.43661,1.6537 0.63585,2.3813 0.6618,2.4168 1.21517,4.4855 1.48637,5.5562 0.273,1.0778 0.88429,3.3297 1.29286,4.7625 0.12446,0.4366 0.41971,1.5677 0.65609,2.5135 0.23638,0.9459 0.54496,2.0911 0.68577,2.5448 0.35603,1.1473 1.56337,5.5958 1.82266,6.7157 0.11793,0.5093 0.41646,1.6404 0.66342,2.5135 0.49564,1.7524 1.10233,3.9985 1.4651,5.424 0.12962,0.5093 0.42942,1.6404 0.66628,2.5135 0.23683,0.8731 0.53887,2.1015 0.67122,2.7297 0.13234,0.6282 0.32202,1.2738 0.42151,1.4348 0.0995,0.1609 0.26971,0.7185 0.37832,1.2391 0.2472,1.1848 1.22558,4.8738 1.61933,6.1058 0.97222,3.0418 0.75769,3.4377 -1.58305,2.9217 -0.83169,-0.1833 -2.03938,-0.499 -2.68375,-0.7015 -0.64439,-0.2025 -1.39594,-0.3681 -1.67008,-0.3681 -0.27416,0 -1.05664,-0.1652 -1.73881,-0.3671 -0.68218,-0.2019 -1.89518,-0.5041 -2.69555,-0.6716 -0.80036,-0.1675 -2.11005,-0.4696 -2.91042,-0.6713 -0.80036,-0.2016 -2.4077,-0.5683 -3.57187,-0.8147 -1.16417,-0.2465 -2.39017,-0.5531 -2.72444,-0.6815 -0.33425,-0.1284 -0.8786,-0.2334 -1.20962,-0.2334 -0.33105,0 -1.12911,-0.1664 -1.77351,-0.3697 -0.64436,-0.2033 -2.1241,-0.5728 -3.28826,-0.8211 -1.16417,-0.2482 -2.47386,-0.5478 -2.91042,-0.6656 -1.35734,-0.3663 -3.39288,-0.8497 -4.49792,-1.0681 -0.58208,-0.1151 -1.83224,-0.4019 -2.77812,-0.6375 -0.94589,-0.2356 -2.19604,-0.5307 -2.77813,-0.6559 -1.01436,-0.2181 -2.76381,-0.6258 -6.48229,-1.5108 -0.94588,-0.2251 -2.19604,-0.5089 -2.77812,-0.6307 -0.58209,-0.1218 -1.83224,-0.408 -2.77813,-0.636 -0.94588,-0.228 -2.19604,-0.5189 -2.77812,-0.6464 -1.03339,-0.2265 -2.76744,-0.6428 -4.63021,-1.1116 -0.50932,-0.1281 -1.75948,-0.4177 -2.77813,-0.6434 -1.01864,-0.2257 -2.50692,-0.575 -3.30729,-0.7762 -0.80036,-0.2012 -2.88396,-0.6822 -4.63021,-1.0689 -1.74625,-0.3867 -3.82984,-0.8684 -4.6302,-1.0705 -0.80037,-0.202 -2.11006,-0.5074 -2.91042,-0.6786 -0.80037,-0.1712 -1.87193,-0.4252 -2.38125,-0.5645 -0.50932,-0.1392 -1.40229,-0.3491 -1.98438,-0.4663 -1.12773,-0.2272 -3.74959,-0.8385 -6.35,-1.4806 -0.87312,-0.2157 -2.12328,-0.505 -2.77812,-0.643 -0.65484,-0.138 -1.96453,-0.4384 -2.91042,-0.6675 -0.94588,-0.2292 -2.27742,-0.5202 -2.95897,-0.6467 -0.68154,-0.1265 -1.47738,-0.3575 -1.76855,-0.5134 -0.29115,-0.1558 -0.88876,-0.2833 -1.32805,-0.2833 -0.43929,0 -1.0722,-0.105 -1.40644,-0.2334 -0.33428,-0.1283 -1.56028,-0.4394 -2.72445,-0.6913 -1.16416,-0.2518 -2.47385,-0.5717 -2.91041,-0.7108 -0.43656,-0.1392 -1.32953,-0.3546 -1.98438,-0.4788 -0.65484,-0.1242 -2.02406,-0.4255 -3.04271,-0.6695 -1.01864,-0.244 -2.32833,-0.5461 -2.91041,-0.6712 -0.58209,-0.1252 -1.83224,-0.4203 -2.77813,-0.6559 -0.94588,-0.2356 -2.19604,-0.5224 -2.77812,-0.6375 -0.58209,-0.115 -1.59412,-0.3437 -2.24896,-0.5082 -0.65484,-0.1644 -2.50031,-0.6019 -4.10104,-0.9721 -1.60073,-0.3702 -3.56526,-0.8366 -4.36563,-1.0364 -0.80036,-0.1998 -2.88395,-0.6802 -4.6302,-1.0675 -1.74625,-0.3873 -3.77032,-0.8672 -4.49792,-1.0664 -0.72761,-0.1993 -2.03729,-0.5002 -2.91042,-0.6688 -0.87312,-0.1685 -2.18281,-0.4594 -2.91041,-0.6464 -2.59509,-0.667 -3.98381,-0.9999 -5.02709,-1.2052 -0.58208,-0.1145 -1.89177,-0.4073 -2.91041,-0.6506 -1.01865,-0.2433 -2.26881,-0.5399 -2.77813,-0.6591 -0.50932,-0.1192 -1.75948,-0.4154 -2.77812,-0.6581 -1.01865,-0.2428 -2.41731,-0.544 -3.10814,-0.6694 -0.69083,-0.1253 -1.37576,-0.3019 -1.52207,-0.3923 -0.14631,-0.091 -0.83124,-0.2692 -1.52207,-0.3972 -0.69083,-0.128 -2.02996,-0.426 -2.97585,-0.6622 -0.94588,-0.2362 -2.19604,-0.5254 -2.77812,-0.6425 -0.58209,-0.1172 -1.65365,-0.3598 -2.38125,-0.5392 -1.54599,-0.3811 -2.49779,-0.6069 -5.02709,-1.1926 -1.01864,-0.2358 -2.50692,-0.5931 -3.30729,-0.7939 -0.80036,-0.2008 -2.16958,-0.5055 -3.04271,-0.6772 -0.87312,-0.1716 -2.11472,-0.4777 -2.75911,-0.6802 -0.64439,-0.2025 -1.39592,-0.3682 -1.67008,-0.3682 -0.27415,0 -1.05661,-0.1651 -1.7388,-0.367 -0.68219,-0.2019 -1.89518,-0.5041 -2.69555,-0.6716 -0.80036,-0.1675 -2.11005,-0.4682 -2.91042,-0.6682 -4.42827,-1.1066 -4.03839,-1.1066 -8.46666,0 -0.80037,0.2 -2.11005,0.5017 -2.91042,0.6705 -0.80036,0.1688 -2.05052,0.4605 -2.77812,0.6483 -0.72761,0.1878 -2.27542,0.5445 -3.43959,0.7928 -1.16416,0.2482 -2.39015,0.5564 -2.72442,0.6848 -0.33427,0.1283 -0.92959,0.2328 -1.32292,0.2321 -0.39334,-8e-4 -1.25094,0.1702 -1.90578,0.38 -0.65484,0.2097 -2.61938,0.6966 -4.36563,1.0819 -1.74625,0.3853 -3.82984,0.8652 -4.6302,1.0663 -1.6377,0.4117 -4.50086,1.0623 -6.4823,1.4729 -0.7276,0.1507 -1.68297,0.382 -2.12304,0.5139 -0.44007,0.1319 -1.39257,0.3608 -2.11667,0.5086 -0.72409,0.1478 -2.09044,0.4551 -3.03633,0.6828 -0.94588,0.2277 -2.19604,0.5098 -2.77812,0.627 -0.58209,0.1171 -1.65365,0.3597 -2.38125,0.5391 -2.27545,0.561 -3.11507,0.7579 -5.15938,1.2103 -1.0914,0.2415 -2.57968,0.5931 -3.30729,0.7812 -0.7276,0.1882 -2.03729,0.4801 -2.91042,0.6486 -0.87312,0.1686 -2.18281,0.4705 -2.91041,0.6709 -0.72761,0.2004 -2.27542,0.5635 -3.43959,0.807 -1.16416,0.2434 -2.47385,0.5389 -2.91041,0.6567 -1.36698,0.3689 -3.39675,0.8505 -4.49792,1.0672 -0.58208,0.1145 -1.89177,0.4079 -2.91041,0.6519 -1.01865,0.2441 -2.41731,0.5442 -3.10814,0.667 -0.69083,0.1229 -1.37576,0.2973 -1.52207,0.3878 -0.14631,0.09 -0.83124,0.2674 -1.52207,0.3933 -0.69083,0.1259 -2.02996,0.4212 -2.97585,0.6562 -0.94589,0.235 -2.19604,0.5296 -2.77812,0.6548 -0.58209,0.1251 -1.89178,0.4276 -2.91042,0.6723 -1.01865,0.2446 -2.32833,0.5353 -2.91042,0.6461 -0.58208,0.1108 -1.53458,0.3286 -2.11666,0.4841 -0.58209,0.1554 -1.95131,0.4786 -3.04271,0.7182 -2.03133,0.4459 -2.84577,0.6364 -5.15938,1.2068 -0.7276,0.1794 -1.79916,0.422 -2.38125,0.5392 -0.58208,0.1171 -1.83224,0.4009 -2.77812,0.6306 -0.94589,0.2297 -2.25558,0.5306 -2.91042,0.6687 -1.11638,0.2354 -2.08677,0.4603 -6.35,1.4714 -0.94588,0.2244 -2.19604,0.5103 -2.77812,0.6355 -0.58209,0.1251 -1.89177,0.4277 -2.91042,0.6723 -1.01865,0.2446 -2.32833,0.5384 -2.91042,0.6529 -1.10117,0.2167 -3.13094,0.6983 -4.49791,1.0672 -0.43657,0.1178 -1.74625,0.4129 -2.91042,0.6557 -1.16417,0.2428 -2.77151,0.6083 -3.57188,0.8123 -0.80036,0.2039 -2.28864,0.5555 -3.30729,0.7812 -1.01864,0.2257 -2.2688,0.5225 -2.77812,0.6594 -0.50932,0.137 -1.28323,0.3048 -1.71979,0.3731 -0.43657,0.068 -1.32953,0.2637 -1.98438,0.4344 -1.67437,0.4365 -2.74874,0.6911 -5.02708,1.1914 -1.09141,0.2397 -2.63922,0.5967 -3.43958,0.7933 -0.80037,0.1966 -1.99099,0.4759 -2.64584,0.6207 -4.1499,0.9176 -5.30081,1.1817 -6.48229,1.4873 -0.7276,0.1881 -2.03729,0.4861 -2.91042,0.6622 -0.87312,0.176 -2.18281,0.474 -2.91041,0.6622 -0.72761,0.1882 -2.21589,0.5397 -3.30729,0.7812 -2.04431,0.4524 -2.88394,0.6494 -5.15938,1.2103 -0.7276,0.1794 -1.79917,0.4199 -2.38125,0.5344 -0.58208,0.1145 -1.89177,0.4084 -2.91042,0.653 -1.01864,0.2446 -2.32833,0.5472 -2.91041,0.6724 -0.98682,0.2123 -1.69781,0.3781 -6.21771,1.4501 -0.94589,0.2244 -2.19604,0.5103 -2.77813,0.6355 -0.58208,0.1251 -1.89177,0.4297 -2.91041,0.6769 -3.03644,0.7368 -3.54487,0.7751 -3.73417,0.2818 z"
         id="path1344-3-1"
         inkscape:connector-curvature="0" />
      <path
         style="fill:#749987;stroke-width:0.264583"
         d="m -581.81878,1101.2183 c 0,-0.2883 1.95348,-1.6868 15.21354,-10.8911 5.23875,-3.6364 9.88218,-6.868 10.31875,-7.1815 0.43656,-0.3134 2.81781,-1.9699 5.29166,-3.6812 9.48476,-6.5611 19.08449,-13.2333 19.88637,-13.8219 0.46,-0.3377 2.60313,-1.8261 4.7625,-3.3077 2.15937,-1.4816 6.27881,-4.3391 9.15431,-6.35 2.87549,-2.0109 6.74502,-4.7067 8.59895,-5.9905 1.85394,-1.2839 7.29985,-5.071 12.10204,-8.4158 4.80219,-3.3448 9.68375,-6.7362 10.84792,-7.5364 4.34241,-2.9847 13.41184,-9.279 20.70914,-14.3724 1.78565,-1.2464 4.76221,-3.3172 6.61458,-4.6019 1.85237,-1.2847 6.10638,-4.2374 9.45336,-6.5616 3.34698,-2.3242 7.49168,-5.2021 9.21045,-6.3955 1.71877,-1.1933 4.75486,-3.30678 6.74687,-4.69666 1.99202,-1.38988 6.00309,-4.17769 8.91351,-6.19515 8.52935,-5.91241 12.36847,-8.57934 16.22142,-11.26858 1.99228,-1.39054 6.18217,-4.30095 9.31087,-6.46756 3.1287,-2.1666 7.31792,-5.07701 9.30937,-6.46756 1.99146,-1.39055 4.58404,-3.18311 5.76128,-3.98348 2.20207,-1.49709 5.50521,-3.79298 16.59965,-11.53778 3.52142,-2.45823 8.37583,-5.83873 10.78756,-7.51222 2.41174,-1.67349 5.14107,-3.57849 6.06519,-4.23333 0.92412,-0.65484 3.45159,-2.41898 5.6166,-3.92031 8.27553,-5.73864 16.40554,-11.40468 17.21564,-11.99806 0.46411,-0.33995 2.99961,-2.10637 5.63444,-3.92538 2.63483,-1.81901 6.92168,-4.79557 9.5264,-6.61459 2.60469,-1.81901 6.70954,-4.67651 9.12188,-6.35 2.41234,-1.67349 5.14218,-3.57849 6.06629,-4.23333 0.92411,-0.65484 3.48379,-2.44078 5.68814,-3.96875 3.80767,-2.63931 14.14767,-9.84744 16.69714,-11.63977 0.65485,-0.46037 5.47688,-3.81997 10.71563,-7.46579 5.23875,-3.64582 11.78718,-8.20807 14.55208,-10.13833 4.19875,-2.93129 6.79495,-4.62488 7.08565,-4.62225 0.032,2.9e-4 0.0834,0.36187 0.11435,0.80351 0.031,0.44163 0.5371,2.55476 1.1248,4.69582 1.52416,5.55268 1.78104,6.5013 2.52312,9.31681 0.36435,1.38245 0.84153,3.16839 1.06037,3.96875 0.21886,0.80037 0.87315,3.24115 1.45399,5.42396 0.58084,2.18281 1.1729,4.38547 1.31569,4.89479 0.1428,0.50932 0.73859,2.71198 1.32398,4.89479 0.58536,2.18282 1.24253,4.6236 1.46036,5.42396 0.21781,0.80037 0.69417,2.5863 1.05852,3.96875 0.36436,1.38245 0.84109,3.16839 1.05937,3.96875 0.21828,0.80037 0.99171,3.65787 1.71876,6.35 0.72705,2.69214 1.5014,5.54964 1.72082,6.35 0.21939,0.80037 0.8585,3.18162 1.42018,5.29167 2.13781,8.0309 3.79479,14.20379 4.15475,15.47812 0.44326,1.56909 1.9885,7.33736 3.54391,13.22917 0.61465,2.32833 1.27251,4.76912 1.46188,5.42396 0.18938,0.65484 0.95181,3.45281 1.69428,6.21771 0.74247,2.76489 1.77424,6.57489 2.2928,8.46666 0.51856,1.89178 1.22193,4.51115 1.56303,5.82084 0.34112,1.30969 0.92715,3.51234 1.30228,4.89479 1.18329,4.36093 2.99712,11.11377 3.69548,13.75837 0.93975,3.5587 1.88865,7.0783 3.06732,11.377 0.69823,2.5467 1.77538,6.5353 2.39363,8.8636 1.31315,4.9452 3.85961,14.4052 4.23765,15.7427 0.29667,1.0496 1.77167,6.5675 3.43021,12.8323 0.6164,2.3283 1.28789,4.8286 1.49217,5.5562 0.20429,0.7276 0.9651,3.5256 1.69064,6.2177 0.72557,2.6922 1.49778,5.5497 1.71606,6.35 0.21828,0.8004 0.69501,2.5864 1.05937,3.9688 0.36435,1.3824 0.84153,3.1684 1.06037,3.9687 0.21886,0.8004 0.87315,3.2412 1.45399,5.424 0.58084,2.1828 1.1729,4.3855 1.31569,4.8948 0.1428,0.5093 0.73737,2.712 1.32128,4.8948 0.58388,2.1828 1.24129,4.5745 1.46087,5.3149 0.67609,2.2796 0.4849,2.715 -0.99134,2.2574 -0.4721,-0.1463 -1.6918,-0.4586 -2.71045,-0.6938 -2.8806,-0.6653 -3.75732,-0.8687 -6.87916,-1.5959 -1.60073,-0.3729 -3.92245,-0.9121 -5.15938,-1.1982 -1.23693,-0.2862 -2.72521,-0.6344 -3.30729,-0.7738 -0.58208,-0.1395 -2.30849,-0.5423 -3.83646,-0.8951 -3.58717,-0.8284 -7.73028,-1.7925 -12.03854,-2.8014 -1.89177,-0.443 -4.74927,-1.108 -6.35,-1.4777 -1.60073,-0.3698 -3.62479,-0.8419 -4.49792,-1.0492 -0.87312,-0.2073 -2.3614,-0.5532 -3.30729,-0.7686 -0.94588,-0.2155 -2.96995,-0.6875 -4.49792,-1.049 -3.52655,-0.8343 -8.08164,-1.8968 -11.64166,-2.7155 -1.52797,-0.3514 -3.52227,-0.8141 -4.43177,-1.0282 -0.90951,-0.2142 -2.39779,-0.5647 -3.30729,-0.7788 -0.90951,-0.2142 -2.72521,-0.6366 -4.0349,-0.9387 -1.30969,-0.3021 -3.09562,-0.718 -3.96875,-0.9242 -2.51566,-0.5941 -8.20364,-1.921 -11.37708,-2.6541 -1.60073,-0.3697 -3.62479,-0.8425 -4.49792,-1.0505 -0.87312,-0.208 -2.83766,-0.6665 -4.36562,-1.0189 -2.57546,-0.5939 -9.33236,-2.1629 -14.48594,-3.3636 -1.20055,-0.2797 -3.22461,-0.7508 -4.49792,-1.0468 -1.2733,-0.2961 -2.79135,-0.6516 -3.37344,-0.7901 -1.22166,-0.2906 -5.85745,-1.3713 -9.12812,-2.1279 -1.23693,-0.2861 -2.72521,-0.6305 -3.30729,-0.7652 -0.58208,-0.1347 -1.83224,-0.4272 -2.77813,-0.6501 -0.94588,-0.2228 -2.79135,-0.6523 -4.10104,-0.9544 -1.30969,-0.3022 -3.09562,-0.7181 -3.96875,-0.9243 -2.51566,-0.5941 -8.20363,-1.921 -11.37708,-2.654 -1.60073,-0.3698 -3.62479,-0.843 -4.49792,-1.0517 -0.87312,-0.2087 -2.89718,-0.6799 -4.49791,-1.0472 -1.60073,-0.3672 -4.63683,-1.0774 -6.74688,-1.5781 -3.85488,-0.9148 -12.44559,-2.9108 -14.41979,-3.3504 -4.99009,-1.111 -10.13905,-2.3489 -10.77246,-2.5897 -0.44585,-0.1695 -2.32071,0.1567 -6.82734,1.1877 -7.73441,1.7696 -11.54044,2.6478 -13.75332,3.1734 -2.93361,0.6969 -4.78296,1.1283 -7.9375,1.8518 -1.67349,0.3837 -4.23334,0.9725 -5.68855,1.3082 -6.10565,1.4087 -8.82809,2.0351 -10.45104,2.4047 -0.94588,0.2155 -2.43416,0.5602 -3.30729,0.7661 -0.87312,0.2059 -2.42094,0.5599 -3.43958,0.7867 -1.88665,0.4201 -3.44365,0.7731 -4.63021,1.0498 -0.3638,0.085 -3.51896,0.8188 -7.01146,1.6309 -5.83259,1.3564 -7.94779,1.8445 -10.84791,2.5034 -2.04801,0.4653 -4.30546,0.9866 -11.90625,2.7496 -6.86878,1.5931 -8.79555,2.0379 -12.03855,2.7789 -5.13905,1.1743 -6.1776,1.4139 -15.47812,3.5711 -7.09719,1.6461 -9.38177,2.173 -12.17083,2.8066 -2.04801,0.4654 -4.30545,0.9867 -11.90625,2.7496 -6.86878,1.5932 -8.79555,2.038 -12.03854,2.779 -0.50933,0.1164 -1.81902,0.4163 -2.91042,0.6665 -1.09141,0.2503 -2.4011,0.5476 -2.91042,0.6607 -0.50932,0.1132 -3.84307,0.8862 -7.40833,1.7179 -5.78001,1.3483 -7.39534,1.7222 -10.84792,2.5111 -3.02328,0.6908 -5.0826,1.164 -6.48229,1.4895 -0.87312,0.2031 -2.06375,0.4736 -2.64583,0.6011 -0.58209,0.1276 -3.97537,0.9143 -7.54063,1.7483 -3.56526,0.834 -6.95854,1.6177 -7.54062,1.7415 -1.94911,0.4146 -4.49209,1.0075 -5.09323,1.1874 -0.32742,0.098 -0.59531,0.065 -0.59531,-0.074 z"
         id="path1342-5-3"
         inkscape:connector-curvature="0" />
      <path
         style="fill:#3e986d;stroke-width:0.264583"
         d="m -179.73338,1100.9749 c -0.098,-0.098 -0.6854,-0.2623 -1.30527,-0.365 -0.61986,-0.1028 -3.27014,-0.6944 -5.88952,-1.3148 -5.09055,-1.2057 -7.22884,-1.7011 -9.12812,-2.1148 -0.65485,-0.1427 -3.21469,-0.7387 -5.68854,-1.3244 -5.35382,-1.2678 -16.81443,-3.9467 -18.12396,-4.2366 -1.13663,-0.2516 -12.00989,-2.7905 -18.12396,-4.2319 -4.07606,-0.9609 -6.49798,-1.5202 -9.12812,-2.1078 -0.50933,-0.1138 -3.06917,-0.7135 -5.68855,-1.3326 -4.71871,-1.1154 -6.95113,-1.6341 -8.99583,-2.0903 -0.58208,-0.1299 -2.66568,-0.6185 -4.63021,-1.0859 -1.96453,-0.4673 -3.98859,-0.9407 -4.49791,-1.0519 -0.50933,-0.1113 -3.84308,-0.8878 -7.40834,-1.7256 -3.56526,-0.8378 -6.89901,-1.6141 -7.40833,-1.7251 -1.48664,-0.324 -10.11589,-2.3277 -14.2875,-3.3177 -2.11005,-0.5007 -5.14615,-1.2108 -6.74687,-1.5781 -1.60073,-0.3672 -3.6248,-0.8384 -4.49792,-1.0471 -0.87313,-0.2087 -2.89719,-0.6821 -4.49792,-1.0521 -1.60073,-0.3699 -4.69635,-1.0979 -6.87916,-1.6176 -2.18282,-0.5198 -4.445,-1.0431 -5.02709,-1.163 -0.58208,-0.1198 -2.66567,-0.6003 -4.63021,-1.0676 -1.96453,-0.4674 -3.98859,-0.9407 -4.49791,-1.052 -0.50933,-0.1112 -3.84308,-0.8877 -7.40834,-1.7256 -3.56526,-0.8378 -6.89901,-1.6143 -7.40833,-1.7255 -0.50932,-0.1113 -2.53338,-0.5847 -4.49792,-1.052 -1.96453,-0.4674 -4.04812,-0.9478 -4.6302,-1.0677 -0.58209,-0.1198 -2.78474,-0.6295 -4.8948,-1.1326 -2.11005,-0.5031 -5.2652,-1.2362 -7.01145,-1.6292 -1.74625,-0.3931 -3.85047,-0.9282 -4.67604,-1.1892 -1.07455,-0.3397 -1.78872,-0.4152 -2.51354,-0.2657 -1.29529,0.2672 -2.48496,0.5398 -13.8448,3.1725 -5.16599,1.1973 -9.80942,2.2704 -10.31875,2.3847 -2.22369,0.4992 -18.84675,4.3215 -22.48958,5.1714 -1.52797,0.3564 -3.28414,0.7654 -3.9026,0.9089 -0.61847,0.1435 -1.6305,0.3783 -2.24896,0.5218 -0.61847,0.1435 -2.43417,0.5686 -4.0349,0.9446 -1.60073,0.3761 -3.38667,0.7794 -3.96875,0.8964 -0.92757,0.1862 -3.29626,0.731 -12.83229,2.9513 -1.23693,0.288 -2.72521,0.6364 -3.30729,0.7742 -4.25283,1.007 -7.03237,1.6495 -7.9375,1.8349 -0.58208,0.1192 -3.97537,0.8969 -7.54063,1.7283 -5.78047,1.3479 -7.40294,1.7234 -10.84791,2.5105 -0.50933,0.1164 -1.81901,0.4164 -2.91042,0.6666 -1.09141,0.2502 -2.40109,0.5479 -2.91042,0.6614 -0.50932,0.1135 -4.61697,1.0658 -9.12812,2.1162 -4.51115,1.0503 -8.67833,2.0076 -9.26042,2.1273 -0.58208,0.1197 -2.60614,0.5914 -4.49791,1.0482 -1.89177,0.4569 -3.91584,0.9271 -4.49792,1.045 -1.42488,0.2886 -15.57968,3.5537 -19.71146,4.5469 -1.81901,0.4373 -3.78354,0.8915 -4.36562,1.0094 -0.58209,0.1179 -5.28505,1.1963 -10.45104,2.3964 -10.61705,2.4665 -11.22946,2.6077 -16.40417,3.7809 -0.94589,0.2145 -3.5619,0.8224 -5.81337,1.3509 -2.25147,0.5285 -4.75178,1.026 -5.55625,1.1055 l -1.46267,0.1445 0.92604,-0.8193 c 0.50932,-0.4507 2.50629,-1.9168 4.43771,-3.258 1.93142,-1.3413 6.0707,-4.2246 9.1984,-6.4074 5.21766,-3.6414 12.97725,-9.0248 18.05161,-12.5237 1.12566,-0.7762 4.46714,-3.0979 7.42552,-5.1594 5.77488,-4.0241 10.23686,-7.1269 15.59696,-10.846 1.85121,-1.2845 5.92568,-4.1147 9.05438,-6.2895 3.1287,-2.1747 7.27364,-5.0528 9.21097,-6.3958 1.93734,-1.343 5.05967,-3.5134 6.93853,-4.8231 1.87885,-1.3097 5.64607,-3.929 8.3716,-5.8208 4.54266,-3.153 7.80672,-5.4213 17.81223,-12.3782 1.96454,-1.366 5.95313,-4.1342 8.86355,-6.1517 2.91041,-2.0175 6.92171,-4.8053 8.91399,-6.1951 3.89419,-2.7168 7.86362,-5.4739 16.22142,-11.2674 2.91042,-2.0175 6.92172,-4.80527 8.914,-6.19515 3.89419,-2.7167 7.86361,-5.47385 16.22142,-11.26735 2.91041,-2.01745 6.92149,-4.80527 8.91351,-6.19515 4.26833,-2.97812 7.98735,-5.55997 15.03128,-10.43515 10.11137,-6.99818 11.18619,-7.74432 16.24048,-11.27419 2.81294,-1.96453 7.51502,-5.23875 10.44906,-7.27604 2.93404,-2.03729 7.98161,-5.55436 11.21681,-7.81572 3.23521,-2.26135 7.92924,-5.53557 10.43119,-7.27604 10.43932,-7.26207 18.43739,-12.8327 22.04162,-15.35188 3.19813,-2.23534 15.75917,-10.98516 33.86667,-23.59095 9.66864,-6.73097 15.4409,-10.75202 18.73557,-13.05149 5.53715,-3.86461 16.15667,-11.25869 20.27322,-14.11569 2.02779,-1.40736 3.86905,-2.52375 4.09165,-2.48088 0.22262,0.0429 0.49868,0.43432 0.61351,0.86988 0.11481,0.43557 0.9674,3.5899 1.89461,7.00964 0.9272,3.41974 2.19215,8.12271 2.81093,10.45105 1.46412,5.50891 2.70536,10.13534 4.89807,18.25625 1.94064,7.18732 3.14936,11.70205 4.88776,18.25625 0.61753,2.32833 1.39176,5.18583 1.72047,6.35 0.70454,2.49511 1.21579,4.37836 2.119,7.80521 0.36436,1.38244 0.84061,3.16838 1.05833,3.96875 0.21773,0.80036 0.69398,2.5863 1.05834,3.96875 0.36435,1.38244 0.84261,3.16838 1.0628,3.96875 0.22016,0.80036 0.9937,3.65786 1.71895,6.35 0.72525,2.69213 1.49714,5.54963 1.71532,6.35 0.21817,0.80036 0.69482,2.5863 1.05918,3.96875 0.36435,1.38244 0.84153,3.16838 1.06037,3.96875 0.21886,0.80036 0.85902,3.18161 1.42261,5.29166 2.5518,9.55396 3.81508,14.24446 4.13303,15.34584 0.18904,0.65484 0.66466,2.44078 1.0569,3.96875 0.39225,1.52797 0.86868,3.3139 1.05871,3.96875 0.19005,0.65484 0.84955,3.09562 1.46558,5.42395 1.04055,3.9329 3.16634,11.8372 4.09151,15.2135 0.21929,0.8004 0.85911,3.1817 1.42177,5.2917 0.56266,2.1101 1.82671,6.813 2.809,10.4511 2.06327,7.6415 3.31526,12.3106 4.89529,18.2562 0.61876,2.3283 1.69694,6.3169 2.39596,8.8635 0.69901,2.5467 1.71228,6.2971 2.25169,8.3344 0.5394,2.0373 1.2514,4.7162 1.58218,5.9531 0.33078,1.237 0.91929,3.4396 1.30778,4.8948 0.66461,2.4895 1.14245,4.2504 2.26163,8.3344 0.6485,2.3665 2.18647,8.0972 3.33158,12.4139 0.3429,1.2928 0.21638,2.1672 -0.24664,1.7042 z"
         id="path1340-8-5"
         inkscape:connector-curvature="0" />
      <path
         style="fill:#1d6a46;stroke-width:0.264583"
         d="m -180.31358,1100.4496 c -65.92351,-15.1478 -131.87066,-30.385 -197.63811,-46.1274 25.49985,-11.6899 52.32963,-21.5657 77.44839,-33.4764 -12.0316,-8.2517 -24.07032,-17.0032 -36.83754,-24.08026 -14.53597,18.70216 -27.70753,38.77136 -42.23624,57.54756 -66.70543,15.0681 -133.21627,31.084 -199.99275,45.7936 110.82988,-77.7162 222.33535,-154.519 333.31549,-232.04065 9.08056,-2.43622 7.27017,21.15784 12.05337,28.70847 18.15218,67.92613 36.83328,135.70538 54.81343,203.67838 h -0.92604 z"
         id="path1338-0-9"
         inkscape:connector-curvature="0" />
      <path
         inkscape:connector-curvature="0"
         style="fill:#05643a;stroke-width:0.264583"
         d="m -181.37192,1099.1681 c -39.04536,-25.6975 -77.98692,-51.6422 -117.01015,-77.4169 -8.19075,-6.4259 -18.24331,-12.0746 -27.1037,-18.3043 -6.45167,-5.90448 -13.5148,-9.85176 -21.09699,-3.3734 -76.77722,32.6461 -153.04526,65.8459 -229.91527,98.3612 62.95722,-44.8264 127.09934,-88.3179 190.3861,-132.80818 47.16404,-32.20598 93.74981,-65.62996 141.01991,-97.75613 -30.06484,42.89025 -61.65405,84.85145 -91.75258,127.70199 11.11266,-13.46733 21.6695,-29.57297 32.57373,-44.11274 20.54633,-28.17309 40.65568,-56.75189 61.43323,-84.67544 10.86623,38.53625 20.91125,77.38608 31.38947,116.0755 1.13743,5.47605 6.6643,22.338 8.77931,31.8982 7.46508,28.3262 15.45491,56.5436 22.65756,84.9143 z"
         id="path1416-6-1" />
      <path
         inkscape:connector-curvature="0"
         style="fill:#05643a;stroke-width:0.264583"
         d="m -297.25942,1020.1818 c 4.48946,-1.5576 16.85581,-7.7878 6.08542,-3.4396 -1.02823,0.7648 -9.98974,3.581 -6.08542,3.4396 z"
         id="path1414-0-5" />
      <path
         inkscape:connector-curvature="0"
         style="fill:#05643a;stroke-width:0.264583"
         d="m -283.2111,1014.2287 c 8.36833,-3.9914 -7.30359,1.844 0,0 z"
         id="path1412-5-3" />
      <path
         inkscape:connector-curvature="0"
         style="fill:#05643a;stroke-width:0.264583"
         d="m -278.18402,1012.112 c 13.14395,-5.2922 -5.40268,0 0,1e-4 z"
         id="path1410-7-8" />
      <path
         inkscape:connector-curvature="0"
         style="fill:#05643a;stroke-width:0.264583"
         d="m -270.11287,1008.7165 c 10.38478,-4.5765 -7.92072,1.7616 0,0 z"
         id="path1408-8-40" />
      <path
         inkscape:connector-curvature="0"
         style="fill:#05643a;stroke-width:0.264583"
         d="m -264.98025,1006.5499 c 5.40842,-2.1798 -0.88321,-1.3581 -2.24896,0.2988 l 0.56208,0.3292 z"
         id="path1406-5-1" />
      <path
         inkscape:connector-curvature="0"
         style="fill:#05643a;stroke-width:0.264583"
         d="m -261.0115,1004.836 c 3.55516,-1.3445 17.43601,-7.61123 7.01146,-3.8365 -1.1327,1.0054 -10.46776,3.5354 -7.01146,3.8365 z"
         id="path1404-9-5" />
      <path
         inkscape:connector-curvature="0"
         style="fill:#05643a;stroke-width:0.264583"
         d="m -247.71259,999.29255 c 9.31757,-3.62572 -5.00665,-0.52758 0,0 z"
         id="path1402-2-6" />
      <path
         inkscape:connector-curvature="0"
         style="fill:#05643a;stroke-width:0.264583"
         d="m -241.9361,996.76619 c 9.08535,-3.28 12.93798,-6.94671 2.13778,-1.59949 -1.65855,0.0279 -6.97551,3.3081 -2.13778,1.59949 z"
         id="path1400-7-58" />
      <path
         inkscape:connector-curvature="0"
         style="fill:#05643a;stroke-width:0.264583"
         d="m -228.83788,991.25401 c 7.67184,-3.72688 -6.68959,1.23603 0,0 z"
         id="path1398-0-7" />
      <path
         inkscape:connector-curvature="0"
         style="fill:#05643a;stroke-width:0.264583"
         d="m -223.74679,989.12887 c 15.29468,-6.10515 -5.42076,0.0478 0,0 z"
         id="path1396-7-1" />
      <path
         inkscape:connector-curvature="0"
         style="fill:#05643a;stroke-width:0.264583"
         d="m -215.44424,985.63125 c 10.12579,-5.11886 -8.20494,2.17917 0,0 z"
         id="path1394-7-6" />
      <path
         inkscape:connector-curvature="0"
         style="fill:#05643a;stroke-width:0.264583"
         d="m -184.41463,1099.3081 c -63.91879,-15.0046 -127.90583,-29.8492 -191.84543,-44.7302 7.84475,-4.9371 18.26906,-7.8425 27.02098,-12.1711 16.49007,-6.5761 32.61345,-14.2394 49.21241,-20.4376 39.33523,25.4087 78.26227,51.3505 117.11858,77.4694 l -0.4482,0.1031 z"
         id="path1392-3-9" />
      <path
         inkscape:connector-curvature="0"
         style="fill:#05643a;stroke-width:0.264583"
         d="m -574.14587,1098.4985 c 1.44608,-0.9687 0.98439,0.9936 0,0 z"
         id="path1390-6-2" />
      <path
         style="fill:#05643a;stroke-width:0.264583"
         d="m -572.55837,1097.837 c 72.12448,-30.9995 144.29373,-61.8947 216.42916,-92.8687 4.03589,0.2094 14.08946,-9.57292 14.32117,-3.4478 -12.6232,17.4568 -25.121,35.0054 -37.94854,52.3135 -64.29619,14.8293 -128.51451,30.0016 -192.92562,44.3282 z"
         id="path1336-9-2"
         inkscape:connector-curvature="0" />
      <path
         style="fill:#134123;stroke-width:0.264583"
         d="m -181.37192,1099.1681 c -39.15288,-25.9821 -78.68599,-51.6985 -117.52117,-78.071 29.1387,-12.7364 58.51238,-25.09839 87.93525,-37.18661 10.23044,38.60761 20.96865,77.11391 30.94654,115.76171 z m -395.1922,-1.0219 c 110.05056,-76.7347 220.31018,-152.96993 330.32938,-229.72683 -3.55442,8.46884 -16.76031,23.60101 -23.87388,34.47801 -22.42193,31.0233 -44.89715,62.05647 -67.28805,93.09564 -79.68037,34.28768 -159.15709,68.37658 -238.97946,102.49448 l -0.30913,-0.04 z"
         id="path1334-8-5"
         inkscape:connector-curvature="0" />
      <path
         style="fill:#133920;stroke-width:0.264583"
         d="m -572.24436,1095.4999 c 62.27588,-43.3215 124.57601,-86.6568 186.97288,-129.85512 15.4837,9.71142 30.64185,20.0952 45.8969,30.23965 -6.7513,3.91174 -14.77788,6.54657 -22.04629,9.91627 -53.66539,23.0196 -107.25716,45.9745 -160.86666,69.0176 -17.0822,7.1665 -34.13339,14.8262 -51.18541,21.7597 z"
         id="path1332-8-9"
         inkscape:connector-curvature="0" />
    </g>
  </g>
</svg>
