<?xml version="1.0" encoding="UTF-8" standalone="no"?>
<svg
   width="501.5279"
   height="630.81474"
   viewBox="0 0 13.269592 16.690307"
   version="1.1"
   id="svg8"
   shape-rendering="crispEdges"
   xml:space="preserve"
   xmlns="http://www.w3.org/2000/svg"
   xmlns:svg="http://www.w3.org/2000/svg"
   xmlns:rdf="http://www.w3.org/1999/02/22-rdf-syntax-ns#"
   xmlns:cc="http://creativecommons.org/ns#"
   xmlns:dc="http://purl.org/dc/elements/1.1/"><defs
     id="defs2" /><metadata
     id="metadata5"><rdf:RDF><cc:Work
         rdf:about=""><dc:format>image/svg+xml</dc:format><dc:type
           rdf:resource="http://purl.org/dc/dcmitype/StillImage" /><dc:title /></cc:Work></rdf:RDF></metadata><g
     id="layer1"
     transform="translate(-529.37581,657.6314)"><path
       style="fill:#191c1f;fill-opacity:1;stroke-width:0.0260187"
       d="m 534.2413,-640.9555 c -0.41764,-0.0458 -0.43466,-0.0643 -1.17924,-1.28288 -1.25356,-2.05138 -2.80357,-4.83184 -3.34769,-6.00518 -0.24214,-0.52216 -0.33858,-0.79997 -0.33858,-0.97539 0,-0.42076 0.69153,-1.83544 2.25718,-4.61755 0.92802,-1.64907 2.03438,-3.51062 2.17568,-3.6608 0.0905,-0.0962 2.19879,-0.17174 3.1791,-0.114 0.85538,0.0504 1.06557,0.0947 1.22577,0.25825 0.48389,0.49408 3.12302,5.15663 4.08911,7.22423 0.27327,0.58483 0.34273,0.76428 0.34273,0.88543 0,0.14087 -0.15836,0.50444 -0.61164,1.40422 -1.28422,2.54928 -3.36806,6.18308 -3.82727,6.67402 -0.21121,0.22579 -0.13396,0.21755 -2.09181,0.22327 -0.93732,0.003 -1.78032,-0.003 -1.87334,-0.0136 z m 0.42686,-0.94589 c 0.46108,-0.7912 1.18204,-2.12488 1.98612,-3.67415 0.51208,-0.98663 1.82807,-3.62277 1.82812,-3.66204 2e-4,-0.0925 -0.31088,-0.74242 -1.25185,-2.61588 l -1.03611,-2.06289 0.16594,-0.38287 c 0.18178,-0.4194 0.63107,-1.37019 0.91996,-1.94677 0.22404,-0.44718 0.4026,-0.86036 0.3892,-0.90058 -0.0472,-0.14162 -1.21321,1.97121 -2.9611,5.36556 -0.60878,1.18222 -0.95859,1.89971 -1.11668,2.2904 l -0.11085,0.27394 0.80626,1.61242 c 0.80217,1.60422 1.16002,2.35411 1.34509,2.81862 l 0.0969,0.24352 -0.0577,0.15977 c -0.0864,0.23928 -0.30422,0.72578 -0.69453,1.55178 -0.34313,0.72613 -0.55318,1.19711 -0.59182,1.32696 -0.0369,0.12395 0.0507,7.8e-4 0.283,-0.39779 z"
       id="path2564" /></g></svg>
