<?xml version="1.0" encoding="UTF-8" standalone="no"?>
<svg
   width="160"
   height="100"
   viewBox="0 0 42.333331 26.458334"
   version="1.1"
   id="svg8"
   inkscape:export-filename="h100 svg\datainmo_100.svg"
   inkscape:export-xdpi="96"
   inkscape:export-ydpi="96"
   inkscape:version="1.2.2 (732a01da63, 2022-12-09)"
   sodipodi:docname="Logos.svg"
   shape-rendering="crispEdges"
   xml:space="preserve"
   xmlns:inkscape="http://www.inkscape.org/namespaces/inkscape"
   xmlns:sodipodi="http://sodipodi.sourceforge.net/DTD/sodipodi-0.dtd"
   xmlns="http://www.w3.org/2000/svg"
   xmlns:svg="http://www.w3.org/2000/svg"
   xmlns:rdf="http://www.w3.org/1999/02/22-rdf-syntax-ns#"
   xmlns:cc="http://creativecommons.org/ns#"
   xmlns:dc="http://purl.org/dc/elements/1.1/"><defs
     id="defs2" /><sodipodi:namedview
     inkscape:pagecheckerboard="true"
     id="base"
     pagecolor="#ffffff"
     bordercolor="#666666"
     borderopacity="1.0"
     inkscape:pageopacity="0.0"
     inkscape:pageshadow="2"
     inkscape:zoom="1.4"
     inkscape:cx="2356.4285"
     inkscape:cy="-3771.4285"
     inkscape:document-units="mm"
     inkscape:current-layer="layer1"
     showgrid="false"
     units="px"
     inkscape:window-width="1920"
     inkscape:window-height="1017"
     inkscape:window-x="-8"
     inkscape:window-y="-8"
     inkscape:window-maximized="1"
     inkscape:document-rotation="0"
     inkscape:showpageshadow="0"
     inkscape:deskcolor="#d1d1d1" /><metadata
     id="metadata5"><rdf:RDF><cc:Work
         rdf:about=""><dc:format>image/svg+xml</dc:format><dc:type
           rdf:resource="http://purl.org/dc/dcmitype/StillImage" /></cc:Work></rdf:RDF></metadata><g
     inkscape:label="Layer 1"
     inkscape:groupmode="layer"
     id="layer1"
     transform="translate(0,-11.249983)"><path
       style="fill:#191c1f;fill-opacity:1;stroke-width:0.0412462"
       d="m 18.361906,37.685496 c -0.662063,-0.0726 -0.689048,-0.102 -1.869389,-2.0337 -1.987219,-3.25196 -4.444373,-7.65971 -5.306944,-9.51974 -0.383862,-0.82777 -0.536739,-1.26816 -0.536739,-1.54625 0,-0.66702 1.096248,-2.90963 3.578202,-7.32 1.471157,-2.6142 3.225022,-5.56522 3.449007,-5.8033 0.143539,-0.15246 3.485653,-0.27225 5.039686,-0.18072 1.356003,0.0798 1.689204,0.15015 1.943158,0.4094 0.767094,0.78323 4.950794,8.17457 6.482289,11.45225 0.433201,0.92709 0.543324,1.21157 0.543324,1.40363 0,0.22331 -0.251046,0.79967 -0.969617,2.22605 -2.035819,4.04126 -5.339226,9.80176 -6.067196,10.58002 -0.334816,0.35794 -0.212354,0.34488 -3.316053,0.35394 -1.485895,0.005 -2.822267,-0.005 -2.969728,-0.0215 z m 0.676678,-1.49948 c 0.73094,-1.25425 1.87385,-3.36849 3.148514,-5.82447 0.811786,-1.56407 2.897959,-5.74302 2.898036,-5.80528 3.23e-4,-0.14661 -0.492816,-1.17692 -1.984496,-4.14684 l -1.642496,-3.2702 0.263047,-0.60694 c 0.28817,-0.66486 1.000417,-2.17211 1.458372,-3.08613 0.35517,-0.70889 0.638232,-1.3639 0.616986,-1.42765 -0.07477,-0.22451 -1.92325,3.12487 -4.694102,8.50579 -0.965078,1.87411 -1.519618,3.01151 -1.770218,3.63086 l -0.175739,0.43427 1.278141,2.55609 c 1.271633,2.5431 1.838926,3.73187 2.132312,4.46824 l 0.153538,0.38603 -0.09138,0.25328 c -0.136924,0.37933 -0.482263,1.15056 -1.101003,2.45998 -0.543954,1.15109 -0.87694,1.89772 -0.938186,2.10357 -0.05846,0.19649 0.08031,10e-4 0.448616,-0.6306 z"
       id="path2564"
       inkscape:export-filename="svg's\Renault-sofasa.svg"
       inkscape:export-xdpi="96"
       inkscape:export-ydpi="96" /></g></svg>
